<svg width="175" height="68" viewBox="0 0 175 68" fill="none" xmlns="http://www.w3.org/2000/svg">
<g clip-path="url(#clip0_748_431)" filter="url(#filter0_d_748_431)">
<path d="M24.2492 59.2373H22.3477L21.8535 57.6366H19.4257L18.9208 59.2373H17.0623L19.5546 52.1471H21.7676L24.2492 59.2373ZM19.7694 56.3797H21.5098L20.6396 53.5114L19.7694 56.3797ZM30.1443 52.4264L30.2947 53.6511C30.2518 53.6367 30.2088 53.6296 30.1658 53.6296C30.1229 53.6224 30.0799 53.6188 30.0369 53.6188C29.7218 53.6188 29.4855 53.6976 29.3279 53.8552C29.1775 54.0056 29.1023 54.1954 29.1023 54.4245L28.4577 54.1882C28.4577 53.8946 28.5114 53.6117 28.6189 53.3395C28.7263 53.0674 28.891 52.8454 29.113 52.6735C29.3422 52.5016 29.6287 52.4157 29.9725 52.4157C29.9939 52.4157 30.019 52.4157 30.0477 52.4157C30.0835 52.4157 30.1157 52.4192 30.1443 52.4264ZM28.2966 58.0449C28.9197 58.0449 29.3959 58.1774 29.7254 58.4423C30.062 58.7002 30.2303 59.0726 30.2303 59.5596C30.2303 60.0036 30.1085 60.3725 29.865 60.6661C29.6215 60.9597 29.2778 61.1782 28.8337 61.3214C28.3969 61.4718 27.8776 61.547 27.276 61.547C26.302 61.547 25.6002 61.4252 25.1704 61.1817C24.7407 60.9382 24.5259 60.6088 24.5259 60.1934C24.5259 59.8926 24.6476 59.6491 24.8911 59.4629C25.1346 59.2767 25.5393 59.1764 26.1051 59.1621L26.0621 59.334C25.6252 59.2767 25.2994 59.1478 25.0845 58.9473C24.8697 58.7467 24.7622 58.4746 24.7622 58.1308C24.7622 57.787 24.8983 57.5077 25.1704 57.2929C25.4426 57.078 25.8043 56.9598 26.2555 56.9384L26.9215 57.2499H26.7496C26.4703 57.2642 26.2734 57.3108 26.1588 57.3895C26.0442 57.4683 25.9869 57.565 25.9869 57.6796C25.9869 57.8014 26.037 57.8945 26.1373 57.9589C26.2376 58.0162 26.388 58.0449 26.5885 58.0449H28.2966ZM27.2868 60.3653C27.6305 60.3653 27.9134 60.3402 28.1355 60.2901C28.3646 60.2471 28.5365 60.1827 28.6511 60.0967C28.7657 60.0179 28.823 59.9248 28.823 59.8174C28.823 59.71 28.7836 59.624 28.7048 59.5596C28.626 59.5023 28.4828 59.4736 28.2751 59.4736H26.3522C26.2161 59.4736 26.1051 59.5095 26.0191 59.5811C25.9403 59.6527 25.901 59.7422 25.901 59.8496C25.901 60.0144 26.0227 60.1397 26.2662 60.2256C26.5097 60.3187 26.8499 60.3653 27.2868 60.3653ZM27.3512 53.7585C27.8955 53.7585 28.3611 53.8301 28.7478 53.9734C29.1345 54.1166 29.4282 54.3243 29.6287 54.5964C29.8364 54.8614 29.9402 55.1909 29.9402 55.5848C29.9402 55.9715 29.8364 56.3009 29.6287 56.5731C29.4282 56.8452 29.1345 57.0529 28.7478 57.1962C28.3611 57.3323 27.8955 57.4003 27.3512 57.4003C26.499 57.4003 25.8508 57.2427 25.4068 56.9276C24.9699 56.6125 24.7515 56.1649 24.7515 55.5848C24.7515 55.1909 24.8517 54.8614 25.0523 54.5964C25.26 54.3243 25.5572 54.1166 25.9439 53.9734C26.3307 53.8301 26.7998 53.7585 27.3512 53.7585ZM27.3512 54.8005C27.1149 54.8005 26.9215 54.8686 26.7711 55.0047C26.6279 55.1407 26.5563 55.3341 26.5563 55.5848C26.5563 55.8283 26.6279 56.0181 26.7711 56.1541C26.9215 56.2902 27.1149 56.3582 27.3512 56.3582C27.5804 56.3582 27.7702 56.2902 27.9206 56.1541C28.071 56.0181 28.1462 55.8283 28.1462 55.5848C28.1462 55.3341 28.071 55.1407 27.9206 55.0047C27.7702 54.8686 27.5804 54.8005 27.3512 54.8005ZM33.5774 59.3447C32.983 59.3447 32.4673 59.2337 32.0305 59.0117C31.6007 58.7897 31.2677 58.471 31.0314 58.0556C30.795 57.6402 30.6769 57.1389 30.6769 56.5516C30.6769 55.9643 30.795 55.463 31.0314 55.0476C31.2677 54.6322 31.5972 54.3135 32.0197 54.0915C32.4494 53.8695 32.94 53.7585 33.4915 53.7585C34.0573 53.7585 34.5371 53.8695 34.931 54.0915C35.3321 54.3064 35.6364 54.6072 35.8441 54.9939C36.0518 55.3735 36.1557 55.8104 36.1557 56.3045C36.1557 56.4334 36.1521 56.5624 36.1449 56.6913C36.1378 56.8202 36.127 56.9276 36.1127 57.0136H31.8586V56.036H35.307L34.4368 56.369C34.4368 55.9393 34.3581 55.6098 34.2005 55.3807C34.0501 55.1515 33.8138 55.0369 33.4915 55.0369C33.2623 55.0369 33.0653 55.0906 32.9006 55.198C32.7431 55.3055 32.6213 55.4738 32.5354 55.7029C32.4566 55.9321 32.4172 56.2258 32.4172 56.5838C32.4172 56.9348 32.4637 57.2212 32.5569 57.4433C32.65 57.6581 32.7825 57.8157 32.9543 57.9159C33.1262 58.009 33.3339 58.0556 33.5774 58.0556C33.8496 58.0556 34.0644 58.0019 34.222 57.8945C34.3867 57.787 34.5085 57.6366 34.5872 57.4433L36.0483 57.9267C35.948 58.2346 35.7725 58.4961 35.5219 58.7109C35.2784 58.9186 34.9847 59.0762 34.6409 59.1836C34.3043 59.291 33.9498 59.3447 33.5774 59.3447ZM37.1773 59.2373V53.8659H38.8102L38.9069 55.7137L38.7028 55.5096C38.7744 55.1228 38.8998 54.8005 39.0788 54.5427C39.265 54.2849 39.4942 54.0915 39.7663 53.9626C40.0456 53.8265 40.3572 53.7585 40.701 53.7585C41.0734 53.7585 41.3957 53.8301 41.6678 53.9734C41.9471 54.1166 42.1656 54.3279 42.3231 54.6072C42.4807 54.8865 42.5595 55.2374 42.5595 55.66V59.2373H40.7332V56.1434C40.7332 55.771 40.6616 55.5131 40.5183 55.3699C40.3751 55.2267 40.1925 55.1551 39.9704 55.1551C39.7986 55.1551 39.6374 55.198 39.487 55.284C39.3366 55.3627 39.2185 55.4917 39.1325 55.6707C39.0466 55.8498 39.0036 56.0897 39.0036 56.3905V59.2373H37.1773ZM46.3851 53.7585C46.9294 53.7585 47.3806 53.8373 47.7387 53.9948C48.104 54.1452 48.3869 54.3493 48.5874 54.6072C48.7951 54.8578 48.924 55.13 48.9741 55.4236L47.2875 55.9822C47.2374 55.6743 47.1443 55.4451 47.0082 55.2947C46.8793 55.1372 46.6895 55.0584 46.4388 55.0584C46.2097 55.0584 46.0163 55.1121 45.8587 55.2195C45.7083 55.3198 45.5938 55.4845 45.515 55.7137C45.4362 55.9357 45.3968 56.2222 45.3968 56.5731C45.3968 56.924 45.4398 57.2105 45.5257 57.4325C45.6117 57.6474 45.7334 57.8049 45.891 57.9052C46.0485 57.9983 46.2347 58.0449 46.4496 58.0449C46.6286 58.0449 46.7755 58.0126 46.89 57.9482C47.0118 57.8766 47.1121 57.7763 47.1908 57.6474C47.2696 57.5185 47.3198 57.3609 47.3412 57.1747L48.9849 57.7011C48.9348 58.0162 48.7987 58.2991 48.5767 58.5498C48.3618 58.7933 48.0753 58.9866 47.7172 59.1299C47.3591 59.2731 46.9402 59.3447 46.4603 59.3447C45.8731 59.3447 45.361 59.2373 44.9241 59.0224C44.4872 58.8004 44.1506 58.4817 43.9143 58.0663C43.678 57.6438 43.5598 57.1389 43.5598 56.5516C43.5598 55.9643 43.678 55.463 43.9143 55.0476C44.1506 54.6251 44.4801 54.3064 44.9026 54.0915C45.3323 53.8695 45.8265 53.7585 46.3851 53.7585ZM50.8475 53.2428C50.4751 53.2428 50.2029 53.1748 50.031 53.0387C49.8663 52.8955 49.784 52.6735 49.784 52.3727C49.784 52.0647 49.8663 51.8427 50.031 51.7066C50.2029 51.5634 50.4751 51.4918 50.8475 51.4918C51.2127 51.4918 51.4813 51.5634 51.6532 51.7066C51.8251 51.8427 51.911 52.0647 51.911 52.3727C51.911 52.6735 51.8251 52.8955 51.6532 53.0387C51.4813 53.1748 51.2127 53.2428 50.8475 53.2428ZM51.7606 53.8659V59.2373H49.9344V53.8659H51.7606ZM56.0579 55.8318C56.0579 55.5812 55.9863 55.3842 55.843 55.241C55.707 55.0906 55.5208 55.0154 55.2844 55.0154C55.0481 55.0154 54.844 55.0763 54.6721 55.198C54.5074 55.3126 54.3928 55.5203 54.3283 55.8211L52.7814 55.4559C52.8816 54.9402 53.1466 54.5284 53.5763 54.2204C54.006 53.9125 54.6112 53.7585 55.3919 53.7585C55.9147 53.7585 56.3587 53.8373 56.724 53.9948C57.0964 54.1452 57.3793 54.3744 57.5726 54.6824C57.7732 54.9832 57.8734 55.3556 57.8734 55.7996V57.7655C57.8734 58.0449 57.9988 58.1845 58.2494 58.1845C58.3783 58.1845 58.4822 58.1702 58.561 58.1415L58.4535 59.1836C58.2387 59.2839 57.9773 59.334 57.6693 59.334C57.39 59.334 57.1429 59.291 56.9281 59.2051C56.7132 59.112 56.5449 58.9759 56.4232 58.7969C56.3014 58.6106 56.2405 58.3779 56.2405 58.0986V58.0341L56.4446 57.9589C56.4446 58.2669 56.3515 58.5247 56.1653 58.7324C55.9863 58.9401 55.7499 59.0941 55.4563 59.1943C55.1698 59.2946 54.869 59.3447 54.5539 59.3447C54.1887 59.3447 53.87 59.2874 53.5978 59.1728C53.3257 59.0583 53.1144 58.8935 52.964 58.6787C52.8208 58.4567 52.7491 58.1845 52.7491 57.8622C52.7491 57.4755 52.8637 57.1568 53.0929 56.9061C53.3292 56.6483 53.6981 56.4693 54.1994 56.369L56.2298 55.95L56.219 56.9169L55.1877 57.1317C54.9729 57.1747 54.8117 57.2392 54.7043 57.3251C54.6041 57.4039 54.5539 57.5256 54.5539 57.6903C54.5539 57.8479 54.6112 57.9661 54.7258 58.0449C54.8404 58.1236 54.9765 58.163 55.134 58.163C55.2558 58.163 55.3704 58.1451 55.4778 58.1093C55.5924 58.0735 55.6927 58.0198 55.7786 57.9482C55.8645 57.8694 55.9326 57.7727 55.9827 57.6581C56.0328 57.5435 56.0579 57.4075 56.0579 57.2499V55.8318ZM65.2692 52.1471C65.7491 52.1471 66.1645 52.2366 66.5154 52.4157C66.8735 52.5875 67.1528 52.8346 67.3533 53.1569C67.5539 53.4792 67.6541 53.8623 67.6541 54.3064C67.6541 54.7504 67.5539 55.1336 67.3533 55.4559C67.1528 55.7781 66.8735 56.0288 66.5154 56.2078C66.1645 56.3797 65.7491 56.4657 65.2692 56.4657H63.6256V59.2373H62.7662V52.1471H65.2692ZM65.1403 55.66C65.6989 55.66 66.1072 55.5454 66.365 55.3162C66.6228 55.0799 66.7517 54.7432 66.7517 54.3064C66.7517 53.8623 66.6228 53.5257 66.365 53.2966C66.1072 53.0674 65.6989 52.9528 65.1403 52.9528H63.6256V55.66H65.1403ZM71.1063 59.3447C70.7626 59.3447 70.4367 59.2803 70.1287 59.1514C69.8279 59.0224 69.5809 58.8148 69.3875 58.5283C69.2013 58.2346 69.1082 57.8551 69.1082 57.3895V53.8659H69.9676V57.164C69.9676 57.7083 70.0858 58.0842 70.3221 58.2919C70.5585 58.4925 70.8915 58.5927 71.3212 58.5927C71.5933 58.5927 71.8512 58.5319 72.0947 58.4101C72.3382 58.2812 72.5387 58.0842 72.6963 57.8193C72.8538 57.5543 72.9326 57.2105 72.9326 56.788V53.8659H73.792V59.2373H73.04L72.9863 58.4209C72.8001 58.7431 72.5459 58.9795 72.2236 59.1299C71.9085 59.2731 71.536 59.3447 71.1063 59.3447ZM71.7402 51.2877H72.6748L71.622 53.0817H70.9237L71.7402 51.2877ZM78.4242 59.3447C78.0159 59.3447 77.6507 59.248 77.3284 59.0547C77.0061 58.8613 76.7626 58.6071 76.5979 58.2919L76.5442 59.2373H75.7922V51.3951H76.6516V54.7039C76.8235 54.4245 77.0634 54.1989 77.3714 54.0271C77.6865 53.848 78.041 53.7585 78.4349 53.7585C78.8789 53.7585 79.2872 53.8695 79.6596 54.0915C80.032 54.3135 80.3292 54.6322 80.5512 55.0476C80.7733 55.463 80.8843 55.9643 80.8843 56.5516C80.8843 57.1317 80.7697 57.6331 80.5405 58.0556C80.3185 58.471 80.0213 58.7897 79.6488 59.0117C79.2764 59.2337 78.8682 59.3447 78.4242 59.3447ZM78.3382 58.5927C78.8682 58.5927 79.28 58.4065 79.5736 58.0341C79.8744 57.6617 80.0248 57.1675 80.0248 56.5516C80.0248 55.9357 79.878 55.4415 79.5844 55.0691C79.2908 54.6967 78.8789 54.5105 78.349 54.5105C77.8476 54.5105 77.4394 54.7003 77.1243 55.0799C76.8092 55.4594 76.6516 55.9572 76.6516 56.5731C76.6516 57.189 76.8056 57.6796 77.1136 58.0449C77.4287 58.4101 77.8369 58.5927 78.3382 58.5927ZM83.3438 51.3951V57.873C83.3438 58.1451 83.394 58.3349 83.4942 58.4423C83.5945 58.5426 83.7557 58.5927 83.9777 58.5927C84.1209 58.5927 84.2391 58.582 84.3322 58.5605C84.4253 58.539 84.5506 58.4996 84.7082 58.4423L84.5685 59.1943C84.3322 59.2946 84.0672 59.3447 83.7736 59.3447C82.9141 59.3447 82.4844 58.8649 82.4844 57.9052V51.3951H83.3438ZM86.2408 52.8346C86.0474 52.8346 85.8899 52.7773 85.7681 52.6627C85.6535 52.541 85.5962 52.3834 85.5962 52.1901C85.5962 51.9967 85.6535 51.8427 85.7681 51.7281C85.8899 51.6064 86.0474 51.5455 86.2408 51.5455C86.4342 51.5455 86.5881 51.6064 86.7027 51.7281C86.8245 51.8427 86.8853 51.9967 86.8853 52.1901C86.8853 52.3834 86.8245 52.541 86.7027 52.6627C86.5881 52.7773 86.4342 52.8346 86.2408 52.8346ZM86.6705 53.8659V59.2373H85.8111V53.8659H86.6705ZM90.8884 53.7585C91.4398 53.7585 91.8982 53.8874 92.2634 54.1452C92.6287 54.3959 92.9116 54.7432 93.1121 55.1873L92.2957 55.574C92.1811 55.2303 92.0056 54.9688 91.7693 54.7898C91.5401 54.6036 91.2393 54.5105 90.8669 54.5105C90.3297 54.5105 89.9072 54.6931 89.5992 55.0584C89.2984 55.4165 89.148 55.9142 89.148 56.5516C89.148 57.189 89.2984 57.6903 89.5992 58.0556C89.9072 58.4137 90.3297 58.5927 90.8669 58.5927C91.2894 58.5927 91.626 58.4961 91.8767 58.3027C92.1274 58.1093 92.2921 57.8372 92.3709 57.4862L93.1658 57.7655C92.9868 58.2597 92.7039 58.6465 92.3172 58.9258C91.9376 59.2051 91.4613 59.3447 90.8884 59.3447C90.387 59.3447 89.9394 59.2337 89.5455 59.0117C89.1516 58.7897 88.8437 58.471 88.6216 58.0556C88.3996 57.6331 88.2886 57.1317 88.2886 56.5516C88.2886 55.9715 88.3996 55.4738 88.6216 55.0584C88.8437 54.6358 89.1516 54.3135 89.5455 54.0915C89.9394 53.8695 90.387 53.7585 90.8884 53.7585ZM97.8128 55.7674C97.8128 55.3663 97.7054 55.0584 97.4906 54.8435C97.2757 54.6215 96.9713 54.5105 96.5774 54.5105C96.205 54.5105 95.8899 54.5929 95.6321 54.7576C95.3742 54.9151 95.1844 55.173 95.0627 55.5311L94.3644 55.1013C94.5076 54.7003 94.7726 54.378 95.1594 54.1345C95.5461 53.8838 96.026 53.7585 96.5989 53.7585C96.9856 53.7585 97.3366 53.8265 97.6517 53.9626C97.9668 54.0915 98.2139 54.2921 98.3929 54.5642C98.5792 54.8292 98.6723 55.173 98.6723 55.5955V58.1953C98.6723 58.4531 98.8083 58.582 99.0805 58.582C99.2166 58.582 99.3491 58.5641 99.478 58.5283L99.435 59.2051C99.2918 59.2767 99.1055 59.3125 98.8764 59.3125C98.6114 59.3125 98.3822 59.248 98.1888 59.1191C98.0026 58.9902 97.8809 58.7933 97.8236 58.5283C97.6374 58.8076 97.3831 59.0153 97.0608 59.1514C96.7386 59.2803 96.4199 59.3447 96.1047 59.3447C95.7896 59.3447 95.496 59.291 95.2238 59.1836C94.9517 59.0762 94.7332 58.915 94.5685 58.7002C94.411 58.4781 94.3322 58.206 94.3322 57.8837C94.3322 57.4827 94.4647 57.1532 94.7297 56.8954C95.0018 56.6304 95.3778 56.4513 95.8577 56.3582L97.8128 55.9715V55.7674ZM95.2131 57.8407C95.2131 58.0628 95.299 58.2454 95.4709 58.3886C95.65 58.5247 95.9006 58.5927 96.2229 58.5927C96.5022 58.5927 96.76 58.5462 96.9964 58.4531C97.2399 58.3528 97.4368 58.206 97.5872 58.0126C97.7376 57.8121 97.8128 57.5579 97.8128 57.2499V56.6805L96.2551 57.0028C95.9042 57.0744 95.6428 57.1747 95.4709 57.3036C95.299 57.4325 95.2131 57.6116 95.2131 57.8407ZM106.265 59.3447C105.821 59.3447 105.413 59.2337 105.04 59.0117C104.668 58.7897 104.371 58.471 104.149 58.0556C103.927 57.6331 103.816 57.1317 103.816 56.5516C103.816 55.9572 103.934 55.4523 104.17 55.0369C104.407 54.6215 104.718 54.3064 105.105 54.0915C105.492 53.8695 105.907 53.7585 106.351 53.7585C106.738 53.7585 107.082 53.848 107.382 54.0271C107.683 54.1989 107.905 54.4353 108.048 54.7361V51.3951H108.908V59.2373H108.156L108.102 58.2275C107.952 58.5927 107.708 58.8721 107.372 59.0654C107.035 59.2516 106.666 59.3447 106.265 59.3447ZM106.351 58.5927C106.86 58.5927 107.268 58.403 107.576 58.0234C107.891 57.6438 108.048 57.1281 108.048 56.4764C108.048 55.8605 107.894 55.3807 107.586 55.0369C107.279 54.686 106.881 54.5105 106.394 54.5105C105.85 54.5105 105.427 54.6967 105.126 55.0691C104.826 55.4415 104.675 55.9357 104.675 56.5516C104.675 57.1675 104.822 57.6617 105.116 58.0341C105.409 58.4065 105.821 58.5927 106.351 58.5927ZM113.151 59.3447C112.642 59.3447 112.187 59.2337 111.786 59.0117C111.392 58.7897 111.085 58.471 110.863 58.0556C110.641 57.6331 110.529 57.1317 110.529 56.5516C110.529 55.9715 110.641 55.4738 110.863 55.0584C111.085 54.6358 111.389 54.3135 111.776 54.0915C112.162 53.8695 112.603 53.7585 113.097 53.7585C113.598 53.7585 114.024 53.8659 114.375 54.0808C114.733 54.2956 115.006 54.5893 115.192 54.9617C115.378 55.3269 115.471 55.7387 115.471 56.1971C115.471 56.3189 115.468 56.4299 115.46 56.5301C115.453 56.6304 115.443 56.7199 115.428 56.7987H111.378C111.421 57.3645 111.597 57.8049 111.905 58.1201C112.213 58.4352 112.621 58.5927 113.129 58.5927C113.523 58.5927 113.842 58.5175 114.085 58.3671C114.336 58.2167 114.537 58.0126 114.687 57.7548L115.364 58.1523C115.163 58.5175 114.873 58.8076 114.494 59.0224C114.121 59.2373 113.674 59.3447 113.151 59.3447ZM113.076 54.5105C112.624 54.5105 112.252 54.6466 111.958 54.9187C111.672 55.1837 111.489 55.5561 111.41 56.036H114.612C114.59 55.549 114.44 55.173 114.161 54.908C113.881 54.643 113.52 54.5105 113.076 54.5105ZM119.965 59.2373V52.1471H125.486V53.5759H121.812V55.0154H124.734V56.3582H121.812V57.8085H125.626V59.2373H119.965ZM126.613 59.2373V53.8659H128.246L128.3 54.908C128.471 54.5284 128.711 54.2419 129.019 54.0486C129.334 53.8552 129.696 53.7585 130.104 53.7585C130.505 53.7585 130.853 53.848 131.146 54.0271C131.44 54.2061 131.658 54.4711 131.802 54.822C131.916 54.5857 132.063 54.3887 132.242 54.2312C132.428 54.0736 132.64 53.9554 132.876 53.8767C133.112 53.7979 133.356 53.7585 133.606 53.7585C133.965 53.7585 134.28 53.8301 134.552 53.9734C134.824 54.1094 135.039 54.3207 135.196 54.6072C135.361 54.8865 135.443 55.2374 135.443 55.66V59.2373H133.617V56.0789C133.617 55.7352 133.549 55.4952 133.413 55.3592C133.284 55.2231 133.109 55.1551 132.887 55.1551C132.708 55.1551 132.543 55.2016 132.393 55.2947C132.249 55.3807 132.138 55.5131 132.059 55.6922C131.981 55.8712 131.941 56.0968 131.941 56.369V59.2373H130.115V56.0789C130.115 55.7352 130.047 55.4952 129.911 55.3592C129.775 55.2231 129.599 55.1551 129.385 55.1551C129.22 55.1551 129.062 55.198 128.912 55.284C128.769 55.3699 128.654 55.506 128.568 55.6922C128.482 55.8712 128.439 56.1076 128.439 56.4012V59.2373H126.613ZM136.726 61.4933V53.8659H138.37L138.467 55.8104L138.252 55.5848C138.302 55.2267 138.413 54.9116 138.585 54.6394C138.757 54.3673 138.979 54.1524 139.251 53.9948C139.523 53.8373 139.834 53.7585 140.185 53.7585C140.629 53.7585 141.016 53.8695 141.346 54.0915C141.675 54.3064 141.929 54.6215 142.108 55.0369C142.295 55.4451 142.388 55.9429 142.388 56.5301C142.388 57.1174 142.295 57.6223 142.108 58.0449C141.922 58.4674 141.661 58.7897 141.324 59.0117C140.995 59.2337 140.608 59.3447 140.164 59.3447C139.677 59.3447 139.283 59.2015 138.982 58.915C138.681 58.6214 138.481 58.2526 138.381 57.8085L138.553 57.5507V61.4933H136.726ZM139.541 58.0019C139.856 58.0019 140.103 57.8873 140.282 57.6581C140.461 57.4218 140.551 57.0529 140.551 56.5516C140.551 56.0503 140.461 55.685 140.282 55.4559C140.11 55.2195 139.867 55.1013 139.552 55.1013C139.351 55.1013 139.176 55.1586 139.025 55.2732C138.875 55.3807 138.757 55.5418 138.671 55.7566C138.592 55.9715 138.553 56.2365 138.553 56.5516C138.553 56.8524 138.588 57.1138 138.66 57.3358C138.739 57.5507 138.853 57.7154 139.004 57.83C139.154 57.9446 139.333 58.0019 139.541 58.0019ZM145.266 51.5885V57.411C145.266 57.6474 145.306 57.8157 145.384 57.9159C145.463 58.0162 145.596 58.0663 145.782 58.0663C145.889 58.0663 145.979 58.0592 146.05 58.0449C146.122 58.0305 146.208 58.009 146.308 57.9804L146.19 59.0762C146.061 59.1549 145.893 59.2194 145.685 59.2695C145.477 59.3197 145.273 59.3447 145.073 59.3447C144.5 59.3447 144.085 59.2122 143.827 58.9473C143.569 58.6823 143.44 58.249 143.44 57.6474V51.5885H145.266ZM149.597 59.3447C149.003 59.3447 148.487 59.2337 148.05 59.0117C147.62 58.7897 147.287 58.471 147.051 58.0556C146.815 57.6402 146.697 57.1389 146.697 56.5516C146.697 55.9643 146.815 55.463 147.051 55.0476C147.287 54.6322 147.617 54.3135 148.039 54.0915C148.469 53.8695 148.96 53.7585 149.511 53.7585C150.077 53.7585 150.557 53.8695 150.951 54.0915C151.352 54.3064 151.656 54.6072 151.864 54.9939C152.072 55.3735 152.175 55.8104 152.175 56.3045C152.175 56.4334 152.172 56.5624 152.165 56.6913C152.157 56.8202 152.147 56.9276 152.132 57.0136H147.878V56.036H151.327L150.457 56.369C150.457 55.9393 150.378 55.6098 150.22 55.3807C150.07 55.1515 149.833 55.0369 149.511 55.0369C149.282 55.0369 149.085 55.0906 148.92 55.198C148.763 55.3055 148.641 55.4738 148.555 55.7029C148.476 55.9321 148.437 56.2258 148.437 56.5838C148.437 56.9348 148.483 57.2212 148.577 57.4433C148.67 57.6581 148.802 57.8157 148.974 57.9159C149.146 58.009 149.354 58.0556 149.597 58.0556C149.869 58.0556 150.084 58.0019 150.242 57.8945C150.406 57.787 150.528 57.6366 150.607 57.4433L152.068 57.9267C151.968 58.2346 151.792 58.4961 151.542 58.7109C151.298 58.9186 151.004 59.0762 150.661 59.1836C150.324 59.291 149.97 59.3447 149.597 59.3447ZM155.754 53.7585C156.32 53.7585 156.814 53.8695 157.236 54.0915C157.666 54.3064 157.999 54.6251 158.235 55.0476C158.479 55.463 158.601 55.9643 158.601 56.5516C158.601 57.1389 158.479 57.6438 158.235 58.0663C157.999 58.4817 157.666 58.8004 157.236 59.0224C156.814 59.2373 156.32 59.3447 155.754 59.3447C155.202 59.3447 154.712 59.2373 154.282 59.0224C153.852 58.8004 153.516 58.4817 153.272 58.0663C153.036 57.6438 152.918 57.1389 152.918 56.5516C152.918 55.9643 153.036 55.463 153.272 55.0476C153.516 54.6251 153.852 54.3064 154.282 54.0915C154.712 53.8695 155.202 53.7585 155.754 53.7585ZM155.754 55.0584C155.546 55.0584 155.367 55.1085 155.217 55.2088C155.066 55.309 154.952 55.4702 154.873 55.6922C154.794 55.9142 154.755 56.2007 154.755 56.5516C154.755 56.9025 154.794 57.189 154.873 57.411C154.952 57.6259 155.066 57.787 155.217 57.8945C155.367 57.9947 155.546 58.0449 155.754 58.0449C155.969 58.0449 156.151 57.9947 156.302 57.8945C156.452 57.787 156.567 57.6259 156.645 57.411C156.724 57.189 156.764 56.9025 156.764 56.5516C156.764 56.2007 156.724 55.9142 156.645 55.6922C156.567 55.4702 156.452 55.309 156.302 55.2088C156.151 55.1085 155.969 55.0584 155.754 55.0584Z" fill="white"/>
<path d="M156.49 31.2529C147.851 31.2529 140.823 24.1895 140.895 15.5327C140.958 7.04588 147.887 0.116793 156.374 0.0541273C165.03 -0.00853877 172.094 7.01007 172.094 15.649C172.094 17.4484 170.635 18.9166 168.826 18.9166H148.03C149.346 22.3095 152.64 24.7177 156.49 24.7177C158.209 24.7177 159.847 24.2522 161.262 23.3659C162.497 22.596 164.108 22.784 165.174 23.7777C166.731 25.2369 166.499 27.7973 164.681 28.9163C162.237 30.4203 159.399 31.2439 156.49 31.2439V31.2529ZM148.03 12.3904H164.95C163.634 8.99748 160.339 6.58931 156.49 6.58931C152.64 6.58931 149.346 8.99748 148.03 12.3904Z" fill="white"/>
<path d="M86.0539 31.1988C77.4507 31.1988 70.459 24.1981 70.459 15.6039C70.459 7.00965 77.4597 0 86.0539 0C94.6481 0 101.649 7.0007 101.649 15.5949C101.649 24.1891 94.6481 31.1898 86.0539 31.1898V31.1988ZM86.0539 6.52623C81.0496 6.52623 76.9852 10.5906 76.9852 15.5949C76.9852 20.5992 81.0496 24.6636 86.0539 24.6636C91.0582 24.6636 95.1226 20.5992 95.1226 15.5949C95.1226 10.5906 91.0582 6.52623 86.0539 6.52623Z" fill="white"/>
<path d="M98.3897 31.3508C96.5902 31.3508 95.1221 29.8916 95.1221 28.0832V15.5947H101.648V28.0832C101.648 29.8826 100.189 31.3508 98.3807 31.3508H98.3897Z" fill="white"/>
<path d="M121.818 31.1988C113.214 31.1988 106.223 24.1981 106.223 15.6039C106.223 7.00965 113.214 0 121.818 0C130.421 0 137.412 7.0007 137.412 15.5949C137.412 24.1891 130.412 31.1898 121.818 31.1898V31.1988ZM121.818 6.52623C116.813 6.52623 112.749 10.5906 112.749 15.5949C112.749 20.5992 116.813 24.6636 121.818 24.6636C126.822 24.6636 130.886 20.5992 130.886 15.5949C130.886 10.5906 126.822 6.52623 121.818 6.52623Z" fill="white"/>
<path d="M109.482 47.0082C107.683 47.0082 106.215 45.549 106.215 43.7406V15.6035H112.741V43.7406C112.741 45.54 111.282 47.0082 109.473 47.0082H109.482Z" fill="white"/>
<path d="M62.6338 31.2245C60.8344 31.2245 59.3662 29.7653 59.3662 27.9569C59.3662 24.6177 56.6537 21.9051 53.3145 21.9051C49.9753 21.9051 47.2627 24.6177 47.2627 27.9569C47.2627 29.7563 45.8035 31.2245 43.9951 31.2245C42.1868 31.2245 40.7275 29.7653 40.7275 27.9569C40.7275 21.0189 46.3675 15.3789 53.3055 15.3789C60.2436 15.3789 65.8835 21.0189 65.8835 27.9569C65.8835 29.7563 64.4243 31.2245 62.6159 31.2245H62.6338Z" fill="white"/>
<path d="M53.3143 0.0527344C49.5365 0.0527344 46.4658 3.12337 46.4658 6.90125C46.4658 10.6791 49.5365 13.7498 53.3143 13.7498C57.0922 13.7498 60.1628 10.6791 60.1628 6.90125C60.1628 3.12337 57.0922 0.0527344 53.3143 0.0527344Z" fill="white"/>
<path d="M43.96 31.2606C42.1606 31.2606 40.6924 29.8014 40.6924 27.993C40.6924 24.6538 37.9799 21.9413 34.6406 21.9413C31.3014 21.9413 28.5889 24.6538 28.5889 27.993C28.5889 29.7924 27.1297 31.2606 25.3213 31.2606C23.5129 31.2606 22.0537 29.8014 22.0537 27.993C22.0537 21.055 27.6937 15.415 34.6317 15.415C41.5697 15.415 47.2097 21.055 47.2097 27.993C47.2097 29.7924 45.7505 31.2606 43.9421 31.2606H43.96Z" fill="white"/>
<path d="M34.6483 0.0527344C30.8704 0.0527344 27.7998 3.12337 27.7998 6.90125C27.7998 10.6791 30.8704 13.7498 34.6483 13.7498C38.4262 13.7498 41.4968 10.6791 41.4968 6.90125C41.4968 3.12337 38.4262 0.0527344 34.6483 0.0527344Z" fill="white"/>
<path d="M25.294 31.3055C23.4946 31.3055 22.0264 29.8463 22.0264 28.0379C22.0264 24.6987 19.3138 21.9862 15.9746 21.9862C12.6354 21.9862 9.92288 24.6987 9.92288 28.0379C9.92288 29.8374 8.46365 31.3055 6.65529 31.3055C4.84692 31.3055 3.3877 29.8463 3.3877 28.0379C3.3877 21.0999 9.02765 15.46 15.9657 15.46C22.9037 15.46 28.5437 21.0999 28.5437 28.0379C28.5437 29.8374 27.0844 31.3055 25.2761 31.3055H25.294Z" fill="white"/>
<path d="M15.9745 0.0527344C12.1966 0.0527344 9.12598 3.12337 9.12598 6.90125C9.12598 10.6791 12.1966 13.7498 15.9745 13.7498C19.7524 13.7498 22.823 10.6791 22.823 6.90125C22.823 3.12337 19.7524 0.0527344 15.9745 0.0527344Z" fill="white"/>
</g>
<defs>
<filter id="filter0_d_748_431" x="0.519277" y="0" width="174.675" height="69.7544" filterUnits="userSpaceOnUse" color-interpolation-filters="sRGB">
<feFlood flood-opacity="0" result="BackgroundImageFix"/>
<feColorMatrix in="SourceAlpha" type="matrix" values="0 0 0 0 0 0 0 0 0 0 0 0 0 0 0 0 0 0 127 0" result="hardAlpha"/>
<feOffset dy="2.87721"/>
<feGaussianBlur stdDeviation="1.4386"/>
<feComposite in2="hardAlpha" operator="out"/>
<feColorMatrix type="matrix" values="0 0 0 0 0 0 0 0 0 0 0 0 0 0 0 0 0 0 0.62 0"/>
<feBlend mode="normal" in2="BackgroundImageFix" result="effect1_dropShadow_748_431"/>
<feBlend mode="normal" in="SourceGraphic" in2="effect1_dropShadow_748_431" result="shape"/>
</filter>
<clipPath id="clip0_748_431">
<rect width="168.921" height="64" fill="white" transform="translate(3.39648)"/>
</clipPath>
</defs>
</svg>
