<svg width="26" height="26" viewBox="0 0 26 26" fill="none" xmlns="http://www.w3.org/2000/svg">
<rect width="26" height="26" rx="13" fill="white"/>
<path d="M19.1016 12.0822H9.0659L13.4503 7.57991C13.8007 7.22009 13.8007 6.62962 13.4503 6.26981C13.3672 6.18428 13.2685 6.11643 13.1598 6.07013C13.0511 6.02383 12.9346 6 12.8169 6C12.6992 6 12.5827 6.02383 12.474 6.07013C12.3654 6.11643 12.2666 6.18428 12.1835 6.26981L6.26275 12.3498C6.17946 12.4351 6.11338 12.5365 6.06829 12.6481C6.02321 12.7597 6 12.8794 6 13.0002C6 13.121 6.02321 13.2407 6.06829 13.3523C6.11338 13.4639 6.17946 13.5653 6.26275 13.6506L12.1835 19.7306C12.2667 19.816 12.3654 19.8838 12.4741 19.93C12.5828 19.9762 12.6993 20 12.8169 20C12.9346 20 13.051 19.9762 13.1597 19.93C13.2684 19.8838 13.3671 19.816 13.4503 19.7306C13.5335 19.6452 13.5995 19.5438 13.6445 19.4322C13.6895 19.3206 13.7127 19.2009 13.7127 19.0801C13.7127 18.9593 13.6895 18.8397 13.6445 18.7281C13.5995 18.6165 13.5335 18.5151 13.4503 18.4297L9.0659 13.9274H19.1016C19.5957 13.9274 20 13.5122 20 13.0048C20 12.4974 19.5957 12.0822 19.1016 12.0822Z" fill="#005DCA"/>
</svg>
