<svg width="24" height="24" viewBox="0 0 24 24" fill="none" xmlns="http://www.w3.org/2000/svg">
<rect width="23.3354" height="23.3235" rx="11.6617" fill="white"/>
<path d="M8.90179 6.66614C8.6142 6.6991 8.42081 6.91849 8.40085 7.18943C8.3603 7.74928 8.41956 8.37267 8.41769 8.93553C8.58426 9.50677 9.43767 9.46062 9.53436 8.87319C9.50629 8.32352 9.58302 7.72051 9.53811 7.17684C9.51315 6.87413 9.21932 6.62957 8.90179 6.66554V6.66614ZM14.2718 6.66614C13.9961 6.7003 13.7927 6.9131 13.7709 7.17744C13.7278 7.69953 13.8045 8.27557 13.7709 8.80306C13.8332 9.50737 14.8532 9.51516 14.9081 8.82763C14.9524 8.27137 14.8875 7.64199 14.8913 7.08153C14.8214 6.82498 14.5507 6.63137 14.2718 6.66554V6.66614ZM15.2693 7.66117V8.93852C15.2693 9.13633 15.0129 9.42225 14.842 9.52056C14.2755 9.84604 13.449 9.4768 13.449 8.82703V7.64259L9.89806 7.63539C9.88496 7.64438 9.88683 7.65937 9.88558 7.67256C9.80823 8.29235 10.1289 9.14053 9.43829 9.52535C8.90491 9.82266 8.13197 9.52295 8.06585 8.91395C8.02467 8.53212 8.11513 8.05978 8.06647 7.68514C8.0646 7.67196 8.06709 7.65637 8.05399 7.64798C7.94981 7.6264 7.84314 7.6282 7.73646 7.6294C7.57988 7.6318 7.33346 7.6318 7.18873 7.67376C6.85248 7.77026 6.60107 8.04899 6.52309 8.37387C6.49003 10.8902 6.49564 13.415 6.51997 15.9313C6.61542 16.3443 6.97912 16.6278 7.41393 16.6602H15.9218C16.3592 16.6212 16.7322 16.3269 16.8177 15.9085C16.8414 13.406 16.8401 10.8968 16.8177 8.39365C16.7272 8.02082 16.4103 7.70253 16.0079 7.64618C15.8819 7.6288 15.7509 7.64498 15.6237 7.64319C15.5669 7.64259 15.2887 7.59943 15.2693 7.66117Z" fill="#005DCA"/>
<path d="M15.2702 7.6626C15.2895 7.60086 15.5677 7.64402 15.6245 7.64462C15.7518 7.64642 15.8828 7.62963 16.0088 7.64762C16.4112 7.70396 16.7281 8.02285 16.8185 8.39509C16.841 10.8983 16.8416 13.4074 16.8185 15.91C16.7331 16.3284 16.36 16.6233 15.9227 16.6616H7.41417C6.97936 16.6293 6.61566 16.3457 6.52021 15.9327C6.49588 13.4164 6.48964 10.8911 6.52333 8.37531C6.60131 8.05102 6.85272 7.7717 7.18897 7.67519C7.3337 7.63383 7.58011 7.63323 7.7367 7.63083C7.84337 7.62903 7.95005 7.62724 8.05423 7.64941C8.06796 7.65841 8.06546 7.67339 8.06671 7.68658C8.11537 8.06121 8.02491 8.53355 8.06608 8.91538C8.13221 9.52439 8.90515 9.8241 9.43853 9.52679C10.1291 9.14196 9.80847 8.29379 9.88582 7.67399C9.88769 7.6608 9.88582 7.64522 9.8983 7.63683L13.4492 7.64402V8.82847C13.4492 9.47823 14.2758 9.84747 14.8422 9.52199C15.0132 9.42369 15.2695 9.13777 15.2695 8.93996V7.6626H15.2702ZM7.36302 10.0507L7.34368 10.0693V15.7871C7.34368 15.7907 7.37612 15.844 7.38173 15.85C7.41604 15.8836 7.58635 15.8644 7.64749 15.8674C7.84213 15.8764 8.00932 15.8674 8.20208 15.868C10.7274 15.8788 13.2527 15.8788 15.7805 15.8674C15.8304 15.8674 15.8971 15.8926 15.9489 15.8566C15.9558 15.8518 15.9932 15.7913 15.9932 15.7877V10.0699L15.9739 10.0513H7.36302V10.0507Z" fill="#005DCA"/>
<path d="M8.90579 6.66612C9.22332 6.63015 9.51715 6.87471 9.5421 7.17742C9.58702 7.72109 9.51029 8.3241 9.53836 8.87377C9.44166 9.4612 8.58825 9.50735 8.42169 8.93611C8.42356 8.37266 8.36429 7.74986 8.40484 7.19001C8.42481 6.91847 8.6182 6.69908 8.90579 6.66672V6.66612Z" fill="#005DCA"/>
<path d="M14.2722 6.66651C14.5511 6.63235 14.8219 6.82596 14.8917 7.08251C14.888 7.64296 14.9529 8.27175 14.9086 8.82861C14.8543 9.51614 13.8337 9.50835 13.7713 8.80403C13.805 8.27595 13.7283 7.70051 13.7713 7.17842C13.7931 6.91407 13.9965 6.70128 14.2722 6.66711V6.66651Z" fill="#005DCA"/>
<path d="M11.2404 11.205C11.3459 11.2014 11.4357 11.2134 11.533 11.214C11.7801 11.2164 12.0346 11.1894 12.2823 11.214C12.4108 11.2266 12.5075 11.3345 12.5212 11.4556C12.5405 11.6288 12.5399 12.0382 12.5218 12.2132C12.5056 12.3721 12.3908 12.456 12.2311 12.4674C11.9161 12.4902 11.3827 12.4908 11.0683 12.4674C10.9279 12.4566 10.8087 12.3655 10.7907 12.2252C10.7726 12.085 10.7713 11.5527 10.7969 11.4244C10.8406 11.2026 11.0558 11.211 11.2404 11.2056V11.205Z" fill="#005DCA"/>
<path d="M12.44 13.487C12.4793 13.5248 12.5162 13.5967 12.5224 13.6501C12.5417 13.8131 12.543 14.2705 12.5224 14.4317C12.5093 14.533 12.4045 14.6487 12.2966 14.6613C11.9054 14.7074 11.4194 14.6259 11.0177 14.6613C10.8967 14.6397 10.805 14.5354 10.7919 14.4191C10.7738 14.2561 10.7713 13.8107 10.7919 13.6495C10.8075 13.526 10.9247 13.4151 11.0564 13.4073C11.4438 13.4331 11.8755 13.3743 12.2579 13.4073C12.3215 13.4127 12.3951 13.4439 12.44 13.4864V13.487Z" fill="#005DCA"/>
<path d="M13.4295 12.3987C13.3821 12.3615 13.3609 12.3046 13.3516 12.247C13.384 11.9899 13.3366 11.7094 13.3597 11.4546C13.3721 11.3143 13.4894 11.2076 13.6373 11.2028C13.9311 11.1939 14.2337 11.2028 14.5275 11.1999C14.7221 11.1981 15.0453 11.1801 15.0771 11.4294C15.1089 11.6788 15.0528 11.9911 15.0771 12.2488C15.0415 12.3879 14.9448 12.455 14.7995 12.4658C14.4869 12.4892 13.9498 12.4886 13.6367 12.4658C13.5562 12.4598 13.4926 12.4472 13.4295 12.3981V12.3987Z" fill="#005DCA"/>
<path d="M8.52565 11.2056C8.67226 11.1877 8.84755 11.2164 9.00039 11.2152C9.1208 11.2146 9.2412 11.2152 9.36097 11.2152C9.5893 11.2164 9.94676 11.1403 9.97483 11.4562C9.99167 11.6438 9.99604 12.055 9.97483 12.2378C9.95799 12.3811 9.83696 12.4566 9.69785 12.4674C9.32167 12.4974 8.9037 12.444 8.52316 12.4668C8.39652 12.4596 8.25116 12.3709 8.24804 12.2378C8.24804 12.2192 8.25927 12.1983 8.25927 12.1761C8.2574 11.9591 8.23058 11.6222 8.25927 11.4202C8.27737 11.2955 8.40588 11.22 8.52628 11.205L8.52565 11.2056Z" fill="#005DCA"/>
<path d="M13.5881 13.412C13.9799 13.4366 14.4403 13.3689 14.8246 13.409C14.9487 13.4216 15.0647 13.5169 15.0766 13.638C15.0953 13.8238 15.0966 14.2602 15.0766 14.4448C15.0635 14.5617 14.9587 14.651 14.8383 14.6624C14.434 14.6348 13.9836 14.6966 13.585 14.6624C13.4677 14.6522 13.3511 14.5641 13.3479 14.4436C13.3473 14.4197 13.3604 14.3963 13.3604 14.3711C13.3592 14.1553 13.3323 13.8292 13.3604 13.6272C13.376 13.5157 13.4789 13.4342 13.5881 13.412Z" fill="#005DCA"/>
<path d="M8.31776 14.5853C8.28345 14.5512 8.25226 14.4822 8.25163 14.4343C8.24726 14.2179 8.23791 13.8463 8.26161 13.6407C8.27721 13.5088 8.39387 13.4225 8.5255 13.4105C8.90666 13.3769 9.33961 13.4363 9.72639 13.4105C9.85303 13.4273 9.96345 13.513 9.97779 13.6401C9.99838 13.8163 9.99776 14.2688 9.97779 14.4463C9.96594 14.553 9.87174 14.6429 9.76506 14.6639C9.3552 14.6345 8.88857 14.7022 8.48619 14.6639C8.43254 14.6591 8.35394 14.6219 8.31713 14.5847L8.31776 14.5853Z" fill="#005DCA"/>
</svg>
