<svg width="30" height="31" viewBox="0 0 30 31" fill="none" xmlns="http://www.w3.org/2000/svg">
<g filter="url(#filter0_d_826_1513)">
<ellipse cx="15" cy="14.5" rx="13" ry="13.5" fill="white"/>
</g>
<path d="M21.3136 18.9219L17.2126 14.0444L21.3136 9.16665C22.0104 8.44109 22.0104 7.26514 21.3136 6.53988C20.6161 5.81462 19.4862 5.81493 18.7896 6.54019L14.8466 11.2304L10.9036 6.54019C10.2067 5.81524 9.07709 5.81493 8.37963 6.53988C7.68275 7.26545 7.68275 8.4414 8.37963 9.16665L12.4806 14.0444L8.37963 18.9219C7.68275 19.6471 7.68275 20.8231 8.37933 21.5483C9.0765 22.2739 10.2064 22.2739 10.9036 21.5483L14.8466 16.8581L18.7896 21.5483C19.4871 22.2739 20.617 22.2739 21.3139 21.5483C22.0104 20.8231 22.0104 19.6471 21.3136 18.9219Z" fill="#71277A"/>
<defs>
<filter id="filter0_d_826_1513" x="0.2" y="0.2" width="29.6" height="30.6" filterUnits="userSpaceOnUse" color-interpolation-filters="sRGB">
<feFlood flood-opacity="0" result="BackgroundImageFix"/>
<feColorMatrix in="SourceAlpha" type="matrix" values="0 0 0 0 0 0 0 0 0 0 0 0 0 0 0 0 0 0 127 0" result="hardAlpha"/>
<feOffset dy="1"/>
<feGaussianBlur stdDeviation="0.9"/>
<feComposite in2="hardAlpha" operator="out"/>
<feColorMatrix type="matrix" values="0 0 0 0 0 0 0 0 0 0 0 0 0 0 0 0 0 0 0.25 0"/>
<feBlend mode="normal" in2="BackgroundImageFix" result="effect1_dropShadow_826_1513"/>
<feBlend mode="normal" in="SourceGraphic" in2="effect1_dropShadow_826_1513" result="shape"/>
</filter>
</defs>
</svg>
