<svg width="329" height="55" viewBox="0 0 329 55" fill="none" xmlns="http://www.w3.org/2000/svg">
<g filter="url(#filter0_d_748_1693)">
<g clip-path="url(#clip0_748_1693)">
<path fill-rule="evenodd" clip-rule="evenodd" d="M9.60568 16.4119C9.60568 16.8441 9.82762 17.066 10.0379 17.2879C10.2481 17.5099 10.692 17.5099 11.3461 17.5099C11.7783 17.5099 12.2222 17.5099 12.4441 17.2879C12.6661 17.066 12.8763 17.066 12.8763 16.8557C12.8763 16.6455 12.4441 16.4236 11.3461 16.2016H10.9139C9.16181 15.9797 8.06381 15.5475 7.63161 15.3256C7.40968 15.1036 7.19942 14.8934 7.19942 14.6714C6.97749 14.4495 6.97749 14.2392 6.97749 14.0173C6.97749 13.3632 7.40968 12.9193 8.07549 12.4871C8.95155 12.0549 10.0496 12.0549 11.5798 12.0549C13.1099 12.0549 14.208 12.2768 14.8621 12.4871C15.5162 12.6974 15.9601 13.3632 15.9601 14.0173H12.8997C12.8997 13.7954 12.6778 13.5851 12.4675 13.3632C12.2456 13.1412 11.8134 13.1412 11.1592 13.1412C10.727 13.1412 10.5051 13.1412 10.2832 13.3632C10.0612 13.3632 9.85098 13.5851 9.85098 13.7954C9.85098 14.0056 10.5051 14.2276 11.6031 14.4495H12.2572C13.1333 14.6714 13.7874 14.6714 14.2313 14.8817C14.6752 15.0919 14.8854 15.1036 15.1074 15.3139C15.3293 15.5358 15.5396 15.7461 15.7615 15.968C15.9834 16.1899 15.9834 16.4002 15.9834 16.6221C15.9834 17.2763 15.5513 17.9304 14.6752 18.1523C13.7991 18.5845 12.4909 18.8065 10.9607 18.8065C9.43047 18.8065 8.11053 18.5845 7.4564 18.3743C6.80227 17.9421 6.3584 17.4982 6.3584 16.6221V16.4002H9.64073L9.60568 16.4119ZM17.2683 18.8181V11.8213H25.3632V13.3515H20.3287V14.4495H24.9193V15.9797H20.3287V17.2879H25.5851V18.8181H17.2683ZM26.8934 18.8181V11.8213H30.8298L34.9882 16.4119V11.8213H37.8384V18.6079H33.9019L29.9655 14.0173V18.6079H26.9051V18.8298L26.8934 18.8181ZM45.7113 15.9797L44.1811 13.5734L42.6509 15.9797H45.7113ZM40.8988 18.8181H37.8384L42.429 12.0315H45.7113L50.0916 18.8181H46.8093L46.1552 17.5099H41.3426L40.9104 18.8181H40.8988Z" fill="white"/>
<path fill-rule="evenodd" clip-rule="evenodd" d="M13.7639 42.6702L11.1357 40.264L19.4525 25.8264C19.8847 24.9503 19.2305 24.0743 18.3545 24.0743H4.79297V20.57H26.6713C26.6713 20.3481 13.7639 42.6702 13.7639 42.6702Z" fill="white"/>
<path fill-rule="evenodd" clip-rule="evenodd" d="M43.3049 42.6708L45.9331 40.0426L37.6163 25.605C37.1841 24.729 37.6163 23.8529 38.7143 23.8529H52.2875V20.3486H30.4092L43.3166 42.6708H43.3049Z" fill="white"/>
<path fill-rule="evenodd" clip-rule="evenodd" d="M28.4229 24.2852L40.6762 44.6333L37.3938 46.3854L29.5209 33.0341C29.0887 32.1581 27.9907 32.1581 27.5468 33.0341C24.9186 37.4145 19.6739 46.3854 19.6739 46.3854L16.3916 44.6333C16.3916 44.6333 27.7688 25.3715 28.4229 24.2852Z" fill="white"/>
<path d="M28.6458 10.0689C31.4262 10.0689 33.6802 7.81492 33.6802 5.03446C33.6802 2.254 31.4262 0 28.6458 0C25.8653 0 23.6113 2.254 23.6113 5.03446C23.6113 7.81492 25.8653 10.0689 28.6458 10.0689Z" fill="white"/>
<path d="M61.2461 1.30762V46.1739" stroke="white" stroke-width="0.622291" stroke-miterlimit="10"/>
<path d="M84.8882 18.3386C84.4794 19.787 83.7435 20.8383 82.6689 21.5041C81.5942 22.1699 80.321 22.497 78.8609 22.497C77.4008 22.497 76.2444 22.2167 75.2398 21.656C74.2353 21.0953 73.4526 20.2776 72.9153 19.2263C72.378 18.1751 72.0977 16.9019 72.0977 15.4067C72.0977 13.9115 72.3663 12.65 72.9153 11.5871C73.4643 10.5241 74.2353 9.71811 75.2398 9.15743C76.2444 8.59675 77.4475 8.31641 78.8375 8.31641C80.2276 8.31641 81.5241 8.62011 82.5871 9.2392C83.6617 9.8466 84.3626 10.8161 84.713 12.1127L81.5592 13.3859C81.3606 12.5332 81.0452 11.9492 80.613 11.6221C80.1808 11.295 79.6201 11.1315 78.9543 11.1315C77.9498 11.1315 77.1672 11.4936 76.6065 12.2178C76.0458 12.942 75.7655 14.005 75.7655 15.4067C75.7655 16.8084 76.0341 17.8714 76.5714 18.5956C77.1088 19.3198 77.9147 19.6819 78.9777 19.6819C79.6435 19.6819 80.2159 19.495 80.6831 19.1329C81.1503 18.7591 81.4657 18.1984 81.6293 17.4275L84.8882 18.3503V18.3386Z" fill="white"/>
<path d="M91.7327 22.4854C89.9923 22.4854 88.6256 22.0181 87.6094 21.072C86.6048 20.1258 86.1025 18.7942 86.1025 17.0654C86.1025 15.9207 86.3362 14.9512 86.8034 14.1335C87.2706 13.3159 87.9131 12.6968 88.7191 12.2763C89.5367 11.8558 90.4829 11.6455 91.5692 11.6455C92.6555 11.6455 93.6017 11.8558 94.3726 12.2763C95.1435 12.6968 95.7276 13.2808 96.1364 14.0284C96.5452 14.776 96.7438 15.6287 96.7438 16.5865C96.7438 16.8552 96.7438 17.1005 96.7088 17.3458C96.6854 17.5911 96.6737 17.7897 96.6621 17.9649H89.5484C89.6418 18.6891 89.8871 19.203 90.2609 19.5184C90.6347 19.8338 91.1253 19.9857 91.7444 19.9857C92.27 19.9857 92.6906 19.8805 93.0059 19.6703C93.3213 19.46 93.5549 19.168 93.7068 18.7942L96.5453 19.7287C96.3467 20.3244 96.0079 20.8267 95.529 21.2355C95.0501 21.6443 94.4777 21.9597 93.8236 22.1583C93.1695 22.3569 92.4686 22.4737 91.7444 22.4737L91.7327 22.4854ZM91.5692 14.1219C90.4478 14.1219 89.7703 14.7643 89.5718 16.0609H93.3914C93.2396 14.7643 92.6322 14.1219 91.5809 14.1219H91.5692Z" fill="white"/>
<path d="M98.7177 22.2751V11.8441H101.848L101.988 14.0985C102.234 13.3392 102.619 12.7318 103.145 12.2996C103.67 11.8558 104.336 11.6455 105.154 11.6455C105.423 11.6455 105.644 11.6689 105.831 11.7156C106.018 11.7623 106.17 11.8207 106.275 11.8674L105.925 14.7877C105.785 14.7409 105.609 14.7059 105.387 14.6592C105.166 14.6125 104.909 14.6008 104.605 14.6008C103.962 14.6008 103.413 14.7993 102.946 15.2082C102.479 15.617 102.245 16.2127 102.245 17.0187V22.2751H98.6943H98.7177Z" fill="white"/>
<path d="M114.907 11.8448V14.3678H111.8V18.5613C111.8 19.0635 111.917 19.4256 112.162 19.6359C112.407 19.8578 112.746 19.963 113.178 19.963C113.517 19.963 113.798 19.9279 114.031 19.8462C114.265 19.7644 114.487 19.6593 114.697 19.5074L115.071 21.7034C114.72 21.937 114.276 22.1356 113.751 22.2758C113.213 22.416 112.676 22.4977 112.139 22.4977C110.947 22.4977 110.001 22.2407 109.312 21.7385C108.623 21.2362 108.272 20.3718 108.261 19.157V14.3795H106.462V11.8564H108.261V9.52026L111.812 8.53906V11.8564H114.919L114.907 11.8448Z" fill="white"/>
<path d="M118.331 10.6403C117.607 10.6403 117.081 10.5001 116.754 10.2315C116.427 9.96282 116.264 9.53063 116.264 8.94658C116.264 8.36254 116.427 7.91866 116.754 7.63832C117.081 7.36966 117.607 7.22949 118.331 7.22949C119.055 7.22949 119.558 7.36966 119.896 7.63832C120.235 7.90698 120.399 8.33918 120.399 8.94658C120.399 9.55399 120.235 9.96282 119.896 10.2315C119.558 10.5001 119.044 10.6403 118.331 10.6403ZM120.107 11.8434V22.2745H116.556V11.8434H120.107Z" fill="white"/>
<path d="M129.848 11.8441V14.3671H126.882V22.2751H123.331V14.3671H121.66V11.8441H123.331V10.8862C123.331 9.9985 123.517 9.27428 123.903 8.72528C124.288 8.17628 124.791 7.76745 125.421 7.51047C126.052 7.25349 126.741 7.125 127.477 7.125C128.05 7.125 128.552 7.1834 128.984 7.30021C129.416 7.41702 129.732 7.55719 129.942 7.70904L129.591 9.91673C129.44 9.83496 129.264 9.76488 129.066 9.69479C128.867 9.63639 128.622 9.60135 128.342 9.60135C127.839 9.60135 127.442 9.71816 127.127 9.94009C126.823 10.162 126.671 10.5475 126.671 11.1082V11.8324H129.837L129.848 11.8441ZM133.061 10.6409C132.336 10.6409 131.811 10.5008 131.484 10.2321C131.157 9.96345 130.993 9.53126 130.993 8.94722C130.993 8.36317 131.157 7.9193 131.484 7.63896C131.811 7.3703 132.336 7.23013 133.061 7.23013C133.785 7.23013 134.287 7.3703 134.626 7.63896C134.965 7.90762 135.128 8.33981 135.128 8.94722C135.128 9.55462 134.965 9.96345 134.626 10.2321C134.287 10.5008 133.773 10.6409 133.061 10.6409ZM134.825 11.8441V22.2751H131.274V11.8441H134.825Z" fill="white"/>
<path d="M142.301 11.6348C143.352 11.6348 144.24 11.7866 144.94 12.0903C145.641 12.394 146.19 12.7912 146.576 13.2818C146.961 13.7724 147.218 14.298 147.323 14.8704L144.053 15.9567C143.971 15.361 143.796 14.9054 143.527 14.6134C143.258 14.3097 142.885 14.1695 142.406 14.1695C141.74 14.1695 141.238 14.4031 140.899 14.8821C140.56 15.361 140.385 16.0969 140.385 17.1131C140.385 18.1293 140.572 18.8769 140.934 19.3091C141.296 19.7413 141.798 19.9632 142.429 19.9632C143.422 19.9632 143.994 19.4026 144.158 18.2695L147.347 19.2974C147.195 20.1969 146.693 20.9561 145.84 21.5752C144.987 22.1826 143.854 22.498 142.452 22.498C140.747 22.498 139.38 22.0191 138.352 21.0729C137.325 20.1268 136.822 18.7835 136.822 17.0781C136.822 15.9333 137.056 14.9638 137.523 14.1578C137.99 13.3519 138.633 12.7328 139.45 12.3006C140.268 11.8684 141.226 11.6581 142.312 11.6581L142.301 11.6348Z" fill="white"/>
<path d="M154.997 15.6637C154.997 15.1731 154.857 14.7876 154.588 14.5072C154.319 14.2269 153.957 14.0751 153.49 14.0751C153.023 14.0751 152.637 14.1919 152.31 14.4138C151.983 14.6357 151.761 15.0446 151.633 15.6286L148.631 14.9161C148.829 13.9115 149.343 13.1172 150.173 12.5215C151.002 11.9258 152.182 11.6221 153.7 11.6221C155.219 11.6221 156.41 11.9608 157.251 12.6383C158.092 13.3158 158.513 14.297 158.513 15.5936V19.4132C158.513 19.9505 158.758 20.2309 159.237 20.2309C159.482 20.2309 159.692 20.2075 159.844 20.1491L159.634 22.1699C159.214 22.3685 158.711 22.4619 158.116 22.4619C157.461 22.4619 156.901 22.3334 156.422 22.0765C155.943 21.8195 155.627 21.4223 155.464 20.8967C155.172 21.434 154.705 21.8428 154.074 22.0998C153.443 22.3568 152.766 22.4853 152.065 22.4853C150.99 22.4853 150.137 22.24 149.507 21.7494C148.876 21.2588 148.561 20.5463 148.561 19.6118C148.561 18.8642 148.782 18.2334 149.238 17.7429C149.694 17.2523 150.406 16.9018 151.376 16.7149L154.985 15.9674V15.6753L154.997 15.6637ZM152.076 19.273C152.076 19.5768 152.193 19.8104 152.415 19.9622C152.637 20.1141 152.906 20.1958 153.21 20.1958C153.677 20.1958 154.097 20.0557 154.459 19.7636C154.822 19.4716 154.997 19.0278 154.997 18.4203V17.8363L153.303 18.1867C152.882 18.2685 152.579 18.397 152.38 18.5488C152.182 18.7124 152.076 18.946 152.076 19.273Z" fill="white"/>
<path d="M166.118 11.6348C167.181 11.6348 168.057 11.7866 168.758 12.0903C169.459 12.394 170.008 12.7912 170.393 13.2818C170.779 13.7724 171.036 14.298 171.141 14.8704L167.87 15.9567C167.788 15.361 167.613 14.9054 167.344 14.6134C167.076 14.3097 166.702 14.1695 166.223 14.1695C165.557 14.1695 165.055 14.4031 164.716 14.8821C164.378 15.361 164.202 16.0969 164.202 17.1131C164.202 18.1293 164.389 18.8769 164.751 19.3091C165.113 19.753 165.616 19.9632 166.246 19.9632C167.239 19.9632 167.812 19.4026 167.975 18.2695L171.164 19.2974C171.012 20.1969 170.51 20.9561 169.657 21.5752C168.805 22.1943 167.672 22.498 166.27 22.498C164.564 22.498 163.198 22.0191 162.17 21.0729C161.142 20.1268 160.64 18.7835 160.64 17.0781C160.64 15.9333 160.873 14.9638 161.341 14.1578C161.808 13.3519 162.45 12.7328 163.268 12.3006C164.086 11.8684 165.043 11.6581 166.13 11.6581L166.118 11.6348Z" fill="white"/>
<path d="M174.773 10.6403C174.048 10.6403 173.523 10.5001 173.196 10.2315C172.869 9.96282 172.705 9.53063 172.705 8.94658C172.705 8.36254 172.869 7.91866 173.196 7.63832C173.523 7.36966 174.048 7.22949 174.773 7.22949C175.497 7.22949 175.999 7.36966 176.338 7.63832C176.677 7.90698 176.84 8.33918 176.84 8.94658C176.84 9.55399 176.677 9.96282 176.338 10.2315C175.999 10.5001 175.485 10.6403 174.773 10.6403ZM176.548 11.8434V22.2745H172.997V11.8434H176.548Z" fill="white"/>
<path d="M184.035 11.634C185.133 11.634 186.091 11.8443 186.92 12.2765C187.749 12.7086 188.392 13.3277 188.859 14.1337C189.326 14.9397 189.56 15.9092 189.56 17.0539C189.56 18.1987 189.326 19.1682 188.859 19.9742C188.392 20.7801 187.749 21.3992 186.92 21.8314C186.091 22.2636 185.133 22.4739 184.035 22.4739C182.937 22.4739 181.991 22.2636 181.161 21.8314C180.332 21.3992 179.69 20.7801 179.222 19.9742C178.755 19.1682 178.521 18.1987 178.521 17.0539C178.521 15.9092 178.755 14.9397 179.222 14.1337C179.69 13.3277 180.332 12.7086 181.161 12.2765C181.991 11.8443 182.949 11.634 184.035 11.634ZM184.035 14.1688C183.427 14.1688 182.949 14.3907 182.61 14.8462C182.271 15.3018 182.096 16.0377 182.096 17.0656C182.096 18.0935 182.271 18.8177 182.61 19.2733C182.949 19.7289 183.427 19.9625 184.035 19.9625C184.642 19.9625 185.145 19.7289 185.483 19.2733C185.822 18.8177 185.997 18.0818 185.997 17.0656C185.997 16.0494 185.822 15.2901 185.483 14.8462C185.145 14.3907 184.654 14.1688 184.035 14.1688ZM183.825 6.87988H187.119L185.016 10.4893H182.435L183.836 6.87988H183.825Z" fill="white"/>
<path d="M191.57 22.276V11.845H194.736L194.841 13.9476C195.156 13.1883 195.624 12.6043 196.243 12.2188C196.85 11.8333 197.574 11.6348 198.415 11.6348C199.49 11.6348 200.354 11.9501 201.02 12.5692C201.686 13.2 202.025 14.1111 202.025 15.3259V22.276H198.474V16.2721C198.474 15.5479 198.334 15.0456 198.053 14.7652C197.773 14.4849 197.422 14.3447 196.99 14.3447C196.476 14.3447 196.032 14.5199 195.67 14.8821C195.308 15.2442 195.121 15.8632 195.121 16.7393V22.2644H191.57V22.276Z" fill="white"/>
<path d="M85.2388 36.4802C84.83 37.9286 84.0941 38.9799 83.0194 39.6457C81.9448 40.3115 80.6716 40.6386 79.2115 40.6386C77.7514 40.6386 76.595 40.3583 75.5904 39.7976C74.5858 39.2369 73.8032 38.4192 73.2659 37.368C72.7286 36.3167 72.4482 35.0435 72.4482 33.5483C72.4482 32.0532 72.7169 30.7916 73.2659 29.7287C73.8149 28.6657 74.5858 27.8597 75.5904 27.299C76.595 26.7384 77.7981 26.458 79.1881 26.458C80.5781 26.458 81.8747 26.7617 82.9377 27.3808C84.0123 27.9882 84.7132 28.9577 85.0636 30.2543L81.9098 31.5275C81.7112 30.6748 81.3958 30.0908 80.9636 29.7637C80.5314 29.4366 79.9707 29.2731 79.3049 29.2731C78.3004 29.2731 77.5177 29.6352 76.9571 30.3594C76.3964 31.0836 76.116 32.1466 76.116 33.5483C76.116 34.95 76.3847 36.013 76.922 36.7372C77.4593 37.4614 78.2653 37.8235 79.3283 37.8235C79.9941 37.8235 80.5665 37.6366 81.0337 37.2745C81.5009 36.9007 81.8163 36.34 81.9798 35.5691L85.2388 36.4919V36.4802Z" fill="white"/>
<path d="M91.9558 29.7861C93.0538 29.7861 94.0233 29.9964 94.8409 30.4286C95.6703 30.8608 96.3127 31.4799 96.78 32.2858C97.2472 33.0918 97.4808 34.0613 97.4808 35.2061C97.4808 36.3508 97.2472 37.3203 96.78 38.1263C96.3127 38.9323 95.6703 39.5513 94.8409 39.9835C94.0116 40.4157 93.0538 40.626 91.9558 40.626C90.8578 40.626 89.9116 40.4157 89.0823 39.9835C88.2529 39.5513 87.6105 38.9323 87.1432 38.1263C86.676 37.3203 86.4424 36.3508 86.4424 35.2061C86.4424 34.0613 86.676 33.0918 87.1432 32.2858C87.6105 31.4799 88.2529 30.8608 89.0823 30.4286C89.9116 29.9964 90.8694 29.7861 91.9558 29.7861ZM91.9558 32.3092C91.3484 32.3092 90.8694 32.5311 90.5307 32.9867C90.1919 33.4422 90.0167 34.1781 90.0167 35.2061C90.0167 36.234 90.1919 36.9582 90.5307 37.4137C90.8694 37.8693 91.3484 38.1029 91.9558 38.1029C92.5632 38.1029 93.0654 37.8693 93.4042 37.4137C93.7429 36.9582 93.9181 36.2223 93.9181 35.2061C93.9181 34.1898 93.7429 33.4306 93.4042 32.9867C93.0654 32.5428 92.5748 32.3092 91.9558 32.3092Z" fill="white"/>
<path d="M99.4892 40.4274V29.9964H102.655L102.76 32.0172C103.099 31.2813 103.566 30.7206 104.173 30.3468C104.781 29.973 105.481 29.7861 106.264 29.7861C107.047 29.7861 107.701 29.9613 108.273 30.3118C108.846 30.6622 109.278 31.1762 109.558 31.8536C109.873 31.1762 110.352 30.6622 110.983 30.3118C111.614 29.9613 112.303 29.7861 113.062 29.7861C114.09 29.7861 114.943 30.0898 115.62 30.7089C116.298 31.328 116.637 32.2508 116.637 33.4773V40.4274H113.086V34.295C113.086 33.6291 112.957 33.1619 112.689 32.8932C112.42 32.6246 112.081 32.4961 111.661 32.4961C111.135 32.4961 110.691 32.6947 110.352 33.0918C110.002 33.489 109.827 34.073 109.827 34.8556V40.4274H106.276V34.295C106.276 33.6291 106.147 33.1619 105.879 32.8932C105.61 32.6246 105.271 32.4961 104.851 32.4961C104.36 32.4961 103.94 32.683 103.566 33.0568C103.192 33.4306 103.017 34.0497 103.017 34.914V40.4157H99.4658L99.4892 40.4274Z" fill="white"/>
<path d="M119.125 44.8077V29.9964H122.314L122.419 32.0989C122.711 31.3981 123.155 30.8491 123.739 30.4169C124.335 29.9964 125.024 29.7861 125.83 29.7861C127.115 29.7861 128.143 30.2534 128.925 31.1995C129.708 32.1457 130.105 33.4656 130.105 35.1593C130.105 36.8531 129.708 38.2314 128.902 39.1892C128.108 40.1471 127.068 40.626 125.783 40.626C125.035 40.626 124.393 40.4391 123.867 40.077C123.342 39.7032 122.933 39.2243 122.653 38.6286V44.8077H119.102H119.125ZM124.58 38.0212C125.187 38.0212 125.666 37.7992 126.017 37.3437C126.367 36.8881 126.542 36.1756 126.542 35.2061C126.542 34.2365 126.367 33.524 126.028 33.0685C125.69 32.6129 125.211 32.391 124.603 32.391C123.996 32.391 123.529 32.6363 123.19 33.1152C122.839 33.5941 122.664 34.295 122.664 35.2061C122.664 36.1172 122.828 36.7713 123.167 37.2736C123.505 37.7759 123.972 38.0212 124.58 38.0212Z" fill="white"/>
<path d="M137.288 40.6377C135.548 40.6377 134.181 40.1705 133.165 39.2243C132.16 38.2782 131.658 36.9466 131.658 35.2178C131.658 34.0731 131.892 33.1035 132.359 32.2859C132.826 31.4682 133.469 30.8491 134.275 30.4286C135.092 30.0081 136.039 29.7979 137.125 29.7979C138.211 29.7979 139.157 30.0081 139.928 30.4286C140.699 30.8491 141.283 31.4332 141.692 32.1808C142.101 32.9283 142.299 33.781 142.299 34.7389C142.299 35.0075 142.299 35.2528 142.264 35.4981C142.241 35.7434 142.229 35.942 142.218 36.1172H135.104C135.198 36.8414 135.443 37.3554 135.817 37.6708C136.19 37.9862 136.681 38.138 137.3 38.138C137.826 38.138 138.246 38.0329 138.562 37.8226C138.877 37.6124 139.111 37.3203 139.262 36.9466L142.101 37.881C141.902 38.4767 141.564 38.979 141.085 39.3879C140.606 39.7967 140.033 40.1121 139.379 40.3106C138.725 40.5092 138.024 40.626 137.3 40.626L137.288 40.6377ZM137.125 32.2625C136.003 32.2625 135.326 32.905 135.127 34.2015H138.947C138.795 32.905 138.188 32.2625 137.137 32.2625H137.125Z" fill="white"/>
<path d="M151.621 29.9961V32.5192H148.514V36.7126C148.514 37.2149 148.631 37.577 148.876 37.7873C149.121 38.0092 149.46 38.1143 149.892 38.1143C150.231 38.1143 150.511 38.0793 150.745 37.9975C150.979 37.9158 151.201 37.8106 151.411 37.6588L151.785 39.8548C151.434 40.0884 150.99 40.287 150.465 40.4271C149.927 40.5673 149.39 40.6491 148.853 40.6491C147.661 40.6491 146.715 40.3921 146.026 39.8898C145.337 39.3875 144.986 38.5232 144.975 37.3084V32.5309H143.176V30.0078H144.975V27.6716L148.526 26.6904V30.0078H151.633L151.621 29.9961Z" fill="white"/>
<path d="M158.362 40.6377C156.621 40.6377 155.255 40.1705 154.238 39.2243C153.234 38.2782 152.731 36.9466 152.731 35.2178C152.731 34.0731 152.965 33.1035 153.432 32.2859C153.9 31.4682 154.542 30.8491 155.348 30.4286C156.166 30.0081 157.112 29.7979 158.198 29.7979C159.284 29.7979 160.231 30.0081 161.002 30.4286C161.772 30.8491 162.356 31.4332 162.765 32.1808C163.174 32.9283 163.373 33.781 163.373 34.7389C163.373 35.0075 163.373 35.2528 163.338 35.4981C163.314 35.7434 163.303 35.942 163.291 36.1172H156.177C156.271 36.8414 156.516 37.3554 156.89 37.6708C157.264 37.9862 157.754 38.138 158.373 38.138C158.899 38.138 159.319 38.0329 159.635 37.8226C159.95 37.6124 160.184 37.3203 160.336 36.9466L163.174 37.881C162.976 38.4767 162.637 38.979 162.158 39.3879C161.679 39.7967 161.107 40.1121 160.452 40.3106C159.798 40.5092 159.098 40.626 158.373 40.626L158.362 40.6377ZM158.186 32.2625C157.065 32.2625 156.388 32.905 156.189 34.2015H160.009C159.857 32.905 159.249 32.2625 158.198 32.2625H158.186Z" fill="white"/>
<path d="M165.346 40.4274V29.9964H168.511L168.616 32.0989C168.932 31.3397 169.399 30.7556 170.018 30.3702C170.625 29.9847 171.35 29.7861 172.191 29.7861C173.265 29.7861 174.13 30.1015 174.796 30.7206C175.461 31.3514 175.8 32.2625 175.8 33.4773V40.4274H172.249V34.4234C172.249 33.6992 172.109 33.197 171.829 32.9166C171.548 32.6363 171.198 32.4961 170.766 32.4961C170.252 32.4961 169.808 32.6713 169.446 33.0334C169.084 33.3955 168.897 34.0146 168.897 34.8907V40.4157H165.346V40.4274Z" fill="white"/>
<path d="M183.218 29.7861C184.281 29.7861 185.157 29.938 185.857 30.2417C186.558 30.5454 187.107 30.9425 187.493 31.4331C187.878 31.9237 188.135 32.4494 188.24 33.0217L184.97 34.1081C184.888 33.5123 184.713 33.0568 184.444 32.7648C184.175 32.4611 183.802 32.3209 183.323 32.3209C182.657 32.3209 182.155 32.5545 181.816 33.0334C181.477 33.5123 181.302 34.2482 181.302 35.2645C181.302 36.2807 181.489 37.0283 181.851 37.4605C182.213 37.8927 182.715 38.1146 183.346 38.1146C184.339 38.1146 184.911 37.5539 185.075 36.4209L188.264 37.4488C188.112 38.3482 187.61 39.1075 186.757 39.7266C185.904 40.3456 184.771 40.6494 183.369 40.6494C181.664 40.6494 180.297 40.1704 179.269 39.2243C178.242 38.2781 177.739 36.9348 177.739 35.2294C177.739 34.0847 177.973 33.1152 178.44 32.3092C178.907 31.5032 179.55 30.8841 180.367 30.4519C181.185 30.0198 182.143 29.8095 183.229 29.8095L183.218 29.7861Z" fill="white"/>
<path d="M191.874 28.7819C191.15 28.7819 190.624 28.6417 190.297 28.3731C189.97 28.1044 189.807 27.6722 189.807 27.0882C189.807 26.5041 189.97 26.0603 190.297 25.7799C190.624 25.5113 191.15 25.3711 191.874 25.3711C192.598 25.3711 193.101 25.5113 193.439 25.7799C193.778 26.0486 193.942 26.4808 193.942 27.0882C193.942 27.6956 193.778 28.1044 193.439 28.3731C193.101 28.6417 192.587 28.7819 191.874 28.7819ZM193.65 29.9967V40.4278H190.099V29.9967H193.65Z" fill="white"/>
<path d="M201.989 33.816C201.989 33.3254 201.849 32.9399 201.58 32.6596C201.311 32.3793 200.949 32.2274 200.482 32.2274C200.015 32.2274 199.629 32.3442 199.302 32.5661C198.975 32.7998 198.753 33.1969 198.625 33.781L195.623 33.0684C195.821 32.0639 196.335 31.2696 197.165 30.6738C197.994 30.0781 199.174 29.7744 200.692 29.7744C202.211 29.7744 203.402 30.1132 204.243 30.7907C205.084 31.4681 205.505 32.4493 205.505 33.7459V37.5656C205.505 38.1029 205.75 38.3832 206.229 38.3832C206.474 38.3832 206.685 38.3599 206.836 38.3015L206.626 40.3223C206.206 40.5208 205.703 40.6143 205.108 40.6143C204.454 40.6143 203.893 40.4858 203.414 40.2288C202.947 39.9718 202.62 39.5747 202.456 39.049C202.164 39.5864 201.697 39.9952 201.066 40.2522C200.435 40.5091 199.758 40.6376 199.057 40.6376C197.982 40.6376 197.13 40.3923 196.499 39.9017C195.868 39.4111 195.553 38.6986 195.553 37.7641C195.553 37.0166 195.775 36.3858 196.23 35.8952C196.686 35.4046 197.398 35.0542 198.368 34.8673L201.977 34.1197V33.8277L201.989 33.816ZM199.069 37.4254C199.069 37.7291 199.185 37.9627 199.407 38.1146C199.629 38.2664 199.898 38.3482 200.202 38.3482C200.669 38.3482 201.089 38.208 201.452 37.916C201.814 37.624 201.989 37.1801 201.989 36.5727V35.9886L200.295 36.3391C199.875 36.4208 199.571 36.5493 199.372 36.7012C199.174 36.8647 199.069 37.0983 199.069 37.4254Z" fill="white"/>
<path d="M212.631 40.6377C211.591 40.6377 210.622 40.4625 209.734 40.1237C208.846 39.785 208.099 39.2944 207.503 38.6519L209.173 36.6895C209.524 37.1334 209.979 37.5072 210.563 37.8109C211.136 38.1146 211.778 38.2548 212.491 38.2548C212.923 38.2548 213.273 38.1964 213.554 38.0679C213.834 37.9394 213.974 37.7525 213.974 37.4838C213.974 37.3086 213.904 37.1451 213.764 37.0283C213.624 36.8998 213.343 36.7947 212.935 36.7129L211.474 36.4209C210.166 36.1522 209.243 35.7667 208.694 35.2411C208.145 34.7155 207.865 34.038 207.865 33.1853C207.865 32.6129 208.04 32.0756 208.391 31.5616C208.741 31.0477 209.278 30.6272 210.003 30.2884C210.727 29.9497 211.65 29.7861 212.783 29.7861C214.944 29.7861 216.509 30.3819 217.502 31.585L215.808 33.5007C215.469 33.0801 215.037 32.7531 214.511 32.5195C213.986 32.2858 213.46 32.169 212.923 32.169C211.907 32.169 211.404 32.426 211.404 32.94C211.404 33.1152 211.498 33.2787 211.661 33.4189C211.837 33.5591 212.164 33.6642 212.631 33.7576L214.535 34.1314C215.609 34.3417 216.38 34.7038 216.848 35.2061C217.327 35.72 217.56 36.3274 217.56 37.0516C217.56 38.0679 217.151 38.9206 216.345 39.6098C215.539 40.2989 214.301 40.6377 212.666 40.6377H212.631Z" fill="white"/>
<path d="M229.17 37.647H236.073V40.427H225.584V26.6553H229.17V37.647Z" fill="white"/>
<path d="M243.714 33.816C243.714 33.3254 243.573 32.9399 243.305 32.6596C243.036 32.3793 242.674 32.2274 242.207 32.2274C241.739 32.2274 241.354 32.3442 241.027 32.5661C240.7 32.7998 240.478 33.1969 240.349 33.781L237.347 33.0684C237.546 32.0639 238.06 31.2696 238.889 30.6738C239.719 30.0781 240.898 29.7744 242.417 29.7744C243.935 29.7744 245.127 30.1132 245.968 30.7907C246.809 31.4681 247.229 32.4493 247.229 33.7459V37.5656C247.229 38.1029 247.475 38.3832 247.954 38.3832C248.199 38.3832 248.409 38.3599 248.561 38.3015L248.351 40.3223C247.93 40.5208 247.428 40.6143 246.832 40.6143C246.178 40.6143 245.617 40.4858 245.139 40.2288C244.671 39.9718 244.344 39.5747 244.181 39.049C243.889 39.5864 243.421 39.9952 242.791 40.2522C242.16 40.5091 241.482 40.6376 240.782 40.6376C239.707 40.6376 238.854 40.3923 238.223 39.9017C237.593 39.4111 237.277 38.6986 237.277 37.7641C237.277 37.0166 237.499 36.3858 237.955 35.8952C238.41 35.4046 239.123 35.0542 240.092 34.8673L243.702 34.1197V33.8277L243.714 33.816ZM240.793 37.4254C240.793 37.7291 240.91 37.9627 241.132 38.1146C241.354 38.2664 241.623 38.3482 241.926 38.3482C242.394 38.3482 242.814 38.208 243.176 37.916C243.538 37.624 243.714 37.1801 243.714 36.5727V35.9886L242.02 36.3391C241.599 36.4208 241.296 36.5493 241.097 36.7012C240.898 36.8647 240.793 37.0983 240.793 37.4254Z" fill="white"/>
<path d="M256.668 40.6377C255.815 40.6377 255.091 40.4041 254.495 39.9485C253.899 39.493 253.467 38.8856 253.199 38.138L253.07 40.4275H249.963V25.5811H253.514V31.7953C253.794 31.1996 254.203 30.709 254.752 30.3469C255.301 29.9731 255.979 29.7979 256.785 29.7979C257.591 29.7979 258.303 30.0081 258.934 30.4403C259.565 30.8725 260.055 31.4916 260.417 32.3092C260.779 33.1269 260.955 34.1081 260.955 35.2645C260.955 36.9582 260.557 38.2782 259.763 39.2243C258.969 40.1705 257.929 40.6377 256.656 40.6377H256.668ZM255.441 38.0212C256.049 38.0212 256.528 37.7993 256.878 37.3437C257.228 36.8881 257.404 36.1756 257.404 35.2061C257.404 34.2366 257.228 33.5241 256.878 33.0685C256.528 32.6129 256.049 32.391 255.441 32.391C254.834 32.391 254.378 32.6363 254.028 33.1386C253.677 33.6409 253.514 34.33 253.514 35.2295C253.514 36.1289 253.689 36.8297 254.04 37.3087C254.39 37.7876 254.857 38.0329 255.441 38.0329V38.0212Z" fill="white"/>
<path d="M268.022 29.7861C269.12 29.7861 270.078 29.9964 270.907 30.4286C271.737 30.8608 272.379 31.4799 272.846 32.2858C273.314 33.0918 273.547 34.0613 273.547 35.2061C273.547 36.3508 273.314 37.3203 272.846 38.1263C272.379 38.9323 271.737 39.5513 270.907 39.9835C270.078 40.4157 269.12 40.626 268.022 40.626C266.924 40.626 265.978 40.4157 265.149 39.9835C264.319 39.5513 263.677 38.9323 263.21 38.1263C262.742 37.3203 262.509 36.3508 262.509 35.2061C262.509 34.0613 262.742 33.0918 263.21 32.2858C263.677 31.4799 264.319 30.8608 265.149 30.4286C265.978 29.9964 266.936 29.7861 268.022 29.7861ZM268.022 32.3092C267.415 32.3092 266.936 32.5311 266.597 32.9867C266.258 33.4422 266.083 34.1781 266.083 35.2061C266.083 36.234 266.258 36.9582 266.597 37.4137C266.936 37.8693 267.415 38.1029 268.022 38.1029C268.63 38.1029 269.132 37.8693 269.471 37.4137C269.809 36.9582 269.985 36.2223 269.985 35.2061C269.985 34.1898 269.809 33.4306 269.471 32.9867C269.132 32.5311 268.641 32.3092 268.022 32.3092Z" fill="white"/>
<path d="M275.545 40.4275V29.9964H278.675L278.827 32.2508C279.073 31.4916 279.458 30.8842 279.984 30.452C280.509 30.0081 281.175 29.7979 281.993 29.7979C282.261 29.7979 282.483 29.8212 282.67 29.8679C282.857 29.9147 283.009 29.9731 283.114 30.0198L282.764 32.94C282.624 32.8933 282.448 32.8582 282.226 32.8115C282.004 32.7648 281.747 32.7531 281.444 32.7531C280.801 32.7531 280.252 32.9517 279.785 33.3605C279.318 33.7694 279.084 34.3651 279.084 35.1711V40.4275H275.533H275.545Z" fill="white"/>
<path d="M290.215 33.816C290.215 33.3254 290.075 32.9399 289.807 32.6596C289.538 32.3793 289.176 32.2274 288.709 32.2274C288.241 32.2274 287.856 32.3442 287.529 32.5661C287.202 32.7998 286.98 33.1969 286.851 33.781L283.849 33.0684C284.048 32.0639 284.562 31.2696 285.391 30.6738C286.221 30.0781 287.4 29.7744 288.919 29.7744C290.437 29.7744 291.629 30.1132 292.47 30.7907C293.311 31.4681 293.731 32.4493 293.731 33.7459V37.5656C293.731 38.1029 293.977 38.3832 294.456 38.3832C294.701 38.3832 294.911 38.3599 295.063 38.3015L294.853 40.3223C294.432 40.5208 293.93 40.6143 293.334 40.6143C292.68 40.6143 292.119 40.4858 291.641 40.2288C291.173 39.9718 290.846 39.5747 290.683 39.049C290.391 39.5864 289.923 39.9952 289.293 40.2522C288.662 40.5091 287.984 40.6376 287.284 40.6376C286.209 40.6376 285.356 40.3923 284.725 39.9017C284.095 39.4111 283.779 38.6986 283.779 37.7641C283.779 37.0166 284.001 36.3858 284.457 35.8952C284.912 35.4046 285.625 35.0542 286.594 34.8673L290.204 34.1197V33.8277L290.215 33.816ZM287.295 37.4254C287.295 37.7291 287.412 37.9627 287.634 38.1146C287.856 38.2664 288.125 38.3482 288.428 38.3482C288.896 38.3482 289.316 38.208 289.678 37.916C290.04 37.624 290.215 37.1801 290.215 36.5727V35.9886L288.522 36.3391C288.101 36.4208 287.798 36.5493 287.599 36.7012C287.4 36.8647 287.295 37.0983 287.295 37.4254Z" fill="white"/>
<path d="M299.969 25.5703V36.8774C299.969 37.3329 300.051 37.66 300.203 37.8586C300.354 38.0571 300.611 38.1506 300.974 38.1506C301.184 38.1506 301.359 38.1389 301.499 38.1039C301.639 38.0805 301.803 38.0338 302.001 37.9754L301.768 40.1013C301.523 40.2531 301.195 40.3816 300.787 40.4751C300.378 40.5685 299.992 40.6153 299.595 40.6153C298.486 40.6153 297.68 40.3583 297.177 39.8443C296.675 39.3304 296.43 38.4893 296.43 37.3212V25.5586H299.981L299.969 25.5703Z" fill="white"/>
<path d="M308.378 40.6377C306.638 40.6377 305.271 40.1705 304.255 39.2243C303.25 38.2782 302.748 36.9466 302.748 35.2178C302.748 34.0731 302.982 33.1035 303.449 32.2859C303.916 31.4682 304.559 30.8491 305.365 30.4286C306.182 30.0081 307.128 29.7979 308.215 29.7979C309.301 29.7979 310.247 30.0081 311.018 30.4286C311.789 30.8491 312.373 31.4332 312.782 32.1808C313.179 32.9283 313.389 33.781 313.389 34.7389C313.389 35.0075 313.389 35.2528 313.354 35.4981C313.331 35.7434 313.319 35.942 313.308 36.1172H306.194C306.287 36.8414 306.533 37.3554 306.906 37.6708C307.28 37.9862 307.771 38.138 308.39 38.138C308.916 38.138 309.336 38.0329 309.651 37.8226C309.967 37.6124 310.2 37.3203 310.352 36.9466L313.191 37.881C312.992 38.4767 312.653 38.979 312.175 39.3879C311.696 39.7967 311.123 40.1121 310.469 40.3106C309.815 40.5092 309.114 40.626 308.39 40.626L308.378 40.6377ZM308.215 32.2625C307.093 32.2625 306.416 32.905 306.217 34.2015H310.037C309.885 32.905 309.278 32.2625 308.226 32.2625H308.215Z" fill="white"/>
<path d="M319.745 40.6377C318.706 40.6377 317.736 40.4625 316.848 40.1237C315.96 39.785 315.213 39.2944 314.617 38.6519L316.288 36.6895C316.638 37.1334 317.094 37.5072 317.678 37.8109C318.25 38.1146 318.892 38.2548 319.605 38.2548C320.037 38.2548 320.388 38.1964 320.668 38.0679C320.948 37.9394 321.088 37.7525 321.088 37.4838C321.088 37.3086 321.018 37.1451 320.878 37.0283C320.738 36.8998 320.458 36.7947 320.049 36.7129L318.589 36.4209C317.28 36.1522 316.358 35.7667 315.809 35.2411C315.26 34.7155 314.979 34.038 314.979 33.1853C314.979 32.6129 315.155 32.0756 315.505 31.5616C315.855 31.0477 316.393 30.6272 317.117 30.2884C317.841 29.9497 318.764 29.7861 319.897 29.7861C322.058 29.7861 323.623 30.3819 324.616 31.585L322.922 33.5007C322.584 33.0801 322.151 32.7531 321.626 32.5195C321.1 32.2858 320.574 32.169 320.037 32.169C319.021 32.169 318.519 32.426 318.519 32.94C318.519 33.1152 318.612 33.2787 318.776 33.4189C318.951 33.5591 319.278 33.6642 319.745 33.7576L321.649 34.1314C322.724 34.3417 323.495 34.7038 323.962 35.2061C324.441 35.72 324.674 36.3274 324.674 37.0516C324.674 38.0679 324.266 38.9206 323.46 39.6098C322.654 40.2989 321.415 40.6377 319.78 40.6377H319.745Z" fill="white"/>
</g>
</g>
<defs>
<filter id="filter0_d_748_1693" x="0.792969" y="0" width="327.857" height="54.3965" filterUnits="userSpaceOnUse" color-interpolation-filters="sRGB">
<feFlood flood-opacity="0" result="BackgroundImageFix"/>
<feColorMatrix in="SourceAlpha" type="matrix" values="0 0 0 0 0 0 0 0 0 0 0 0 0 0 0 0 0 0 127 0" result="hardAlpha"/>
<feOffset dy="4"/>
<feGaussianBlur stdDeviation="2"/>
<feComposite in2="hardAlpha" operator="out"/>
<feColorMatrix type="matrix" values="0 0 0 0 0 0 0 0 0 0 0 0 0 0 0 0 0 0 0.6 0"/>
<feBlend mode="normal" in2="BackgroundImageFix" result="effect1_dropShadow_748_1693"/>
<feBlend mode="normal" in="SourceGraphic" in2="effect1_dropShadow_748_1693" result="shape"/>
</filter>
<clipPath id="clip0_748_1693">
<rect width="319.858" height="46.3965" fill="white" transform="translate(4.79297)"/>
</clipPath>
</defs>
</svg>
