<svg width="70" height="52" viewBox="0 0 70 52" fill="none" xmlns="http://www.w3.org/2000/svg">
<path d="M46.6667 26.9617C46.6667 26.6198 46.5573 26.3389 46.3386 26.1192L33.5052 13.2244C33.2864 13.0046 33.0069 12.8947 32.6667 12.8947C32.3264 12.8947 32.0469 13.0046 31.8281 13.2244L19.0312 26.0825C18.7882 26.3756 18.6667 26.6687 18.6667 26.9617C18.6667 27.3036 18.7761 27.5845 18.9948 27.8043C19.2136 28.0241 19.4931 28.134 19.8333 28.134H28V41.0287C28 41.3462 28.1155 41.6209 28.3464 41.8529C28.5773 42.085 28.8507 42.201 29.1667 42.201H36.1667C36.4826 42.201 36.7561 42.085 36.987 41.8529C37.2179 41.6209 37.3333 41.3462 37.3333 41.0287V28.134H45.5C45.816 28.134 46.0894 28.018 46.3203 27.786C46.5512 27.5539 46.6667 27.2792 46.6667 26.9617ZM70 37.512C70 41.395 68.6328 44.7103 65.8984 47.4578C63.1641 50.2052 59.8646 51.5789 56 51.5789H16.3333C11.8368 51.5789 7.99046 49.9732 4.79426 46.7617C1.59809 43.5503 0 39.6855 0 35.1675C0 31.9926 0.85069 29.062 2.55207 26.3756C4.25348 23.6892 6.5382 21.6744 9.40625 20.3312C9.35763 19.5985 9.33332 19.0735 9.33332 18.756C9.33332 13.5785 11.1562 9.1582 14.8021 5.49492C18.4479 1.83164 22.8472 0 28 0C31.7917 0 35.2613 1.06235 38.4089 3.18705C41.5564 5.31175 43.8472 8.13248 45.2812 11.6492C47.007 10.1351 49.0243 9.37798 51.3333 9.37798C53.9097 9.37798 56.1094 10.2938 57.9323 12.1254C59.7552 13.9571 60.6667 16.1672 60.6667 18.756C60.6667 20.612 60.1684 22.2971 59.1719 23.8113C62.3316 24.5684 64.9262 26.223 66.9557 28.775C68.9852 31.3271 70 34.2394 70 37.512Z" fill="white"/>
</svg>
