<svg width="20" height="13" viewBox="0 0 20 13" fill="none" xmlns="http://www.w3.org/2000/svg">
<g clip-path="url(#clip0_1256_2265)">
<path d="M8.66366 0.0333151C12.7777 -0.306479 17.6589 1.93339 19.2823 5.94295C19.4963 6.47275 19.4703 6.60312 19.2452 7.11212C17.1155 11.9233 10.9883 14.0564 6.17573 12.3907C3.86758 11.5932 0.987188 9.32841 0.097958 6.97482C-0.161401 6.28968 0.140498 5.89996 0.465726 5.31607C2.09186 2.40216 5.351 0.306537 8.66366 0.0333151ZM16.1919 4.32442C12.4648 0.504865 6.2169 0.748962 2.78486 4.82094C2.58039 5.06365 1.66372 6.29107 1.69665 6.531C1.72958 6.77094 2.57902 7.89572 2.78486 8.13705C6.62172 12.6182 13.3472 12.4517 16.9288 7.75149C17.0798 7.55316 17.7481 6.59757 17.7124 6.42698C17.6946 6.34377 17.2266 5.61425 17.1347 5.4825C16.8767 5.10803 16.5075 4.64757 16.1919 4.32442Z" fill="white"/>
<path d="M6.07478 5.47556C5.76602 7.12321 6.19554 8.74868 7.65701 9.65294C10.7199 11.5502 14.3592 8.74035 13.3204 5.323C12.7454 3.42986 10.6403 2.27457 8.74796 2.78079C8.67798 3.05678 8.85637 3.25927 8.88656 3.50337C9.08417 5.0789 7.47587 6.1496 6.07478 5.47556Z" fill="url(#paint0_linear_1256_2265)"/>
<path d="M6.07478 5.47558C7.47587 6.14962 9.0828 5.07892 8.88656 3.50339C8.85637 3.25791 8.67798 3.0568 8.74796 2.78081C10.6403 2.27597 12.7454 3.42988 13.3204 5.32302C14.3592 8.74176 10.7199 11.5503 7.65701 9.65296C6.19554 8.74731 5.76602 7.12323 6.07478 5.47558Z" fill="white"/>
</g>
<defs>
<linearGradient id="paint0_linear_1256_2265" x1="5.98047" y1="6.46353" x2="13.5013" y2="6.46353" gradientUnits="userSpaceOnUse">
<stop stop-color="#00AA00"/>
<stop offset="1" stop-color="#008300"/>
</linearGradient>
<clipPath id="clip0_1256_2265">
<rect width="19.4286" height="12.9524" fill="white"/>
</clipPath>
</defs>
</svg>
