<svg width="24" height="24" viewBox="0 0 24 24" fill="none" xmlns="http://www.w3.org/2000/svg">
<rect width="23.3354" height="23.3235" rx="11.6617" fill="white"/>
<g clip-path="url(#clip0_951_2526)">
<path d="M11.0191 7.68201C13.5601 7.47214 16.5749 8.85558 17.5776 11.3321C17.7098 11.6593 17.6937 11.7398 17.5547 12.0542C16.2393 15.0258 12.4548 16.3433 9.48239 15.3145C8.05677 14.822 6.2777 13.4231 5.72847 11.9694C5.56828 11.5462 5.75475 11.3055 5.95562 10.9449C6.96 9.14512 8.973 7.85077 11.0191 7.68201ZM15.6689 10.3324C13.3668 7.97326 9.50782 8.12403 7.38803 10.6391C7.26174 10.789 6.69556 11.5471 6.7159 11.6953C6.73624 11.8435 7.26089 12.5382 7.38803 12.6873C9.75785 15.455 13.9118 15.3522 16.124 12.4491C16.2172 12.3266 16.63 11.7364 16.608 11.631C16.597 11.5796 16.3079 11.1291 16.2511 11.0477C16.0918 10.8164 15.8638 10.532 15.6689 10.3324Z" fill="#005DCA"/>
<path d="M9.41763 11.0437C9.22692 12.0614 9.49222 13.0653 10.3949 13.6238C12.2867 14.7957 14.5345 13.0602 13.8928 10.9495C13.5377 9.78017 12.2375 9.0666 11.0687 9.37927C11.0255 9.54974 11.1357 9.6748 11.1543 9.82557C11.2764 10.7987 10.283 11.46 9.41763 11.0437Z" fill="url(#paint0_linear_951_2526)"/>
<path d="M9.41763 11.0439C10.283 11.4602 11.2755 10.7989 11.1543 9.82577C11.1357 9.67414 11.0255 9.54993 11.0687 9.37947C12.2375 9.06766 13.5377 9.78037 13.8928 10.9497C14.5345 13.0612 12.2867 14.7959 10.3949 13.624C9.49222 13.0647 9.22692 12.0616 9.41763 11.0439Z" fill="#005DCA"/>
</g>
<defs>
<linearGradient id="paint0_linear_951_2526" x1="9.35938" y1="11.6539" x2="14.0046" y2="11.6539" gradientUnits="userSpaceOnUse">
<stop stop-color="#00AA00"/>
<stop offset="1" stop-color="#008300"/>
</linearGradient>
<clipPath id="clip0_951_2526">
<rect width="12" height="8" fill="white" transform="translate(5.66797 7.66162)"/>
</clipPath>
</defs>
</svg>
