<svg width="423" height="131" viewBox="0 0 423 131" fill="none" xmlns="http://www.w3.org/2000/svg">
<path d="M422.687 38.8972C422.654 26.7114 422.572 14.5257 422.498 2.33997C422.489 0.520229 421.332 -0.324648 419.55 0.114038C416.676 0.820811 413.81 1.51946 410.952 2.2831C401.476 4.80148 392.008 7.36049 382.532 9.87887C374.189 12.0967 365.829 14.2657 357.478 16.4673C356.189 16.8085 355.589 17.499 355.573 18.5389C355.556 19.5625 356.107 20.7648 357.33 21.1385L384.478 21.2685C369.82 40.7656 336.399 85.203 334.288 88.095C333.303 89.4355 332.219 89.5736 331.176 87.9813C330.051 86.2753 328.745 84.683 327.596 82.9933C321.297 73.7077 315.024 64.406 308.75 55.1123C300.85 43.414 292.795 31.8213 285.141 19.9768C281.75 14.7369 274.097 11.9261 267.725 12.2104H204.158C182.02 12.2104 173.726 31.2689 161.934 47.1104C157.557 52.992 153.361 59.0036 149.107 64.9665C144.796 71.0106 140.493 77.0629 136.215 83.1314C133.119 87.5264 130.13 91.9945 127.002 96.3651C124.719 99.5496 122.395 102.694 120.071 105.846C117.755 103.498 115.44 101.142 113.116 98.7941C110.775 96.4382 110.578 94.6835 113.814 92.9693C115.661 91.9945 117.336 90.6459 118.929 89.2811C130.746 79.2157 134.441 66.2257 133.168 51.286C132.356 41.6918 128.71 33.4542 121.902 26.7033C111.851 16.7354 98.9177 13.1122 85.3028 12.6978C65.1104 12.0804 44.8933 12.3973 24.6844 12.6247C22.5904 12.6491 19.7821 14.2414 18.5585 15.9717C13.8122 22.6983 9.55034 29.766 5.15711 36.7362C4.03211 38.5153 3.07135 40.4001 1.60146 43.0159C4.1635 43.1947 5.64981 43.3896 7.13612 43.3896C32.2884 43.4059 57.4407 43.3896 82.6012 43.4221C85.4178 43.4221 88.2672 43.4952 91.0592 43.8771C97.2261 44.7138 101.734 49.1007 102.769 54.958C103.697 60.2303 100.987 65.6083 95.1896 68.0129C91.675 69.4752 87.5938 70.1983 83.759 70.2307C58.0401 70.4095 32.3212 70.3039 6.60236 70.3201C1.8396 70.3201 0.796723 71.2543 0.7803 75.9093C0.73103 92.5225 0.821357 109.136 0.722817 125.749C0.706394 129.104 1.94635 130.688 5.37882 130.664C12.4408 130.615 19.5111 130.623 26.5731 130.64C29.6935 130.64 31.1962 129.34 31.1223 126.066C30.991 119.51 31.2291 112.938 31.032 106.382C30.9253 102.669 32.1324 101.093 36.115 101.158C46.8476 101.345 57.5967 101.085 68.3293 101.353C70.4479 101.41 73.01 102.539 74.5291 104.018C82.478 111.752 90.0409 119.875 98.0309 127.569C99.7389 129.218 102.621 130.428 105.003 130.501C110.25 130.656 115.497 130.542 120.736 130.38C130.04 130.339 138.752 130.461 148.179 130.38C148.179 130.38 198.714 130.713 223.948 130.51C230.058 130.461 236.175 130.558 242.285 130.575C243.41 130.575 244.592 130.575 245.57 130.03C249.61 127.821 245.167 123.491 243.591 121.33C242.236 119.477 240.881 117.633 239.526 115.797C236.775 112.068 233.999 108.34 231.232 104.619C228.859 101.426 226.05 99.4521 221.542 99.5253C208.19 99.7608 194.822 99.5902 181.461 99.574C178.39 99.574 175.319 99.574 171.607 99.574C172.264 98.2823 172.486 97.673 172.855 97.1693C178.053 90.0285 183.399 82.9933 188.441 75.7468C193.532 68.4273 198.41 60.9777 203.378 53.585C205.415 56.9564 207.648 60.2222 209.956 63.4067C219.407 76.4455 228.99 89.3867 238.565 102.336C244.625 110.525 249.265 117.479 255.514 125.53C258.897 129.892 265.836 130.575 265.836 130.575H298.453C302.255 130.615 307.009 129.502 303.971 125.05C300.21 119.55 296.326 114.132 292.483 108.689C282.169 94.0985 271.888 79.4919 261.533 64.9259C256.417 57.7363 251.293 50.5467 246.029 43.4628C252.549 43.6577 256.655 44.7057 261.016 50.8311C270.139 63.6423 279.188 76.5105 288.434 89.2405C294.995 98.2742 301.696 107.21 308.43 116.122C312.396 121.362 316.181 126.366 322.496 128.95C331.57 132.662 341.26 130.144 348.305 123.694C352.559 119.802 355.515 114.904 358.849 110.273C362.413 105.318 366.125 100.476 369.697 95.5202C371.848 92.5388 391.466 65.8601 405.91 46.2249C408.292 50.2218 410.665 54.2187 413.054 58.1994C414.894 61.2621 416.758 64.3004 418.638 67.3387C419.271 68.3623 420.166 68.7197 421.135 68.4435C422.095 68.1754 422.621 67.4037 422.662 66.1932C422.67 65.917 422.662 65.6327 422.662 65.3565C422.67 56.534 422.711 47.7115 422.678 38.889L422.687 38.8972Z" fill="#77277A"/>
</svg>
