<svg width="76" height="26" viewBox="0 0 76 26" fill="none" xmlns="http://www.w3.org/2000/svg">
<path d="M75.9992 7.0413C75.9933 4.83539 75.9786 2.62949 75.9653 0.423588C75.9639 0.0941736 75.7561 -0.0587689 75.4364 0.0206436C74.9208 0.148586 74.4067 0.275058 73.894 0.413294C72.1939 0.869181 70.4952 1.33242 68.7951 1.78831C67.2983 2.18978 65.7986 2.58243 64.3003 2.98096C64.069 3.04273 63.9615 3.16773 63.9585 3.35597C63.9556 3.54126 64.0543 3.75891 64.2738 3.82656L69.1443 3.85009C66.5146 7.37953 60.5185 15.4237 60.1399 15.9473C59.9631 16.1899 59.7687 16.2149 59.5816 15.9267C59.3797 15.6178 59.1455 15.3296 58.9392 15.0237C57.8093 13.3428 56.6837 11.659 55.5582 9.97662C54.1409 7.85895 52.6957 5.7604 51.3226 3.61626C50.7142 2.66773 49.3412 2.1589 48.1979 2.21037H36.7937C32.8219 2.21037 31.3339 5.6604 29.2183 8.52807C28.4331 9.59279 27.6803 10.681 26.9172 11.7605C26.1437 12.8546 25.3717 13.9502 24.6042 15.0487C24.0488 15.8443 23.5125 16.6531 22.9512 17.4443C22.5417 18.0208 22.1247 18.5899 21.7078 19.1605C21.2924 18.7355 20.8769 18.309 20.46 17.884C20.0401 17.4576 20.0048 17.1399 20.5852 16.8296C20.9167 16.6531 21.2172 16.409 21.503 16.162C23.623 14.3399 24.286 11.9884 24.0576 9.28396C23.9118 7.54718 23.2577 6.05599 22.0364 4.83392C20.2331 3.02949 17.9128 2.37361 15.4702 2.29861C11.8475 2.18684 8.22042 2.24419 4.59481 2.28537C4.21913 2.28978 3.71529 2.57802 3.49578 2.89126C2.64425 4.10892 1.87965 5.38834 1.09147 6.65012C0.889638 6.97218 0.717271 7.31336 0.453563 7.78689C0.91321 7.81924 1.17986 7.85454 1.44652 7.85454C5.95902 7.85748 10.4715 7.85454 14.9855 7.86042C15.4908 7.86042 16.002 7.87366 16.5029 7.94277C17.6093 8.09425 18.4181 8.88837 18.6037 9.94867C18.7702 10.9031 18.284 11.8766 17.2439 12.3119C16.6134 12.5766 15.8812 12.7075 15.1932 12.7134C10.5791 12.7458 5.96491 12.7266 1.35076 12.7296C0.496286 12.7296 0.309187 12.8987 0.30624 13.7414C0.297401 16.7487 0.313606 19.7561 0.295927 22.7635C0.292981 23.3709 0.515439 23.6576 1.13125 23.6532C2.39822 23.6444 3.66667 23.6459 4.93365 23.6488C5.49348 23.6488 5.76308 23.4135 5.74982 22.8209C5.72624 21.6341 5.76897 20.4444 5.73361 19.2576C5.71446 18.5855 5.93102 18.3002 6.64554 18.312C8.57105 18.3458 10.4995 18.2988 12.425 18.3473C12.8051 18.3576 13.2648 18.562 13.5373 18.8296C14.9634 20.2297 16.3202 21.7003 17.7537 23.0929C18.0601 23.3914 18.5772 23.6106 19.0044 23.6238C19.9458 23.6517 20.8872 23.6312 21.8272 23.6017C23.4963 23.5944 25.0594 23.6164 26.7507 23.6017C26.7507 23.6017 35.8169 23.662 40.3442 23.6253C41.4402 23.6164 42.5378 23.6341 43.6339 23.637C43.8357 23.637 44.0478 23.637 44.2232 23.5385C44.948 23.1385 44.151 22.3547 43.8681 21.9635C43.625 21.6282 43.3819 21.2944 43.1389 20.962C42.6453 20.287 42.1474 19.612 41.6509 18.9385C41.2251 18.3605 40.7213 18.0032 39.9125 18.0164C37.517 18.059 35.1186 18.0282 32.7217 18.0252C32.1707 18.0252 31.6197 18.0252 30.9538 18.0252C31.0717 17.7914 31.1114 17.6811 31.1777 17.5899C32.1103 16.2973 33.0694 15.0237 33.9739 13.7119C34.8873 12.3869 35.7624 11.0384 36.6537 9.70014C37.0191 10.3104 37.4198 10.9016 37.8338 11.4781C39.5295 13.8384 41.2487 16.1811 42.9665 18.5252C44.0537 20.0076 44.8861 21.2664 46.0072 22.7238C46.6142 23.5135 47.8591 23.637 47.8591 23.637H53.7108C54.3929 23.6444 55.2459 23.4429 54.7008 22.637C54.026 21.6414 53.3292 20.6605 52.6397 19.6752C50.7893 17.034 48.9449 14.3899 47.0871 11.7531C46.1693 10.4516 45.25 9.15014 44.3057 7.86777C45.4754 7.90307 46.212 8.09278 46.9943 9.20161C48.6311 11.5207 50.2546 13.8502 51.9134 16.1546C53.0905 17.7899 54.2927 19.4076 55.5007 21.0208C56.2123 21.9694 56.8914 22.8753 58.0244 23.3429C59.6523 24.015 61.3907 23.5591 62.6547 22.3914C63.4178 21.687 63.9482 20.8002 64.5463 19.962C65.1857 19.0649 65.8516 18.1885 66.4925 17.2914C66.8785 16.7517 70.398 11.9222 72.9894 8.36778C73.4166 9.09131 73.8424 9.81485 74.2711 10.5354C74.6011 11.0899 74.9355 11.6399 75.2729 12.1899C75.3864 12.3752 75.5469 12.4399 75.7208 12.3899C75.8931 12.3413 75.9874 12.2016 75.9948 11.9825C75.9963 11.9325 75.9948 11.881 75.9948 11.831C75.9963 10.234 76.0036 8.6369 75.9977 7.03983L75.9992 7.0413Z" fill="white"/>
<path d="M36.0116 25.093H0V25.8666H36.0116V25.093Z" fill="#FFEE3B"/>
<path d="M55.1084 25.093H35.9771V25.8666H55.1084V25.093Z" fill="#001BDB"/>
<path d="M74.206 25.093H55.0747V25.8666H74.206V25.093Z" fill="#D02E26"/>
</svg>
