<svg width="94" height="97" viewBox="0 0 94 97" fill="none" xmlns="http://www.w3.org/2000/svg">
<path d="M46.8693 89.463C70.4798 89.463 89.6199 70.3046 89.6199 46.6714C89.6199 23.0383 70.4798 3.87988 46.8693 3.87988C23.2588 3.87988 4.11865 23.0383 4.11865 46.6714C4.11865 70.3046 23.2588 89.463 46.8693 89.463Z" fill="#741E78"/>
<path d="M30.7714 64.8281L34.5299 60.9425C38.865 64.9714 43.9656 67.0038 49.8653 66.6288C54.2837 66.3764 58.4805 64.6139 61.7508 61.6374C68.7702 55.3516 70.4736 45.1587 65.8754 37.0721C61.1934 28.8495 51.7099 25.0665 42.59 27.8631C32.8887 30.8365 28.3862 40.0073 28.7355 46.7994H36.7764C36.7381 47.0382 36.7525 47.1337 36.7094 47.1767C33.1375 50.7591 29.5585 54.3271 26.0942 57.7876L15.0771 46.8639H23.0726C23.3956 37.9629 26.9938 30.8389 34.3265 25.783C39.3028 22.3583 44.8915 21.0065 50.8749 21.5534C56.2757 22.0249 61.3804 24.222 65.4314 27.8185C69.4825 31.4151 72.2642 36.2195 73.3636 41.519C75.7728 52.8177 70.2296 64.2597 60.0953 69.3777C49.8797 74.5482 37.8338 72.1146 30.7714 64.8281Z" fill="white"/>
<path d="M45.8611 35.4683H50.0536V41.1743C50.0536 42.9459 50.0944 44.7198 50.0368 46.4913C50.0104 47.2913 50.308 47.7166 50.9775 48.1057C53.9485 49.8338 56.8859 51.6174 59.8905 53.4227L57.9322 56.7434C55.9764 55.5833 54.1237 54.4885 52.2734 53.3865C50.3824 52.2602 48.4793 51.1509 46.6171 49.9788C46.2787 49.7661 45.8971 49.2827 45.8971 48.9226C45.8419 44.4805 45.8611 40.0505 45.8611 35.4683Z" fill="white"/>
</svg>
