<svg width="39" height="34" viewBox="0 0 39 34" fill="none" xmlns="http://www.w3.org/2000/svg">
<path d="M10.4012 28.958L12.8921 26.3828C15.7651 29.0529 19.1455 30.3999 23.0555 30.1514C25.9837 29.9841 28.7651 28.816 30.9325 26.8434C35.5845 22.6775 36.7135 15.9222 33.666 10.563C30.5631 5.11347 24.278 2.60636 18.2338 4.45979C11.8044 6.43034 8.82042 12.5082 9.05191 17.0096H14.381C14.3556 17.1679 14.3651 17.2312 14.3366 17.2597C11.9693 19.6338 9.59734 21.9985 7.30147 24.2919L0 17.0523H5.29891C5.51296 11.1533 7.89763 6.43192 12.7573 3.08119C16.0553 0.811491 19.7591 -0.0843588 23.7246 0.278096C27.3039 0.590588 30.687 2.04665 33.3718 4.43023C36.0566 6.81382 37.9001 9.99792 38.6288 13.5101C40.2254 20.9982 36.5517 28.5813 29.8353 31.9731C23.065 35.3999 15.0818 33.787 10.4012 28.958Z" fill="white"/>
<path d="M20.402 9.50012H23.1806V13.2818C23.1806 14.4558 23.2076 15.6315 23.1694 16.8055C23.1519 17.3357 23.3492 17.6176 23.7929 17.8755C25.7619 19.0207 27.7086 20.2028 29.6998 21.3993L28.402 23.6C27.1058 22.8312 25.878 22.1056 24.6517 21.3752C23.3985 20.6288 22.1372 19.8937 20.903 19.1168C20.6788 18.9759 20.4259 18.6555 20.4259 18.4169C20.3893 15.4729 20.402 12.537 20.402 9.50012Z" fill="white"/>
</svg>
