<svg width="71" height="27" viewBox="0 0 71 27" fill="none" xmlns="http://www.w3.org/2000/svg">
<path d="M11.9126 0.776658C15.861 0.443897 19.6904 1.84676 22.4052 4.7243C23.3363 4.923 25.7559 4.47533 26.4941 4.83682C26.7799 4.97567 27.8754 6.17983 28.1873 6.49823C30.021 8.37988 31.7499 10.3717 33.617 12.2222C34.2123 13.0242 34.2695 13.7687 33.6622 14.5874C32.4977 16.1531 30.4663 17.9725 29.078 19.44C28.6898 19.8518 28.304 20.3641 27.9135 20.771C27.6444 21.0535 26.8061 21.9848 26.5441 22.1308C25.8511 22.5234 23.3125 22.0805 22.4052 22.2697C13.5606 31.4601 -1.67583 23.6199 0.76037 10.9127C1.77724 5.60289 6.52105 1.22912 11.9102 0.774264L11.9126 0.776658ZM19.8118 7.21642C18.5854 5.93565 17.2375 5.10015 15.5062 4.62615C15.2871 4.44182 15.7134 3.26877 14.7584 2.79716C14.2774 2.56016 12.7723 2.57452 12.2031 2.63198C11.5959 2.69422 11.0886 3.05571 11.0029 3.6925C10.9672 3.96542 11.0863 4.41069 10.8838 4.59024C10.7791 4.68361 9.7336 4.99961 9.4645 5.11931C1.81534 8.54028 2.50834 19.8518 10.4933 22.2529C19.5499 24.9772 26.2155 13.9123 19.8118 7.21642Z" fill="white"/>
<path d="M41.4687 4.7651C42.1926 4.67892 42.9071 4.79143 43.6286 4.82495C44.0335 4.8441 44.5669 4.66216 44.9479 4.97577L51.7517 12.1337C52.8019 13.4528 52.1875 14.2452 51.2492 15.3009C49.6275 17.1203 47.8604 18.8392 46.191 20.6155C45.9386 20.8836 44.9884 22.071 44.7574 22.1453C44.2407 22.2913 43.7548 22.1596 43.2333 22.1764C42.507 22.2027 41.8545 22.1764 41.14 22.1764C38.6538 22.1692 36.1652 22.1979 33.679 22.1692L33.5909 22.0232L40.5542 14.633C41.2448 13.6706 41.0781 12.883 40.3613 12.0116L33.5552 4.93507C33.629 4.82255 33.7052 4.82734 33.8219 4.81298C36.2152 4.54964 39.042 5.06435 41.4711 4.76271L41.4687 4.7651Z" fill="white"/>
<path d="M59.1936 4.77201C59.8913 4.76723 60.5867 4.75286 61.2773 4.7385C61.7155 4.73132 62.6323 4.68344 62.9943 4.89411L69.9505 12.1335C71.0769 13.5579 70.2767 14.367 69.2932 15.4563C67.6619 17.2589 65.9568 19.0568 64.2779 20.814C64.0612 21.039 63.1229 22.0516 62.9491 22.1378C62.5752 22.3198 61.6464 22.2671 61.2035 22.2575C60.5391 22.2456 59.8651 22.2336 59.1936 22.2288C56.7574 22.2144 54.3164 22.1474 51.8802 22.1689L51.7921 22.0229L58.753 14.6327C59.5746 13.5626 59.1864 12.7679 58.4053 11.8581L51.7563 4.93959L52.0231 4.8175C54.414 4.86777 56.8074 4.78638 59.1959 4.77201H59.1936Z" fill="white"/>
<path d="M17.1949 8.82772C18.5309 8.56918 19.1477 10.3 17.9879 11.0326L14.3753 13.3451L14.3181 19.4641C14.111 20.8047 12.2034 20.7425 12.0105 19.3205C12.1344 17.1994 11.8224 14.8485 12.001 12.7562C12.0486 12.196 12.1963 11.9351 12.6321 11.5904C13.3918 10.9871 15.7803 9.4717 16.6472 9.05754C16.7853 8.99051 17.0639 8.85406 17.1949 8.82772Z" fill="white"/>
</svg>
