<svg width="1920" height="498" viewBox="0 0 1920 498" fill="none" xmlns="http://www.w3.org/2000/svg">
<path d="M0 179.351C26.9439 170.072 54.9806 165.507 82.7726 159.881C90.3077 158.348 91.058 158.854 92.4606 166.273C94.8256 178.878 96.587 191.597 99.1966 204.153C100.452 210.235 103.029 216.057 105.003 221.992L106.715 221.65C106.813 220.166 106.911 218.666 107.042 217.182C108.738 198.348 110.255 179.498 112.212 160.68C113.06 152.543 117.284 146.347 125.08 142.89C129.908 140.737 134.622 138.291 139.417 136.073C148.762 131.752 156.444 125.49 163.066 117.566C174.108 104.357 188.428 94.9811 202.666 85.719C208.995 81.5934 212.925 83.1589 216.367 89.7304C219.857 96.4161 223.135 103.199 226.528 109.934C227.294 111.467 228.126 112.951 229.61 115.739C230.051 113.179 230.41 112.038 230.426 110.88C230.654 99.9708 231.307 89.0455 230.866 78.1527C230.524 69.8527 233.101 63.0692 238.401 57.0848C247.763 46.5345 257.141 35.9678 266.732 25.6132C271.853 20.0853 277.333 14.8836 282.813 9.69808C290.87 2.08295 300.509 -0.98267 311.551 0.27293C316.868 0.876271 320.636 3.50161 323.539 8.06743C328.497 15.8782 333.129 24.0641 339.213 30.9454C350.695 43.9091 355.816 59.1067 358.377 75.7883C363.514 109.461 354.772 141.308 345.704 173.04C343.6 180.427 339.62 187.7 334.972 193.847C326.491 205.066 319.918 217.149 313.671 229.705C308.534 240.044 300.721 249.077 294.051 258.649C293.251 259.791 292.224 260.769 290.691 262.53C293.985 262.775 296.464 263.101 298.96 263.134C320.587 263.443 341.366 267.455 360.791 277.288C377.802 285.897 392.073 297.752 400.668 315.037C406.034 325.816 414.303 332.061 425.345 335.583C430.695 337.279 436.028 339.106 441.166 341.323C449.614 344.992 455.486 351.124 456.888 360.549C458.666 372.485 465.353 380.899 475.612 386.427C482.364 390.063 489.606 392.77 496.619 395.917C499.115 397.043 500.566 396.178 502.213 394.026C507.938 386.509 513.973 379.22 519.844 371.8C521.019 370.316 522.193 368.735 522.943 367.006C535.469 338.095 556.737 317.858 585.019 304.748C593.451 300.834 602.144 297.443 610.919 294.393C629.724 287.887 646.719 277.842 663.714 267.83C684.786 255.404 707.718 249.404 731.922 248.034C745.85 247.235 759.828 247.219 773.789 246.892C781.911 246.697 789.61 248.588 795.807 253.872C809.214 265.302 822.295 277.141 835.506 288.8C810.062 276.88 786.592 285.115 763.302 295.681C764.019 296.399 764.753 296.725 765.471 296.725C779.905 296.774 794.323 296.79 808.757 296.774C809.687 296.774 810.796 296.643 811.514 296.154C818.755 291.213 826.91 289.24 835.506 288.686C834.217 289.583 833.059 290.936 831.64 291.311C814.645 295.845 803.652 307.373 795.041 321.919C787.473 334.687 780.231 347.503 780.264 362.978C770.087 386.068 774.425 412.469 763.416 435.444C754.707 453.61 746.715 472.134 738.462 490.528C737.5 492.68 736.978 495.012 736.26 497.279H719.885C720.815 496.692 721.695 495.942 722.69 495.518C732.541 491.457 739.62 484.853 742.556 474.319C742.98 472.803 743.877 471.4 744.48 469.933C746.894 464.111 749.275 458.274 751.673 452.452C750.205 452.615 749.471 453.153 748.9 453.855C735.657 470.014 719.118 481.869 700.427 490.903C695.991 493.055 691.538 495.159 687.102 497.295H677.463C679.681 496.398 681.899 495.469 684.134 494.621C711.763 484.282 735.64 468.677 753.288 444.592C755.881 441.054 757.284 436.667 759.241 432.672C758.882 432.526 758.539 432.379 758.18 432.232C754.119 434.319 750.042 436.39 745.981 438.477C751.167 432.738 758.132 428.759 761.769 422.758C765.471 416.676 765.879 408.604 767.934 400.614C759.143 408.979 751.966 417.034 743.583 423.557C719.298 442.456 690.576 450.512 660.729 454.507C632.921 458.225 604.949 460.654 577.059 463.72C575.885 463.85 574.173 464.258 573.749 465.073C570.682 470.976 567.877 477.026 564.289 484.494C579.343 483.304 592.978 482.211 606.629 481.135C605.455 482.423 604.183 483.206 602.862 483.369C593.32 484.478 583.779 486.011 574.222 486.337C562.854 486.712 562.837 486.256 558.075 496.855C558.01 497.001 558.01 497.165 557.977 497.328H552.187C566.752 469.183 579 439.782 596.99 413.431C596.289 413.512 595.848 413.724 595.555 414.067C594.609 415.159 593.695 416.268 592.815 417.409C573.634 441.902 558.466 468.71 546.413 497.328H543.526C544.081 496.545 544.815 495.844 545.174 494.996C550.148 483.027 555.123 471.058 559.983 459.04C560.407 457.996 560.489 456.496 560.065 455.485C551.225 434.515 546.087 412.534 542.238 390.227C540.248 378.73 537.867 367.088 540.901 355.412C542.368 349.803 544.75 344.422 547.18 337.671C545.174 339.807 543.787 340.899 542.874 342.302C536.285 352.314 530.446 362.88 523.057 372.257C517.838 378.877 518.116 385.155 519.796 392.346C520.888 397.026 521.541 401.804 522.372 406.533C522.976 410.023 523.563 413.512 524.15 417.002C523.433 417.132 522.731 417.279 522.014 417.409C519.795 406.37 517.594 395.347 515.212 383.459C510.417 390.39 505.475 395.918 504.529 404.25C502.377 423.068 505.851 441.005 511.869 458.567C516.338 471.596 521.394 484.413 526.189 497.328H523.302C518.752 485.342 514.038 473.422 509.716 461.355C504.154 445.848 500.729 429.9 501.414 413.284C501.512 410.871 501.74 408.474 502.001 404.756C500.664 406.484 500.093 407.022 499.751 407.674C492.656 420.981 485.528 434.27 478.597 447.674C477.716 449.386 477.422 451.751 477.716 453.675C479.95 468.253 482.381 482.782 484.762 497.328H481.875C479.526 483.695 477.178 470.063 474.699 455.713C473.622 457.654 472.627 459.056 471.991 460.622C469.072 467.715 466.234 474.857 463.396 481.983C461.406 486.989 460.297 492.077 462.597 497.311H453.92C455.584 491.131 457.427 484.984 458.797 478.738C459.106 477.303 458.307 475.053 457.215 473.977C451.066 467.878 444.737 461.959 438.311 456.154C437.023 454.98 435.098 454.018 433.402 453.871C419.327 452.762 405.251 451.833 391.16 450.903C389.202 450.773 387.245 450.887 384.473 450.887C392.53 464.845 405.79 472.542 414.581 484.266C403.115 475.363 390.736 467.405 383.657 454.115C382.108 451.213 380.314 450.169 377.019 449.827C361.231 448.196 345.492 446.19 329.737 444.283C326.866 443.94 324.028 443.451 320.293 442.913C321.419 444.576 321.777 445.294 322.299 445.848C338.218 463.002 354.136 480.157 370.071 497.311H365.259C365.031 496.887 364.884 496.414 364.574 496.072C349.064 478.575 333.537 461.078 318.01 443.581C317.374 442.864 316.738 441.918 315.922 441.657C309.268 439.586 302.581 437.662 295.894 435.705L294.475 436.961C301.064 448.816 307.669 460.687 314.373 472.721C313.818 472.525 313.313 472.477 313.035 472.216C311.991 471.221 310.964 470.21 310.051 469.101C302.532 459.953 297.019 449.68 293.463 438.412C292.55 435.51 291.196 433.928 288.179 433.015C278.98 430.243 269.896 427.095 260.746 424.128C259.164 423.606 257.533 423.247 255.054 422.579C256.049 424.666 256.473 425.856 257.125 426.9C263.225 436.684 268.95 446.761 275.62 456.154C285.537 470.128 296.155 483.598 306.462 497.295H302.613C302.287 496.741 302.01 496.154 301.602 495.664C282.96 473.276 266.585 449.386 253.26 423.443C252.509 421.975 250.585 420.752 248.921 420.149C240.489 417.083 231.861 414.523 223.494 411.262C215.323 408.066 207.445 404.12 199.356 400.695C191.429 397.336 183.404 394.222 174.189 390.487C175.103 393.08 175.331 393.993 175.723 394.841C188.314 422.122 202.454 448.506 220.053 472.949C225.941 481.135 232.04 489.174 238.043 497.279H234.193C233.443 496.072 232.791 494.784 231.91 493.675C211.262 467.65 194.022 439.521 180.403 409.207C177.647 403.076 176.62 395.379 172.2 391.009C167.633 386.509 159.902 385.237 153.59 382.465C149.741 380.785 145.957 378.959 141.243 376.774C151.519 405.538 164.632 431.645 178.691 457.409C176.897 456.04 175.462 454.425 174.304 452.648C160.75 431.449 149.676 409.012 142.059 385.074C139.857 378.176 136.677 373.773 130.332 370.17C121.166 364.968 112.864 358.233 104.139 352.232C98.0875 348.074 91.6778 344.731 84.0284 343.541C85.8878 356.472 89.9652 368.033 95.5106 379.138C114.512 417.116 137.182 452.86 161.468 487.642C163.653 490.772 165.627 494.05 167.698 497.262H163.849C163.131 495.86 162.577 494.344 161.68 493.088C141.048 464.388 122.422 434.433 105.297 403.533C95.4617 385.791 86.2466 367.805 83.5555 347.357C83.0988 343.867 81.533 342.383 78.4505 340.867C72.5952 337.997 66.9846 334.54 61.6513 330.789C57.3455 327.756 53.6268 323.892 49.582 320.467C48.8644 319.864 47.8695 319.603 46.4994 318.935C49.0927 333.04 57.7043 344.47 58.6503 358.331C53.1212 345.596 48.6034 332.518 43.9877 319.456C43.3842 317.744 42.7155 315.51 41.3618 314.711C30.6299 308.319 19.7186 302.204 8.83995 296.024C8.69316 295.942 8.31803 296.252 7.99184 296.415C7.95922 296.856 7.82874 297.345 7.91029 297.801C11.9225 323.239 17.5494 348.254 28.526 371.702C49.0275 415.485 71.4372 458.208 100.257 497.262H96.4076C96.1141 496.692 95.9183 496.072 95.5432 495.567C71.9591 464.323 54.1651 429.656 36.3058 395.053C21.2681 365.914 10.5525 335.339 7.40468 302.514C6.86645 296.856 6.06727 292.159 0.0489296 290.121C0 288.539 0 286.941 0 285.327C6.24668 288.931 12.3466 292.812 18.7563 296.105C35.9469 304.911 52.3057 314.776 66.74 327.887C71.6329 332.338 78.4505 335.094 84.8113 337.442C94.1895 340.916 103.453 344.324 111.299 350.748C125.782 362.636 141.814 372.012 158.874 379.627C177.125 387.781 195.343 395.999 213.773 403.712C221.292 406.859 229.317 408.734 237.129 411.18C239.184 411.816 241.256 412.436 243.311 413.056C241.843 411.197 240 410.349 238.189 409.468C211.881 396.863 185.476 384.454 159.315 371.556C149.268 366.598 139.955 360.223 130.022 355.021C116.844 348.123 102.964 342.514 90.1773 335.013C65.0111 320.239 40.2691 304.699 15.6249 289.077C10.6503 285.93 5.87155 283.142 0.0163099 282.441V276.652C9.65544 279.065 19.0662 282.767 30.1733 282.538C28.8358 278.641 28.0693 275.347 26.634 272.412C20.6646 260.231 10.0795 252.29 0 243.908C0 241.332 0 238.755 0 236.195C10.2915 240.044 20.5831 243.876 31.9347 248.115C30.9724 221.666 34.4791 197.125 44.5422 173.725C35.9633 173.008 31.5759 175.111 29.1947 182.368C25.1009 194.826 21.6106 207.48 17.9572 220.085C17.1417 222.873 16.685 225.759 16.0652 228.613C15.6575 228.515 15.2497 228.417 14.842 228.303C15.2008 210.317 20.9582 193.619 28.738 177.052C21.7574 177.247 16.5219 179.106 13.4556 184.781C8.88888 193.211 4.4689 201.707 0 210.186C0 207.3 0 204.398 0 201.511C4.1264 194.956 8.23648 188.385 12.95 180.884C8.02446 182.498 4.01223 183.819 0 185.14C0 183.215 0 181.291 0 179.351ZM255.315 410.659C258.577 401.103 265.313 393.912 272.114 386.933C302.825 355.494 341.496 341.845 384.212 337.589C392.905 336.725 401.663 336.513 410.389 336.007C402.756 330.561 399.005 322.538 394.422 315.086C393.655 313.847 391.208 312.868 389.659 312.999C383.445 313.57 377.28 314.581 371.098 315.494C364.77 316.423 358.458 317.434 352.13 318.413C352.016 317.679 351.885 316.945 351.771 316.211C364.656 313.928 377.525 311.645 390.67 309.314C386.903 303.786 383.396 298.829 375.323 298.193C361.492 297.1 348.069 298.372 334.825 302.041C316.607 307.096 299.906 315.689 283.384 324.658C253.7 340.769 224.897 358.201 199.111 380.198C197.839 381.274 196.664 382.465 195.245 383.785C196.371 384.519 196.86 384.959 197.431 385.22C215.535 393.471 233.639 401.723 251.775 409.908C252.868 410.398 254.222 410.316 255.461 410.512C256.407 411.311 257.256 412.338 258.348 412.86C265.313 416.17 272.375 419.236 279.274 422.644C281.72 423.851 282.878 422.986 284.558 421.323C287.38 418.551 290.609 416.186 293.675 413.643C293.969 414.001 294.263 414.344 294.573 414.703C291.343 417.801 288.114 420.899 284.542 424.307C286.271 425.498 286.972 426.166 287.804 426.525C303.2 433.227 319.298 437.483 335.902 439.684C337.353 439.88 339.425 438.592 340.55 437.385C368.163 407.74 402.43 391.694 442.487 387.781C450.348 387.014 458.34 387.666 467.539 387.666C465.924 385.84 465.402 385.09 464.733 384.519C457.965 378.779 454.034 371.49 452.354 362.799C451.098 356.342 450.87 356.342 444.362 357.026C419.62 359.636 395.824 365.946 372.86 375.453C371.522 376.007 370.185 376.545 368.815 377.018C367.641 377.41 366.434 377.703 365.243 378.029C391.143 363.337 419.082 356.146 448.668 354.515C448.423 353.635 448.407 353.113 448.163 352.771C447.592 352.004 447.021 351.172 446.271 350.618C436.778 343.574 425.671 338.486 414.385 338.6C396.362 338.78 378.161 340.85 360.415 344.177C326.524 350.52 296.513 365.261 272.31 390.406C266.226 396.733 260.991 403.875 255.347 410.659H255.315ZM155.286 364.087C167.975 370.528 179.637 376.545 191.429 382.269C192.456 382.774 194.691 381.796 195.833 380.85C200.889 376.643 205.553 371.979 210.691 367.87C240.195 344.291 272.848 325.832 306.772 309.575C324.86 300.899 343.828 295.111 364.248 295.714C368.782 295.844 373.317 296.203 379.172 296.529C377.117 294.67 376.024 293.594 374.85 292.648C365.472 285.131 354.952 279.701 343.584 275.983C340.322 274.923 336.57 274.173 333.26 274.662C304.098 279 274.772 282.653 245.888 288.441C198.931 297.867 154.895 315.249 114.561 341.421C113.696 341.976 112.995 342.791 112.081 343.639C112.864 344.291 113.288 344.878 113.843 345.074C127.25 349.509 140.673 353.879 152.66 361.69C153.378 362.163 155.417 361.576 156.216 360.81C171.939 345.775 190.14 334.491 209.761 325.359C211.963 324.332 214.328 323.647 216.611 322.799C216.823 323.239 217.035 323.663 217.247 324.104C195.539 334.915 175.054 347.569 155.335 364.071L155.286 364.087ZM775.567 360.353L774.164 359.717C773.659 360.043 773.088 360.304 772.647 360.712C757.789 374.996 740.093 384.519 720.798 391.205C684.232 403.859 646.23 408.327 607.852 410.235C604.558 410.398 602.519 411.262 600.97 414.148C592.88 429.085 584.66 443.94 576.538 458.861C575.983 459.872 575.787 461.078 575.282 462.627C576.798 462.546 577.744 462.546 578.674 462.432C598.393 459.953 618.111 457.507 637.83 454.98C660.109 452.126 682.34 448.963 703.657 441.478C727.746 433.015 748.868 420.133 764.444 399.374C765.814 397.548 766.727 395.233 767.281 392.999C768.929 386.378 770.152 379.66 771.783 373.056C772.843 368.784 774.311 364.609 775.583 360.386L775.567 360.353ZM63.739 311.841C65.0275 313.374 65.3536 313.977 65.8429 314.303C80.2119 323.402 94.5646 332.518 109.048 341.437C109.977 342.008 112.163 341.649 113.158 340.916C135.176 324.381 159.674 312.542 185.296 302.922C225.027 288.001 266.324 279.848 308.354 274.972C314.748 274.222 321.141 273.554 327.535 272.852L327.274 270.896C270.564 263.721 215.633 270.26 162.789 293.725C175.918 285.213 190.646 280.794 204.999 275.641C196.534 275.412 188.232 275.429 179.93 275.396C176.75 275.396 173.309 274.45 170.406 275.331C143.739 283.484 117.072 291.719 90.585 300.459C81.5493 303.427 73.003 307.862 63.7227 311.841H63.739ZM340.583 440.206C342.801 440.777 344.008 441.282 345.247 441.396C375.111 444.12 404.958 446.859 434.837 449.403C436.631 449.55 438.866 448.539 440.35 447.364C452.012 438.168 464.521 430.324 478.254 424.764C484.354 422.301 488.481 418.844 491.041 412.86C492.803 408.734 495.412 404.951 497.63 401.005C497.272 400.597 496.913 400.19 496.554 399.798C472.856 402.603 450.152 409.387 427.84 417.817C446.466 406.696 467 401.494 488.187 398.119C483.637 395.461 479.249 393.194 474.715 391.254C472.415 390.275 469.887 389.362 467.441 389.297C433.043 388.335 401.011 396.423 371.734 414.8C360.579 421.796 350.385 429.982 340.566 440.19L340.583 440.206ZM602.829 303.59C588.052 308.286 573.553 313.684 562.413 324.218C549.904 336.056 540.966 350.488 542.482 368.832C544.913 398.054 552.089 426.296 561.092 454.115C561.141 454.278 561.614 454.311 561.989 454.425C562.299 454.148 562.739 453.903 562.984 453.528C569.443 443.386 575.967 433.292 582.23 423.019C583.061 421.649 583.127 419.317 582.637 417.719C579.278 406.892 577.728 395.836 577.989 384.536C578.022 383.28 578.348 382.041 578.544 380.785C578.756 380.85 578.968 380.899 579.18 380.964C580.974 393.145 582.768 405.343 584.562 417.524C585.068 417.556 585.59 417.589 586.095 417.621C590.629 411.882 595.212 406.174 599.632 400.353C600.187 399.635 600.138 398.266 600.024 397.255C598.376 383.101 596.06 368.979 595.098 354.776C593.924 337.377 592.537 319.685 602.829 303.574V303.59ZM604.933 407.919C605.161 408.294 605.39 408.669 605.602 409.044C607.347 408.914 609.092 408.849 610.821 408.653C626.266 406.794 641.761 405.212 657.141 402.962C682.584 399.244 707.734 394.205 731.514 383.932C746.943 377.263 761.394 369.028 773.235 356.863C774.833 355.216 775.551 352.738 776.692 350.634C776.236 350.373 775.779 350.129 775.322 349.868C773.071 351.352 770.902 352.966 768.57 354.303C766.352 355.575 763.954 356.57 761.638 357.695C761.345 357.238 761.035 356.782 760.741 356.325C768.749 349.558 781.014 346.493 781.683 333.415C770.723 337.622 759.958 342.22 748.9 345.938C716.737 356.733 683.873 363.419 649.704 362.081C648.187 362.016 646.197 362.897 645.153 364.022C631.665 378.584 618.323 393.26 604.933 407.903V407.919ZM601.443 397.026C602.633 396.407 602.976 396.325 603.188 396.113C616.513 381.992 629.838 367.887 643.065 353.651C644.126 352.51 644.648 350.618 644.876 349.004C646.181 339.823 646.474 330.398 648.692 321.446C652.525 305.971 657.5 290.789 662.083 275.168C659.995 276.326 657.728 277.712 655.363 278.869C642.723 285.115 630.393 292.159 617.28 297.198C608.978 300.378 604.297 305.596 601.361 313.146C599.861 316.994 598.311 321.168 598.344 325.196C598.474 343.133 599.078 361.054 599.73 378.991C599.942 384.845 600.823 390.667 601.443 397.026ZM258.169 42.5068C257.125 43.0612 256.473 43.2243 256.081 43.6482C249.052 51.1329 241.973 58.5686 235.156 66.2164C234.242 67.2437 234.389 69.4288 234.438 71.0594C234.797 85.7842 235.661 100.525 235.368 115.234C235.286 119.49 235.368 123.305 236.852 127.235C238.744 132.241 240.407 137.329 242.169 142.384C241.5 142.645 240.848 142.889 240.179 143.15C238.01 137.639 235.694 132.193 233.72 126.616C232.742 123.86 232.367 121.349 228.469 120.941C226.805 120.762 224.848 118.332 223.967 116.473C219.906 107.945 216.171 99.2371 212.289 90.6272C211.621 89.1597 210.789 87.7736 209.826 85.9636C203.498 96.2204 226.446 167.398 239.657 180.231C240.587 179.139 241.729 178.177 242.43 176.97C251.727 160.517 260.974 144.047 270.108 127.496C270.646 126.534 270.303 124.675 269.733 123.583C258.56 102.417 254.401 79.8812 256.505 56.1226C256.897 51.7362 257.582 47.3661 258.185 42.4904L258.169 42.5068ZM205.309 166.681C209.419 176.09 213.529 185.515 218.144 196.065C224.701 191.776 230.034 188.336 235.319 184.83C237.635 183.297 237.635 181.699 236.02 179.253C221.309 156.962 212.061 132.535 208.081 106.118C207.233 100.493 206.564 94.8343 205.7 88.2954C195.033 96.3508 184.562 102.841 181.806 117.011C177.419 139.481 179.898 161.104 187.221 182.384C190.32 191.385 194.185 200.109 197.822 209.273C204.461 204.316 210.316 199.946 216.399 195.396C209.729 187.015 205.227 177.72 205.325 166.697L205.309 166.681ZM134.263 219.057C134.703 218.862 135.144 218.666 135.584 218.486C139.58 227.928 143.576 237.369 147.767 247.267C151.16 244.528 154.014 242 157.129 239.815C159.396 238.217 159.559 236.652 158.744 234.108C155.352 223.411 151.992 212.698 149.072 201.87C144.701 185.661 141.945 169.241 144.815 152.396C145.631 147.635 147.017 142.971 148.338 137.508C138.879 141.634 130.267 145.466 121.574 149.119C118.018 150.619 116.567 153.065 116.289 156.848C115.604 165.963 114.348 175.046 113.81 184.161C113.158 195.201 111.087 206.632 113.093 217.231C115.979 232.526 121.949 247.251 126.679 262.204C126.972 263.15 127.853 263.9 128.897 265.351C135.062 259.66 140.868 254.279 146.528 249.061C140.819 239.114 136.22 229.591 134.263 219.041V219.057ZM214.703 217.084C216.742 218.535 218.65 219.921 220.591 221.259C236.738 232.429 253.292 242.799 273.011 246.55C275.327 246.99 277.985 247.561 280.089 246.843C286.597 244.642 293.007 242.049 299.286 239.261C306.642 236 309.529 229.51 311.225 222.791H281.671C283.678 221.731 285.798 221.307 287.951 221.144C293.855 220.737 299.808 220.688 305.68 219.97C308.436 219.628 312.138 218.861 313.492 216.954C317.374 211.458 320.277 205.262 323.784 198.984C296.921 206.534 272.473 201.789 250.96 187.292C238.646 197.402 226.854 207.088 214.703 217.068V217.084ZM348.395 140.395C325.154 160.68 299.563 158.527 272.897 149.38C265.704 161.202 258.495 173.057 251.302 184.879C267.58 198.071 303.119 203.957 321.989 196.375C325.284 195.054 328.921 193.048 330.911 190.293C341.561 175.503 345.508 158.185 348.395 140.411V140.395ZM162.919 127.627L161.712 126.942C158.271 130.382 153.786 133.285 151.682 137.411C149.121 142.4 148.191 148.369 147.245 154.027C145.158 166.567 146.724 179.041 149.561 191.255C153.019 206.175 157.097 220.949 161.174 236.913C173.765 228.042 185.476 219.791 197.154 211.556C179.849 178.112 169.835 144.667 181.676 107.749C177.826 110.505 174.01 113.195 171.188 116.685C168.791 119.636 166.654 123.354 165.953 127.023C164.567 134.231 163.979 141.618 163.572 148.972C163.197 155.543 163.49 162.147 163.49 168.735C163.082 168.735 162.675 168.735 162.267 168.735C158.907 155.07 160.505 141.373 162.903 127.659L162.919 127.627ZM285.031 126.061H312.252C312.318 126.616 312.399 127.186 312.464 127.741C310.899 128.181 309.317 128.996 307.751 128.98C301.064 128.931 294.377 128.556 287.69 128.491C286.173 128.491 283.792 128.703 283.253 129.649C279.861 135.601 276.893 141.781 273.256 148.89C284.33 150.407 294.556 152.576 304.88 153.065C320.163 153.782 334.091 149.298 345.476 138.601C347.629 136.579 350.108 134.002 350.613 131.328C353.337 116.995 355.604 102.58 357.724 88.1486C358.034 86.0125 356.811 83.6318 355.995 80.0443C350.271 88.752 343.91 94.4103 336.032 97.9488C323.474 103.591 310.393 107.113 296.399 106.2C294.997 106.102 292.681 106.966 292.208 108.026C289.712 113.538 287.673 119.261 285.031 126.061ZM675.294 328.294C681.41 324.756 686.678 321.804 691.832 318.657C692.647 318.168 693.072 316.864 693.463 315.869C698.535 303.052 703.461 290.186 708.615 277.418C712.758 267.161 719.624 259.399 730.193 255.355C730.813 255.127 731.449 254.964 732.068 254.768C730.16 253.545 729.1 253.366 728.056 253.464C711.371 255.209 695.176 258.698 679.714 265.547C670.645 269.558 664.872 275.999 662.05 285.245C658.168 297.981 654.205 310.7 650.878 323.582C648.758 331.817 647.746 340.345 646.05 349.803C654.221 343.639 661.055 338.144 668.264 333.186C671.51 330.952 672.831 328.637 672.978 324.642C673.173 319.456 674.527 314.303 675.392 309.134C676.06 309.248 676.729 309.363 677.398 309.477C676.729 315.38 676.06 321.283 675.261 328.294H675.294ZM82.3485 164.365C81.9082 163.99 81.4841 163.631 81.0437 163.256C79.5432 164.642 77.5371 165.751 76.6238 167.463C74.5198 171.41 72.6278 175.535 71.2252 179.759C63.1192 204.023 65.5657 228.091 72.5952 252.127C73.8021 256.285 75.743 258.144 80.0488 258.568C89.9326 259.563 99.7675 261.014 109.635 262.237C114.414 262.824 119.209 263.329 123.922 263.867C119.666 251.784 115.637 240.402 111.641 229.053C105.769 231.564 103.992 230.928 100.893 224.879C94.1732 211.752 92.3139 197.435 90.7807 183.069C90.0305 175.975 89.4922 168.866 88.8562 161.756C88.4484 161.544 88.057 161.316 87.6492 161.104C86.6217 162.359 84.9418 163.485 84.6645 164.887C83.1314 172.567 81.6961 180.28 80.7338 188.042C80.1956 192.445 80.636 196.962 80.636 201.43C80.1141 201.397 79.5759 201.365 79.0539 201.332C75.792 188.695 78.3689 176.481 82.3648 164.349L82.3485 164.365ZM271.07 123.012C271.527 122.963 272 122.914 272.456 122.865C273.256 121.528 274.104 120.224 274.838 118.87C279.16 110.831 283.286 102.678 287.837 94.7527C289.712 91.4751 289.37 89.5347 287.054 86.4201C282.78 80.6639 279.535 74.1576 275.849 67.9448C276.485 67.5535 277.121 67.1622 277.773 66.7708C282.095 73.5869 286.401 80.4193 291.196 88.0181C293.137 84.5285 294.214 82.1968 295.649 80.1259C298.128 76.571 297.525 73.6032 295.812 69.6245C291.8 60.2645 288.244 50.5948 285.684 40.7293C283.792 33.4403 283.759 25.6784 282.878 17.9818C282.356 18.1448 281.802 18.1611 281.525 18.4383C274.968 24.8142 268.411 31.1574 261.969 37.6474C261.056 38.5769 260.469 40.126 260.289 41.4631C257.794 60.6885 257.647 79.8486 262.931 98.6827C265.247 106.901 268.33 114.924 271.054 123.028L271.07 123.012ZM75.2211 165.311C67.6533 167.17 61.374 169.208 54.9479 170.138C49.1579 170.969 46.4994 174.084 44.689 179.204C37.1865 200.321 34.267 222.09 34.5117 244.397C34.5443 247.708 35.8165 249.322 39.0132 250.023C47.2986 251.833 55.5351 253.888 63.8205 255.763C65.9245 256.236 68.0937 256.366 71.0295 256.758C61.5371 225.694 58.7971 195.625 75.2374 165.311H75.2211ZM185.117 238.674C194.43 250.268 204.346 260.378 216.318 268.319C217.492 269.102 219.4 269.102 220.917 268.955C232.562 267.748 244.191 266.411 255.804 265.074C256.897 264.944 258.234 264.813 258.968 264.145C264.089 259.481 269.08 254.687 274.495 249.567C269.357 248.311 264.823 247.431 260.42 246.077C243.751 240.892 229.512 231.434 215.959 220.737C214.638 219.693 211.8 218.715 210.854 219.383C202.259 225.498 193.924 231.988 185.084 238.674H185.117ZM650.666 359.391C650.845 359.799 651.008 360.206 651.188 360.614C652.917 360.614 654.678 360.81 656.374 360.581C675.408 358.07 694.588 356.244 713.426 352.722C735.999 348.498 757.659 340.883 778.731 331.686C785.76 328.621 790.05 323.337 791.061 316.701C789.626 317.304 788.321 317.858 787.016 318.396C771.865 324.723 756.419 330.056 739.767 330.316C725.985 330.528 712.187 330.398 698.405 330.512C696.399 330.528 694.034 330.594 692.452 331.588C679.583 339.693 666.829 347.993 654.091 356.309C652.835 357.124 651.824 358.347 650.682 359.375L650.666 359.391ZM781.83 253.121C781.618 252.893 781.471 252.567 781.226 252.469C780.623 252.257 779.987 252.078 779.367 252.013C766.515 250.496 753.989 249.958 745.345 262.367C744.17 264.063 742.605 265.514 741.137 266.998C740.354 267.797 739.375 268.401 738.478 269.086L737.173 267.814C741.512 262.807 745.867 257.801 750.205 252.795C749.944 252.42 749.699 252.045 749.438 251.67C735.869 254.687 722.299 258.698 715.09 272.037C707.865 285.392 702.384 299.676 696.17 313.57C695.877 314.222 695.893 315.005 695.665 316.211C696.904 315.804 697.671 315.657 698.323 315.314C713.279 307.569 728.236 299.856 743.127 291.996C744.562 291.23 745.899 289.795 746.698 288.344C754.837 273.39 764.737 260.264 781.438 253.969C781.634 253.888 781.699 253.448 781.83 253.154V253.121ZM795.889 310.504H778.274C778.242 309.966 778.209 309.444 778.176 308.906C783.493 308.433 788.827 307.438 794.127 307.602C799.934 307.781 802.494 304.21 805.822 299.856C802.152 299.856 799.184 299.937 796.215 299.856C784.684 299.465 773.169 298.926 761.655 298.666C758.621 298.6 755.18 298.551 752.57 299.84C738.331 306.851 724.272 314.255 710.181 321.576C706.576 323.451 703.053 325.49 698.78 327.854C721.989 333.268 786.902 321.543 795.905 310.504H795.889ZM293.529 104.308C296.497 104.308 298.568 104.488 300.591 104.276C312.954 102.988 324.942 100.232 336.097 94.5571C342.915 91.0838 348.803 86.4528 353.011 79.9465C353.777 78.7724 354.87 77.2069 354.625 76.0981C353.027 69.1841 351.103 62.3517 349.276 55.5193C347.889 55.878 347.498 55.8618 347.286 56.0411C337.712 64.439 326.654 68.7276 313.834 68.4178C312.611 68.3852 310.85 69.6081 310.214 70.7333C306.038 78.1201 301.977 85.6048 298.112 93.1711C296.399 96.5139 295.209 100.134 293.512 104.292L293.529 104.308ZM310.882 50.7089C311.388 50.2523 311.975 49.9262 312.269 49.437C316.738 41.8382 321.19 34.2394 325.529 26.559C325.985 25.7437 326.148 24.3087 325.741 23.526C323.294 18.846 320.913 14.0845 317.896 9.7796C316.575 7.90435 313.965 6.32261 311.682 5.84972C303.364 4.12124 295.665 6.24111 289.174 11.5896C287.413 13.0409 285.945 16.0413 285.961 18.3079C286.157 35.5276 290.169 51.9482 297.215 67.6513C297.802 68.9722 298.617 70.2115 299.743 72.2335C302.939 66.3794 305.516 61.406 308.354 56.5956C309.627 54.4268 309.3 53.0897 307.653 51.2145C305.614 48.9152 304.195 46.0453 302.499 43.4199C303.054 43.0286 303.625 42.6535 304.179 42.2622C306.365 45.018 308.55 47.7901 310.866 50.6926L310.882 50.7089ZM163.343 275.429C163.343 274.94 163.343 274.45 163.327 273.961C161.843 273.863 160.326 273.505 158.891 273.7C136.204 276.945 113.5 280.043 90.8786 283.615C69.6268 286.974 48.4403 290.414 26.8134 288.017C25.5739 287.871 24.2854 288.001 23.0295 288.001C22.9969 288.311 22.9806 288.604 22.948 288.914C31.3639 293.839 39.7961 298.763 47.527 303.28C51.898 301.258 55.6819 299.497 59.4495 297.752C59.792 298.453 60.1345 299.155 60.4607 299.856C57.2966 301.519 54.1161 303.166 50.9683 304.813C60.1997 312.493 60.1671 312.363 69.7573 306.802C74.1773 304.242 78.7767 301.764 83.5881 300.133C98.4464 295.078 113.403 290.317 128.408 285.669C140.004 282.082 151.698 278.837 163.36 275.445L163.343 275.429ZM78.744 280.565C79.0376 280.043 79.3475 279.505 79.6411 278.984C74.7644 274.255 70.1487 269.2 64.9133 264.895C61.7981 262.335 57.8837 260.41 54.0183 259.204C44.1019 256.089 33.9898 253.627 24.0244 250.724C18.8868 249.224 13.8797 247.316 8.80733 245.604C9.78592 248.05 11.3517 249.518 12.95 250.953C22.0183 259.122 29.9449 267.96 31.6411 280.794C31.7716 281.805 33.6799 283.289 34.8216 283.354C49.5657 284.234 64.1956 282.979 78.7277 280.582L78.744 280.565ZM182.622 240.696C173.945 247.349 164.615 254.508 154.683 262.123C157.896 265.433 160.342 270.243 163.425 270.7C171.319 271.858 179.506 271.091 188.248 271.091C186.079 268.596 184.318 266.574 182.573 264.569C187.629 266.199 191.641 269.787 196.208 270.781C200.872 271.809 206.075 270.276 211.017 269.868C201.508 260.101 192.408 250.757 182.622 240.712V240.696ZM750.629 287.512C771.114 278.576 791.453 270.08 814.792 275.233C807.534 268.759 800.211 262.661 792.415 257.214C790.344 255.763 786.543 255.323 784.081 256.106C768.097 261.209 758.817 273.766 750.613 287.512H750.629ZM327.682 26.2492C322.805 39.9629 318.206 52.8614 313.476 66.1675C325.757 65.7272 336.375 61.5038 345.737 54.0191C346.471 53.4321 346.78 51.3611 346.356 50.4154C342.148 41.088 334.891 34.1578 327.682 26.2492ZM67.686 261.943C72.0896 267.047 76.3628 271.173 79.5759 276C81.7288 279.212 83.6696 280.109 87.323 279.505C100.126 277.418 112.962 275.576 125.814 273.717C130.87 272.983 135.959 272.461 141.031 271.841C141.031 271.417 141.031 270.993 141.031 270.569C116.828 267.716 92.6237 264.862 67.7023 261.927L67.686 261.943ZM239.298 190.847C238.923 190.358 238.548 189.869 238.157 189.379C202.373 212.143 168.155 237.011 135.975 264.585C136.432 265.368 136.889 266.134 137.345 266.917C139.596 265.938 142.141 265.351 144.032 263.9C168.481 245.197 192.815 226.379 217.215 207.61C224.538 201.968 231.943 196.424 239.298 190.831V190.847ZM483.212 427.014C482.935 426.704 482.658 426.394 482.397 426.101C467.979 432.102 454.474 439.651 441.231 449.81C449.598 451.082 456.644 452.403 463.771 453.104C465.973 453.316 469.512 452.55 470.409 451.033C475.041 443.239 479.021 435.053 483.229 427.014H483.212ZM467.881 455.893C458.014 455.208 449.19 454.588 440.366 453.969C440.22 454.442 440.089 454.898 439.942 455.371C446.613 461.127 453.284 466.883 460.476 473.096C462.988 467.258 465.157 462.203 467.881 455.893ZM300.672 243.452L299.792 242.31C292.403 245.93 284.933 249.42 277.692 253.317C276.354 254.035 275.245 256.481 275.278 258.079C275.327 259.807 276.827 262.954 277.741 262.971C281.247 263.052 286.124 263.378 288.016 261.324C292.925 256.008 296.53 249.485 300.64 243.452H300.672ZM804.925 278.641C787.212 277.01 771.652 283.419 756.566 291.491C772.468 286.419 787.652 278.739 804.925 278.641ZM261.48 155.413C262.002 155.69 262.524 155.951 263.046 156.228C269.994 143.053 276.942 129.877 283.89 116.701C283.351 116.408 282.797 116.131 282.259 115.837C275.327 129.029 268.411 142.221 261.48 155.413ZM148.306 266.949C148.436 267.39 148.567 267.83 148.697 268.27C151.372 268.645 154.03 269.02 157.716 269.526C156.036 266.754 155.009 265.058 153.737 262.954C151.714 264.438 150.002 265.677 148.306 266.933V266.949Z" fill="#005DCA" fill-opacity="0.05"/>
<path d="M1412.71 497.295C1408.78 484.086 1404.84 470.894 1400.94 457.686C1400.02 454.62 1399.16 451.522 1398.38 448.424C1396.34 440.466 1396.7 439.733 1404.48 437.629C1411.9 435.623 1419.47 434.091 1426.84 431.938C1434.98 429.557 1443.02 426.818 1451.02 424.013C1453.5 423.149 1455.72 421.535 1457.79 419.382C1453.76 419.382 1449.75 419.447 1445.72 419.382C1428.42 419.056 1411.1 418.909 1393.81 418.224C1387.87 417.996 1382.74 415.208 1379.49 409.778C1376.28 404.413 1372.92 399.129 1369.79 393.716C1364.71 384.975 1358.14 377.801 1349.72 372.028C1335.52 362.277 1325.28 348.53 1314.4 335.485C1313.3 334.181 1312.64 332.42 1312.1 330.756C1310.92 327.104 1311.35 324.234 1315.25 321.983C1323.84 317.026 1332.16 311.596 1340.53 305.106C1335.76 305.318 1331 305.432 1326.25 305.791C1316.81 306.492 1307.38 307.78 1297.96 307.862C1294.07 307.895 1289.72 306.182 1286.33 304.079C1265.91 291.458 1247.54 276.13 1229.91 259.937C1221.77 252.453 1218.32 242.489 1220.22 231.499C1220.84 227.96 1223.49 224.226 1226.24 221.715C1233.32 215.29 1241.64 210.137 1248.24 203.321C1260.41 190.749 1275.53 185.041 1291.87 180.361C1311.84 174.638 1331.64 177.377 1351.49 179.155C1363.28 180.198 1375 182.204 1386.65 184.373C1397.17 186.33 1406.47 191.401 1415.73 196.733C1424.28 201.658 1433.26 206.044 1442.48 209.583C1457.76 215.469 1471.67 223.068 1484.1 233.977C1497.83 246.028 1512.68 256.79 1526.98 268.204C1555.95 291.294 1578.63 319.391 1594.18 353.129C1607.91 382.937 1624.19 411.196 1643.35 437.923C1656.15 455.794 1664.36 476.08 1670.03 497.327H1630.53C1630.99 496.186 1631.46 495.044 1632.08 493.528C1620.97 487.625 1613.52 478.787 1610.54 465.807C1595.29 478.526 1577.05 482.749 1559.68 489.924C1560.55 492.566 1561.33 494.946 1562.11 497.327H1556.32C1551.51 482.211 1547.14 466.948 1541.81 452.028C1533.5 428.775 1522.77 406.777 1505.91 388.269C1478.23 357.89 1450.62 327.462 1422.94 297.083C1420.85 294.784 1418.47 292.729 1416.24 290.561C1418.78 295.485 1421.65 300.035 1424.88 304.307C1429.59 310.552 1434.36 316.782 1439.49 322.701C1447.16 331.539 1455.07 340.165 1463.01 348.759C1472.36 358.869 1481.46 369.256 1491.36 378.795C1504.54 391.498 1516.35 405.098 1524.16 421.779C1526.33 426.41 1527.65 431.433 1529.87 436.031C1539.39 455.729 1546.7 476.243 1552.47 497.311H1546.68C1544.9 490.283 1543.13 483.238 1541.28 475.966C1499.71 494.93 1457.97 497.718 1414.39 484.934C1415.93 489.516 1417.21 493.414 1418.52 497.311H1412.73L1412.71 497.295ZM1526.72 435.558C1515.86 441.086 1505.96 446.744 1495.57 451.278C1471.23 461.909 1446.07 467.095 1419.61 460.425C1414.75 459.202 1410.07 457.327 1404.62 455.517C1407.2 463.295 1409.27 470.519 1412.06 477.466C1412.97 479.749 1415.45 482.358 1417.74 482.994C1425.42 485.162 1433.28 486.972 1441.19 488.13C1474.41 492.99 1506.43 487.918 1537.42 475.607C1538.48 475.183 1539.77 472.818 1539.44 471.873C1535.36 459.741 1531.02 447.69 1526.72 435.558ZM1398.13 442.456C1400.55 444.021 1401.87 445.57 1403.33 445.701C1412.08 446.516 1420.84 447.103 1429.61 447.543C1432.87 447.706 1436.17 447.234 1439.46 447.054C1439.46 447.511 1439.46 447.984 1439.46 448.44C1427.26 452.24 1415.01 451.196 1402.52 447.821C1402.49 452.941 1406.22 453.642 1409.12 454.718C1429.85 462.464 1450.85 461.926 1472 456.479C1489.7 451.93 1505.81 443.728 1522.09 435.77C1526.34 433.699 1526.7 431.465 1524.47 428.024C1519.31 420.1 1514.19 412.158 1508.83 404.38C1506.58 401.119 1503.77 398.265 1501.88 396.031C1489.11 402.097 1477.06 407.821 1465 413.544C1467.74 419.072 1467.37 421.535 1461.43 424.388C1453.52 428.171 1445.45 431.971 1437.03 434.27C1424.86 437.58 1412.34 439.553 1398.12 442.456H1398.13ZM1405.49 290.137C1403.27 288.637 1401.57 287.12 1399.6 286.223C1383.24 278.836 1366.85 271.515 1350.39 264.34C1349.25 263.834 1347.23 264.324 1346.07 265.057C1322.86 279.652 1297.65 285.816 1270.33 283.386C1269.19 283.288 1268.01 283.5 1266.74 283.582C1267 284.348 1267 284.756 1267.21 284.902C1275.51 291.458 1283.8 298.062 1292.23 304.454C1293.21 305.188 1295.17 304.813 1296.65 304.666C1312.57 303.198 1328.5 301.698 1344.42 300.149C1345.81 300.019 1347.25 299.709 1348.52 299.154C1353.21 297.1 1357.85 294.866 1362.54 292.811C1364.11 292.126 1365.81 291.735 1367.45 291.213C1367.68 291.8 1367.93 292.403 1368.15 292.99C1362.45 295.681 1356.69 298.274 1351.08 301.16C1349.59 301.91 1348.45 303.475 1347.38 304.829C1345.58 307.079 1344.44 310.275 1342.16 311.645C1334.08 316.553 1325.63 320.858 1317.35 325.424C1316.21 326.06 1315.18 326.859 1313.78 327.805C1323.92 333.202 1388.9 306.28 1405.52 290.153L1405.49 290.137ZM1315.83 331.539C1320.58 336.447 1324.67 340.23 1328.24 344.47C1331.55 348.384 1335.65 350.65 1340.48 351.482C1346.46 352.509 1352.53 353.634 1358.56 353.748C1387.2 354.303 1412.39 343.492 1436.49 329.37C1436.7 329.24 1436.75 328.816 1436.97 328.376C1432.17 322.978 1427.33 317.548 1422.5 312.118C1407.04 323.533 1400.2 326.663 1395.15 325.082C1403.79 320.385 1412.81 315.493 1422.81 310.08C1417.31 303.019 1412.78 297.181 1408.06 291.131C1380.75 313.129 1350.54 325.946 1315.83 331.539ZM1480.79 375.306C1477.3 372.256 1474.36 370.022 1471.84 367.381C1469.88 365.326 1468.31 364.967 1465.61 366.092C1454.94 370.511 1444.22 374.849 1433.36 378.795C1419.12 383.964 1404.49 387.747 1389.18 387.112C1383.18 386.867 1377.21 385.628 1370.5 384.731C1375.27 393.504 1379.9 401.836 1384.3 410.299C1386.11 413.773 1388.67 414.882 1392.46 414.833C1407.22 414.653 1421.99 414.637 1436.75 414.653C1445.33 414.653 1453.75 413.854 1461.76 410.593C1474.33 405.489 1486.86 400.287 1499.42 395.118C1499.47 394.466 1499.51 393.813 1499.56 393.145C1493.64 387.715 1487.72 382.285 1481.85 376.887C1472.54 383.328 1463.4 388.677 1453.19 391.694C1452.95 391.204 1452.7 390.715 1452.48 390.226C1461.48 385.481 1470.5 380.719 1480.79 375.289V375.306ZM1416.64 204.56C1426.61 230.7 1423.84 255.42 1411.28 278.2C1422.38 289.55 1433.07 300.459 1444.09 311.727C1454.6 293.74 1464.9 275.885 1467.92 254.947C1468.41 251.507 1469.42 247.512 1468.22 244.56C1465.28 237.32 1461.54 230.341 1457.48 223.655C1453.83 217.638 1447.36 216.252 1441.52 215.029C1442.72 225.139 1443.86 234.76 1445.02 244.364C1444.37 244.462 1443.72 244.56 1443.07 244.658C1442.67 242.522 1442.2 240.402 1441.89 238.249C1441.14 233.015 1440.9 227.65 1439.59 222.579C1438.68 219.057 1437.14 214.687 1434.44 212.86C1429.22 209.354 1422.96 207.381 1416.66 204.577L1416.64 204.56ZM1409.11 278.168C1418.37 260.736 1422.12 238.135 1418.4 219.595C1416.43 209.778 1413.59 200.37 1403.04 195.608C1388.93 189.265 1374.07 186.509 1358.87 184.927C1358.07 184.846 1357.23 185.221 1355.95 185.482C1378.27 206.876 1378.51 232.347 1371.53 259.562C1383.93 265.693 1396.37 271.857 1409.11 278.168ZM1359.31 371.539C1363.95 375.615 1366.44 381.975 1373.44 382.562C1380.31 383.133 1387.19 384.698 1393.99 384.372C1419.95 383.133 1443.11 371.816 1467.48 363.516C1466.88 362.375 1466.63 361.608 1466.16 361.037C1458.9 352.265 1451.48 343.606 1444.37 334.702C1441.04 330.544 1438.4 330.397 1433.74 333.333C1410.67 347.878 1385.9 357.483 1358.04 356.325C1351.4 356.048 1344.8 354.711 1336.79 353.7C1344.33 360.271 1349.19 368.653 1359.82 368.31C1372.46 367.902 1385.1 367.413 1397.76 366.989C1398.7 366.957 1399.65 367.071 1400.59 367.103C1387.19 372.191 1373.42 372.501 1359.35 371.539H1359.31ZM1347.46 249.501C1346.84 239.684 1346.28 230.846 1345.73 221.992C1347.11 223.117 1347.93 224.356 1348.03 225.677C1348.6 232.656 1348.94 239.668 1349.51 246.647C1349.64 248.131 1350.02 250.447 1350.96 250.903C1357.16 253.773 1363.54 256.252 1371.42 259.481C1371.71 246.664 1372.95 234.809 1372.02 223.133C1370.86 208.621 1364.53 195.983 1352.77 186.77C1350.51 184.992 1347.42 183.623 1344.6 183.346C1331.2 182.057 1317.77 181.095 1304.32 180.329C1301.79 180.182 1299.18 181.47 1296.28 182.172C1301.23 186.46 1305.88 189.509 1309.29 193.586C1320.46 206.957 1325.65 222.726 1326.71 240.011C1326.79 241.397 1327.77 243.565 1328.85 243.924C1334.43 245.881 1340.15 247.365 1347.49 249.501H1347.46ZM1467.84 339.073C1468.85 338.371 1469.55 338.013 1470.11 337.491C1485.63 322.636 1497.36 305.237 1504.8 285.065C1505.37 283.5 1504.55 280.549 1503.31 279.326C1493.09 269.248 1482.6 259.415 1471.35 248.686C1470.94 251.36 1470.78 252.876 1470.48 254.36C1469.28 260.312 1468.44 266.362 1466.7 272.151C1462.51 286.076 1455.17 298.486 1447.27 310.601C1446.46 311.857 1445.94 314.548 1446.67 315.379C1453.52 323.386 1460.68 331.148 1467.84 339.073ZM1239.81 260.263C1239.65 260.687 1239.49 261.128 1239.32 261.552C1247 268.009 1254.65 274.483 1262.4 280.858C1263.04 281.38 1264.23 281.348 1265.16 281.396C1291.64 282.831 1316.89 278.217 1340.51 265.775C1342.11 264.927 1343.62 263.932 1346.15 262.416C1335.05 257.671 1325 253.529 1315.11 249.061C1312.13 247.707 1310.47 248.05 1308.18 250.496C1302.95 256.089 1296.24 259.676 1289.7 263.378C1289.36 262.889 1289.02 262.416 1288.68 261.927C1295.15 257.002 1301.63 252.094 1308.59 246.794C1301.04 242.571 1294.63 238.266 1287.6 245.457C1287.18 245.897 1286.49 246.109 1285.94 246.419C1271.65 254.589 1256.2 258.959 1239.81 260.263ZM1469.49 340.703C1477.79 349.77 1485.75 358.461 1494.38 367.902C1502.25 359.015 1510.59 351.27 1516.92 342.138C1531.17 321.608 1530.68 328.196 1520.19 304.601C1517.13 297.703 1512.5 291.49 1508.58 284.968C1508.13 285.049 1507.67 285.131 1507.2 285.212C1500.05 307.112 1487.92 325.603 1469.49 340.687V340.703ZM1581.52 397.417C1570.32 414.441 1554.23 424.258 1537.06 432.933C1539.26 436.977 1541.22 440.581 1543.4 444.592C1551.36 440.499 1558.95 436.602 1566.51 432.688C1566.71 433.079 1566.92 433.471 1567.12 433.846C1560.9 440.173 1552.62 443.108 1544.19 446.744C1546.42 452.191 1548.57 457.409 1550.79 462.79C1569.37 455.354 1585.47 445.277 1599.97 432.623C1600.77 431.922 1601.27 429.981 1600.91 429.019C1596.54 417.523 1590.31 407.152 1581.5 397.401L1581.52 397.417ZM1529.15 329.843C1520.08 345.09 1509.37 358.265 1494.88 368.653C1499.61 373.936 1504.03 378.893 1508.68 384.095C1514.13 379.268 1519.15 374.833 1524.16 370.381C1524.65 370.919 1525.15 371.457 1525.64 371.979C1520.75 376.741 1515.86 381.486 1510.7 386.508C1513.9 390.666 1517.26 395.036 1520.67 399.472C1532.41 391.009 1544.56 383.981 1552.77 371.49C1539.31 360.777 1532.33 346.541 1529.15 329.843ZM1536.31 431.057C1552.57 421.437 1568.57 411.653 1580.31 395.281C1571.75 387.862 1563.46 380.703 1554.69 373.121C1546.52 386.508 1534.12 393.846 1522.14 400.956C1526.91 411.115 1531.46 420.784 1536.29 431.057H1536.31ZM1325.03 243.272C1323.4 227.031 1319.37 213.023 1310.96 200.859C1306.88 194.972 1300.7 190.52 1295.28 185.612C1294.27 184.699 1292.13 184.096 1290.89 184.487C1284.4 186.623 1278.03 189.118 1271.53 191.515C1272.04 192.754 1272.11 193.309 1272.42 193.602C1281.55 202.489 1286.8 213.105 1287.34 225.987C1287.39 227.129 1288.95 228.661 1290.19 229.248C1296.28 232.135 1302.43 234.907 1308.67 237.434C1313.68 239.456 1318.83 241.071 1325.03 243.256V243.272ZM1270.3 229.982C1261.29 225.645 1252.96 221.568 1244.54 217.671C1243.66 217.263 1242.06 217.54 1241.18 218.095C1237.25 220.557 1233.24 222.987 1229.7 225.954C1227.78 227.569 1225.85 230.08 1225.44 232.444C1223.8 242.245 1227.66 250.316 1234.59 257.035C1235.44 257.866 1237.28 258.258 1238.49 258.013C1247.59 256.187 1256.86 254.833 1265.65 251.98C1274.67 249.061 1283.2 244.609 1291.95 240.842C1291.86 240.272 1291.78 239.701 1291.68 239.114C1285.46 236.391 1279.27 233.667 1273.74 231.238C1269.9 234.205 1266.69 236.684 1263.48 239.179C1263.02 238.625 1262.56 238.086 1262.11 237.532C1264.68 235.151 1267.28 232.77 1270.3 229.982ZM1664.81 494.539C1664.75 494.098 1664.81 493.283 1664.52 492.615C1659.25 480.401 1654.05 468.171 1648.57 456.055C1647.79 454.327 1645.91 452.729 1644.15 451.832C1635 447.201 1625.17 446.255 1615.1 447.397C1614.11 447.511 1612.44 449.419 1612.54 450.348C1614.29 468.122 1619.95 483.597 1637.74 491.603C1639.91 492.582 1642.05 494.278 1644.28 494.392C1651.02 494.767 1657.8 494.522 1664.81 494.522V494.539ZM1586.93 350.52C1583.25 343.883 1578.88 337.197 1575.68 329.974C1570.12 317.401 1560.17 311.922 1547.2 310.569C1544.5 310.292 1541.77 310.063 1539.07 310.129C1535.98 310.21 1532.92 310.683 1529.34 311.025C1531.06 316.227 1532.57 320.434 1533.8 324.707C1535.67 331.327 1537.34 337.996 1539.1 344.649C1539.88 347.585 1541.19 348.71 1544.63 347.764C1548.57 346.671 1552.9 345.938 1556.92 346.329C1566.73 347.291 1576.46 349.003 1586.95 350.52H1586.93ZM1559.13 487.657C1565.03 485.228 1570.41 483.189 1575.65 480.792C1585.11 476.471 1594.5 472.019 1603.85 467.486C1608.35 465.301 1610.58 462.089 1608.59 456.691C1607.4 453.43 1607.32 449.761 1606.49 446.353C1605.48 442.244 1604.21 438.2 1602.77 433.194C1587.59 448.098 1570.72 458.224 1551.4 464.812C1552.62 467.878 1553.58 470.307 1554.85 473.52C1565.96 468.204 1576.48 463.165 1586.98 458.143C1578.26 467.225 1566.92 471.416 1555.15 475.379C1556.55 479.716 1557.81 483.597 1559.11 487.674L1559.13 487.657ZM1542 350.65C1543.7 353.21 1544.59 355.151 1546 356.586C1551.27 361.951 1556.7 367.169 1562.08 372.403C1566.78 376.985 1571.82 380.622 1579.01 379.023C1580.31 378.73 1581.88 379.235 1583.25 379.643C1590.05 381.649 1596.83 383.752 1604.39 386.052C1600.31 377.752 1596.25 370.136 1592.79 362.277C1590.64 357.385 1587.16 354.238 1582.27 353.357C1572.22 351.563 1562.08 350.161 1551.93 349.068C1548.97 348.742 1545.83 349.998 1542 350.65ZM1600.19 412.452C1600.19 413.43 1600.06 413.952 1600.21 414.36C1603.78 423.964 1607.31 433.569 1611.12 443.075C1611.5 444.021 1613.67 444.592 1615.07 444.722C1623.16 445.472 1631.27 446.011 1639.35 446.679C1640.48 446.777 1641.59 447.152 1642.7 447.397C1637.4 437.971 1632.18 428.775 1625.17 421.241C1618.87 414.49 1609.93 411.636 1600.18 412.435L1600.19 412.452ZM1284.97 226.232C1284.89 225.139 1284.94 223.9 1284.7 222.726C1282.89 213.985 1279.38 206.012 1273.79 199C1268.89 192.868 1268.62 192.493 1262.66 197.467C1256.17 202.881 1250.3 209.045 1243.63 215.388C1258.24 219.22 1271.44 222.693 1284.99 226.248L1284.97 226.232ZM1535.75 281.657C1524.42 272.249 1513.41 262.285 1501.49 253.545C1495.63 249.256 1488.03 248.033 1480.04 250.708C1480.97 251.833 1481.44 252.681 1482.14 253.235C1493.81 262.53 1505.11 272.183 1514 284.348C1514.54 285.098 1516.17 285.571 1517.16 285.392C1523.02 284.348 1528.84 283.076 1535.75 281.657ZM1517.42 288.865C1521.14 295.648 1524.86 302.432 1528.66 309.378C1539.7 305.432 1550.3 307.96 1562.29 311.074C1560.35 308.482 1559.44 307.03 1558.31 305.791C1553.81 300.801 1549.32 295.779 1544.66 290.952C1538.79 284.87 1524.99 283.826 1517.42 288.881V288.865ZM1619.47 411.914C1612.98 404.706 1611.86 393.275 1601.43 388.824C1592.89 385.171 1584.33 381.502 1575.08 381.437C1582.38 390.617 1589.5 399.602 1596.69 408.489C1597.29 409.223 1598.5 409.745 1599.48 409.859C1605.89 410.593 1612.33 411.196 1619.46 411.93L1619.47 411.914ZM1461.23 223.72C1466.21 231.923 1470.42 239.049 1474.85 246.028C1475.59 247.185 1477.37 248.555 1478.54 248.441C1483.66 247.968 1488.73 247.006 1493.63 246.24C1488.33 238.82 1472.52 227.471 1461.22 223.72H1461.23ZM1337.49 251.148C1337.25 251.719 1337 252.306 1336.76 252.876C1350.93 258.812 1365.1 264.748 1379.28 270.699C1379.49 270.178 1379.72 269.656 1379.93 269.134C1365.77 263.133 1351.63 257.149 1337.48 251.148H1337.49Z" fill="#005DCA" fill-opacity="0.05"/>
<path d="M1736.5 497.296C1734.05 487.169 1729.53 478.25 1720.82 472.118C1710.42 464.797 1703.26 454.964 1697.32 443.941C1686.59 424.03 1675.38 404.381 1664.88 384.357C1652.66 361.055 1648.86 336.791 1658.49 311.483C1662.42 301.161 1663.38 290.676 1658.47 280.582C1645.19 253.269 1652.92 230.277 1673.1 210.301C1696.26 187.374 1720.02 165.051 1747.18 146.755C1762.58 136.384 1779.23 128.573 1796.5 121.904C1801.65 119.914 1806.37 116.767 1811.26 114.093C1832.38 102.515 1854.89 94.7044 1878.2 88.9808C1895.03 84.8553 1911.86 80.6645 1927.31 72.4297V78.2186C1924.4 79.5883 1921.42 80.795 1918.65 82.393C1917.24 83.2084 1915.64 84.5129 1915.14 85.9478C1909.12 103.2 1906.09 120.942 1906.4 139.286C1906.85 167.855 1919.2 193.293 1927.31 219.84V236.212C1922.89 220.851 1919.3 205.181 1913.87 190.195C1901.36 155.691 1899.32 121.398 1912.9 86.7957C1913.08 86.3228 1912.84 85.6706 1912.76 84.627C1910.62 85.5565 1908.66 85.9968 1907.18 87.0893C1899.43 92.8129 1891.78 98.6506 1884.18 104.57C1883.14 105.385 1882.03 106.771 1881.88 108.01C1879.96 123.73 1877.17 139.449 1876.65 155.234C1875.93 176.726 1881.51 197.484 1887.25 218.096C1891.86 234.63 1896.01 251.328 1895.34 268.727C1895.22 271.826 1894.91 274.924 1894.62 278.984C1896.69 277.549 1897.96 276.685 1899.22 275.788C1910.57 267.667 1920.02 257.753 1927.31 245.833V256.432C1917.63 269.298 1904.6 278.495 1892.34 288.523C1891.85 288.931 1891.36 289.355 1890.87 289.779C1878.77 300.101 1871.71 313.211 1869.14 328.866C1865.96 348.254 1868.59 367.268 1872.88 386.102C1876.03 399.929 1876.29 413.023 1867.92 425.351C1863.83 431.385 1863.35 438.527 1864.86 445.343C1868.64 462.481 1871.15 479.701 1870.45 497.296H1864.66C1865.98 486.68 1865.9 476.423 1860.7 466.46C1849.83 445.718 1834.39 428.955 1816.55 414.263C1796.11 397.451 1775.33 381.063 1754.68 364.495C1754.34 364.218 1753.83 364.169 1753.03 363.892C1752.77 365.229 1752.33 366.42 1752.33 367.61C1752.33 376.905 1752.48 386.199 1752.41 395.494C1752.4 398.902 1754.16 400.484 1756.95 402.017C1790.99 420.72 1821.36 444.202 1847.08 473.325C1853.32 480.402 1857.56 489.256 1862.72 497.279H1860.79C1856.16 490.561 1852.15 483.288 1846.78 477.238C1820.88 448.099 1790.35 424.569 1757.05 404.512C1756.18 403.99 1755.14 403.761 1753.56 403.158C1753.87 405.164 1754.01 406.566 1754.29 407.92C1758.58 428.482 1767.52 447.381 1775.56 466.59C1776.05 467.764 1777.27 469.036 1778.45 469.477C1795.23 475.787 1808.86 487.12 1823.23 497.279H1817.44C1805.32 487.87 1793.08 478.673 1779.11 472.216C1778.77 472.542 1778.41 472.885 1778.07 473.211C1781.56 481.234 1785.05 489.256 1788.54 497.279H1782.75C1777.25 484.283 1771.77 471.27 1766.28 458.274C1758.79 440.533 1750.2 422.97 1748.24 403.647C1746.71 388.417 1746.77 372.909 1747.55 357.581C1748.4 340.639 1750.36 323.697 1752.74 306.885C1757.41 274.043 1770.65 244.235 1785.62 214.916C1811.39 164.398 1847.66 123.567 1895 92.4378C1895.6 92.0301 1896.12 91.492 1896.68 91.0191C1896.5 90.6441 1896.32 90.269 1896.14 89.8777C1893.12 91.0354 1889.78 91.7203 1887.13 93.4488C1879.35 98.5201 1871.28 103.379 1864.32 109.462C1848.86 122.98 1834.03 137.215 1818.88 151.092C1807.72 161.316 1799.01 173.318 1792.49 186.918C1781.82 209.192 1771.38 231.597 1760.47 253.758C1747.08 280.941 1741.03 309.787 1741.1 339.84C1741.14 359.718 1742.68 379.595 1743.2 399.473C1743.71 418.91 1749.1 436.374 1760.21 452.648C1769.34 466.02 1774.78 481.478 1778.9 497.23H1774.09C1770.99 488.849 1767.91 480.467 1764.81 472.086C1764.06 472.086 1763.29 472.086 1762.54 472.086C1759.33 480.467 1756.12 488.849 1752.89 497.23H1749.04C1753.18 488.392 1757.34 479.587 1761.4 470.716C1761.92 469.558 1762.4 467.781 1761.87 466.851C1756.44 456.937 1750.8 447.12 1745.19 437.222C1737.96 442.277 1726.32 457.638 1724.41 464.764C1724.08 465.971 1725.05 468.139 1726.11 469.004C1735.16 476.374 1739.68 486.256 1742.29 497.263H1736.5V497.296ZM1841.3 122.817C1846.57 118.381 1851.79 113.864 1857.14 109.527C1862.33 105.32 1867.66 101.292 1872.93 97.1829C1842.41 103.33 1814.88 116.327 1787.15 130.513C1788.25 130.791 1788.7 131.068 1789.1 131.003C1802.67 128.443 1816.2 128.687 1829.74 131.313C1830.96 131.557 1832.74 131.198 1833.65 130.416C1836.41 128.019 1838.87 125.279 1841.45 122.67L1841.32 122.817H1841.3ZM1865.02 379.399C1865.02 377.084 1865.07 376.203 1865.02 375.323C1864.19 362.718 1863.4 350.097 1862.44 337.492C1862.33 336.024 1861.32 334.622 1860.66 333.203C1856.65 324.496 1852.54 315.837 1848.68 307.064C1847.86 305.221 1847.86 303.004 1847.49 300.949C1847.86 300.867 1848.22 300.77 1848.59 300.688C1852.9 310.619 1857.22 320.549 1861.53 330.496C1862.21 330.382 1862.9 330.268 1863.58 330.17C1864.25 324.398 1866.39 318.332 1865.33 312.885C1859.65 283.941 1853.03 255.177 1847.04 226.282C1842.92 206.339 1839.17 186.314 1835.51 166.29C1834.68 161.724 1834.96 156.963 1834.68 151.565C1833.44 152.658 1832.74 153.082 1832.32 153.701C1822.47 167.546 1812.55 181.325 1802.91 195.316C1800.97 198.12 1799.58 201.61 1798.96 204.969C1794.46 229.608 1797.94 253.562 1805.99 276.962C1815.81 305.482 1832.02 330.545 1848.76 355.315C1853.91 362.946 1859.08 370.594 1865.02 379.383V379.399ZM1879.22 108.973C1877.36 110.245 1876.09 110.897 1875.08 111.826C1865.61 120.469 1855.87 128.85 1846.82 137.933C1834.99 149.804 1835.24 150.049 1837.73 166.698C1838.11 169.225 1838.51 171.769 1839.05 174.28C1847.03 212.388 1855.02 250.48 1863.01 288.572C1864.5 295.666 1865.96 302.775 1867.68 311.075C1868.88 309.135 1869.31 308.32 1869.86 307.602C1875.18 300.639 1879.66 292.731 1886.11 287.04C1891.91 281.903 1893.23 276.571 1893.23 269.559C1893.25 250.024 1887.98 231.516 1882.71 213.024C1874.89 185.581 1870.97 157.876 1875.46 129.405C1876.48 122.849 1877.85 116.343 1879.24 108.973H1879.22ZM1755.46 327.121C1754.57 337.378 1753.88 346.281 1752.94 355.168C1752.58 358.527 1753.41 360.859 1756.2 362.995C1773.5 376.285 1790.71 389.705 1807.9 403.142C1829.04 419.644 1848.53 437.663 1861.01 461.976C1861.2 462.367 1861.84 462.53 1862.98 463.248C1862.03 458.861 1861.23 455.29 1860.48 451.719C1858.84 443.794 1856.85 435.233 1860.92 428.123C1865.57 420.052 1861.97 415.094 1857.42 409.583C1856.8 408.833 1856.26 408.034 1855.59 407.349C1840.39 391.271 1825.24 375.127 1809.94 359.13C1792.16 340.557 1777.3 320.288 1771.87 294.492C1770.31 287.056 1769.13 279.539 1767.65 271.32C1766.9 272.674 1766.26 273.391 1766.08 274.19C1762.79 289.861 1759.46 305.515 1756.41 321.218C1756.12 322.718 1757.26 324.854 1758.35 326.208C1766.54 336.301 1774.89 346.265 1783.14 356.293C1784.38 357.81 1785.38 359.522 1786.49 361.152C1785.95 361.56 1785.43 361.968 1784.89 362.375C1775.44 351.059 1766 339.742 1755.45 327.105L1755.46 327.121ZM1795.59 210.921C1795.23 210.758 1794.87 210.578 1794.53 210.415C1794.3 210.807 1794.04 211.198 1793.84 211.606C1785.93 228.418 1777.99 245.213 1770.16 262.074C1769.54 263.428 1769.54 265.189 1769.67 266.738C1772.41 301.993 1786.81 331.687 1811.83 356.636C1826.25 371.018 1840 386.069 1853.75 401.103C1858.1 405.865 1861.46 411.54 1865.33 416.872C1871.48 409.11 1870.69 390.26 1864.4 381.715C1846.49 357.418 1828.88 332.926 1815.11 305.955C1801.78 279.865 1793.43 252.486 1794.59 222.808C1794.76 218.829 1795.24 214.867 1795.59 210.905V210.921ZM1666.07 308.695C1666.71 308.205 1667.47 307.684 1668.16 307.048C1688.92 288.099 1713.16 277.826 1741.45 277.957C1744.52 277.957 1745.09 276.277 1746.01 274.141C1751.09 262.368 1756.28 250.66 1761.43 238.919C1762.36 236.799 1763.33 234.696 1764.53 232.021C1741.36 230.293 1719.16 230.309 1697.6 237.533C1683.07 242.392 1670.88 250.676 1662.07 263.444C1661.05 264.928 1659.82 267.097 1660.2 268.564C1661.42 273.277 1663.36 277.81 1665.29 283.159C1675.19 272.282 1686.12 264.683 1699.8 261.716C1698.72 263.15 1697.22 263.917 1695.84 264.846C1686.67 270.961 1677.49 277.076 1668.39 283.305C1667.34 284.023 1666.17 285.458 1666.15 286.599C1665.96 293.856 1666.05 301.128 1666.05 308.695H1666.07ZM1658.91 264.129C1668.97 247.773 1682.98 238.707 1699.73 233.587C1717.33 228.206 1735.42 227.537 1753.57 229.135C1765.5 230.179 1765.46 230.57 1770.67 219.824C1774.97 210.921 1779.26 202.017 1783.91 192.38C1781.5 192.527 1779.95 192.56 1778.43 192.739C1767.6 193.978 1756.75 195.055 1745.96 196.538C1722.78 199.718 1700.52 205.67 1679.67 216.824C1668.26 222.922 1661.99 232.184 1658.7 244.056C1656.99 250.252 1656.3 256.546 1658.93 264.145L1658.91 264.129ZM1735.37 362.066C1734.85 361.707 1734.34 361.332 1733.82 360.973C1725.26 367.528 1716.68 374.1 1708.12 380.655C1708.67 378.405 1709.57 376.367 1711.12 375.192C1717.82 370.089 1724.74 365.245 1731.55 360.256C1732.89 359.277 1735.16 358.201 1735.22 357.076C1735.58 350.586 1735.4 344.063 1735.4 337.231C1728.03 337.1 1722.67 340.313 1717.46 343.705C1699.24 355.608 1685.2 371.458 1674.42 390.243C1673.64 391.613 1673.75 394.255 1674.57 395.657C1680.13 405.229 1685.97 414.622 1691.74 424.063C1692.54 425.351 1693.44 426.591 1694.48 428.156C1695.25 427.161 1695.75 426.721 1696 426.166C1704.2 407.577 1716.96 392.918 1734.05 381.976C1735.11 381.307 1736.33 379.807 1736.32 378.731C1736.22 373.187 1735.75 367.626 1735.4 362.082L1735.37 362.066ZM1737.57 307.097C1736.45 307.097 1735.81 307.048 1735.21 307.097C1734.25 307.211 1733.3 307.357 1732.35 307.553C1702.67 314.239 1679.72 330.35 1663.64 356.293C1661.24 360.158 1660.36 363.615 1662.06 367.936C1664.57 374.345 1666.66 380.932 1669.01 387.406C1669.41 388.515 1670.29 389.461 1670.96 390.504C1671.58 390.064 1671.93 389.933 1672.07 389.689C1672.66 388.727 1673.2 387.748 1673.72 386.754C1683.07 368.882 1696.23 354.451 1712.9 343.166C1718.93 339.09 1725.14 335.568 1732.75 335.258C1733.72 335.225 1735.37 333.774 1735.47 332.844C1736.32 324.414 1736.87 315.967 1737.56 307.064L1737.57 307.097ZM1677.08 213.334C1677.42 213.693 1677.78 214.068 1678.12 214.427C1682.95 212.062 1687.71 209.535 1692.62 207.382C1718.64 195.984 1746.27 192.364 1774.27 191.337C1781.9 191.06 1786.85 189.494 1789.37 181.732C1790.78 177.411 1793.92 173.66 1796.22 169.616C1796.81 168.605 1797.17 167.464 1797.89 165.801C1777.6 165.654 1758.06 164.741 1738.63 168.214C1728.41 170.04 1719.45 173.824 1711.9 181.259C1702.77 190.261 1693.16 198.805 1683.72 207.513C1681.55 209.518 1679.28 211.41 1677.05 213.334H1677.08ZM1659.43 357.076C1660.41 356.717 1660.61 356.701 1660.7 356.603C1661.01 356.244 1661.34 355.902 1661.57 355.494C1677.99 326.762 1702.23 309.542 1735.35 305.319C1736.45 305.172 1738.18 304.39 1738.37 303.607C1740.3 295.763 1741.96 287.855 1743.69 280.028C1742.86 279.75 1742.56 279.539 1742.27 279.555C1711.74 281.577 1685.46 293.024 1663.9 314.907C1663.02 315.788 1662.19 316.88 1661.76 318.038C1657.2 330.725 1657.02 343.672 1659.45 357.092L1659.43 357.076ZM1720.72 466.085C1726.12 453.072 1732.84 443.272 1742.53 435.673C1743.12 435.217 1743.13 433.667 1743 432.689C1741.23 419.709 1739.35 406.745 1737.54 393.765C1737.08 390.553 1736.76 387.324 1736.3 383.492C1734.52 384.699 1733.45 385.351 1732.45 386.102C1717.85 397.092 1706.57 410.855 1698.09 427.014C1696.47 430.096 1696.42 432.428 1698.35 435.363C1701.87 440.712 1704.66 446.566 1708.38 451.768C1711.77 456.513 1715.98 460.655 1720.71 466.085H1720.72ZM1781.3 147.864C1781.4 148.581 1781.51 149.299 1781.61 150.032C1770.45 151.761 1759.33 153.995 1748.11 155.055C1739.89 155.837 1736.24 162.262 1730.49 166.159C1731.26 166.714 1731.75 166.795 1732.17 166.698C1752.41 161.61 1772.92 162.148 1793.43 163.942C1797.61 164.3 1800.61 164.121 1803.24 160.305C1805.67 156.783 1808.94 153.799 1812.03 150.766C1817.7 145.206 1823.53 139.792 1829.45 134.166C1809.3 126.306 1758.58 137.933 1750.52 151.451C1760.49 150.293 1770.88 149.07 1781.27 147.864H1781.3Z" fill="#005DCA" fill-opacity="0.05"/>
<path d="M983.877 497.295C983.323 490.104 982.589 482.929 982.279 475.738C981.774 464.372 981.578 452.99 981.186 441.608C981.121 439.619 980.828 437.63 980.518 434.434C973.08 443.81 964.42 449.387 954.21 452.306C939.694 456.447 925.521 456.154 912.864 446.761C898.349 435.999 898.137 415.436 912.245 405.685C919.372 400.761 927.119 400.418 935.274 402.75C951.926 407.528 966.132 416.056 977.256 429.46C977.761 430.063 978.365 430.585 978.936 431.123C979.017 431.205 979.229 431.123 979.816 431.123C977.207 413.203 974.614 395.331 971.988 377.279C969.802 378.926 967.649 381.03 965.088 382.4C958.336 386.02 951.127 385.71 943.984 383.851C925.765 379.138 912.473 367.854 902.638 352.184C901.382 350.178 900.453 347.846 899.882 345.547C898.3 339.057 898.234 332.551 903.568 327.626C908.852 322.75 915.392 322.75 921.688 325.099C933.92 329.664 944.245 337.377 953.362 346.525C959.641 352.852 965.154 359.946 971.906 366.713C970.65 362.147 969.623 357.483 968.09 353.015C963.865 340.753 959.413 328.556 955.042 316.326C954.667 315.266 954.569 313.586 953.867 313.276C951.992 312.428 948.534 311.156 948.028 311.825C942.565 319 935.029 320.011 927.184 318.772C910.483 316.13 894.842 310.488 881.566 299.677C874.145 293.627 871.144 283.696 873.982 276.407C876.771 269.232 882.137 265.466 889.819 265.156C905.362 264.552 917.92 271.483 928.408 281.968C935.388 288.947 941.031 297.231 947.311 304.911C948.469 306.313 949.79 307.585 951.992 308.368C951.78 307.227 951.682 306.036 951.323 304.944C947.05 292.176 942.826 279.375 938.324 266.689C937.753 265.107 935.861 263.476 934.214 262.873C917.121 256.53 901.806 247.219 888.612 234.777C877.798 224.585 874.585 211.622 878.238 197.272C881.435 184.7 891.091 179.661 903.372 184.129C907.352 185.58 911.511 187.684 914.463 190.635C929.044 205.197 940.493 221.715 942.581 242.946C943.119 248.409 941.733 254.051 941.423 259.612C941.292 261.846 941.097 264.373 941.961 266.314C946.153 275.853 950.687 285.246 955.107 294.687C955.906 296.383 956.771 298.03 957.912 300.296C960.522 296.203 961.435 293.056 960.114 288.654C954.503 269.966 955.694 251.409 964.191 233.88C966.377 229.363 971.091 225.238 975.657 222.889C987.237 216.921 998.426 222.661 1001.69 235.299C1008.08 260.15 992.277 287.235 967.405 294.051C961.81 295.584 958.662 302.155 960.913 307.439C966.524 320.663 972.069 333.92 977.386 346.558C977.761 344.862 978.414 341.976 979.066 339.106C982.23 325.359 989.276 313.912 999.91 304.732C1009.11 296.79 1023.93 295.241 1034.73 300.818C1044.93 306.085 1049.67 319.375 1044.53 331.311C1042.07 337.035 1038.24 342.628 1033.7 346.9C1024.73 355.396 1013.61 360.647 1001.75 364.022C994.316 366.142 986.862 365.702 978.626 361.576C978.968 364.756 978.968 367.023 979.474 369.191C983.225 385.433 987.172 401.625 990.842 417.899C991.837 422.334 992.065 426.949 992.75 432.297C993.729 431.189 994.365 430.814 994.446 430.341C996.811 416.382 1005.21 406.125 1015.55 397.434C1026.4 388.319 1038.92 388.629 1051.47 393.39C1058.17 395.934 1061.04 401.967 1060.08 409.958C1058.74 421.144 1051.95 428.677 1042.58 433.863C1028.53 441.625 1013.94 441.103 999.356 435.331C992.815 432.738 992.489 432.852 992.603 440.01C992.93 459.105 993.207 478.2 993.484 497.295H991.559C991.69 496.023 991.983 494.751 991.935 493.496C991.282 477.173 990.222 460.85 990.026 444.527C989.831 428.531 987.531 412.974 983.47 397.532C980.322 385.612 976.375 373.659 975.282 361.495C973.276 339.106 963.05 319.864 954.569 299.856C954.177 298.91 953.476 298.095 952.921 297.231C952.791 299.139 953.231 300.786 953.737 302.416C957.798 315.592 961.875 328.751 965.92 341.911C966.899 345.107 967.665 348.384 968.677 351.564C970.422 357.027 972.999 362.31 973.945 367.887C975.641 377.98 976.147 388.27 977.566 398.429C979.555 412.534 982.41 426.541 983.959 440.679C985.019 450.349 984.236 460.198 984.677 469.949C985.084 479.065 986.047 488.164 986.748 497.279H983.861L983.877 497.295ZM938.128 257.264C938.438 258.063 938.748 258.862 939.058 259.661L940.33 259.416C940.33 253.399 941.162 247.251 940.183 241.397C936.807 221.438 925.814 205.621 911.315 192.135C908.395 189.429 904.269 187.586 900.387 186.444C891.498 183.819 884.958 187.537 881.81 196.196C876.934 209.616 880.75 223.966 892.493 234.5C904.987 245.719 919.242 254.328 934.393 261.471C935.013 261.764 935.78 261.764 936.465 261.911C936.693 261.52 936.938 261.112 937.166 260.721C930.789 256.595 924.395 252.469 918.018 248.328L918.687 247.333C923.205 250.089 927.739 252.844 932.257 255.617C925.374 241.136 914.397 230.162 903.763 218.813C905.655 219.237 907.254 219.938 908.444 221.079C913.843 226.314 919.584 231.304 924.298 237.109C929.419 243.419 933.562 250.513 938.145 257.28L938.128 257.264ZM980.55 362.114C985.362 362.506 989.684 363.631 993.761 363.044C1009.66 360.745 1023.25 353.325 1034.42 341.976C1037.9 338.454 1040.49 333.627 1042.2 328.931C1046.13 318.103 1041.27 306.444 1031.49 302.775C1020.53 298.682 1010.09 299.53 1000.95 307.765C989.456 318.152 982.475 331.001 979.833 346.199C979.229 349.672 979.05 353.227 978.626 357.255C988.722 347.895 998.067 339.236 1007.41 330.577C1007.71 330.855 1008.02 331.132 1008.31 331.393C1002.54 344.047 987.531 348.564 980.534 362.098L980.55 362.114ZM978.577 434.727C960.717 431.482 942.972 433.977 925.863 425.661C943.25 427.748 959.266 429.672 975.282 431.596C975.396 431.14 975.494 430.683 975.608 430.21C964.094 425.286 952.579 420.345 941.488 415.6C951.682 416.937 961.223 421.617 971.71 427.389C970.634 425.693 970.422 425.09 969.998 424.731C958.842 414.882 946.088 407.968 931.507 404.886C920.22 402.505 910.026 408.164 906.226 418.339C902.296 428.873 907.482 440.924 918.72 447.022C927.674 451.865 937.231 452.99 947.197 451.246C959.038 449.175 969.248 444.022 978.577 434.711V434.727ZM969.411 371.833C969.672 371.425 969.916 371.034 970.177 370.626C969.786 369.844 969.476 368.996 968.97 368.311C960.62 356.798 951.111 346.297 939.205 338.47C932.322 333.953 924.868 329.746 917.089 327.316C907.939 324.463 900.567 332.224 902.263 341.715C902.752 344.503 903.388 347.683 905.068 349.787C910.63 356.766 916.11 363.973 922.699 369.893C931.735 377.997 942.711 382.612 955.14 382.677C962.577 382.709 968.595 379.269 970.732 374.149C957.439 376.513 954.569 376.415 950.932 373.757H965.431C951.356 366.615 938.014 359.848 924.673 353.064C925.015 352.363 925.341 351.678 925.684 350.977C940.265 357.924 954.83 364.87 969.411 371.817V371.833ZM943.38 303.786C933.121 289.485 921.916 276.114 904.465 270.358C900.257 268.972 895.674 268.091 891.27 268.107C879.331 268.124 872.579 278.853 877.912 289.501C879.853 293.366 882.903 297.231 886.426 299.66C899.947 308.971 914.936 315.07 931.327 316.913C937.476 317.598 943.266 315.624 948.387 309.069C937.623 309.738 928.114 309.477 919.323 304.096C926.842 305.677 933.953 307.194 941.08 308.694C941.26 308.075 941.423 307.455 941.602 306.835C935.437 303.786 929.288 300.72 923.123 297.671C923.433 297.035 923.759 296.415 924.069 295.779C930.495 298.454 936.921 301.112 943.348 303.786H943.38ZM965.072 292.518C978.609 288.393 988.754 280.5 994.805 268.058C1000.25 256.856 1002.14 245.115 997.561 233.13C994.414 224.928 987.009 221.797 978.756 224.699C970.585 227.569 966.214 234.027 963.686 241.723C959.69 253.921 958.728 266.526 959.886 279.277C960.179 282.441 961.142 285.523 961.81 288.654C962.479 288.621 963.164 288.588 963.833 288.556C959.902 276.473 963.376 265.303 966.948 254.165C966.426 264.08 961.615 273.668 964.159 283.81C964.616 283.925 965.056 284.022 965.513 284.137C968.367 276.554 971.221 268.988 974.059 261.405C974.679 261.617 975.299 261.829 975.935 262.041C973.472 270.113 971.009 278.168 968.53 286.24L969.492 286.941C974.76 280.093 980.028 273.228 985.753 265.792C981.349 277.174 973.472 284.985 965.088 292.518H965.072ZM1000.3 433.439C1011.85 437.516 1023.4 438.673 1034.94 434.238C1045.64 430.129 1053.86 423.296 1056.8 411.67C1058.72 404.006 1055.67 397.369 1048.51 395.559C1042.58 394.059 1036.07 393.227 1030.07 394.01C1016.94 395.722 998.002 416.643 996.534 429.819C996.534 429.933 996.697 430.08 996.779 430.194C1006.08 432.265 1004.56 421.861 1010.53 418.176C1008.68 421.812 1007.38 424.389 1006.08 426.981C1006.47 427.454 1006.84 427.911 1007.23 428.384C1014.05 424.845 1020.87 421.307 1027.67 417.768C1020.85 427.161 1010.71 430.373 1000.33 433.455L1000.3 433.439Z" fill="#005DCA" fill-opacity="0.05"/>
<path d="M1142.88 497.295C1143.34 490.739 1143.49 484.152 1144.37 477.662C1145.26 471.008 1148.02 464.959 1153.27 460.523C1160.24 454.653 1163.86 447.119 1163.97 438.232C1164.28 413.691 1172.76 391.417 1182.78 369.647C1187.85 358.624 1193.54 347.797 1199.89 337.458C1208.22 323.875 1218.74 324.152 1230.94 332.55C1240.84 339.366 1250.84 346.085 1260.46 353.292C1270.25 360.63 1278.81 369.321 1280.77 382.024C1281.81 388.742 1281.17 395.754 1281.09 402.635C1280.95 414.001 1280.05 425.399 1280.64 436.732C1280.91 441.885 1282.81 447.837 1286 451.799C1296.8 465.236 1299.34 481.379 1302.87 497.311H1293.23C1297.47 494.376 1297.76 490.56 1296.16 485.978C1294.65 481.608 1294.01 476.911 1292.35 472.59C1290.62 468.057 1288.14 463.801 1285.59 458.648C1278.27 467.486 1270.69 473.993 1261.13 477.939C1260.26 478.297 1259.73 480.238 1259.61 481.51C1259.14 486.761 1258.88 492.044 1258.54 497.311H1253.72C1255.57 488.734 1256.25 480.091 1253.46 471.628C1247.53 453.609 1245.91 434.987 1245.1 416.202C1244.31 398.249 1243.14 380.328 1237.55 363.043C1236.26 359.081 1234.9 355.135 1233.42 351.254C1231.95 347.389 1230.3 343.606 1228.28 338.681C1231.76 356.472 1235.7 372.827 1238.05 389.411C1243.14 425.236 1249.17 460.996 1249.88 497.311H1245.06C1243.84 480.059 1242.67 462.79 1241.3 445.554C1241.2 444.217 1239.96 442.717 1238.87 441.755C1221.02 425.97 1206.61 407.429 1195.14 386.622C1192.2 381.29 1190.21 375.452 1187.2 368.49C1185.86 375.077 1180.15 379.317 1183.2 385.334C1190.44 399.619 1198.09 413.691 1205.61 427.845C1206.54 429.59 1207.68 431.221 1208.71 432.9C1208.35 433.096 1208.01 433.292 1207.65 433.504C1195.78 419.496 1187.75 403.271 1180.38 386.133C1179.06 389.9 1177.69 393.846 1178.42 397.336C1179.94 404.494 1181.85 411.767 1184.93 418.387C1198.58 447.739 1217.35 473.65 1239.27 497.343H1235.42C1234.85 496.414 1234.36 495.436 1233.71 494.571C1223.08 480.907 1211.82 467.682 1201.94 453.495C1190.56 437.156 1180.49 419.904 1176.94 399.798C1176.86 399.358 1176.69 398.95 1176.45 398.167C1172.45 405.913 1170.38 416.284 1171.2 421.747C1174.44 443.222 1184.26 461.844 1196.28 479.504C1200.33 485.456 1204.39 491.392 1208.43 497.343H1205.55C1204.4 495.615 1203.31 493.838 1202.09 492.174C1187.95 472.949 1175.44 452.908 1170.53 429.052C1170.46 428.742 1169.88 428.53 1169.03 427.91C1168.85 431.041 1168.73 433.716 1168.54 436.373C1167.89 445.456 1166.37 454.18 1159.45 461.062C1158.51 462.007 1158.38 464.731 1159 466.165C1163.43 476.618 1168.15 486.956 1172.76 497.343H1169.88C1165.26 486.565 1160.64 475.786 1156.01 464.975C1148.1 472.02 1145.69 486.63 1150.6 497.343H1142.88V497.295ZM1228.79 333.561C1228.46 333.822 1228.13 334.083 1227.81 334.344C1241.21 356.455 1247.3 380.703 1248.86 406.402C1257.15 398.559 1262.92 389.639 1266.85 379.529C1271.31 368.098 1271.4 367.919 1262.22 360.01C1252.88 351.955 1243.25 344.226 1233.68 336.431C1232.23 335.257 1230.42 334.507 1228.77 333.561H1228.79ZM1239.47 439.472L1240.61 438.885C1239.63 430.96 1238.87 422.986 1237.55 415.126C1237.14 412.762 1235.67 410.022 1233.83 408.522C1219.44 396.814 1207.68 382.986 1198.96 366.614C1197.19 363.304 1195.48 359.978 1193.53 356.26C1189.71 361.608 1187.65 366.419 1190.92 372.273C1192.71 375.485 1193.77 379.089 1195.47 382.35C1206.08 402.766 1220.71 420.181 1236.21 436.961C1237.14 437.955 1238.38 438.656 1239.47 439.504V439.472ZM1251.02 442.815C1251.6 442.929 1252.18 443.059 1252.76 443.173C1265.61 428.84 1278.97 414.914 1277.15 393.047C1276.54 385.84 1277.02 378.649 1271.63 371.8C1267.73 386.883 1260.9 399.113 1249.88 408.848C1249.26 409.403 1248.75 410.528 1248.8 411.359C1249.47 421.844 1250.25 432.329 1251 442.798L1251.02 442.815ZM1235.36 407.185C1235.82 406.94 1236.27 406.679 1236.73 406.435C1235.54 397.907 1234.59 389.329 1233.03 380.866C1232.6 378.518 1230.66 376.268 1228.97 374.392C1225.54 370.593 1221.37 367.397 1218.28 363.353C1212.66 355.934 1207.6 348.074 1202.1 340.116C1200.08 343.427 1197.65 346.655 1196.07 350.275C1195.25 352.134 1195.16 355.053 1196.07 356.814C1203.6 371.425 1212.75 384.959 1224.38 396.7C1227.94 400.304 1231.71 403.695 1235.38 407.201L1235.36 407.185ZM1259.11 476.7C1268.6 471.971 1275.97 466.149 1282.15 458.893C1282.82 458.11 1282.69 455.811 1282.02 454.832C1275.95 445.831 1274.76 435.835 1275.55 425.367C1275.71 423.296 1275.56 421.209 1275.56 419.741C1268.06 428.351 1260.59 436.814 1253.3 445.456C1252.45 446.451 1252.21 448.489 1252.52 449.843C1254.51 458.55 1256.74 467.209 1259.09 476.7H1259.11ZM1230.37 372.958C1230.89 372.697 1231.43 372.436 1231.95 372.175C1229.31 359.064 1226.72 345.954 1223.96 332.876C1223.76 331.93 1222.43 330.854 1221.4 330.528C1215.95 328.832 1211.14 329.582 1206.95 333.985C1204.44 336.627 1203.85 338.877 1206.02 341.877C1211.07 348.873 1215.89 356.031 1221.1 362.896C1223.86 366.5 1227.25 369.615 1230.37 372.958Z" fill="#005DCA" fill-opacity="0.05"/>
<path d="M963.653 497.294C951.828 486.222 938.112 479.683 921.59 480.84C911.853 481.525 904.334 488.227 901.969 497.294H899.082C900.664 485.83 911.102 477.318 924.786 477.595C941.716 477.938 955.906 484.966 967.502 497.294H963.653Z" fill="#005DCA" fill-opacity="0.05"/>
<path d="M49.1416 497.294C38.8827 485.896 28.5912 474.514 18.3649 463.099C12.2161 456.218 6.1162 449.271 0 442.374C0 440.45 0 438.525 0 436.585C17.6636 456.821 35.3272 477.058 53.0071 497.278H49.1579L49.1416 497.294Z" fill="#005DCA" fill-opacity="0.05"/>
<path d="M1067.72 497.295C1065.49 488.881 1059.63 484.739 1051.33 484.168C1038.4 483.288 1026.18 484.707 1018.57 497.295H1014.72C1023.92 482.831 1035.98 478.738 1056.16 482.065C1064.33 483.418 1069.27 488.914 1070.61 497.295H1067.72Z" fill="#005DCA" fill-opacity="0.05"/>
<path d="M0 475.134C2.70744 479.08 5.51273 482.977 8.08969 487.005C10.3405 490.527 13.0642 492.94 17.4189 493.723C21.6432 494.473 25.7207 496.071 29.8634 497.278H0C0 494.718 0 492.141 0 489.581C2.25076 490.103 4.50152 490.625 6.75228 491.147C6.99693 490.82 7.24158 490.494 7.48623 490.168C4.99082 487.086 2.49541 483.988 0 480.906C0 478.982 0 477.058 0 475.117V475.134Z" fill="#005DCA" fill-opacity="0.05"/>
<path d="M0 371.082C6.23037 385.219 12.477 399.357 18.7074 413.495C18.4791 413.674 18.2507 413.854 18.0387 414.017C17.1254 412.729 16.0163 411.538 15.315 410.136C10.9765 401.575 6.71967 392.965 2.41386 384.388C1.63099 382.822 0.815493 381.29 0 379.74C0 376.854 0 373.952 0 371.065L0 371.082Z" fill="#005DCA" fill-opacity="0.05"/>
<path d="M134.915 497.294C130.936 490.331 126.956 483.352 122.977 476.389C123.368 476.145 123.759 475.916 124.151 475.672C129.028 482.879 133.904 490.087 138.765 497.294H134.915Z" fill="#005DCA" fill-opacity="0.05"/>
<path d="M106.667 447.152C109.521 452.126 112.376 457.116 115.213 462.089C114.512 462.497 113.811 462.888 113.109 463.296C110.272 458.306 107.434 453.316 104.596 448.343C105.281 447.951 105.982 447.56 106.667 447.152Z" fill="#005DCA" fill-opacity="0.05"/>
<path d="M186.912 470.241C190.582 475.541 194.252 480.84 197.905 486.156C197.22 486.629 196.519 487.102 195.834 487.575C192.131 482.259 188.429 476.943 184.727 471.627C185.461 471.171 186.178 470.698 186.912 470.241Z" fill="#005DCA" fill-opacity="0.05"/>
<path d="M644.386 470.943C641.287 475.525 636.247 477.238 630.082 475.33C634.518 473.976 638.955 472.607 644.386 470.943Z" fill="#005DCA" fill-opacity="0.05"/>
<path d="M227.362 441.983C225.34 438.722 223.317 435.461 221.295 432.183C221.947 431.775 222.583 431.368 223.236 430.96L229.466 440.662C228.765 441.103 228.064 441.543 227.362 441.983Z" fill="#005DCA" fill-opacity="0.05"/>
<path d="M528.894 434.367C529.84 437.759 530.786 441.167 531.748 444.558C531.014 444.77 530.28 444.999 529.546 445.211C528.568 441.786 527.606 438.378 526.627 434.954C527.377 434.758 528.144 434.563 528.894 434.351V434.367Z" fill="#005DCA" fill-opacity="0.05"/>
<path d="M496.653 486.614C495.87 484.086 495.088 481.575 494.305 479.048C494.973 478.819 495.626 478.607 496.294 478.379C497.159 480.874 498.007 483.385 498.871 485.88C498.137 486.125 497.387 486.369 496.653 486.614Z" fill="#005DCA" fill-opacity="0.05"/>
<path d="M248.612 310.471C244.404 312.363 240.196 314.254 235.988 316.146C235.662 315.445 235.336 314.76 235.01 314.059C239.201 312.069 243.377 310.08 247.568 308.074L248.612 310.471Z" fill="#005DCA" fill-opacity="0.05"/>
<path d="M267.123 357.987C277.953 347.355 289.826 338.403 306.006 335.37C292.518 343.214 279.828 350.6 267.123 357.987Z" fill="#005DCA" fill-opacity="0.05"/>
<path d="M329.918 324.886C333.327 323.516 336.736 322.146 340.144 320.776C340.422 321.494 340.715 322.211 340.992 322.945C337.567 324.266 334.142 325.603 330.717 326.924C330.456 326.239 330.179 325.57 329.918 324.886Z" fill="#005DCA" fill-opacity="0.05"/>
<path d="M720.342 408.228C730.633 402.766 740.941 397.287 751.135 391.873C749.993 396.781 729.296 408.489 720.342 408.228Z" fill="#005DCA" fill-opacity="0.05"/>
<path d="M658.416 425.171C651.501 428.807 644.096 430.65 636.267 431.058C636.12 430.52 635.957 429.981 635.811 429.443C643.183 427.47 650.571 425.481 657.943 423.508C658.106 424.062 658.253 424.617 658.416 425.171Z" fill="#005DCA" fill-opacity="0.05"/>
<path d="M693.039 416.61C695.959 415.909 698.894 415.191 701.814 414.49C701.993 415.175 702.173 415.86 702.352 416.529C699.433 417.344 696.529 418.159 693.61 418.975C693.414 418.192 693.218 417.393 693.039 416.61Z" fill="#005DCA" fill-opacity="0.05"/>
<path d="M152.123 299.284C149.595 300.539 147.083 301.779 144.555 303.034C144.245 302.398 143.919 301.779 143.609 301.143L151.161 297.376C151.487 298.012 151.797 298.648 152.123 299.284Z" fill="#005DCA" fill-opacity="0.05"/>
<path d="M579.831 338.339C579.571 340.801 579.31 343.264 579.049 345.742C578.347 345.677 577.646 345.612 576.961 345.53C577.206 343.068 577.434 340.589 577.679 338.127C578.396 338.192 579.13 338.274 579.848 338.339H579.831Z" fill="#005DCA" fill-opacity="0.05"/>
<path d="M620.479 339.838V357.71C617.412 354.285 617.151 346.377 620.479 339.838Z" fill="#005DCA" fill-opacity="0.05"/>
</svg>
