<svg width="440" height="428" viewBox="0 0 440 428" fill="none" xmlns="http://www.w3.org/2000/svg">
<path d="M0 154.156C14.1894 146.181 28.9543 142.256 43.5903 137.421C47.5585 136.103 47.9536 136.538 48.6923 142.915C49.9377 153.749 50.8654 164.681 52.2396 175.474C52.901 180.701 54.2581 185.705 55.2974 190.807L56.1993 190.512C56.2508 189.237 56.3023 187.948 56.371 186.672C57.2643 170.484 58.0631 154.282 59.0938 138.108C59.5405 131.114 61.7651 125.788 65.8707 122.816C68.4131 120.966 70.8954 118.864 73.4207 116.958C78.3423 113.244 82.3878 107.862 85.875 101.05C91.6899 89.6971 99.2313 81.6381 106.73 73.6771C110.062 70.1312 112.132 71.4767 113.945 77.1251C115.783 82.8715 117.509 88.702 119.296 94.4905C119.699 95.808 120.137 97.0834 120.919 99.4801C121.151 97.2796 121.34 96.2986 121.349 95.3035C121.469 85.9269 121.812 76.5363 121.58 67.1738C121.4 60.0398 122.757 54.2093 125.549 49.0655C130.479 39.9973 135.418 30.9151 140.468 22.015C143.165 17.2637 146.051 12.7927 148.937 8.3357C153.18 1.79034 158.256 -0.844624 164.071 0.234589C166.871 0.753172 168.855 3.00971 170.384 6.93412C172.995 13.6477 175.435 20.6836 178.639 26.5982C184.685 37.7408 187.382 50.8034 188.731 65.1415C191.437 94.0841 186.833 121.457 182.057 148.732C180.949 155.081 178.853 161.332 176.405 166.616C171.939 176.258 168.478 186.644 165.188 197.436C162.482 206.322 158.368 214.087 154.855 222.314C154.434 223.295 153.893 224.136 153.086 225.65C154.821 225.86 156.126 226.141 157.44 226.169C168.83 226.435 179.772 229.883 190.002 238.334C198.961 245.735 206.476 255.924 211.003 270.781C213.829 280.045 218.183 285.413 223.998 288.441C226.816 289.898 229.624 291.468 232.33 293.374C236.779 296.528 239.871 301.798 240.61 309.899C241.546 320.158 245.068 327.39 250.47 332.142C254.026 335.267 257.84 337.594 261.533 340.299C262.847 341.266 263.612 340.523 264.479 338.673C267.494 332.212 270.672 325.947 273.764 319.57C274.383 318.294 275.001 316.935 275.396 315.449C281.993 290.599 293.193 273.206 308.087 261.937C312.527 258.573 317.105 255.658 321.726 253.037C331.63 247.444 340.58 238.811 349.53 230.205C360.627 219.525 372.703 214.367 385.45 213.19C392.785 212.503 400.146 212.489 407.498 212.209C411.776 212.041 415.83 213.667 419.094 218.208C426.154 228.033 433.043 238.208 440 248.229C426.601 237.984 414.241 245.062 401.975 254.144C402.353 254.761 402.74 255.041 403.118 255.041C410.719 255.083 418.312 255.097 425.914 255.083C426.403 255.083 426.987 254.971 427.365 254.55C431.179 250.304 435.473 248.608 440 248.131C439.321 248.902 438.712 250.065 437.964 250.388C429.014 254.284 423.225 264.193 418.69 276.695C414.705 287.67 410.891 298.686 410.908 311.987C405.549 331.833 407.833 354.525 402.036 374.273C397.449 389.887 393.24 405.809 388.894 421.618C388.387 423.468 388.113 425.473 387.735 427.421H379.111C379.601 426.916 380.064 426.272 380.588 425.907C385.776 422.417 389.504 416.741 391.05 407.687C391.273 406.383 391.746 405.178 392.064 403.916C393.335 398.913 394.589 393.895 395.851 388.892C395.078 389.032 394.692 389.494 394.391 390.097C387.417 403.987 378.707 414.176 368.864 421.941C366.528 423.791 364.183 425.599 361.847 427.435H356.77C357.939 426.664 359.107 425.865 360.283 425.136C374.834 416.25 387.408 402.837 396.702 382.136C398.067 379.095 398.806 375.324 399.837 371.89C399.648 371.764 399.467 371.638 399.278 371.512C397.14 373.306 394.992 375.086 392.854 376.88C395.585 371.947 399.253 368.527 401.168 363.369C403.118 358.141 403.333 351.203 404.415 344.335C399.785 351.526 396.006 358.449 391.591 364.056C378.802 380.3 363.676 387.224 347.958 390.658C333.313 393.853 318.583 395.941 303.895 398.576C303.277 398.689 302.375 399.039 302.152 399.74C300.537 404.813 299.059 410.013 297.17 416.433C305.098 415.409 312.278 414.47 319.467 413.545C318.849 414.653 318.179 415.325 317.483 415.465C312.459 416.418 307.434 417.736 302.401 418.016C296.414 418.339 296.405 417.946 293.897 427.056C293.863 427.183 293.863 427.323 293.846 427.463H290.797C298.467 403.272 304.917 378.001 314.391 355.352C314.022 355.422 313.79 355.604 313.635 355.898C313.137 356.837 312.656 357.791 312.192 358.772C302.091 379.823 294.103 402.865 287.756 427.463H286.236C286.528 426.79 286.914 426.188 287.103 425.459C289.723 415.171 292.343 404.884 294.902 394.554C295.126 393.657 295.169 392.367 294.945 391.499C290.29 373.474 287.584 354.581 285.557 335.407C284.509 325.526 283.255 315.519 284.853 305.484C285.626 300.662 286.88 296.037 288.16 290.235C287.103 292.071 286.373 293.01 285.892 294.215C282.422 302.821 279.347 311.903 275.456 319.962C272.708 325.652 272.854 331.048 273.738 337.229C274.314 341.252 274.658 345.359 275.096 349.423C275.413 352.423 275.723 355.422 276.032 358.421C275.654 358.533 275.285 358.66 274.907 358.772C273.738 349.283 272.579 339.808 271.325 329.591C268.8 335.548 266.197 340.299 265.699 347.461C264.565 363.635 266.395 379.053 269.564 394.148C271.918 405.346 274.58 416.362 277.105 427.463H275.585C273.189 417.161 270.706 406.916 268.43 396.544C265.501 383.215 263.698 369.508 264.058 355.226C264.11 353.151 264.23 351.091 264.368 347.895C263.663 349.381 263.363 349.844 263.182 350.404C259.446 361.841 255.692 373.264 252.042 384.785C251.578 386.257 251.424 388.289 251.578 389.943C252.755 402.473 254.035 414.961 255.289 427.463H253.769C252.532 415.746 251.295 404.029 249.989 391.695C249.422 393.363 248.898 394.568 248.563 395.913C247.026 402.01 245.531 408.149 244.037 414.274C242.989 418.577 242.405 422.95 243.616 427.449H239.047C239.923 422.137 240.893 416.853 241.615 411.485C241.778 410.252 241.357 408.317 240.782 407.392C237.543 402.15 234.211 397.063 230.827 392.073C230.148 391.064 229.135 390.237 228.241 390.111C220.829 389.158 213.416 388.359 205.995 387.56C204.965 387.448 203.934 387.546 202.474 387.546C206.717 399.544 213.7 406.159 218.329 416.236C212.291 408.584 205.772 401.744 202.044 390.321C201.228 387.826 200.283 386.929 198.548 386.635C190.234 385.233 181.945 383.51 173.648 381.87C172.137 381.575 170.642 381.155 168.675 380.692C169.268 382.122 169.457 382.739 169.732 383.215C178.115 397.96 186.498 412.704 194.889 427.449H192.356C192.235 427.084 192.158 426.678 191.995 426.384C183.826 411.345 175.65 396.306 167.473 381.267C167.138 380.65 166.803 379.837 166.373 379.613C162.869 377.833 159.347 376.179 155.826 374.497L155.078 375.577C158.548 385.766 162.027 395.97 165.557 406.313C165.265 406.145 164.999 406.103 164.853 405.879C164.303 405.024 163.762 404.155 163.281 403.202C159.321 395.339 156.418 386.509 154.546 376.824C154.065 374.329 153.352 372.97 151.763 372.185C146.919 369.802 142.134 367.097 137.316 364.546C136.483 364.098 135.624 363.789 134.318 363.215C134.842 365.009 135.065 366.032 135.409 366.929C138.621 375.338 141.636 384 145.149 392.073C150.371 404.085 155.963 415.662 161.391 427.435H159.364C159.193 426.958 159.047 426.454 158.832 426.033C149.014 406.79 140.391 386.257 133.373 363.958C132.978 362.696 131.965 361.645 131.089 361.126C126.648 358.491 122.104 356.291 117.698 353.488C113.395 350.741 109.246 347.349 104.986 344.405C100.812 341.518 96.5858 338.841 91.7329 335.632C92.2139 337.86 92.3341 338.645 92.5403 339.374C99.1711 362.822 106.618 385.5 115.886 406.509C118.986 413.545 122.199 420.455 125.36 427.421H123.333C122.938 426.384 122.594 425.276 122.13 424.323C111.256 401.954 102.177 377.777 95.0054 351.722C93.5538 346.452 93.0127 339.836 90.685 336.08C88.28 332.212 84.2087 331.119 80.8847 328.736C78.8576 327.292 76.8649 325.723 74.3826 323.844C79.7939 348.568 86.6996 371.007 94.1035 393.152C93.1587 391.975 92.4028 390.587 91.793 389.06C84.6554 370.839 78.8233 351.554 74.8121 330.978C73.6526 325.05 71.9777 321.266 68.6365 318.168C63.8093 313.697 59.4374 307.909 54.8422 302.751C51.6556 299.177 48.28 296.303 44.2517 295.28C45.2308 306.395 47.3781 316.332 50.2985 325.877C60.3049 358.519 72.2439 389.242 85.0333 419.138C86.1842 421.829 87.2235 424.646 88.3144 427.407H86.2873C85.9094 426.202 85.6173 424.898 85.1449 423.819C74.2796 399.151 64.4707 373.404 55.452 346.844C50.2727 331.595 45.4198 316.136 44.0026 298.56C43.7621 295.561 42.9375 294.285 41.3141 292.982C38.2306 290.515 35.2759 287.544 32.4673 284.32C30.1997 281.713 28.2414 278.391 26.1112 275.448C25.7333 274.929 25.2094 274.705 24.4879 274.131C25.8536 286.254 30.3887 296.079 30.8868 307.993C27.9751 297.046 25.5959 285.806 23.1651 274.579C22.8473 273.107 22.4952 271.187 21.7823 270.5C16.1306 265.006 10.3844 259.75 4.65536 254.438C4.57805 254.368 4.3805 254.635 4.20872 254.775C4.19154 255.153 4.12283 255.574 4.16577 255.966C6.27872 277.831 9.242 299.331 15.0225 319.486C25.8192 357.118 37.6208 393.839 52.7979 427.407H50.7709C50.6163 426.916 50.5132 426.384 50.3157 425.949C37.8956 399.095 28.5248 369.298 19.1196 339.556C11.2003 314.51 5.55723 288.23 3.89951 260.017C3.61606 255.153 3.19519 251.117 0.0257677 249.365C0 248.005 0 246.632 0 245.244C3.28967 248.341 6.50204 251.677 9.8776 254.508C18.9306 262.077 27.5456 270.557 35.1471 281.825C37.7239 285.651 41.3141 288.02 44.6639 290.038C49.6027 293.024 54.4814 295.953 58.6128 301.475C66.2401 311.693 74.6833 319.752 83.6676 326.297C93.2789 333.305 102.873 340.369 112.579 346.998C116.539 349.703 120.764 351.315 124.879 353.418C125.961 353.964 127.052 354.497 128.134 355.029C127.361 353.432 126.39 352.703 125.437 351.946C111.583 341.112 97.6766 330.446 83.8995 319.359C78.6085 315.099 73.7041 309.618 68.4733 305.147C61.5332 299.219 54.2237 294.397 47.4898 287.95C34.2366 275.252 21.2068 261.895 8.22847 248.468C5.60876 245.763 3.09212 243.366 0.00858922 242.763V237.788C5.08482 239.862 10.0408 243.044 15.8901 242.847C15.1857 239.498 14.782 236.666 14.0262 234.144C10.8825 223.674 5.30814 216.848 0 209.644C0 207.43 0 205.215 0 203.015C5.4198 206.322 10.8396 209.616 16.8177 213.26C16.3109 190.527 18.1576 169.433 23.4572 149.32C18.9392 148.703 16.6287 150.512 15.3747 156.749C13.2188 167.457 11.3807 178.333 9.45673 189.167C9.02727 191.564 8.78677 194.044 8.46038 196.497C8.24565 196.413 8.03092 196.329 7.81619 196.231C8.00515 180.772 11.0371 166.419 15.1342 152.179C11.458 152.348 8.70088 153.945 7.08611 158.823C4.68113 166.069 2.35345 173.371 0 180.659C0 178.179 0 175.684 0 173.203C2.17307 167.569 4.33756 161.92 6.81984 155.473C4.2259 156.861 2.11295 157.996 0 159.131C0 157.477 0 155.823 0 154.156ZM134.456 352.969C136.173 344.756 139.721 338.575 143.303 332.576C159.476 305.554 179.841 293.823 202.336 290.165C206.914 289.422 211.527 289.24 216.122 288.805C212.102 284.124 210.127 277.228 207.713 270.823C207.309 269.758 206.021 268.917 205.205 269.029C201.933 269.519 198.686 270.388 195.431 271.173C192.098 271.972 188.774 272.841 185.441 273.682C185.381 273.051 185.312 272.421 185.252 271.79C192.038 269.828 198.815 267.865 205.738 265.861C203.753 261.11 201.907 256.849 197.655 256.302C190.371 255.363 183.303 256.457 176.328 259.61C166.734 263.955 157.939 271.341 149.238 279.05C133.605 292.898 118.437 307.88 104.857 326.788C104.187 327.713 103.569 328.736 102.822 329.871C103.414 330.502 103.672 330.88 103.973 331.105C113.507 338.197 123.041 345.289 132.592 352.324C133.167 352.745 133.88 352.675 134.533 352.843C135.031 353.53 135.478 354.413 136.053 354.861C139.721 357.706 143.44 360.341 147.073 363.271C148.362 364.308 148.971 363.565 149.856 362.135C151.342 359.753 153.043 357.72 154.658 355.534C154.812 355.842 154.967 356.137 155.13 356.445C153.429 359.108 151.729 361.771 149.848 364.7C150.758 365.724 151.127 366.298 151.565 366.607C159.674 372.367 168.151 376.025 176.895 377.917C177.659 378.085 178.75 376.978 179.343 375.941C193.884 350.46 211.93 336.669 233.026 333.305C237.166 332.646 241.374 333.207 246.219 333.207C245.368 331.637 245.093 330.992 244.741 330.502C241.177 325.568 239.107 319.303 238.222 311.833C237.561 306.283 237.44 306.283 234.013 306.871C220.983 309.114 208.452 314.538 196.358 322.709C195.654 323.186 194.95 323.648 194.228 324.055C193.61 324.391 192.974 324.643 192.347 324.924C205.987 312.295 220.7 306.115 236.281 304.713C236.152 303.956 236.143 303.508 236.015 303.213C235.714 302.555 235.413 301.84 235.018 301.363C230.019 295.308 224.17 290.935 218.226 291.034C208.735 291.188 199.15 292.968 189.805 295.827C171.956 301.279 156.152 313.949 143.406 335.562C140.202 341 137.445 347.139 134.473 352.969H134.456ZM81.778 312.94C88.4604 318.476 94.6017 323.648 100.812 328.568C101.353 329.002 102.53 328.161 103.131 327.348C105.793 323.732 108.25 319.724 110.956 316.192C126.493 295.925 143.689 280.059 161.555 266.085C171.08 258.629 181.069 253.653 191.823 254.172C194.211 254.284 196.599 254.593 199.682 254.873C198.6 253.275 198.024 252.35 197.406 251.537C192.467 245.076 186.927 240.409 180.941 237.213C179.223 236.302 177.247 235.657 175.504 236.078C160.146 239.806 144.703 242.945 129.491 247.921C104.763 256.022 81.5718 270.963 60.3307 293.458C59.8755 293.935 59.5061 294.636 59.0251 295.364C59.4374 295.925 59.6607 296.43 59.9528 296.598C67.0131 300.41 74.082 304.166 80.3951 310.88C80.773 311.286 81.8467 310.782 82.2675 310.123C90.5476 297.2 100.133 287.502 110.466 279.653C111.626 278.77 112.871 278.181 114.073 277.452C114.185 277.831 114.297 278.195 114.408 278.574C102.976 287.866 92.1881 298.742 81.8037 312.926L81.778 312.94ZM408.435 309.731L407.696 309.184C407.43 309.464 407.129 309.689 406.897 310.039C399.072 322.317 389.753 330.502 379.592 336.248C360.335 347.125 340.322 350.965 320.112 352.605C318.377 352.745 317.303 353.488 316.487 355.969C312.227 368.807 307.898 381.575 303.62 394.4C303.328 395.269 303.225 396.306 302.959 397.637C303.758 397.567 304.256 397.567 304.746 397.469C315.13 395.339 325.514 393.236 335.899 391.064C347.632 388.611 359.339 385.892 370.565 379.459C383.251 372.185 394.374 361.112 402.577 343.27C403.298 341.7 403.779 339.71 404.071 337.79C404.939 332.1 405.583 326.325 406.442 320.649C407 316.977 407.773 313.389 408.443 309.759L408.435 309.731ZM33.5667 268.034C34.2452 269.351 34.417 269.87 34.6747 270.15C42.2418 277.971 49.8003 285.806 57.4275 293.472C57.9171 293.963 59.0681 293.654 59.592 293.024C71.1875 278.812 84.0885 268.636 97.5821 260.367C118.505 247.543 140.253 240.535 162.388 236.344C165.755 235.699 169.122 235.125 172.489 234.522L172.351 232.84C142.487 226.673 113.558 232.293 85.729 252.462C92.6433 245.146 100.399 241.348 107.958 236.919C103.5 236.722 99.1282 236.736 94.7563 236.708C93.0814 236.708 91.2691 235.895 89.7402 236.652C75.6968 243.66 61.6534 250.738 47.7045 258.251C42.9461 260.802 38.4453 264.614 33.5581 268.034H33.5667ZM179.36 378.366C180.528 378.856 181.164 379.291 181.817 379.389C197.543 381.73 213.262 384.084 228.997 386.271C229.942 386.397 231.119 385.528 231.9 384.519C238.042 376.614 244.63 369.872 251.862 365.093C255.074 362.976 257.247 360.005 258.596 354.861C259.523 351.315 260.898 348.064 262.066 344.672C261.877 344.321 261.688 343.971 261.499 343.635C249.019 346.045 237.062 351.876 225.312 359.122C235.121 349.563 245.935 345.092 257.093 342.191C254.696 339.906 252.386 337.958 249.998 336.29C248.787 335.449 247.455 334.665 246.167 334.608C228.052 333.782 211.183 340.733 195.766 356.529C189.89 362.542 184.522 369.578 179.352 378.352L179.36 378.366ZM317.466 260.942C309.684 264.978 302.048 269.617 296.182 278.672C289.594 288.847 284.887 301.251 285.686 317.019C286.966 342.135 290.745 366.41 295.486 390.321C295.512 390.461 295.761 390.489 295.959 390.587C296.122 390.349 296.354 390.139 296.483 389.817C299.884 381.099 303.32 372.423 306.618 363.593C307.056 362.416 307.09 360.412 306.833 359.038C305.063 349.732 304.247 340.229 304.385 330.516C304.402 329.437 304.574 328.372 304.677 327.292C304.788 327.348 304.9 327.39 305.012 327.446C305.957 337.916 306.901 348.4 307.846 358.87C308.113 358.898 308.387 358.926 308.654 358.954C311.041 354.02 313.455 349.115 315.783 344.111C316.075 343.495 316.049 342.317 315.989 341.448C315.121 329.283 313.902 317.145 313.395 304.937C312.776 289.982 312.046 274.775 317.466 260.928V260.942ZM318.574 350.615C318.694 350.937 318.815 351.259 318.926 351.582C319.845 351.469 320.764 351.413 321.675 351.245C329.809 349.647 337.969 348.288 346.068 346.354C359.467 343.158 372.712 338.827 385.235 329.997C393.361 324.265 400.971 317.187 407.206 306.731C408.048 305.316 408.426 303.185 409.027 301.377C408.787 301.153 408.546 300.943 408.306 300.718C407.12 301.994 405.978 303.381 404.75 304.531C403.582 305.624 402.319 306.479 401.099 307.446C400.945 307.053 400.782 306.661 400.627 306.269C404.844 300.452 411.303 297.817 411.656 286.577C405.884 290.193 400.215 294.145 394.391 297.341C377.453 306.619 360.146 312.365 342.152 311.216C341.353 311.16 340.305 311.917 339.755 312.884C332.652 325.4 325.626 338.014 318.574 350.601V350.615ZM316.736 341.252C317.363 340.719 317.543 340.649 317.655 340.467C324.673 328.329 331.69 316.206 338.656 303.97C339.214 302.989 339.489 301.363 339.609 299.976C340.296 292.085 340.451 283.984 341.619 276.289C343.638 262.988 346.257 249.939 348.671 236.512C347.571 237.507 346.377 238.699 345.132 239.694C338.475 245.062 331.982 251.117 325.076 255.448C320.704 258.181 318.239 262.666 316.693 269.155C315.903 272.463 315.087 276.051 315.104 279.513C315.173 294.93 315.491 310.333 315.834 325.751C315.946 330.782 316.41 335.786 316.736 341.252ZM135.959 36.5354C135.409 37.0119 135.065 37.1521 134.859 37.5165C131.157 43.9497 127.43 50.3409 123.839 56.9143C123.358 57.7973 123.436 59.6754 123.461 61.077C123.65 73.7332 124.106 86.4034 123.951 99.0456C123.908 102.704 123.951 105.984 124.733 109.361C125.729 113.664 126.605 118.037 127.533 122.382C127.181 122.606 126.837 122.816 126.485 123.041C125.342 118.303 124.123 113.622 123.084 108.829C122.568 106.46 122.371 104.302 120.318 103.951C119.442 103.797 118.411 101.709 117.947 100.111C115.808 92.7806 113.842 85.2962 111.797 77.8959C111.445 76.6345 111.007 75.4432 110.5 73.8874C107.168 82.7033 119.253 143.882 126.21 154.913C126.7 153.973 127.301 153.147 127.67 152.109C132.566 137.967 137.436 123.812 142.246 109.586C142.53 108.759 142.349 107.161 142.049 106.222C136.165 88.0292 133.975 68.6595 135.083 48.2385C135.289 44.4683 135.65 40.7121 135.967 36.5214L135.959 36.5354ZM108.121 143.265C110.286 151.353 112.45 159.454 114.881 168.522C118.334 164.836 121.142 161.878 123.925 158.865C125.145 157.547 125.145 156.174 124.295 154.072C116.547 134.912 111.677 113.916 109.581 91.2109C109.135 86.3754 108.782 81.512 108.327 75.8917C102.71 82.8154 97.1956 88.3937 95.744 100.573C93.4335 119.887 94.7391 138.472 98.5957 156.763C100.228 164.499 102.263 171.998 104.179 179.875C107.674 175.614 110.758 171.858 113.962 167.947C110.449 160.743 108.078 152.754 108.13 143.279L108.121 143.265ZM70.7065 188.284C70.9384 188.116 71.1703 187.948 71.4022 187.793C73.5065 195.909 75.6109 204.024 77.8183 212.531C79.6049 210.177 81.108 208.004 82.7485 206.126C83.9424 204.753 84.0283 203.407 83.5989 201.221C81.8123 192.026 80.0429 182.818 78.5055 173.511C76.2036 159.58 74.752 145.466 76.2637 130.988C76.6931 126.895 77.4232 122.886 78.119 118.191C73.1372 121.737 68.6021 125.031 64.024 128.17C62.1516 129.46 61.3872 131.562 61.2411 134.814C60.8804 142.649 60.219 150.455 59.9356 158.29C59.592 167.779 58.5012 177.604 59.5576 186.714C61.0779 199.861 64.2216 212.517 66.7125 225.37C66.8671 226.183 67.3309 226.827 67.8806 228.075C71.1273 223.183 74.1851 218.558 77.1656 214.073C74.1593 205.523 71.7372 197.338 70.7065 188.27V188.284ZM113.068 186.588C114.142 187.835 115.147 189.027 116.169 190.176C124.673 199.777 133.391 208.691 143.775 211.915C144.995 212.293 146.395 212.784 147.503 212.167C150.93 210.275 154.305 208.046 157.612 205.649C161.486 202.846 163.006 197.268 163.9 191.494H148.336C149.392 190.583 150.509 190.218 151.643 190.078C154.752 189.728 157.887 189.686 160.979 189.069C162.431 188.775 164.38 188.116 165.093 186.476C167.138 181.753 168.667 176.427 170.513 171.031C156.367 177.52 143.492 173.441 132.162 160.981C125.677 169.671 119.467 177.996 113.068 186.574V186.588ZM183.474 120.672C171.235 138.108 157.758 136.257 143.715 128.395C139.927 138.556 136.131 148.746 132.343 158.907C140.915 170.246 159.631 175.305 169.568 168.788C171.303 167.653 173.219 165.929 174.267 163.56C179.875 150.848 181.954 135.963 183.474 120.686V120.672ZM85.7977 109.698L85.1621 109.109C83.3498 112.066 80.9878 114.561 79.8797 118.107C78.5312 122.396 78.0416 127.526 77.5435 132.389C76.4441 143.167 77.2686 153.889 78.7631 164.387C80.5841 177.212 82.7314 189.91 84.8787 203.631C91.5096 196.007 97.6766 188.915 103.826 181.837C94.7133 153.09 89.4395 124.344 95.6753 92.6124C93.6483 94.9811 91.6384 97.2937 90.1525 100.293C88.8898 102.83 87.7646 106.026 87.3953 109.179C86.6652 115.374 86.356 121.723 86.1413 128.044C85.9437 133.693 86.0983 139.369 86.0983 145.031C85.8836 145.031 85.6689 145.031 85.4541 145.031C83.6848 133.286 84.5265 121.513 85.7891 109.726L85.7977 109.698ZM150.105 108.352H164.441C164.475 108.829 164.518 109.319 164.552 109.796C163.728 110.174 162.895 110.875 162.07 110.861C158.548 110.819 155.027 110.497 151.505 110.44C150.706 110.44 149.452 110.623 149.169 111.436C147.382 116.551 145.819 121.863 143.904 127.974C149.736 129.278 155.121 131.142 160.558 131.562C168.606 132.179 175.942 128.325 181.937 119.13C183.071 117.392 184.376 115.178 184.642 112.879C186.077 100.559 187.271 88.1694 188.387 75.7655C188.551 73.9294 187.906 71.8832 187.477 68.7997C184.462 76.2841 181.112 81.1476 176.964 84.189C170.35 89.0384 163.461 92.0658 156.092 91.2809C155.353 91.1968 154.134 91.9397 153.884 92.8507C152.57 97.588 151.497 102.508 150.105 108.352ZM355.628 282.176C358.849 279.134 361.623 276.597 364.338 273.892C364.767 273.472 364.99 272.351 365.196 271.496C367.868 260.479 370.462 249.421 373.176 238.446C375.358 229.63 378.974 222.959 384.539 219.483C384.866 219.287 385.201 219.147 385.527 218.978C384.522 217.927 383.964 217.773 383.414 217.857C374.627 219.357 366.098 222.356 357.956 228.243C353.18 231.691 350.14 237.227 348.654 245.174C346.609 256.12 344.522 267.053 342.77 278.125C341.653 285.203 341.121 292.533 340.228 300.662C344.531 295.364 348.13 290.641 351.926 286.38C353.635 284.46 354.331 282.47 354.408 279.036C354.511 274.579 355.224 270.15 355.68 265.707C356.032 265.805 356.384 265.903 356.736 266.001C356.384 271.075 356.032 276.149 355.611 282.176H355.628ZM43.367 141.275C43.1351 140.953 42.9117 140.644 42.6798 140.322C41.8896 141.513 40.8332 142.466 40.3522 143.938C39.2441 147.33 38.2478 150.876 37.5091 154.506C33.2403 175.361 34.5287 196.049 38.2306 216.708C38.8662 220.282 39.8883 221.88 42.1559 222.244C47.361 223.099 52.5403 224.347 57.7367 225.398C60.2534 225.902 62.7786 226.337 65.2609 226.799C63.0191 216.414 60.8976 206.631 58.7932 196.876C55.7011 199.034 54.7649 198.488 53.1329 193.288C49.5942 182.005 48.615 169.699 47.8076 157.351C47.4125 151.254 47.1291 145.144 46.7941 139.033C46.5793 138.85 46.3732 138.654 46.1585 138.472C45.6173 139.551 44.7327 140.518 44.5866 141.724C43.7793 148.325 43.0234 154.955 42.5166 161.626C42.2332 165.41 42.4651 169.293 42.4651 173.133C42.1902 173.105 41.9068 173.077 41.632 173.049C39.9141 162.187 41.2712 151.689 43.3756 141.261L43.367 141.275ZM142.753 105.731C142.993 105.689 143.242 105.647 143.483 105.605C143.904 104.456 144.35 103.335 144.737 102.171C147.013 95.2614 149.186 88.2535 151.583 81.4418C152.57 78.6247 152.39 76.9568 151.17 74.2798C148.92 69.3323 147.211 63.7399 145.269 58.3999C145.604 58.0636 145.939 57.7272 146.283 57.3908C148.559 63.2494 150.827 69.122 153.352 75.6533C154.374 72.654 154.941 70.6498 155.697 68.8698C157.002 65.8143 156.685 63.2635 155.783 59.8436C153.67 51.7986 151.797 43.4872 150.449 35.0077C149.452 28.7426 149.435 22.0711 148.971 15.4557C148.697 15.5958 148.405 15.6099 148.259 15.8481C144.806 21.3283 141.353 26.7804 137.96 32.3587C137.479 33.1576 137.17 34.4891 137.075 35.6384C135.761 52.1629 135.684 68.6315 138.467 84.8197C139.686 91.8836 141.31 98.7794 142.744 105.745L142.753 105.731ZM39.6135 142.088C35.6281 143.686 32.3212 145.438 28.9371 146.237C25.8879 146.952 24.4879 149.629 23.5345 154.03C19.5834 172.18 18.046 190.891 18.1748 210.064C18.192 212.91 18.8619 214.297 20.5454 214.9C24.9087 216.456 29.2463 218.222 33.6096 219.833C34.7176 220.24 35.86 220.352 37.4061 220.688C32.4071 193.988 30.9641 168.143 39.6221 142.088H39.6135ZM97.4876 205.145C102.392 215.11 107.614 223.8 113.919 230.626C114.537 231.298 115.542 231.298 116.341 231.172C122.474 230.135 128.598 228.986 134.713 227.836C135.289 227.724 135.993 227.612 136.38 227.038C139.077 223.029 141.705 218.908 144.557 214.507C141.851 213.428 139.463 212.671 137.144 211.508C128.366 207.051 120.868 198.922 113.73 189.728C113.034 188.831 111.54 187.99 111.041 188.564C106.515 193.82 102.126 199.398 97.4705 205.145H97.4876ZM342.658 308.904C342.753 309.254 342.839 309.604 342.933 309.955C343.844 309.955 344.771 310.123 345.665 309.927C355.688 307.768 365.789 306.199 375.71 303.171C387.597 299.541 399.004 292.996 410.101 285.091C413.803 282.456 416.062 277.915 416.594 272.21C415.839 272.729 415.151 273.205 414.464 273.668C406.485 279.106 398.351 283.689 389.581 283.914C382.323 284.096 375.057 283.984 367.799 284.082C366.743 284.096 365.497 284.152 364.664 285.007C357.887 291.973 351.17 299.107 344.462 306.255C343.801 306.955 343.268 308.007 342.667 308.89L342.658 308.904ZM411.733 217.563C411.621 217.367 411.544 217.086 411.415 217.002C411.097 216.82 410.762 216.666 410.436 216.61C403.668 215.306 397.071 214.844 392.519 225.51C391.9 226.968 391.076 228.215 390.303 229.49C389.89 230.177 389.375 230.696 388.903 231.284L388.216 230.191C390.5 225.888 392.794 221.585 395.078 217.283C394.941 216.96 394.812 216.638 394.675 216.316C387.528 218.908 380.382 222.356 376.586 233.821C372.781 245.3 369.895 257.578 366.622 269.519C366.468 270.08 366.476 270.753 366.356 271.79C367.009 271.439 367.412 271.313 367.756 271.019C375.632 264.362 383.509 257.732 391.351 250.976C392.106 250.318 392.811 249.084 393.232 247.837C397.518 234.985 402.731 223.702 411.527 218.292C411.63 218.222 411.664 217.843 411.733 217.591V217.563ZM419.137 266.884H409.86C409.843 266.422 409.826 265.973 409.809 265.511C412.609 265.104 415.418 264.249 418.209 264.39C421.267 264.544 422.615 261.474 424.368 257.732C422.435 257.732 420.872 257.802 419.309 257.732C413.236 257.396 407.172 256.933 401.108 256.709C399.51 256.653 397.698 256.611 396.324 257.718C388.825 263.745 381.421 270.108 374 276.401C372.102 278.013 370.247 279.765 367.997 281.797C380.219 286.45 414.404 276.373 419.145 266.884H419.137ZM154.58 89.6552C156.143 89.6552 157.234 89.8093 158.299 89.6271C164.81 88.5198 171.123 86.1512 176.998 81.2737C180.588 78.2883 183.689 74.3079 185.905 68.7156C186.309 67.7065 186.884 66.3609 186.755 65.4078C185.914 59.4651 184.9 53.5925 183.938 47.7199C183.208 48.0283 183.002 48.0143 182.89 48.1685C177.848 55.3866 172.025 59.0728 165.274 58.8064C164.63 58.7784 163.702 59.8296 163.367 60.7967C161.168 67.1458 159.029 73.579 156.994 80.0824C156.092 82.9556 155.465 86.0671 154.572 89.6411L154.58 89.6552ZM163.719 43.5853C163.985 43.1928 164.295 42.9126 164.449 42.4921C166.803 35.9607 169.148 29.4294 171.432 22.828C171.673 22.1272 171.759 20.8938 171.544 20.221C170.256 16.1985 169.001 12.1059 167.412 8.40576C166.717 6.79394 165.342 5.43441 164.14 5.02795C159.759 3.54228 155.705 5.36436 152.287 9.96153C151.359 11.2089 150.586 13.7878 150.595 15.736C150.698 30.5367 152.811 44.6505 156.521 58.1477C156.831 59.2829 157.26 60.3481 157.853 62.0861C159.536 57.0544 160.893 52.7797 162.388 48.645C163.058 46.7809 162.886 45.6317 162.018 44.0198C160.945 42.0436 160.198 39.5768 159.304 37.3203C159.596 36.9839 159.897 36.6615 160.189 36.3252C161.34 38.6938 162.491 41.0765 163.711 43.5713L163.719 43.5853ZM86.021 236.737C86.021 236.316 86.021 235.896 86.0125 235.475C85.2308 235.391 84.432 235.083 83.6762 235.251C71.7286 238.04 59.7724 240.703 47.8591 243.772C36.6674 246.66 25.51 249.617 14.1207 247.557C13.4679 247.43 12.7893 247.543 12.128 247.543C12.1108 247.809 12.1022 248.061 12.085 248.327C16.5171 252.56 20.9577 256.793 25.029 260.675C27.3309 258.937 29.3236 257.424 31.3077 255.924C31.4881 256.527 31.6685 257.129 31.8402 257.732C30.1739 259.162 28.499 260.577 26.8413 261.993C31.7028 268.594 31.6856 268.482 36.7361 263.703C39.0638 261.502 41.4859 259.372 44.0198 257.97C51.8445 253.625 59.7209 249.533 67.6229 245.538C73.7299 242.455 79.8883 239.666 86.0296 236.75L86.021 236.737ZM41.4688 241.151C41.6234 240.703 41.7866 240.24 41.9412 239.792C39.373 235.727 36.9422 231.382 34.1851 227.682C32.5446 225.482 30.4831 223.828 28.4475 222.791C23.2253 220.114 17.8999 217.997 12.6519 215.503C9.94632 214.213 7.30943 212.573 4.63818 211.102C5.15353 213.204 5.9781 214.465 6.81984 215.699C11.5954 222.721 15.7698 230.317 16.6631 241.348C16.7318 242.217 17.7367 243.492 18.338 243.548C26.1026 244.305 33.8072 243.226 41.4602 241.165L41.4688 241.151ZM96.1735 206.883C91.604 212.601 86.691 218.754 81.4602 225.3C83.1522 228.145 84.4406 232.279 86.064 232.672C90.2212 233.667 94.533 233.008 99.1368 233.008C97.9944 230.864 97.0668 229.126 96.1477 227.402C98.8104 228.804 100.923 231.887 103.328 232.742C105.785 233.625 108.525 232.307 111.127 231.957C106.12 223.562 101.327 215.531 96.1735 206.897V206.883ZM395.302 247.122C406.09 239.442 416.801 232.139 429.092 236.568C425.269 231.004 421.413 225.762 417.307 221.081C416.216 219.833 414.215 219.455 412.918 220.128C404.501 224.515 399.613 235.307 395.293 247.122H395.302ZM172.566 22.5617C169.998 34.3489 167.576 45.4354 165.085 56.8723C171.552 56.4938 177.144 52.8637 182.074 46.4305C182.461 45.9259 182.624 44.1459 182.401 43.333C180.185 35.316 176.362 29.3593 172.566 22.5617ZM35.6453 225.145C37.9644 229.532 40.2147 233.078 41.9068 237.227C43.0406 239.988 44.0627 240.759 45.9867 240.24C52.7292 238.446 59.4889 236.863 66.2572 235.265C68.9199 234.634 71.5997 234.186 74.271 233.653C74.271 233.289 74.271 232.924 74.271 232.56C61.5246 230.107 48.7782 227.654 35.6539 225.131L35.6453 225.145ZM126.021 164.037C125.823 163.616 125.626 163.196 125.42 162.775C106.575 182.341 88.5549 203.715 71.6083 227.416C71.8488 228.089 72.0893 228.747 72.3298 229.42C73.5151 228.579 74.855 228.075 75.8514 226.827C88.7266 210.751 101.542 194.577 114.391 178.445C118.248 173.595 122.147 168.83 126.021 164.023V164.037ZM254.473 367.027C254.327 366.761 254.181 366.494 254.043 366.242C246.45 371.4 239.339 377.889 232.364 386.621C236.77 387.714 240.481 388.85 244.234 389.452C245.394 389.634 247.258 388.976 247.73 387.672C250.17 380.973 252.265 373.937 254.481 367.027H254.473ZM246.399 391.849C241.202 391.26 236.556 390.728 231.909 390.195C231.832 390.602 231.763 390.994 231.686 391.4C235.199 396.348 238.712 401.296 242.499 406.636C243.822 401.618 244.965 397.273 246.399 391.849ZM158.342 209.252L157.878 208.27C153.988 211.382 150.054 214.381 146.24 217.731C145.536 218.348 144.952 220.45 144.969 221.824C144.995 223.309 145.785 226.014 146.266 226.028C148.113 226.099 150.681 226.379 151.677 224.613C154.262 220.044 156.161 214.437 158.325 209.252H158.342ZM423.895 239.498C414.567 238.096 406.373 243.604 398.428 250.542C406.803 246.183 414.799 239.582 423.895 239.498ZM137.702 133.58C137.977 133.819 138.252 134.043 138.527 134.281C142.186 122.957 145.845 111.632 149.504 100.307C149.221 100.055 148.928 99.8165 148.645 99.5642C144.995 110.903 141.353 122.242 137.702 133.58ZM78.1018 229.448C78.1705 229.827 78.2392 230.205 78.3079 230.584C79.7166 230.906 81.1166 231.228 83.0578 231.663C82.1731 229.28 81.632 227.822 80.962 226.014C79.8969 227.29 78.9951 228.355 78.1018 229.434V229.448Z" fill="#77277A" fill-opacity="0.05"/>
</svg>
