<svg width="128" height="108" viewBox="0 0 128 108" fill="none" xmlns="http://www.w3.org/2000/svg">
<g filter="url(#filter0_d_1089_1744)">
<rect x="4" width="120" height="100" rx="10" fill="#741E78" shape-rendering="crispEdges"/>
<path d="M47.2386 48.8003C46.6478 48.5582 46.2107 48.1833 46.1312 47.5247C46.3167 44.6561 45.5484 41.3814 46.9498 38.7497C49.5328 33.8949 56.7121 32.1925 61.8489 32.5621C63.5709 32.6871 65.2584 33.1088 66.9062 33.5904C66.9327 33.6919 66.8824 33.7023 66.8373 33.7622C66.5962 34.0824 65.8465 34.6134 65.5074 34.9908C63.3669 37.4013 62.6092 40.7853 63.5232 43.8648C64.1034 45.8223 65.3458 47.556 66.9751 48.7977H47.2386V48.8003Z" fill="white"/>
<path d="M59.5653 13.7417C66.4532 13.2081 71.1396 20.4551 67.6798 26.3745C64.469 31.8671 56.4048 31.9452 52.9953 26.5958C49.5991 21.2699 53.2338 14.2311 59.5653 13.7417Z" fill="white"/>
<path d="M67.4837 46.5173C64.0954 43.1723 64.3815 37.6746 68.3447 34.9049C73.9928 30.9586 81.7364 35.9045 80.4091 42.5814C79.2541 48.3915 71.7781 50.7577 67.4837 46.5173ZM73.6669 37.1539H72.1331V40.374H68.856V42.0868H72.1331V45.3068H73.6669V42.0868H76.9095L77.0129 41.9853V40.4781L76.9095 40.3766H73.6669V37.1565V37.1539Z" fill="white"/>
<path d="M37.8226 59.26C38.924 59.26 39.778 59.5213 40.3846 60.044C41.0006 60.5573 41.3086 61.2433 41.3086 62.102C41.3086 63.0447 41.0053 63.7633 40.3986 64.258C39.792 64.7527 38.938 65 37.8366 65L37.6126 65.126H35.7786V68.5H33.4126V59.26H37.8226ZM37.4866 63.418C37.9533 63.418 38.3033 63.3247 38.5366 63.138C38.77 62.9513 38.8866 62.6527 38.8866 62.242C38.8866 61.8407 38.77 61.5467 38.5366 61.36C38.3033 61.1733 37.9533 61.08 37.4866 61.08H35.7786V63.418H37.4866ZM38.9006 63.922L41.8546 68.5H39.1946L36.8286 64.454L38.9006 63.922ZM46.2173 68.64C45.4426 68.64 44.7706 68.4953 44.2013 68.206C43.6413 67.9167 43.2073 67.5013 42.8993 66.96C42.5913 66.4187 42.4373 65.7653 42.4373 65C42.4373 64.2347 42.5913 63.5813 42.8993 63.04C43.2073 62.4987 43.6366 62.0833 44.1873 61.794C44.7473 61.5047 45.3866 61.36 46.1053 61.36C46.8426 61.36 47.4679 61.5047 47.9813 61.794C48.5039 62.074 48.9006 62.466 49.1713 62.97C49.4419 63.4647 49.5773 64.034 49.5773 64.678C49.5773 64.846 49.5726 65.014 49.5633 65.182C49.5539 65.35 49.5399 65.49 49.5213 65.602H43.9773V64.328H48.4713L47.3373 64.762C47.3373 64.202 47.2346 63.7727 47.0293 63.474C46.8333 63.1753 46.5253 63.026 46.1053 63.026C45.8066 63.026 45.5499 63.096 45.3353 63.236C45.1299 63.376 44.9713 63.5953 44.8593 63.894C44.7566 64.1927 44.7053 64.5753 44.7053 65.042C44.7053 65.4993 44.7659 65.8727 44.8873 66.162C45.0086 66.442 45.1813 66.6473 45.4053 66.778C45.6293 66.8993 45.8999 66.96 46.2173 66.96C46.5719 66.96 46.8519 66.89 47.0573 66.75C47.2719 66.61 47.4306 66.414 47.5333 66.162L49.4373 66.792C49.3066 67.1933 49.0779 67.534 48.7513 67.814C48.4339 68.0847 48.0513 68.29 47.6033 68.43C47.1646 68.57 46.7026 68.64 46.2173 68.64ZM57.6847 59.624L57.8807 61.22C57.8247 61.2013 57.7687 61.192 57.7127 61.192C57.6567 61.1827 57.6007 61.178 57.5447 61.178C57.134 61.178 56.826 61.2807 56.6207 61.486C56.4247 61.682 56.3267 61.9293 56.3267 62.228L55.4867 61.92C55.4867 61.5373 55.5567 61.1687 55.6967 60.814C55.8367 60.4593 56.0514 60.17 56.3407 59.946C56.6394 59.722 57.0127 59.61 57.4607 59.61C57.4887 59.61 57.5214 59.61 57.5587 59.61C57.6054 59.61 57.6474 59.6147 57.6847 59.624ZM55.2767 66.946C56.0887 66.946 56.7094 67.1187 57.1387 67.464C57.5774 67.8 57.7967 68.2853 57.7967 68.92C57.7967 69.4987 57.638 69.9793 57.3207 70.362C57.0034 70.7447 56.5554 71.0293 55.9767 71.216C55.4074 71.412 54.7307 71.51 53.9467 71.51C52.6774 71.51 51.7627 71.3513 51.2027 71.034C50.6427 70.7167 50.3627 70.2873 50.3627 69.746C50.3627 69.354 50.5214 69.0367 50.8387 68.794C51.156 68.5513 51.6834 68.4207 52.4207 68.402L52.3647 68.626C51.7954 68.5513 51.3707 68.3833 51.0907 68.122C50.8107 67.8607 50.6707 67.506 50.6707 67.058C50.6707 66.61 50.848 66.246 51.2027 65.966C51.5574 65.686 52.0287 65.532 52.6167 65.504L53.4847 65.91H53.2607C52.8967 65.9287 52.64 65.9893 52.4907 66.092C52.3414 66.1947 52.2667 66.3207 52.2667 66.47C52.2667 66.6287 52.332 66.75 52.4627 66.834C52.5934 66.9087 52.7894 66.946 53.0507 66.946H55.2767ZM53.9607 69.97C54.4087 69.97 54.7774 69.9373 55.0667 69.872C55.3654 69.816 55.5894 69.732 55.7387 69.62C55.888 69.5173 55.9627 69.396 55.9627 69.256C55.9627 69.116 55.9114 69.004 55.8087 68.92C55.706 68.8453 55.5194 68.808 55.2487 68.808H52.7427C52.5654 68.808 52.4207 68.8547 52.3087 68.948C52.206 69.0413 52.1547 69.158 52.1547 69.298C52.1547 69.5127 52.3134 69.676 52.6307 69.788C52.948 69.9093 53.3914 69.97 53.9607 69.97ZM54.0447 61.36C54.754 61.36 55.3607 61.4533 55.8647 61.64C56.3687 61.8267 56.7514 62.0973 57.0127 62.452C57.2834 62.7973 57.4187 63.2267 57.4187 63.74C57.4187 64.244 57.2834 64.6733 57.0127 65.028C56.7514 65.3827 56.3687 65.6533 55.8647 65.84C55.3607 66.0173 54.754 66.106 54.0447 66.106C52.934 66.106 52.0894 65.9007 51.5107 65.49C50.9414 65.0793 50.6567 64.496 50.6567 63.74C50.6567 63.2267 50.7874 62.7973 51.0487 62.452C51.3194 62.0973 51.7067 61.8267 52.2107 61.64C52.7147 61.4533 53.326 61.36 54.0447 61.36ZM54.0447 62.718C53.7367 62.718 53.4847 62.8067 53.2887 62.984C53.102 63.1613 53.0087 63.4133 53.0087 63.74C53.0087 64.0573 53.102 64.3047 53.2887 64.482C53.4847 64.6593 53.7367 64.748 54.0447 64.748C54.3434 64.748 54.5907 64.6593 54.7867 64.482C54.9827 64.3047 55.0807 64.0573 55.0807 63.74C55.0807 63.4133 54.9827 63.1613 54.7867 62.984C54.5907 62.8067 54.3434 62.718 54.0447 62.718ZM59.9327 60.688C59.4473 60.688 59.0927 60.5993 58.8687 60.422C58.654 60.2353 58.5467 59.946 58.5467 59.554C58.5467 59.1527 58.654 58.8633 58.8687 58.686C59.0927 58.4993 59.4473 58.406 59.9327 58.406C60.4087 58.406 60.7587 58.4993 60.9827 58.686C61.2067 58.8633 61.3187 59.1527 61.3187 59.554C61.3187 59.946 61.2067 60.2353 60.9827 60.422C60.7587 60.5993 60.4087 60.688 59.9327 60.688ZM61.1227 61.5V68.5H58.7427V61.5H61.1227ZM65.7569 68.64C65.0569 68.64 64.4036 68.528 63.7969 68.304C63.1996 68.0707 62.7049 67.7393 62.3129 67.31L63.4329 65.994C63.6662 66.2927 63.9742 66.5447 64.3569 66.75C64.7489 66.946 65.1829 67.044 65.6589 67.044C65.9482 67.044 66.1862 67.002 66.3729 66.918C66.5596 66.834 66.6529 66.7033 66.6529 66.526C66.6529 66.3953 66.6062 66.2927 66.5129 66.218C66.4196 66.134 66.2329 66.064 65.9529 66.008L64.9729 65.812C64.0956 65.6347 63.4702 65.3733 63.0969 65.028C62.7329 64.6733 62.5509 64.2113 62.5509 63.642C62.5509 63.2593 62.6676 62.8953 62.9009 62.55C63.1342 62.1953 63.4936 61.9107 63.9789 61.696C64.4642 61.472 65.0849 61.36 65.8409 61.36C66.5502 61.36 67.1756 61.4627 67.7169 61.668C68.2582 61.8733 68.6876 62.172 69.0049 62.564L67.8709 63.852C67.6469 63.572 67.3576 63.3527 67.0029 63.194C66.6482 63.0353 66.2936 62.956 65.9389 62.956C65.7149 62.956 65.5236 62.9793 65.3649 63.026C65.2156 63.0633 65.1036 63.1193 65.0289 63.194C64.9542 63.2687 64.9169 63.362 64.9169 63.474C64.9169 63.5953 64.9729 63.7027 65.0849 63.796C65.2062 63.88 65.4256 63.9547 65.7429 64.02L67.0169 64.272C67.7356 64.4027 68.2536 64.6407 68.5709 64.986C68.8882 65.3313 69.0469 65.7467 69.0469 66.232C69.0469 66.6893 68.9256 67.1 68.6829 67.464C68.4402 67.828 68.0762 68.1173 67.5909 68.332C67.1056 68.5373 66.4942 68.64 65.7569 68.64ZM73.2077 59.274V66.008C73.2077 66.344 73.2871 66.5867 73.4457 66.736C73.6137 66.876 73.8424 66.946 74.1317 66.946C74.3557 66.946 74.5471 66.9227 74.7057 66.876C74.8737 66.82 75.0231 66.7407 75.1537 66.638L75.4057 68.108C75.1724 68.276 74.8784 68.4067 74.5237 68.5C74.1691 68.5933 73.8051 68.64 73.4317 68.64C72.8997 68.64 72.4377 68.5653 72.0457 68.416C71.6631 68.2667 71.3644 68.0287 71.1497 67.702C70.9444 67.3753 70.8371 66.9413 70.8277 66.4V59.932L73.2077 59.274ZM75.2937 61.5V63.194H69.6237V61.5H75.2937ZM76.3931 68.5V61.5H78.4931L78.5911 63.012C78.7684 62.4893 79.0297 62.0833 79.3751 61.794C79.7297 61.5047 80.1777 61.36 80.7191 61.36C80.8964 61.36 81.0457 61.374 81.1671 61.402C81.2977 61.43 81.4004 61.4673 81.4751 61.514L81.2371 63.474C81.1437 63.4367 81.0224 63.4087 80.8731 63.39C80.7331 63.362 80.5604 63.348 80.3551 63.348C80.0751 63.348 79.8137 63.4087 79.5711 63.53C79.3284 63.6513 79.1324 63.8333 78.9831 64.076C78.8431 64.3093 78.7731 64.608 78.7731 64.972V68.5H76.3931ZM86.2463 64.062C86.2463 63.7353 86.153 63.4787 85.9663 63.292C85.789 63.096 85.5463 62.998 85.2383 62.998C84.9303 62.998 84.6643 63.0773 84.4403 63.236C84.2257 63.3853 84.0763 63.656 83.9923 64.048L81.9763 63.572C82.107 62.9 82.4523 62.3633 83.0123 61.962C83.5723 61.5607 84.361 61.36 85.3783 61.36C86.0597 61.36 86.6383 61.4627 87.1143 61.668C87.5997 61.864 87.9683 62.1627 88.2203 62.564C88.4817 62.956 88.6123 63.4413 88.6123 64.02V66.582C88.6123 66.946 88.7757 67.128 89.1023 67.128C89.2703 67.128 89.4057 67.1093 89.5083 67.072L89.3683 68.43C89.0883 68.5607 88.7477 68.626 88.3463 68.626C87.9823 68.626 87.6603 68.57 87.3803 68.458C87.1003 68.3367 86.881 68.1593 86.7223 67.926C86.5637 67.6833 86.4843 67.38 86.4843 67.016V66.932L86.7503 66.834C86.7503 67.2353 86.629 67.5713 86.3863 67.842C86.153 68.1127 85.845 68.3133 85.4623 68.444C85.089 68.5747 84.697 68.64 84.2863 68.64C83.8103 68.64 83.395 68.5653 83.0403 68.416C82.6857 68.2667 82.4103 68.052 82.2143 67.772C82.0277 67.4827 81.9343 67.128 81.9343 66.708C81.9343 66.204 82.0837 65.7887 82.3823 65.462C82.6903 65.126 83.171 64.8927 83.8243 64.762L86.4703 64.216L86.4563 65.476L85.1123 65.756C84.8323 65.812 84.6223 65.896 84.4823 66.008C84.3517 66.1107 84.2863 66.2693 84.2863 66.484C84.2863 66.6893 84.361 66.8433 84.5103 66.946C84.6597 67.0487 84.837 67.1 85.0423 67.1C85.201 67.1 85.3503 67.0767 85.4903 67.03C85.6397 66.9833 85.7703 66.9133 85.8823 66.82C85.9943 66.7173 86.083 66.5913 86.1483 66.442C86.2137 66.2927 86.2463 66.1153 86.2463 65.91V64.062ZM90.4478 68.5V61.5H92.5478L92.6458 63.012C92.8231 62.4893 93.0844 62.0833 93.4298 61.794C93.7844 61.5047 94.2324 61.36 94.7738 61.36C94.9511 61.36 95.1004 61.374 95.2218 61.402C95.3524 61.43 95.4551 61.4673 95.5298 61.514L95.2918 63.474C95.1984 63.4367 95.0771 63.4087 94.9278 63.39C94.7878 63.362 94.6151 63.348 94.4098 63.348C94.1298 63.348 93.8684 63.4087 93.6258 63.53C93.3831 63.6513 93.1871 63.8333 93.0378 64.076C92.8978 64.3093 92.8278 64.608 92.8278 64.972V68.5H90.4478ZM46.7953 75.26V80.734C46.7953 82.0407 46.4453 83.0207 45.7453 83.674C45.0546 84.318 44.028 84.64 42.6653 84.64C41.312 84.64 40.2853 84.318 39.5853 83.674C38.8853 83.0207 38.5353 82.0407 38.5353 80.734V75.26H40.9573V80.776C40.9573 81.4387 41.0973 81.9333 41.3773 82.26C41.6666 82.5867 42.096 82.75 42.6653 82.75C43.244 82.75 43.6733 82.5867 43.9533 82.26C44.2426 81.9333 44.3873 81.4387 44.3873 80.776V75.26H46.7953ZM51.3878 84.64C50.6878 84.64 50.0344 84.528 49.4278 84.304C48.8304 84.0707 48.3358 83.7393 47.9438 83.31L49.0638 81.994C49.2971 82.2927 49.6051 82.5447 49.9878 82.75C50.3798 82.946 50.8138 83.044 51.2897 83.044C51.5791 83.044 51.8171 83.002 52.0038 82.918C52.1904 82.834 52.2838 82.7033 52.2838 82.526C52.2838 82.3953 52.2371 82.2927 52.1438 82.218C52.0504 82.134 51.8638 82.064 51.5838 82.008L50.6038 81.812C49.7264 81.6347 49.1011 81.3733 48.7278 81.028C48.3638 80.6733 48.1818 80.2113 48.1818 79.642C48.1818 79.2593 48.2984 78.8953 48.5318 78.55C48.7651 78.1953 49.1244 77.9107 49.6098 77.696C50.0951 77.472 50.7158 77.36 51.4718 77.36C52.1811 77.36 52.8064 77.4627 53.3478 77.668C53.8891 77.8733 54.3184 78.172 54.6358 78.564L53.5018 79.852C53.2778 79.572 52.9884 79.3527 52.6338 79.194C52.2791 79.0353 51.9244 78.956 51.5698 78.956C51.3458 78.956 51.1544 78.9793 50.9958 79.026C50.8464 79.0633 50.7344 79.1193 50.6598 79.194C50.5851 79.2687 50.5478 79.362 50.5478 79.474C50.5478 79.5953 50.6038 79.7027 50.7158 79.796C50.8371 79.88 51.0564 79.9547 51.3738 80.02L52.6478 80.272C53.3664 80.4027 53.8844 80.6407 54.2018 80.986C54.5191 81.3313 54.6778 81.7467 54.6778 82.232C54.6778 82.6893 54.5564 83.1 54.3138 83.464C54.0711 83.828 53.7071 84.1173 53.2218 84.332C52.7364 84.5373 52.1251 84.64 51.3878 84.64ZM58.2786 84.64C57.8026 84.64 57.3826 84.5607 57.0186 84.402C56.6639 84.234 56.3839 83.968 56.1786 83.604C55.9733 83.24 55.8706 82.764 55.8706 82.176V77.5H58.2506V81.616C58.2506 82.064 58.3393 82.3767 58.5166 82.554C58.6939 82.7313 58.9459 82.82 59.2726 82.82C59.4406 82.82 59.5993 82.792 59.7486 82.736C59.8979 82.6707 60.0286 82.5773 60.1406 82.456C60.2526 82.3253 60.3366 82.162 60.3926 81.966C60.4579 81.7607 60.4906 81.5227 60.4906 81.252V77.5H62.8706V84.5H60.7426L60.6726 83.184C60.4486 83.6787 60.1359 84.0473 59.7346 84.29C59.3333 84.5233 58.8479 84.64 58.2786 84.64ZM68.4866 80.062C68.4866 79.7353 68.3932 79.4787 68.2066 79.292C68.0292 79.096 67.7866 78.998 67.4786 78.998C67.1706 78.998 66.9046 79.0773 66.6806 79.236C66.4659 79.3853 66.3166 79.656 66.2326 80.048L64.2166 79.572C64.3472 78.9 64.6926 78.3633 65.2526 77.962C65.8126 77.5607 66.6012 77.36 67.6186 77.36C68.2999 77.36 68.8786 77.4627 69.3546 77.668C69.8399 77.864 70.2086 78.1627 70.4606 78.564C70.7219 78.956 70.8526 79.4413 70.8526 80.02V82.582C70.8526 82.946 71.0159 83.128 71.3426 83.128C71.5106 83.128 71.6459 83.1093 71.7486 83.072L71.6086 84.43C71.3286 84.5607 70.9879 84.626 70.5866 84.626C70.2226 84.626 69.9006 84.57 69.6206 84.458C69.3406 84.3367 69.1212 84.1593 68.9626 83.926C68.8039 83.6833 68.7246 83.38 68.7246 83.016V82.932L68.9906 82.834C68.9906 83.2353 68.8692 83.5713 68.6266 83.842C68.3932 84.1127 68.0852 84.3133 67.7026 84.444C67.3292 84.5747 66.9372 84.64 66.5266 84.64C66.0506 84.64 65.6352 84.5653 65.2806 84.416C64.9259 84.2667 64.6506 84.052 64.4546 83.772C64.2679 83.4827 64.1746 83.128 64.1746 82.708C64.1746 82.204 64.3239 81.7887 64.6226 81.462C64.9306 81.126 65.4112 80.8927 66.0646 80.762L68.7106 80.216L68.6966 81.476L67.3526 81.756C67.0726 81.812 66.8626 81.896 66.7226 82.008C66.5919 82.1107 66.5266 82.2693 66.5266 82.484C66.5266 82.6893 66.6012 82.8433 66.7506 82.946C66.8999 83.0487 67.0772 83.1 67.2826 83.1C67.4412 83.1 67.5906 83.0767 67.7306 83.03C67.8799 82.9833 68.0106 82.9133 68.1226 82.82C68.2346 82.7173 68.3232 82.5913 68.3886 82.442C68.4539 82.2927 68.4866 82.1153 68.4866 81.91V80.062ZM72.688 84.5V77.5H74.788L74.886 79.012C75.0633 78.4893 75.3247 78.0833 75.67 77.794C76.0247 77.5047 76.4727 77.36 77.014 77.36C77.1913 77.36 77.3407 77.374 77.462 77.402C77.5927 77.43 77.6953 77.4673 77.77 77.514L77.532 79.474C77.4387 79.4367 77.3173 79.4087 77.168 79.39C77.028 79.362 76.8553 79.348 76.65 79.348C76.37 79.348 76.1087 79.4087 75.866 79.53C75.6233 79.6513 75.4273 79.8333 75.278 80.076C75.138 80.3093 75.068 80.608 75.068 80.972V84.5H72.688ZM79.8936 76.688C79.4083 76.688 79.0536 76.5993 78.8296 76.422C78.6149 76.2353 78.5076 75.946 78.5076 75.554C78.5076 75.1527 78.6149 74.8633 78.8296 74.686C79.0536 74.4993 79.4083 74.406 79.8936 74.406C80.3696 74.406 80.7196 74.4993 80.9436 74.686C81.1676 74.8633 81.2796 75.1527 81.2796 75.554C81.2796 75.946 81.1676 76.2353 80.9436 76.422C80.7196 76.5993 80.3696 76.688 79.8936 76.688ZM81.0836 77.5V84.5H78.7036V77.5H81.0836ZM86.1098 77.36C86.8472 77.36 87.4912 77.5047 88.0418 77.794C88.6018 78.074 89.0358 78.4893 89.3438 79.04C89.6612 79.5813 89.8198 80.2347 89.8198 81C89.8198 81.7653 89.6612 82.4233 89.3438 82.974C89.0358 83.5153 88.6018 83.9307 88.0418 84.22C87.4912 84.5 86.8472 84.64 86.1098 84.64C85.3912 84.64 84.7518 84.5 84.1918 84.22C83.6318 83.9307 83.1932 83.5153 82.8758 82.974C82.5678 82.4233 82.4138 81.7653 82.4138 81C82.4138 80.2347 82.5678 79.5813 82.8758 79.04C83.1932 78.4893 83.6318 78.074 84.1918 77.794C84.7518 77.5047 85.3912 77.36 86.1098 77.36ZM86.1098 79.054C85.8392 79.054 85.6058 79.1193 85.4098 79.25C85.2138 79.3807 85.0645 79.5907 84.9618 79.88C84.8592 80.1693 84.8078 80.5427 84.8078 81C84.8078 81.4573 84.8592 81.8307 84.9618 82.12C85.0645 82.4 85.2138 82.61 85.4098 82.75C85.6058 82.8807 85.8392 82.946 86.1098 82.946C86.3898 82.946 86.6278 82.8807 86.8238 82.75C87.0198 82.61 87.1692 82.4 87.2718 82.12C87.3745 81.8307 87.4258 81.4573 87.4258 81C87.4258 80.5427 87.3745 80.1693 87.2718 79.88C87.1692 79.5907 87.0198 79.3807 86.8238 79.25C86.6278 79.1193 86.3898 79.054 86.1098 79.054Z" fill="white"/>
</g>
<defs>
<filter id="filter0_d_1089_1744" x="0" y="0" width="128" height="108" filterUnits="userSpaceOnUse" color-interpolation-filters="sRGB">
<feFlood flood-opacity="0" result="BackgroundImageFix"/>
<feColorMatrix in="SourceAlpha" type="matrix" values="0 0 0 0 0 0 0 0 0 0 0 0 0 0 0 0 0 0 127 0" result="hardAlpha"/>
<feOffset dy="4"/>
<feGaussianBlur stdDeviation="2"/>
<feComposite in2="hardAlpha" operator="out"/>
<feColorMatrix type="matrix" values="0 0 0 0 0 0 0 0 0 0 0 0 0 0 0 0 0 0 0.25 0"/>
<feBlend mode="normal" in2="BackgroundImageFix" result="effect1_dropShadow_1089_1744"/>
<feBlend mode="normal" in="SourceGraphic" in2="effect1_dropShadow_1089_1744" result="shape"/>
</filter>
</defs>
</svg>
