<svg width="19" height="20" viewBox="0 0 19 20" fill="none" xmlns="http://www.w3.org/2000/svg">
<path d="M7.76951 0.863917L8.01162 0.857422C11.4621 0.937525 13.78 4.59196 12.3611 7.88052C10.8369 11.4115 6.10425 11.877 3.95688 8.70103C1.75688 5.44711 3.94425 1.01979 7.76951 0.863917Z" fill="white"/>
<path d="M13.8598 10.6104C17.085 10.3831 19.3987 13.7972 18.0598 16.8411C16.7671 19.7789 12.8724 20.3029 10.8703 17.8132C8.65767 15.0615 10.4114 10.855 13.8598 10.6104ZM15.4935 12.8576C15.4808 12.8381 15.2198 12.7732 15.1756 12.771C14.6619 12.7277 14.1271 13.0871 13.9314 13.572C13.7924 13.9184 13.8071 14.241 13.8956 14.596L12.2935 16.2414C11.9208 16.6506 12.3461 17.3715 12.8703 17.0468L14.5671 15.3278C14.704 15.3408 14.845 15.4014 14.9882 15.4036C15.8787 15.4209 16.624 14.5398 16.2977 13.6435L16.144 13.6608C15.9082 13.8556 15.6703 14.2193 15.4345 14.3947C15.3524 14.4553 15.3082 14.4553 15.2261 14.3947C15.1692 14.3514 14.6892 13.8491 14.6787 13.8102C14.6745 13.795 14.6724 13.782 14.6787 13.7669L15.4766 12.9723C15.4977 12.9464 15.5082 12.8814 15.4935 12.8576Z" fill="white"/>
<path d="M7.83039 11.7992C8.09145 11.7906 8.72513 11.7733 8.92724 11.9313C9.02829 12.0114 9.02197 12.1435 9.00092 12.2604C8.08934 14.0291 8.14197 16.2027 9.08934 17.9434C9.2746 18.2833 9.51671 18.582 9.71671 18.9111C9.82408 19.212 9.62618 19.2964 9.37145 19.3289C6.86408 19.4285 4.32934 19.3419 1.81355 19.3722C0.301974 19.2683 0.649343 17.991 0.998816 16.9388C2.00092 13.9209 4.72934 11.888 7.83039 11.7971V11.7992Z" fill="white"/>
</svg>
