<svg width="15" height="17" viewBox="0 0 15 17" fill="none" xmlns="http://www.w3.org/2000/svg">
<path d="M12.3915 5.65366H7.72863C7.52863 5.65366 7.52863 6.12616 7.72863 6.12616H12.2543C12.6943 6.12616 13.5629 5.61147 13.8658 5.28241C15.3829 3.64553 14.2715 1.09741 12.0486 0.925846C9.69721 0.743033 7.09721 1.06085 4.71721 0.937096C2.37435 1.17897 1.46292 4.09835 3.30863 5.54678C3.48006 5.67897 4.28292 6.22178 4.39435 5.88147C4.44863 5.52991 3.90292 5.44272 3.62292 5.23741C2.08292 4.09835 2.77721 1.56428 4.70578 1.39835C7.15721 1.19022 9.94292 1.53335 12.4258 1.4321C14.6972 1.86241 14.5772 5.31897 12.3886 5.65366H12.3915ZM6.31435 2.87772C6.47721 2.6246 6.01435 2.25335 5.81149 2.14085C4.57435 1.46303 3.15149 2.47553 3.39149 3.84803C3.44863 4.17428 3.92006 5.02085 4.31721 4.86616C4.71435 4.71147 4.02292 4.21928 3.93149 3.99147C3.51435 2.96491 4.56292 2.0171 5.56292 2.52053C5.73149 2.60491 6.14292 3.15053 6.31435 2.87772ZM11.7401 3.29116H8.89435C8.87149 3.29116 8.78578 3.36428 8.72863 3.3671C8.66006 3.47116 8.80863 3.76366 8.89435 3.76366H11.7401C11.6543 3.91272 11.3943 3.96335 11.3401 4.14897C11.2858 4.3346 11.3543 4.46116 11.5543 4.43022C11.7001 4.40772 12.6343 3.67085 12.6343 3.52741C12.6343 3.32772 11.1086 2.10991 11.3401 2.90585C11.3943 3.09147 11.6572 3.1421 11.7401 3.29116ZM7.21435 7.61116V4.13491C7.21435 3.95491 6.88863 3.57522 6.72863 3.46553C6.07435 3.00428 5.21435 3.21522 4.88863 3.94085C4.86006 4.00272 4.74292 4.30928 4.74292 4.33741V9.36616C3.62863 8.90772 1.94006 8.20741 0.934349 9.22835C0.511492 9.65866 0.365777 10.418 0.920063 10.8062C1.38863 11.1352 2.42863 11.2505 3.02863 11.5571C4.48863 12.2996 4.82578 13.7199 5.74006 14.828C5.83435 14.9433 6.03435 15.0137 6.08006 15.1008C6.20863 15.3568 5.99149 15.9502 6.20863 16.1218H11.8458C12.0458 15.9671 11.8801 15.4608 11.9572 15.219C12.0058 15.0558 12.3972 14.679 12.5115 14.2796C12.7515 13.4471 12.7201 9.90897 12.6315 8.92459C12.5343 7.86428 11.4829 7.4846 10.6743 8.14835C10.2515 7.53522 9.46006 7.44522 8.89149 7.9346C8.40863 7.35522 7.88863 7.27647 7.21149 7.60835L7.21435 7.61116Z" fill="white"/>
<path d="M7.21442 7.61136C7.89156 7.27949 8.41156 7.35824 8.89442 7.93761C9.46299 7.44824 10.2544 7.53542 10.6773 8.15136C11.4859 7.4848 12.5401 7.86449 12.6344 8.92761C12.723 9.91199 12.7573 13.4501 12.5144 14.2826C12.4001 14.682 12.0087 15.056 11.9601 15.222C11.8859 15.4667 12.0487 15.9701 11.8487 16.1248H6.21156C5.99156 15.9532 6.21156 15.3598 6.08299 15.1039C6.04014 15.0167 5.83728 14.9464 5.74299 14.831C4.82871 13.7229 4.49156 12.3026 3.03156 11.5601C2.43156 11.2535 1.39156 11.1382 0.922993 10.8092C0.368707 10.4182 0.514421 9.66167 0.937279 9.23136C1.94299 8.21042 3.63156 8.91074 4.74585 9.36917V4.34042C4.74585 4.3123 4.86299 4.00574 4.89156 3.94386C5.21728 3.21824 6.07442 3.00449 6.73156 3.46855C6.88871 3.58105 7.21728 3.95792 7.21728 4.13792V7.61417L7.21442 7.61136Z" fill="white"/>
<path d="M12.3915 5.65366C14.58 5.31616 14.7 1.86241 12.4286 1.4321C9.94576 1.53616 7.16004 1.19022 4.70862 1.39835C2.78004 1.56147 2.08576 4.09835 3.62576 5.23741C3.9029 5.44272 4.45147 5.52991 4.39719 5.88147C4.28576 6.21897 3.4829 5.67897 3.31147 5.54678C1.46576 4.09835 2.37719 1.17897 4.72004 0.937096C7.10004 1.06085 9.69719 0.743033 12.0515 0.925846C14.2743 1.09741 15.3829 3.64553 13.8686 5.28241C13.5658 5.60866 12.6943 6.12616 12.2572 6.12616H7.73147C7.53147 6.12616 7.53147 5.65366 7.73147 5.65366H12.3943H12.3915Z" fill="white"/>
<path d="M11.7402 3.2912C11.6545 3.14214 11.3945 3.09151 11.3402 2.90589C11.1087 2.10714 12.6345 3.32776 12.6345 3.52745C12.6345 3.67089 11.7002 4.40495 11.5545 4.43026C11.3545 4.4612 11.2887 4.32901 11.3402 4.14901C11.3916 3.96901 11.6573 3.91276 11.7402 3.7637H8.89445C8.80874 3.7637 8.66017 3.4712 8.72874 3.36714C8.78588 3.36714 8.86874 3.2912 8.89445 3.2912H11.7402Z" fill="white"/>
<path d="M6.31432 2.8776C6.14004 3.15041 5.72861 2.60479 5.56289 2.52041C4.56289 2.01697 3.51147 2.9676 3.93147 3.99135C4.02575 4.21916 4.72289 4.70572 4.31718 4.86604C3.91147 5.02635 3.44861 4.17135 3.39147 3.84791C3.15147 2.4726 4.57432 1.46291 5.81147 2.14072C6.01432 2.25322 6.47718 2.62166 6.31432 2.8776Z" fill="white"/>
</svg>
