<svg width="39" height="34" viewBox="0 0 39 34" fill="none" xmlns="http://www.w3.org/2000/svg">
<path d="M38.9961 10.0214C38.8164 10.746 38.722 11.5069 38.4348 12.184C38.1011 12.9931 37.6672 13.7566 37.1433 14.4566C35.1208 17.0803 33.0441 19.6617 30.9864 22.2592C30.9332 22.3268 30.8749 22.3914 30.7986 22.4792C30.7113 22.3782 30.6369 22.2975 30.5687 22.2107C28.4226 19.4861 26.1952 16.83 24.1476 14.0368C20.674 9.29383 23.2438 2.44485 29.1597 1.19656C33.5864 0.26412 37.8483 3.11391 38.8254 7.56721C38.8937 7.876 38.9429 8.18883 39.0001 8.49965L38.9961 10.0214ZM30.7846 18.599C30.8609 18.5143 30.897 18.479 30.9282 18.4396C32.4235 16.5475 33.9348 14.6685 35.409 12.7592C36.4223 11.4473 36.7547 9.9417 36.5016 8.30085C35.9995 5.04741 32.7056 2.80713 29.5403 3.57205C25.2824 4.60137 23.6033 9.50272 26.3268 12.963C27.331 14.2396 28.3433 15.5111 29.3515 16.7846L30.7846 18.599Z" fill="white"/>
<path d="M8.21004 22.344C7.19106 21.0599 6.20524 19.8242 5.22344 18.5795C4.00348 17.0344 2.73729 15.5276 1.57963 13.9422C-1.93757 9.14461 0.724445 2.27481 6.5439 1.05829C11.8378 -0.0503936 16.801 4.30471 16.3981 9.71003C16.2871 11.3563 15.6765 12.9291 14.6485 14.2173C12.5409 16.8842 10.4306 19.5484 8.31757 22.2099L8.21004 22.344ZM8.20301 18.4354C8.2459 18.3982 8.28682 18.3589 8.32561 18.3174C9.81489 16.4387 11.3132 14.5671 12.7884 12.6732C13.8255 11.3428 14.1782 9.82493 13.92 8.15687C13.4175 4.91347 10.1133 2.67797 6.94586 3.44598C2.68805 4.4821 1.01487 9.3744 3.7422 12.8325C5.14238 14.6057 6.54591 16.3759 7.95278 18.1431C8.02916 18.2368 8.11156 18.3285 8.20301 18.4354Z" fill="white"/>
<path d="M11.7558 29.3241C11.7755 31.3006 10.1728 32.9617 8.2268 32.98C6.28077 32.9982 4.68497 31.3583 4.66519 29.3566C4.64738 27.3761 6.24812 25.719 8.19415 25.7028C10.1402 25.6865 11.736 27.3204 11.7558 29.3241ZM8.20108 30.5404C8.43245 30.54 8.65854 30.4695 8.85097 30.3379C9.0434 30.2063 9.1936 30.0194 9.28271 29.8007C9.37181 29.5819 9.39586 29.3411 9.35183 29.1084C9.30779 28.8757 9.19764 28.6615 9.03521 28.4927C8.87277 28.3239 8.66528 28.208 8.43878 28.1596C8.21229 28.1112 7.97688 28.1324 7.76211 28.2206C7.54734 28.3088 7.36278 28.46 7.2316 28.6552C7.10042 28.8505 7.02846 29.0811 7.02475 29.3181C7.02265 29.6401 7.1453 29.9499 7.36582 30.1794C7.58634 30.4089 7.88672 30.5395 8.20108 30.5424V30.5404Z" fill="white"/>
<path d="M34.3328 29.532C34.2665 31.5648 32.6505 33.1802 30.7337 33.1133C28.7605 33.0474 27.1822 31.3753 27.2455 29.4185C27.3128 27.3856 28.9228 25.7834 30.8455 25.8392C32.8138 25.8949 34.3951 27.57 34.3328 29.532ZM30.798 30.6771C31.0294 30.6727 31.2544 30.5984 31.4447 30.4635C31.635 30.3287 31.7821 30.1393 31.8677 29.9191C31.9532 29.6988 31.9734 29.4577 31.9255 29.2258C31.8777 28.9939 31.764 28.7817 31.5988 28.6157C31.4336 28.4497 31.2242 28.3374 30.9969 28.2929C30.7696 28.2484 30.5345 28.2736 30.3212 28.3655C30.1078 28.4573 29.9257 28.6116 29.7977 28.809C29.6697 29.0065 29.6015 29.2382 29.6017 29.4752C29.6053 29.7969 29.7333 30.1039 29.9575 30.3292C30.1817 30.5544 30.4839 30.6795 30.798 30.6771Z" fill="white"/>
<path d="M13.5501 28.2261L16.7022 28.1957L16.7038 30.5991L13.5527 30.6298L13.5501 28.2261Z" fill="white"/>
<path d="M17.9139 28.1832L21.0596 28.196L21.087 30.455L17.9395 30.4458L17.9139 28.1832Z" fill="white"/>
<path d="M25.4517 28.1963L25.4509 30.5941L22.2945 30.6289L22.2955 28.2301L25.4517 28.1963Z" fill="white"/>
<path d="M33.5883 9.23836C33.5776 9.97784 33.2781 10.6838 32.7537 11.2053C32.2294 11.7269 31.5218 12.0226 30.7823 12.0294C29.259 12.0233 27.9813 10.7386 27.9903 9.22332C27.9993 7.70807 29.2821 6.4223 30.7963 6.43132C31.5361 6.44202 32.2423 6.74167 32.764 7.2662C33.2857 7.79074 33.5816 8.49856 33.5883 9.23836Z" fill="white"/>
<path d="M8.22764 11.894C6.71298 11.9091 5.42271 10.6376 5.41169 9.11268C5.40067 7.58774 6.6669 6.31328 8.19358 6.29625C9.72027 6.27922 10.9915 7.54967 11.0095 9.07861C11.0266 10.5915 9.75433 11.88 8.22764 11.894Z" fill="white"/>
</svg>
