<svg width="39" height="40" viewBox="0 0 39 40" fill="none" xmlns="http://www.w3.org/2000/svg">
<path d="M0 24.9138V24.6397C0.00746524 24.627 0.0211518 24.6156 0.0211518 24.6029C0.083688 23.9963 0.353721 23.4316 0.783851 23.0079C1.94511 21.7872 3.10844 20.5707 4.27385 19.3585L7.02853 16.4869L11.6196 11.7019C12.8746 10.3924 14.1296 9.08328 15.3846 7.77461C16.735 6.36697 18.0854 4.96101 19.4358 3.55675C20.0803 2.8855 20.716 2.2079 21.3655 1.54426C21.7388 1.16359 22.1295 0.782917 22.5301 0.433967C22.7988 0.195412 23.1435 0.0951682 23.4832 0H24.0207C24.0269 0.00761346 24.0319 0.0190331 24.0393 0.0203021C24.6166 0.12689 25.0733 0.451731 25.4776 0.861589C25.8302 1.21942 26.1777 1.58191 26.5203 1.94904C27.2593 2.73831 27.9922 3.53137 28.73 4.31937C28.7589 4.3449 28.7781 4.38007 28.784 4.41864C28.7899 4.45721 28.7823 4.49667 28.7623 4.53001C28.5558 5.03757 28.3356 5.54514 28.1614 6.06666C27.934 6.70943 27.8694 7.40032 27.9735 8.07534C28.1303 9.00545 28.6541 9.70335 29.3421 10.2934C29.9912 10.8856 30.8424 11.1942 31.7123 11.1524C32.3387 11.1143 32.9521 10.9536 33.5189 10.6791C33.9208 10.4952 34.3078 10.2794 34.7084 10.0739C34.7251 10.0863 34.7409 10.0998 34.7557 10.1145C35.3616 10.7147 35.975 11.3085 36.5722 11.9189C37.2404 12.6003 37.9035 13.2868 38.5493 13.9897C38.722 14.1812 38.8505 14.4098 38.9252 14.6586C38.9999 14.9074 39.019 15.1701 38.981 15.4274C38.9114 16.0163 38.6483 16.5638 38.2345 16.9806C37.7368 17.5173 37.2242 18.0439 36.7165 18.573C35.7295 19.6008 34.7432 20.6266 33.7578 21.6501C31.8194 23.6719 29.88 25.6903 27.9399 27.7054C27.0856 28.5978 26.2308 29.4903 25.3756 30.3828C23.6992 32.1296 22.0225 33.8765 20.3453 35.6234C19.5697 36.4312 18.7946 37.24 18.0198 38.0495C17.5981 38.4873 17.1887 38.9378 16.7408 39.3476C15.7989 40.2054 14.7501 40.2143 13.7783 39.392C13.5108 39.1662 13.267 38.9111 13.0169 38.6637C12.2181 37.8731 11.4256 37.075 10.6243 36.2857C10.1117 35.7782 10.0706 35.5726 10.3568 34.9064C10.8756 33.6997 10.9042 32.4841 10.2871 31.3142C9.56671 29.9463 8.42079 29.2357 6.88544 29.2839C6.38776 29.2991 5.89754 29.4501 5.40235 29.5263C5.11301 29.58 4.83793 29.695 4.59486 29.8638C4.45799 29.9526 4.31989 30.0389 4.18676 30.1239C4.17427 30.1166 4.16222 30.1086 4.15068 30.0998C2.95624 28.803 1.75682 27.51 0.571091 26.2043C0.400564 26.0003 0.260911 25.7715 0.15677 25.5254C0.0863181 25.3268 0.033842 25.1221 0 24.9138ZM16.9026 27.5023C16.9449 27.4478 16.976 27.4097 17.0033 27.3691C17.6118 26.4809 18.2227 25.5926 18.8261 24.6981C18.8561 24.645 18.9004 24.6018 18.9538 24.5737C19.0072 24.5456 19.0674 24.5337 19.1272 24.5394C20.1562 24.5521 21.1851 24.5572 22.2141 24.5636H22.4853C22.4293 24.4849 22.397 24.4367 22.3609 24.3884C21.7201 23.5218 21.0806 22.6551 20.4349 21.7923C20.4031 21.7555 20.3825 21.7102 20.3754 21.6618C20.3684 21.6134 20.3752 21.564 20.395 21.5194C20.7384 20.4781 21.0789 19.4355 21.4165 18.3916C21.4315 18.3472 21.4414 18.3002 21.4564 18.2393L21.3805 18.2621C20.3386 18.6284 19.2981 18.9964 18.2587 19.3661C18.2146 19.3872 18.1654 19.3945 18.1171 19.3873C18.0689 19.3801 18.0238 19.3586 17.9875 19.3255C17.1265 18.6724 16.263 18.0219 15.3971 17.3739C15.356 17.3435 15.3125 17.3155 15.2726 17.2876C15.2726 17.5681 15.2726 17.8307 15.2726 18.0947C15.2851 18.9715 15.295 19.8483 15.3174 20.7264C15.3224 20.7763 15.3133 20.8267 15.2913 20.8717C15.2693 20.9166 15.2352 20.9542 15.193 20.9802C14.3187 21.6155 13.4478 22.2529 12.5802 22.8924C12.5416 22.9203 12.5068 22.952 12.4558 22.9965L12.6299 23.0536C13.6601 23.3746 14.6904 23.688 15.7193 24.0179C15.7539 24.031 15.7855 24.0512 15.8123 24.0771C15.839 24.1031 15.8603 24.1343 15.8748 24.1689C16.0528 24.7158 16.2207 25.2678 16.3912 25.8185C16.5616 26.3692 16.7246 26.9301 16.9026 27.5023ZM29.1306 17.4703L27.6911 18.8979L30.8775 22.3734L32.3245 20.9776C31.252 19.8064 30.1957 18.6441 29.1306 17.4703ZM22.5898 13.9491L25.7775 17.4247L27.2232 16.0289L24.0331 12.5216L22.5898 13.9491ZM17.4886 9.04225L20.6389 12.5241L22.1544 11.1931L18.958 7.72766L17.4886 9.04225Z" fill="white"/>
</svg>
