<svg width="24" height="24" viewBox="0 0 24 24" fill="none" xmlns="http://www.w3.org/2000/svg">
<rect width="23.3354" height="23.3235" rx="11.6617" fill="white"/>
<path d="M5.66797 13.1358V13.0535C5.67027 13.0497 5.67448 13.0463 5.67448 13.0425C5.69372 12.8605 5.77681 12.6911 5.90915 12.564C6.26646 12.1978 6.62441 11.8328 6.983 11.4692L7.83059 10.6077L9.24325 9.17219C9.6294 8.77933 10.0155 8.3866 10.4017 7.994C10.8172 7.57171 11.2327 7.14993 11.6482 6.72865C11.8465 6.52727 12.0421 6.32399 12.242 6.1249C12.3568 6.0107 12.477 5.8965 12.6003 5.79181C12.683 5.72024 12.789 5.69017 12.8936 5.66162H13.0589C13.0609 5.66391 13.0624 5.66733 13.0647 5.66771C13.2423 5.69969 13.3828 5.79714 13.5072 5.9201C13.6157 6.02745 13.7226 6.13619 13.8281 6.24633C14.0555 6.48311 14.2809 6.72103 14.508 6.95743C14.5169 6.96509 14.5228 6.97564 14.5246 6.98721C14.5264 6.99878 14.524 7.01062 14.5179 7.02062C14.4544 7.17289 14.3866 7.32516 14.333 7.48162C14.2631 7.67445 14.2432 7.88172 14.2752 8.08422C14.3234 8.36326 14.4846 8.57263 14.6963 8.74964C14.896 8.92732 15.1579 9.01987 15.4256 9.00735C15.6184 8.99592 15.8071 8.94771 15.9815 8.86536C16.1051 8.81017 16.2242 8.74545 16.3475 8.68378C16.3526 8.6875 16.3575 8.69157 16.362 8.69596C16.5485 8.87602 16.7372 9.05418 16.921 9.23728C17.1265 9.4417 17.3306 9.64765 17.5293 9.85854C17.5824 9.91599 17.622 9.98456 17.6449 10.0592C17.6679 10.1338 17.6738 10.2126 17.6621 10.2898C17.6407 10.4665 17.5597 10.6307 17.4324 10.7558C17.2793 10.9168 17.1216 11.0748 16.9654 11.2335C16.6617 11.5419 16.3582 11.8496 16.055 12.1567C15.4585 12.7632 14.8618 13.3687 14.2649 13.9732C14.002 14.241 13.739 14.5087 13.4758 14.7765C12.96 15.3005 12.4441 15.8246 11.9281 16.3486C11.6894 16.591 11.4509 16.8336 11.2125 17.0765C11.0828 17.2078 10.9568 17.3429 10.819 17.4659C10.5292 17.7232 10.2065 17.7259 9.90746 17.4792C9.82515 17.4115 9.75012 17.335 9.67317 17.2607C9.42739 17.0236 9.18352 16.7841 8.93698 16.5473C8.77925 16.3951 8.76662 16.3334 8.85467 16.1336C9.01431 15.7715 9.02312 15.4068 8.83323 15.0559C8.61157 14.6455 8.25898 14.4323 7.78657 14.4468C7.63343 14.4514 7.4826 14.4967 7.33023 14.5195C7.2412 14.5356 7.15656 14.5701 7.08177 14.6208C7.03966 14.6474 6.99716 14.6733 6.9562 14.6988C6.95236 14.6966 6.94865 14.6942 6.9451 14.6916C6.57758 14.3025 6.20853 13.9146 5.84369 13.5229C5.79122 13.4617 5.74825 13.3931 5.71621 13.3192C5.69453 13.2597 5.67838 13.1982 5.66797 13.1358ZM10.8688 13.9123C10.8818 13.896 10.8913 13.8845 10.8998 13.8724C11.087 13.6059 11.2749 13.3394 11.4606 13.071C11.4698 13.0551 11.4835 13.0422 11.4999 13.0337C11.5163 13.0253 11.5349 13.0217 11.5533 13.0235C11.8699 13.0273 12.1865 13.0288 12.5031 13.0307H12.5865C12.5693 13.0071 12.5593 12.9926 12.5482 12.9782C12.3511 12.7182 12.1543 12.4582 11.9556 12.1993C11.9459 12.1883 11.9395 12.1747 11.9373 12.1602C11.9352 12.1457 11.9373 12.1308 11.9434 12.1175C12.049 11.805 12.1538 11.4923 12.2577 11.1791C12.2623 11.1658 12.2653 11.1517 12.2699 11.1334L12.2466 11.1403C11.926 11.2502 11.6058 11.3605 11.286 11.4715C11.2725 11.4778 11.2573 11.48 11.2425 11.4778C11.2276 11.4757 11.2138 11.4692 11.2026 11.4593C10.9377 11.2633 10.672 11.0682 10.4055 10.8738C10.3929 10.8647 10.3795 10.8563 10.3672 10.8479C10.3672 10.932 10.3672 11.0108 10.3672 11.09C10.3711 11.3531 10.3741 11.6161 10.381 11.8795C10.3825 11.8945 10.3798 11.9096 10.373 11.9231C10.3662 11.9366 10.3557 11.9479 10.3427 11.9557C10.0737 12.1463 9.80575 12.3375 9.53879 12.5293C9.52692 12.5377 9.51621 12.5472 9.50051 12.5606L9.55411 12.5777C9.87109 12.674 10.1881 12.768 10.5047 12.867C10.5153 12.8709 10.5251 12.877 10.5333 12.8848C10.5415 12.8925 10.5481 12.9019 10.5525 12.9123C10.6073 13.0764 10.659 13.242 10.7114 13.4072C10.7639 13.5724 10.814 13.7406 10.8688 13.9123ZM14.6312 10.9027L14.1883 11.331L15.1687 12.3736L15.614 11.9549C15.284 11.6035 14.9589 11.2548 14.6312 10.9027ZM12.6187 9.84636L13.5995 10.889L14.0444 10.4703L13.0628 9.4181L12.6187 9.84636ZM11.0491 8.3743L12.0184 9.41886L12.4847 9.01954L11.5012 7.97992L11.0491 8.3743Z" fill="#005DCA"/>
</svg>
