<svg width="30" height="30" viewBox="0 0 30 30" fill="none" xmlns="http://www.w3.org/2000/svg">
<path d="M15 30C23.2843 30 30 23.2843 30 15C30 6.71573 23.2843 0 15 0C6.71573 0 0 6.71573 0 15C0 23.2843 6.71573 30 15 30Z" fill="url(#paint0_linear_1350_2743)"/>
<path d="M6.47656 16.3811V16.2588C6.47997 16.2531 6.48622 16.248 6.48622 16.2424C6.51478 15.9717 6.63808 15.7196 6.83449 15.5305C7.36475 14.9857 7.89595 14.4428 8.4281 13.9017L9.68595 12.6201L11.7824 10.4845C12.3554 9.9 12.9285 9.31573 13.5015 8.73165C14.1182 8.1034 14.7348 7.4759 15.3514 6.84915C15.6457 6.54956 15.936 6.24714 16.2326 5.95095C16.403 5.78105 16.5814 5.61115 16.7643 5.45541C16.8871 5.34893 17.0444 5.30419 17.1995 5.26172H17.445C17.4478 5.26512 17.4501 5.27021 17.4535 5.27078C17.7171 5.31835 17.9256 5.46333 18.1102 5.64626C18.2712 5.80597 18.4299 5.96775 18.5863 6.13161C18.9238 6.48387 19.2584 6.83783 19.5953 7.18952C19.6086 7.20091 19.6173 7.21661 19.62 7.23383C19.6227 7.25104 19.6192 7.26865 19.6101 7.28353C19.5158 7.51007 19.4153 7.7366 19.3357 7.96936C19.2319 8.25624 19.2024 8.5646 19.2499 8.86587C19.3215 9.28099 19.5607 9.59248 19.8749 9.85582C20.1712 10.1202 20.5599 10.2578 20.9572 10.2392C21.2432 10.2222 21.5233 10.1505 21.7821 10.028C21.9656 9.94587 22.1423 9.84959 22.3252 9.75785C22.3328 9.76338 22.3401 9.76944 22.3468 9.77597C22.6235 10.0438 22.9036 10.3089 23.1763 10.5813C23.4814 10.8854 23.7842 11.1918 24.0791 11.5056C24.1579 11.591 24.2166 11.693 24.2507 11.8041C24.2848 11.9151 24.2935 12.0324 24.2762 12.1472C24.2444 12.41 24.1243 12.6544 23.9353 12.8404C23.7081 13.08 23.474 13.315 23.2422 13.5512C22.7915 14.0099 22.3411 14.4677 21.8912 14.9245C21.006 15.8269 20.1205 16.7277 19.2346 17.6271C18.8445 18.0254 18.4542 18.4237 18.0637 18.822C17.2982 19.6017 16.5325 20.3813 15.7667 21.161C15.4126 21.5216 15.0586 21.8825 14.7049 22.2438C14.5123 22.4392 14.3253 22.6403 14.1208 22.8232C13.6907 23.206 13.2118 23.21 12.7681 22.843C12.6459 22.7422 12.5346 22.6284 12.4204 22.5179C12.0556 22.1651 11.6937 21.8089 11.3279 21.4566C11.0938 21.2301 11.075 21.1383 11.2057 20.841C11.4426 20.3024 11.4557 19.7599 11.1739 19.2377C10.8449 18.6272 10.3217 18.3101 9.62062 18.3316C9.39336 18.3384 9.16952 18.4058 8.9434 18.4398C8.81128 18.4637 8.68568 18.515 8.57468 18.5904C8.51219 18.63 8.44912 18.6686 8.38833 18.7065C8.38263 18.7032 8.37713 18.6996 8.37186 18.6957C7.82645 18.1169 7.27877 17.5398 6.73734 16.9571C6.65947 16.8661 6.5957 16.7639 6.54815 16.6541C6.51598 16.5655 6.49202 16.4741 6.47656 16.3811ZM14.1947 17.5365C14.214 17.5121 14.2282 17.4951 14.2407 17.477C14.5185 17.0806 14.7975 16.6841 15.073 16.2849C15.0867 16.2612 15.1069 16.2419 15.1313 16.2293C15.1557 16.2168 15.1832 16.2115 15.2105 16.2141C15.6803 16.2197 16.1502 16.222 16.62 16.2248H16.7439C16.7183 16.1897 16.7035 16.1682 16.6871 16.1467C16.3945 15.7599 16.1025 15.3731 15.8076 14.9879C15.7931 14.9716 15.7837 14.9513 15.7805 14.9297C15.7772 14.9081 15.7803 14.8861 15.7894 14.8662C15.9462 14.4014 16.1017 13.9361 16.2559 13.4702C16.2627 13.4503 16.2672 13.4294 16.274 13.4022L16.2394 13.4124C15.7637 13.5759 15.2885 13.7401 14.8139 13.9051C14.7938 13.9145 14.7713 13.9178 14.7493 13.9146C14.7273 13.9114 14.7067 13.9018 14.6901 13.887C14.2969 13.5955 13.9026 13.3052 13.5072 13.016C13.4885 13.0024 13.4686 12.9899 13.4504 12.9775C13.4504 13.1026 13.4504 13.2199 13.4504 13.3376C13.4561 13.729 13.4606 14.1203 13.4709 14.5122C13.4731 14.5345 13.469 14.557 13.4589 14.5771C13.4489 14.5971 13.4333 14.6139 13.414 14.6255C13.0148 14.909 12.6171 15.1935 12.221 15.479C12.2034 15.4914 12.1874 15.5056 12.1642 15.5254L12.2437 15.5509C12.7141 15.6942 13.1845 15.8341 13.6544 15.9813C13.6702 15.9872 13.6846 15.9961 13.6968 16.0077C13.709 16.0193 13.7187 16.0332 13.7254 16.0487C13.8066 16.2928 13.8833 16.5391 13.9612 16.7849C14.039 17.0307 14.1134 17.281 14.1947 17.5365ZM19.7783 13.059L19.121 13.6961L20.5759 15.2473L21.2367 14.6244C20.747 14.1016 20.2646 13.5829 19.7783 13.059ZM16.7916 11.4874L18.2472 13.0386L18.9073 12.4157L17.4506 10.8503L16.7916 11.4874ZM14.4623 9.29742L15.9008 10.8514L16.5928 10.2574L15.1332 8.7107L14.4623 9.29742Z" fill="white"/>
<defs>
<linearGradient id="paint0_linear_1350_2743" x1="0" y1="15" x2="30" y2="15" gradientUnits="userSpaceOnUse">
<stop stop-color="#005DCA"/>
<stop offset="0.884615" stop-color="#003B8A"/>
<stop offset="0.980769" stop-color="#003B8A"/>
</linearGradient>
</defs>
</svg>
