<svg width="64" height="70" viewBox="0 0 64 70" fill="none" xmlns="http://www.w3.org/2000/svg">
<path d="M43.0656 0C45.2146 0.404181 47.0064 1.75386 48.605 3.17751C52.4069 6.56794 57.3671 11.5498 60.7611 15.3553C61.8221 16.5443 63.4497 18.6031 63.8051 20.1549C63.9026 20.5789 63.7492 21.0499 64 21.3819V58.7325C63.7943 59.429 63.8358 60.1923 63.6933 60.9285C62.9787 64.6058 59.8048 67.8825 56.2285 68.8749C55.5862 69.0536 54.9041 69.068 54.278 69.2881H20.3828C16.839 68.7125 13.7517 66.8504 12.0754 63.608C10.0346 59.6618 11.0343 54.9 10.7961 50.6128H2.22168C2.14951 50.6128 1.61722 50.3386 1.4873 50.2664C0.523762 49.7323 0.202583 48.9059 0.12319 47.8449C-0.264752 42.6627 0.41189 36.9843 0.144842 31.7498C0.0852977 30.8477 1.37904 29.3663 2.22349 29.3663H10.9332V9.40623C10.9332 4.81408 16.1786 0.424029 20.5217 0.00180408H43.0746L43.0656 0ZM15.9205 50.6128V58.664C15.9205 61.5203 18.5621 64.0212 21.3914 64.0085L53.1304 64.0157C55.8442 63.9508 58.1033 62.1735 58.5941 59.4777L58.5995 23.4732C58.5995 22.9282 58.2657 22.3869 57.8489 22.0603C55.902 20.532 47.858 21.5551 45.0197 21.2484C43.5257 21.086 42.7859 19.8698 42.6596 18.4714C42.4034 15.6331 43.2875 8.37773 42.1219 6.29006C41.8494 5.80108 41.4759 5.4799 40.9382 5.31029L21.2471 5.27239C18.443 5.31209 15.9187 7.7877 15.9187 10.6242V29.1642L16.1208 29.3663H45.9652C46.6419 29.3663 47.9302 30.7358 47.9122 31.4756C47.5567 36.8598 48.4264 42.9478 47.9302 48.2491C47.8562 49.0376 47.4214 49.7503 46.7556 50.1852C46.6383 50.2628 45.8913 50.6128 45.8317 50.6128H15.9205ZM16.1244 31.8022H8.02096C7.48686 31.8022 7.67993 34.4492 7.7503 34.9147C7.78639 34.9761 8.11659 35.1854 8.15448 35.1854H10.3829V47.7042C10.3829 48.1697 12.5933 48.0849 13.0227 48.0488C13.3132 48.0235 13.8942 47.9658 13.8942 47.5688V35.1872H16.1226C16.7379 35.1872 16.7235 32.4247 16.4239 31.9754C16.3319 31.9303 16.2074 31.8166 16.1244 31.8022ZM24.0258 35.8602C23.6757 35.1529 23.1417 32.4175 22.6707 32.0079C22.3531 31.7318 19.9172 31.6975 19.5672 31.8689C19.1901 32.053 19.2586 32.6502 19.3903 32.9949L21.9598 39.8317L19.228 46.9553C19.0998 47.2765 19.0926 47.807 19.4318 47.973C19.7332 48.121 22.0608 48.0975 22.3459 47.9135C22.9161 47.5454 23.5386 44.321 23.9572 43.5721C24.1828 43.5757 25.0308 47.3613 25.5126 47.8341C25.8446 48.1589 28.7442 48.1968 28.9337 47.733L28.9951 47.327L26.0395 39.718L28.6847 32.883C28.8128 32.5618 28.82 32.0313 28.4808 31.8653C28.1795 31.7174 25.8518 31.7408 25.5667 31.9249C25.1156 32.2172 24.5202 34.8678 24.2243 35.5878C24.1701 35.7177 24.2098 35.8981 24.0258 35.8566V35.8602ZM40.027 31.8022H31.9236C31.3895 31.8022 31.5825 34.4492 31.6529 34.9147C31.689 34.9761 32.0192 35.1854 32.0571 35.1854H34.2855V47.7042C34.2855 48.1697 36.4959 48.0849 36.9253 48.0488C37.2158 48.0235 37.7968 47.9658 37.7968 47.5688V35.1872H40.0252C40.747 35.1872 40.5629 32.4824 40.3266 31.9754C40.2345 31.9303 40.11 31.8166 40.027 31.8022Z" fill="#71277A"/>
</svg>
