<svg width="44" height="44" viewBox="0 0 44 44" fill="none" xmlns="http://www.w3.org/2000/svg">
<circle cx="22" cy="22" r="22" fill="white"/>
<path d="M6.23169 14.618C6.3093 14.7023 6.40686 14.6889 6.3736 14.7732C6.34034 14.8575 6.34034 14.9351 6.3736 14.9861C6.40686 15.0371 6.50221 15.077 6.50221 15.1014C6.50221 15.1258 6.4113 15.1524 6.45786 15.2367C6.50221 15.321 6.65743 15.443 6.65743 15.443L6.56651 15.5472L6.4246 15.6181C6.4246 15.6181 6.36695 15.6625 6.41795 15.7534C6.46895 15.8444 6.56651 15.9087 6.56651 15.9087C6.56651 15.9087 6.77273 15.9286 6.85034 16.1282C6.92795 16.3278 6.89469 16.3345 7.01886 16.3411C7.14303 16.3478 7.27164 16.2835 7.19403 16.3988C7.11642 16.5141 7.21399 16.5873 7.06542 16.574C6.91686 16.5607 6.91021 16.4254 6.8326 16.5097C6.75499 16.5939 6.76164 16.7226 6.76164 16.7226C6.76164 16.7226 6.8193 16.8002 6.92351 16.8911C7.02773 16.982 7.07873 17.033 7.09869 17.1106C7.11864 17.1883 7.15634 17.2725 7.14969 17.3169C7.14303 17.3612 7.11643 17.4522 7.26056 17.4588C7.40247 17.4655 7.36477 17.3945 7.57764 17.4455C7.79051 17.4965 7.85481 17.5032 7.92577 17.5675C7.99673 17.6318 8.08099 17.736 8.16525 17.7294C8.24951 17.7227 8.27612 17.7094 8.29386 17.6185C8.31381 17.5276 8.20294 17.4366 8.31381 17.4189C8.42468 17.3989 8.47568 17.328 8.51338 17.4256C8.55107 17.5231 8.52003 17.6961 8.52003 17.6961C8.52003 17.6961 8.48677 17.8181 8.48677 17.8713C8.48677 17.9245 8.53777 17.7804 8.73955 17.8713C8.93911 17.9622 8.6952 18.0465 8.88811 18.0709C9.08103 18.0975 9.11429 18.0066 9.17859 18.0132C9.2429 18.0199 9.32051 17.9689 9.33381 18.1175C9.34712 18.2661 9.37816 18.3237 9.37816 18.4146C9.37816 18.5056 9.10764 18.4923 9.46242 18.6608C9.8172 18.8293 9.86376 18.887 9.91476 18.836C9.96576 18.785 9.98572 18.6164 9.98572 18.6164C9.98572 18.6164 10.05 18.5122 10.1853 18.6031C10.3205 18.6941 10.3472 18.7007 10.3738 18.7384C10.4004 18.7761 10.4381 18.8715 10.6332 18.8537C10.8261 18.836 10.9503 18.9269 11.0212 19.1199C11.0922 19.3128 10.9104 19.2751 11.0722 19.4303C11.2341 19.5856 11.2984 19.5213 11.3184 19.6432C11.3383 19.7652 11.3827 19.9204 11.3827 19.9204C11.3827 19.9204 11.4204 20.0247 11.4802 20.069C11.5379 20.1134 11.6621 20.2043 11.6621 20.2043C11.6621 20.2043 11.733 20.1976 11.7463 20.3462C11.7596 20.4948 11.7973 20.6234 11.804 20.6878C11.8106 20.7521 11.8616 20.7853 11.784 20.8807C11.7064 20.9761 11.6865 20.9006 11.6155 21.0226C11.5445 21.1446 11.5445 21.2422 11.5046 21.3398C11.4669 21.4373 11.2851 21.4662 11.4536 21.617C11.6222 21.7678 11.6798 21.6569 11.8727 21.8764C12.0656 22.096 12.0656 22.1603 12.2541 22.1159C12.4426 22.0716 12.4359 22.0782 12.5579 22.1093C12.6798 22.1425 12.804 22.2002 12.8949 22.1226C12.9858 22.045 12.9326 22.025 13.0568 22.0073C13.1788 21.9873 13.2386 22.0982 13.2453 21.9629C13.2519 21.8276 13.2719 21.7633 13.3428 21.8077C13.4138 21.852 13.5491 21.8409 13.5557 21.9297C13.5624 22.0206 13.4581 22.0782 13.5291 22.1625C13.6001 22.2468 13.6976 22.2468 13.7043 22.3444C13.7109 22.4419 13.7176 22.5772 13.7176 22.5772C13.7176 22.5772 14.1123 22.3954 14.0657 22.7325C14.0214 23.0695 14.0324 22.9587 13.9615 23.1338C13.8905 23.309 13.8129 23.2115 13.9171 23.36C14.0214 23.5086 14.1234 23.6306 14.1234 23.6306C14.1234 23.6306 14.2852 23.7592 14.2719 23.8435C14.2586 23.9278 14.1943 24.032 14.1943 24.032C14.1943 24.032 13.9171 23.9943 13.9105 24.0653C13.9038 24.1362 13.9304 24.2272 13.9304 24.2272C13.9304 24.2272 13.9504 24.338 13.8794 24.409C13.8085 24.48 13.6865 24.4534 13.64 24.4667C13.5934 24.48 13.589 24.48 13.589 24.5243C13.589 24.5687 13.569 24.6663 13.7575 24.8659C13.946 25.0654 13.8551 24.9812 13.9327 25.1364C14.0103 25.2916 14.0613 25.3249 14.1322 25.356C14.2032 25.3892 14.1322 25.5312 14.3074 25.3892C14.4826 25.2473 14.6045 25.2983 14.7154 25.3382C14.8263 25.3781 14.813 25.3316 14.8706 25.3648C14.9283 25.3981 15.0391 25.5533 15.0391 25.5533C15.0391 25.5533 14.9416 25.7285 15.0014 25.7862C15.0591 25.8438 15.17 25.8438 15.17 25.9082C15.17 25.9725 15.048 26.0634 15.1899 26.0767C15.3318 26.09 15.4604 25.9858 15.578 25.9348C15.6933 25.8838 15.8485 25.7795 15.8485 25.7795C15.8485 25.7795 15.8041 25.5201 15.9527 25.6576C16.1013 25.7951 16.1922 25.7485 16.1922 25.7485C16.1922 25.7485 16.2831 25.5999 16.3141 25.5932C16.3474 25.5866 16.4627 25.5933 16.4694 25.6443C16.476 25.6953 16.496 25.7995 16.496 25.7995C16.496 25.7995 16.3851 25.9481 16.5226 25.9215C16.66 25.8949 16.7221 25.8638 16.7288 25.7995C16.7354 25.7352 16.7487 25.7995 16.762 25.6376C16.7754 25.4757 16.7953 25.4447 16.7953 25.4447L16.9239 25.387C16.9239 25.387 17.1168 25.5289 17.2853 25.6465C17.4539 25.7618 17.5182 25.7684 17.7 25.6842C17.8818 25.5999 18.0104 25.5932 18.0104 25.5932C18.0104 25.5932 18.1523 25.6132 18.2166 25.6775C18.281 25.7418 18.0171 25.6443 18.3453 25.8261C18.6756 26.008 18.7 26.019 18.8176 25.9614C18.9329 25.9037 19.1147 25.8771 19.1147 25.8771C19.1147 25.8771 19.2899 25.8838 19.3675 25.8328C19.4451 25.7817 19.4783 25.6842 19.4783 25.6842C19.4783 25.6842 19.4717 25.5622 19.5626 25.6709C19.6535 25.7818 19.485 25.9104 19.6668 25.8527C19.8486 25.7951 19.893 25.886 19.8863 25.6842C19.8797 25.4846 20.0682 25.2451 20.2345 25.1675C20.4008 25.0898 20.3631 25.1164 20.4739 25.1608C20.5848 25.2052 20.6425 25.336 20.7711 25.2761C20.8997 25.2185 20.9839 25.2562 21.0172 25.0699C21.0505 24.8814 21.0948 24.8636 21.2234 24.8503C21.352 24.837 21.4762 25.0056 21.5006 24.735C21.5272 24.4645 21.4673 24.4378 21.5449 24.3203C21.6226 24.205 21.6026 24.2493 21.7645 24.1451C21.9263 24.0409 21.9263 24.0941 22.035 23.9633C22.1459 23.8346 22.1769 23.7947 22.2102 23.7947C22.2434 23.7947 22.1658 23.8524 22.2301 23.9766C22.2944 24.0985 22.1082 24.1584 22.2368 24.2737C22.3654 24.389 22.3077 24.4556 22.4297 24.3957C22.5516 24.3358 22.474 24.2538 22.6226 24.2205C22.7712 24.1872 22.7379 24.1052 22.8111 24.1828C22.882 24.2604 22.8754 24.1961 22.9219 24.3048C22.9663 24.4157 23.0062 24.4467 23.1149 24.4401C23.2257 24.4334 23.3277 24.3891 23.4452 24.511C23.5605 24.633 23.5095 24.704 23.5495 24.9368C23.5872 25.1697 23.6337 25.214 23.7113 25.183C23.7889 25.1497 23.8732 25.0344 23.8333 24.9124C23.7956 24.7904 23.7113 24.6995 23.871 24.6796C24.0328 24.6596 24.0705 24.7239 24.1238 24.8415C24.1748 24.9568 24.2391 25.081 24.228 25.1785C24.2169 25.2761 24.0861 25.3338 24.2213 25.4181C24.3566 25.5023 24.3632 25.6176 24.4985 25.5156C24.6338 25.4114 24.6803 25.367 24.7579 25.2761C24.8355 25.1852 24.7712 25.1076 24.9198 25.1475C25.0684 25.1852 25.1016 25.1852 25.1659 25.2118C25.2302 25.2384 25.1327 25.2495 25.3655 25.2894C25.5983 25.3271 25.7203 25.3537 25.7602 25.1918C25.8001 25.03 25.7336 25.0167 25.8378 24.8437C25.942 24.6685 26.0063 24.5975 26.1682 24.6618C26.3301 24.7261 26.2724 24.7771 26.401 24.8038C26.5296 24.8304 26.5762 24.7838 26.5828 24.7328C26.5895 24.6818 26.5629 24.6286 26.5451 24.5199C26.5252 24.409 26.3966 24.3136 26.5518 24.2604C26.707 24.2094 26.8112 24.2094 26.8556 24.3114C26.8999 24.4157 26.8112 24.531 26.9332 24.5443C27.0551 24.5576 27.166 24.4534 27.166 24.4534C27.166 24.4534 27.1594 24.2981 27.3212 24.4157C27.4831 24.531 27.5141 24.531 27.5341 24.6086C27.5541 24.6862 27.5208 24.7195 27.6051 24.7638C27.6893 24.8082 27.8246 24.8148 27.8822 24.8348C27.9399 24.8548 27.8689 24.7638 27.9931 24.8681C28.1173 24.9723 27.9731 24.8947 28.1927 25.0233C28.4122 25.1519 28.3545 25.1009 28.5341 25.1852C28.716 25.2695 28.5607 25.3537 28.625 25.4181C28.6894 25.4824 28.7093 25.4247 28.7803 25.7086C28.8512 25.9924 28.9488 26.0634 29.0197 26.0324C29.0907 25.9991 29.124 25.9747 29.135 25.9215C29.1484 25.8705 29.1217 25.7795 29.1217 25.6509C29.1217 25.5223 29.0951 25.4957 29.1927 25.4957C29.2903 25.4957 29.3745 25.5223 29.3856 25.6176C29.3967 25.713 29.3213 25.8305 29.4632 25.8505C29.6051 25.8705 29.645 25.7995 29.7227 25.8239C29.8003 25.8505 29.8579 25.8749 29.8579 25.9592C29.8579 26.0434 29.8069 26.0567 29.8956 26.1211C29.9865 26.1854 30.0774 26.09 30.1484 26.0767C30.2193 26.0634 30.206 25.9991 30.348 25.9924C30.4899 25.9858 30.5941 25.9082 30.6251 25.9991C30.6584 26.09 30.5985 26.1987 30.5985 26.1987C30.5985 26.1987 30.3723 26.243 30.3324 26.2962C30.2947 26.3473 30.1972 26.4071 30.2748 26.4892C30.3524 26.5735 30.5342 26.6045 30.5342 26.6045C30.5342 26.6045 30.6384 26.4892 30.7027 26.416C30.767 26.345 30.736 26.3007 30.818 26.3007C30.9001 26.3007 31.0065 26.2231 31.0065 26.2874C31.0065 26.3517 31.0265 26.4936 31.0509 26.6422C31.0753 26.7908 31.2327 26.8351 31.2327 26.8351C31.2327 26.8351 31.4256 26.8418 31.4788 26.9194C31.5298 26.997 31.3436 27.1013 31.5498 27.1789C31.756 27.2565 31.7826 27.2166 31.8159 27.1212C31.8491 27.0236 31.7715 26.9527 31.9378 26.9527C32.1041 26.9527 32.093 27.1146 32.093 27.3984C32.093 27.6823 31.8225 27.9795 31.654 28.2522C31.4855 28.5228 28.2459 33.639 28.2459 33.639C28.2459 33.639 28.2547 33.6744 28.4787 33.7521C28.7027 33.8297 28.5474 34.0448 28.7381 34.0182C28.9288 33.9916 28.8756 33.8896 29.0663 33.9051C29.257 33.9206 29.2991 33.9517 29.3324 34.0182C29.3679 34.0847 29.3413 34.2067 29.5054 34.1978C29.6694 34.189 29.7027 34.2666 29.7803 34.1623C29.8579 34.0581 29.9777 33.9029 29.9777 33.9029C29.9777 33.9029 30.0043 33.7743 30.1329 33.721C30.2615 33.67 30.3923 33.6434 30.5032 33.6257C30.6163 33.6079 30.6163 33.5569 30.8225 33.6611C31.0287 33.7654 31.0642 33.7033 31.1507 33.8763C31.2371 34.0492 31.348 34.0892 31.3569 34.2156C31.3657 34.342 31.4522 34.4706 31.5897 34.6014C31.7272 34.7301 31.8314 34.8432 31.8314 34.9452C31.8314 35.0472 31.8669 35.1514 31.9179 35.1958C31.9689 35.2379 32.0221 35.2379 32.1684 35.3688C32.3148 35.4974 32.47 35.5839 32.521 35.697C32.572 35.8101 32.6252 35.9121 32.6341 35.9476C32.643 35.9831 32.5986 36.0518 32.6939 36.0429C32.7893 36.0341 33.0133 34.801 33.0133 34.801L35.8049 19.5368C35.8049 19.5368 36.0511 19.2596 36.0644 19.1487C36.0777 19.0378 36.0644 19.1864 35.9535 18.8781C35.8426 18.5677 35.734 18.7429 35.8049 18.4058C35.8759 18.0687 35.9402 17.9334 35.9402 17.9334L35.9912 17.6806L35.887 17.4987C35.887 17.4987 35.867 17.4655 35.8604 17.3568" fill="#7A1F7E"/>
<path d="M6.2959 14.6667L7.4689 14.3274L9.61532 13.7065C9.61532 13.7065 9.91689 13.6799 10.0034 13.7065C10.0898 13.7331 10.2539 13.62 10.3404 13.62C10.4269 13.62 10.6775 13.6621 10.7018 13.6976C10.7285 13.7331 10.744 13.8529 10.8061 13.895C10.8659 13.9371 10.9258 13.9127 11.03 13.9549C11.1342 13.997 11.1254 14.3075 11.1254 14.3075L12.5911 14.3762L13.1343 14.72L13.2807 14.9262H14.1077L14.314 14.4605L14.7441 14.425L15.0102 14.8309L15.3029 14.9262L15.6466 14.7621L15.8972 14.6246L16.3118 14.6667L16.9571 15.3121L17.2409 15.3542L17.3695 15.25L17.7997 14.6468L18.0059 14.6379L18.4272 15.0083L18.8241 14.9905L19.1168 14.6712L19.5559 13.498L20.0304 13.2319L20.2122 12.8948L20.4362 12.6442H21.0393L21.3675 12.764L21.7976 12.6442L22.0571 12.2561V11.9035L22.3852 11.7217L22.5227 11.7572L22.9972 11.1273L23.1613 11.0142C23.1613 11.0142 23.729 11.0054 23.7556 11.0142C23.7822 11.0231 24.4008 10.8169 24.4008 10.8169L24.5294 10.5751C24.5294 10.5751 24.7889 10.7392 24.8488 10.7392C24.9086 10.7392 25.1681 10.6261 25.1924 10.6261C25.2168 10.6261 25.5295 10.7126 25.5295 10.7126L25.6071 10.9544C25.6071 10.9544 25.8311 11.0586 25.8577 11.0741C25.8843 11.0919 26.0727 11.2804 26.0905 11.3247C26.1082 11.3668 26.3144 11.1362 26.3411 11.1362C26.3677 11.1362 26.738 11.3003 26.7468 11.3247C26.7557 11.3513 26.9619 11.5997 26.9619 11.6441C26.9619 11.6884 27.004 11.7993 26.9619 11.8414C26.9198 11.8836 26.7734 11.9368 26.7734 11.9612C26.7734 11.9856 26.8089 12.1586 26.8089 12.1586C26.8089 12.1586 26.9907 12.2362 27.024 12.2872C27.0595 12.3382 27.1704 12.5888 27.1704 12.6154V12.9591C27.1704 12.9591 27.3344 13.1565 27.3854 13.2253C27.4364 13.294 27.6693 13.1565 27.6693 13.1565L27.7469 12.9591H28.075L28.2901 13.0789L28.4276 13.2519L28.5141 13.0789C28.5141 13.0789 28.6604 13.019 28.7203 13.0523C28.7802 13.0878 28.8933 13.294 28.9021 13.3184C28.911 13.3428 29.0485 13.396 29.0485 13.396C29.0485 13.396 29.1948 13.2829 29.2813 13.3007C29.3678 13.3184 29.6605 13.5335 29.6605 13.5335C29.6605 13.5335 29.7115 13.9393 29.798 13.9549C29.8844 13.9726 30.0818 14.0236 30.1084 14.0059C30.135 13.9881 30.2636 13.9283 30.3235 13.9704C30.3833 14.0125 30.4011 13.9105 30.4277 13.8928C30.4543 13.875 30.5652 13.7375 30.6694 13.7375C30.7736 13.7375 31.084 13.773 31.084 13.773C31.084 13.773 31.3856 13.8152 31.3501 13.8772C31.3146 13.9371 31.4366 13.9726 31.2636 14.0059C31.0907 14.0414 30.9443 14.048 30.8845 14.1101C30.8246 14.1722 30.8335 14.2653 30.7891 14.3252C30.747 14.3851 30.6605 14.4627 30.6605 14.4627C30.6605 14.4627 30.7891 14.5137 30.8579 14.5669C30.9266 14.618 30.9776 14.6446 30.971 14.8087C30.9621 14.9728 30.9532 15.1879 30.9532 15.1879C30.9532 15.1879 30.8933 15.2655 30.8756 15.3431C30.8579 15.4208 30.9709 15.4562 30.9111 15.5671C30.8512 15.6802 30.747 15.7734 30.7226 15.8421C30.696 15.9109 30.8867 16.1615 30.9466 16.1947C31.0064 16.2302 31.1528 16.2635 31.0929 16.4098C31.033 16.5562 30.9976 16.6072 30.9976 16.6072C30.9976 16.6072 30.7049 16.6848 30.696 16.727C30.6871 16.7691 30.7381 16.9088 30.7647 16.9776C30.7913 17.0463 30.9466 17.1239 30.9466 17.1239C30.9466 17.1239 31.0064 16.9421 31.1018 16.9421C31.1971 16.9421 31.3612 17.0707 31.3612 17.0707C31.3612 17.0707 31.3346 17.1572 31.2925 17.2947C31.2503 17.4322 31.3368 17.5009 31.3612 17.5364C31.3856 17.5719 31.6362 17.7249 31.6362 17.7249C31.6362 17.7249 31.8779 17.4654 31.9289 17.4144C31.9799 17.3634 31.9289 17.2592 31.9289 17.2503C31.9289 17.2415 31.6184 17.2148 31.6362 17.1217C31.6539 17.0263 31.6096 16.9753 31.6628 16.88C31.7138 16.7846 31.8779 16.656 31.9045 16.656C31.9311 16.656 32.042 16.8024 32.1018 16.829C32.1617 16.8556 32.3524 16.8378 32.3945 16.8024C32.4366 16.7669 32.5142 16.6981 32.6185 16.7336C32.7227 16.7691 32.7648 16.7935 32.8158 16.7758C32.8668 16.758 32.9356 16.6715 32.971 16.6893C33.0065 16.707 33.0398 16.7846 33.0398 16.809C33.0398 16.8334 33.0996 16.9376 33.0398 16.9731C32.9799 17.0086 32.9444 17.0241 32.8668 17.0596C32.7892 17.0951 32.7626 17.1284 32.7626 17.1727C32.7626 17.2171 32.7449 17.328 32.7027 17.3612C32.6606 17.3967 32.6251 17.4211 32.6251 17.4211L32.6429 17.4987L32.7293 17.5342C32.7293 17.5342 32.7981 17.5431 32.8846 17.5519C32.971 17.5608 33.1595 17.5431 33.1595 17.5431C33.1595 17.5431 33.2881 17.3457 33.3147 17.328C33.3413 17.3102 33.4522 17.2237 33.4522 17.2237C33.4522 17.2237 33.5719 17.3191 33.5808 17.379C33.5897 17.4388 33.6163 17.5342 33.6495 17.5431C33.685 17.5519 33.736 17.5852 33.7959 17.5785C33.8558 17.5697 33.9511 17.5697 33.9511 17.5431C33.9511 17.5165 33.8912 17.3878 33.8912 17.3878L33.8048 17.2415C33.8048 17.2415 33.8735 17.1727 33.9179 17.1727C33.9622 17.1727 34.2283 17.2326 34.2283 17.2326C34.2283 17.2326 34.4345 17.4566 34.4522 17.4921C34.47 17.5275 34.572 17.5608 34.5809 17.6207C34.5897 17.6806 34.5809 17.8447 34.5809 17.8447L34.348 17.991L34.2793 18.2062C34.2793 18.2062 34.2283 18.3015 34.3148 18.3348C34.4012 18.3703 34.5032 18.3947 34.5032 18.3947C34.5032 18.3947 34.572 18.1441 34.5853 18.0931C34.5986 18.042 34.6163 17.9888 34.6585 17.9378C34.7006 17.8868 34.8824 17.8336 34.8824 17.8336C34.8824 17.8336 34.9955 18.0154 35.0465 18.0576C35.0975 18.0997 35.2971 18.2549 35.3303 18.2993C35.3658 18.3414 35.3392 18.3947 35.4678 18.3348C35.5964 18.2749 35.6053 18.266 35.6053 18.2217C35.6053 18.1773 35.5875 18.0332 35.5698 17.9378C35.5521 17.8425 35.5432 17.654 35.5432 17.654L35.5609 17.4721L35.878 17.4788" fill="#7A1F7E"/>
</svg>
