<svg width="164" height="141" viewBox="0 0 164 141" fill="none" xmlns="http://www.w3.org/2000/svg">
<path d="M74.0529 22.022C76.2793 22.8892 78.037 23.6 79.8103 24.2563C82.0602 25.0843 83.8257 26.3889 85.3881 28.3029C86.3568 29.4903 88.1535 30.4277 89.6925 30.6543C94.7312 31.412 99.4653 30.7637 104.035 27.8966C106.387 26.4202 109.691 26.4905 112.55 25.7952C114.808 25.2484 117.214 24.9359 119.214 23.8735C120.948 22.9517 122.589 21.358 123.604 19.6628C125.526 16.4521 128.112 14.5928 131.698 13.6554C133.83 13.0929 135.822 11.9289 137.799 10.8821C140.135 9.64 142.322 8.10886 144.681 6.91363C148.829 4.8122 153.431 3.53884 157.016 0C160.836 29.2091 162.766 58.4728 163.985 88.26C161.68 87.8069 159.649 87.5257 157.673 86.9945C153.477 85.8773 149.243 85.0336 144.931 85.8148C142.627 86.2367 140.439 87.2913 138.158 87.8928C135.299 88.6506 132.401 89.2756 129.502 89.8693C126.159 90.5567 122.894 90.2442 119.573 89.3615C115.456 88.26 111.199 88.8147 108.09 91.6348C104.168 95.1971 99.684 96.9938 94.7391 98.3609C92.2392 99.0484 89.9112 100.478 87.6223 101.783C85.9427 102.743 85.2006 104.337 85.8412 106.329C86.263 107.626 85.9193 108.298 84.4741 108.563C80.2478 109.337 76.0996 110.345 72.1702 112.235C70.8265 112.883 69.0063 112.829 67.4439 112.68C64.8503 112.43 63.8973 113.157 64.1004 115.789C64.6785 123.414 65.28 131.046 65.8581 138.671C65.905 139.288 65.8581 139.913 65.8581 140.796C59.5772 140.007 53.187 140.272 48.0546 135.866C45.2344 133.445 41.9612 132.46 38.2895 132.273C36.4381 132.179 34.4929 131.796 32.7899 131.07C26.595 128.429 20.8063 125.164 16.1191 120.117C14.4004 118.266 12.0334 116.977 9.86166 115.594C7.1509 113.868 4.34639 112.305 1.57313 110.673C0.581006 110.087 0.198222 109.329 0.0888544 108.087C-0.598602 99.978 2.72931 93.8143 9.15859 89.2052C11.7756 87.3303 13.3146 84.9399 13.5333 81.8073C14.0255 74.7608 17.1503 68.4097 18.7283 61.6601C18.8533 61.1445 19.2204 60.6289 19.5954 60.2305C21.0641 58.6603 22.6421 57.1916 24.0561 55.5746C27.1027 52.067 30.6338 49.3797 35.1491 47.9422C37.2271 47.2782 39.2035 46.1689 41.0941 45.0362C46.7343 41.6458 49.1092 36.4664 46.0234 29.8575C45.3047 28.3185 44.711 26.7092 44.172 25.0921C43.633 23.4751 44.3595 22.7173 46.039 22.9751C48.4139 23.3501 50.6716 25.6702 50.984 28.0685C51.1559 29.3809 51.2496 30.7168 51.5153 32.0136C52.1558 35.0759 54.3901 36.9664 57.4836 36.6695C60.1631 36.4117 62.8427 35.8336 65.4519 35.1149C67.7642 34.4822 68.8579 32.451 69.8344 30.4121C71.1937 27.5842 72.6311 24.7875 74.0216 21.9908L74.0529 22.022Z" fill="white"/>
</svg>
