<svg width="42" height="16" viewBox="0 0 42 16" fill="none" xmlns="http://www.w3.org/2000/svg">
<path d="M6.84757 0.0288487C9.21662 -0.170808 11.5142 0.67091 13.1431 2.39744C13.7018 2.51666 15.1535 2.24805 15.5965 2.46495C15.7679 2.54826 16.4252 3.27075 16.6124 3.46179C17.7126 4.59079 18.75 5.78585 19.8702 6.89617C20.2274 7.37736 20.2617 7.82407 19.8973 8.31531C19.1986 9.2547 17.9798 10.3464 17.1468 11.2269C16.9139 11.4739 16.6824 11.7813 16.4481 12.0255C16.2866 12.195 15.7837 12.7537 15.6265 12.8413C15.2107 13.0769 13.6875 12.8112 13.1431 12.9246C7.83634 18.4389 -1.3055 13.7348 0.156222 6.11047C0.766345 2.92459 3.61263 0.300324 6.84614 0.0274123L6.84757 0.0288487ZM11.5871 3.89271C10.8512 3.12424 10.0425 2.62295 9.00372 2.33854C8.87226 2.22794 9.12803 1.52412 8.55506 1.24115C8.26643 1.09895 7.36339 1.10757 7.02189 1.14204C6.65753 1.17939 6.35318 1.39628 6.30175 1.77836C6.28031 1.9421 6.35176 2.20927 6.2303 2.317C6.16743 2.37302 5.54016 2.56262 5.3787 2.63444C0.789207 4.68702 1.205 11.4739 5.99597 12.9146C11.4299 14.5492 15.4293 7.91025 11.5871 3.89271Z" fill="#D9D9D9"/>
<path d="M24.5811 2.42193C25.0154 2.37022 25.4441 2.43773 25.8771 2.45784C26.12 2.46933 26.44 2.36016 26.6686 2.54833L30.7509 6.8431C31.381 7.63454 31.0124 8.10998 30.4494 8.74342C29.4763 9.83507 28.4161 10.8664 27.4145 11.9322C27.263 12.0931 26.6929 12.8055 26.5543 12.85C26.2443 12.9376 25.9528 12.8586 25.6399 12.8687C25.2041 12.8845 24.8126 12.8687 24.3839 12.8687C22.8922 12.8644 21.399 12.8816 19.9073 12.8644L19.8544 12.7768L24.0324 8.34268C24.4468 7.76525 24.3467 7.29268 23.9167 6.76984L19.833 2.52391C19.8773 2.4564 19.923 2.45927 19.993 2.45065C21.429 2.29265 23.1251 2.60147 24.5825 2.42049L24.5811 2.42193Z" fill="#D9D9D9"/>
<path d="M35.2161 2.42606C35.6348 2.42319 36.052 2.41457 36.4664 2.40595C36.7293 2.40164 37.2794 2.37292 37.4966 2.49932L41.6703 6.84292C42.3461 7.69757 41.866 8.18307 41.2759 8.83662C40.2971 9.91821 39.2741 10.9969 38.2667 12.0512C38.1367 12.1862 37.5737 12.7938 37.4694 12.8455C37.2451 12.9547 36.6878 12.9231 36.4221 12.9174C36.0234 12.9102 35.619 12.903 35.2161 12.9001C33.7544 12.8915 32.2898 12.8513 30.8281 12.8642L30.7752 12.7766L34.9518 8.3425C35.4447 7.70044 35.2118 7.22357 34.7432 6.67774L30.7538 2.52661L30.9138 2.45335C32.3484 2.48352 33.7844 2.43468 35.2175 2.42606H35.2161Z" fill="#D9D9D9"/>
<path d="M10.0168 4.8594C10.8184 4.70427 11.1885 5.74277 10.4926 6.18231L8.32503 7.56985L8.29074 11.2412C8.16642 12.0456 7.02191 12.0083 6.90617 11.155C6.98047 9.88242 6.79329 8.47189 6.90045 7.2165C6.92903 6.88039 7.01762 6.72382 7.2791 6.51698C7.73491 6.15502 9.16805 5.24579 9.68816 4.99729C9.77103 4.95708 9.93821 4.8752 10.0168 4.8594Z" fill="#D9D9D9"/>
</svg>
