<svg width="37" height="30" viewBox="0 0 37 30" fill="none" xmlns="http://www.w3.org/2000/svg">
<path d="M36.0716 8.45155C35.9054 9.12177 35.8181 9.8256 35.5524 10.4519C35.2438 11.2004 34.8424 11.9067 34.3578 12.5541C32.4869 14.9811 30.5659 17.3689 28.6626 19.7716C28.6134 19.8341 28.5595 19.8939 28.4889 19.9751C28.4081 19.8817 28.3393 19.807 28.2762 19.7268C26.2911 17.2064 24.2307 14.7496 22.3366 12.1658C19.1235 7.77853 21.5006 1.44315 26.9729 0.288469C31.0676 -0.574045 35.0099 2.06204 35.9137 6.18138C35.9769 6.46702 36.0224 6.75639 36.0754 7.0439L36.0716 8.45155ZM28.4759 16.3859C28.5465 16.3075 28.5799 16.2748 28.6087 16.2384C29.9919 14.4882 31.3899 12.7501 32.7535 10.984C33.6908 9.77052 33.9983 8.37781 33.7642 6.86C33.2998 3.85054 30.2529 1.77827 27.3249 2.48583C23.3863 3.43795 21.8332 7.97175 24.3524 11.1726C25.2813 12.3534 26.2177 13.5296 27.1503 14.7076L28.4759 16.3859Z" fill="#D9D9D9"/>
<path d="M7.59437 19.8501C6.6518 18.6623 5.73991 17.5193 4.83173 16.3679C3.70325 14.9387 2.53202 13.5449 1.46117 12.0783C-1.79227 7.64054 0.670119 1.28592 6.05317 0.160622C10.9501 -0.864918 15.5411 3.16359 15.1684 8.16357C15.0657 9.68639 14.501 11.1413 13.55 12.3329C11.6004 14.7998 9.64837 17.2642 7.69383 19.7261L7.59437 19.8501ZM7.58786 16.2346C7.62753 16.2002 7.66539 16.1638 7.70127 16.1255C9.07887 14.3877 10.4648 12.6564 11.8294 10.9046C12.7887 9.67391 13.115 8.26985 12.8761 6.72688C12.4113 3.72671 9.35494 1.65884 6.42499 2.36926C2.48647 3.32768 0.93876 7.85311 3.46157 11.0519C4.75675 12.6921 6.05503 14.3296 7.3564 15.9642C7.42705 16.0509 7.50327 16.1357 7.58786 16.2346Z" fill="#D9D9D9"/>
<path d="M10.8742 26.307C10.8925 28.1352 9.40994 29.6718 7.60985 29.6887C5.80975 29.7055 4.33362 28.1886 4.31532 26.337C4.29885 24.505 5.77956 22.9721 7.57965 22.9571C9.37974 22.9421 10.8559 24.4535 10.8742 26.307ZM7.58605 27.432C7.80007 27.4316 8.00921 27.3664 8.18721 27.2447C8.36521 27.123 8.50415 26.9501 8.58657 26.7477C8.669 26.5454 8.69124 26.3226 8.65051 26.1074C8.60978 25.8921 8.50789 25.694 8.35763 25.5378C8.20737 25.3817 8.01544 25.2745 7.80593 25.2297C7.59642 25.185 7.37867 25.2046 7.18001 25.2862C6.98134 25.3677 6.81062 25.5076 6.68928 25.6882C6.56793 25.8688 6.50137 26.0821 6.49794 26.3013C6.49599 26.5992 6.60945 26.8858 6.81344 27.0981C7.01742 27.3104 7.29527 27.4312 7.58605 27.4339V27.432Z" fill="#D9D9D9"/>
<path d="M31.7584 26.499C31.6971 28.3794 30.2023 29.8736 28.4293 29.8117C26.604 29.7508 25.144 28.2041 25.2026 26.394C25.2649 24.5136 26.7542 23.0315 28.5327 23.0831C30.3534 23.1346 31.8161 24.6842 31.7584 26.499ZM28.4888 27.5582C28.7028 27.5541 28.9109 27.4854 29.0869 27.3607C29.263 27.2359 29.3991 27.0607 29.4782 26.857C29.5573 26.6533 29.5759 26.4302 29.5317 26.2157C29.4875 26.0012 29.3823 25.8049 29.2295 25.6514C29.0767 25.4979 28.883 25.394 28.6727 25.3528C28.4625 25.3117 28.245 25.335 28.0477 25.4199C27.8503 25.5049 27.6819 25.6476 27.5635 25.8302C27.4451 26.0129 27.382 26.2272 27.3821 26.4465C27.3855 26.744 27.5038 27.028 27.7112 27.2364C27.9187 27.4447 28.1982 27.5605 28.4888 27.5582Z" fill="#D9D9D9"/>
<path d="M12.5339 25.2911L15.4496 25.263L15.4511 27.4862L12.5362 27.5145L12.5339 25.2911Z" fill="#D9D9D9"/>
<path d="M16.5704 25.2514L19.4803 25.2633L19.5056 27.3529L16.5942 27.3443L16.5704 25.2514Z" fill="#D9D9D9"/>
<path d="M23.5432 25.2635L23.5425 27.4815L20.6228 27.5137L20.6237 25.2948L23.5432 25.2635Z" fill="#D9D9D9"/>
<path d="M31.0696 7.72719C31.0597 8.41122 30.7827 9.06425 30.2976 9.54668C29.8126 10.0291 29.1581 10.3027 28.474 10.3089C27.065 10.3033 25.8831 9.11492 25.8914 7.71329C25.8997 6.31166 27.0863 5.12232 28.487 5.13066C29.1713 5.14056 29.8245 5.41773 30.3071 5.90293C30.7898 6.38814 31.0634 7.04287 31.0696 7.72719Z" fill="#D9D9D9"/>
<path d="M7.61058 10.1838C6.20951 10.1977 5.016 9.02157 5.0058 7.61099C4.99561 6.20041 6.16688 5.02153 7.57908 5.00577C8.99128 4.99002 10.1672 6.16519 10.1839 7.57948C10.1996 8.97894 9.02278 10.1708 7.61058 10.1838Z" fill="#D9D9D9"/>
</svg>
