<svg width="29" height="34" viewBox="0 0 29 34" fill="none" xmlns="http://www.w3.org/2000/svg">
<path d="M0.0486021 34C0.00285897 33.9665 0 33.9609 0 33.9107C0 33.3835 0.0257303 32.8478 0.0285893 32.3178C0.0343072 31.1628 0.0714735 30.2087 0.317343 29.0677C1.28938 24.5371 4.71726 20.6901 9.17721 19.1306C12.262 20.5729 15.8786 20.5757 18.9605 19.125C23.492 20.7235 26.9398 24.6627 27.8576 29.2853C28.1492 30.7499 28.0548 31.9523 28.1006 33.4114C28.1063 33.5983 28.2349 33.8466 28.0806 33.9972H0.0486021V34Z" fill="#D9D9D9"/>
<path d="M13.844 0.0156558C20.9259 -0.393171 25.6982 7.28652 22.2027 13.4871C19.0703 19.0374 11.2252 19.6734 7.26998 14.6511C2.73314 8.8906 6.56066 0.435839 13.844 0.0156558Z" fill="#D9D9D9"/>
</svg>
