<svg width="34" height="39" viewBox="0 0 34 39" fill="none" xmlns="http://www.w3.org/2000/svg">
<path d="M20.038 31.2135C20.0246 31.2016 20.0237 31.1996 20.0237 31.1817C20.0237 30.9938 20.0313 30.8029 20.0321 30.6141C20.0338 30.2025 20.0447 29.8625 20.1167 29.456C20.4013 27.8416 21.4051 26.4708 22.7111 25.9151C23.6145 26.429 24.6735 26.43 25.576 25.9131C26.903 26.4827 27.9126 27.8863 28.1814 29.5335C28.2667 30.0554 28.2391 30.4838 28.2525 31.0037C28.2542 31.0703 28.2919 31.1588 28.2467 31.2125H20.038V31.2135Z" fill="#D9D9D9"/>
<path d="M24.0159 21.2057C25.8632 21.0991 27.108 23.1023 26.1962 24.7197C25.3792 26.1674 23.3328 26.3333 22.3012 25.0233C21.1178 23.5207 22.1161 21.3153 24.0159 21.2057Z" fill="#D9D9D9"/>
<path d="M19.2876 0V3.14098H25.9131V9.42294H8.24509V3.14098H14.8706V0H19.2876Z" fill="#D9D9D9"/>
<path d="M12.1674 14.7234H27.2821C27.4984 14.7672 27.5947 14.8579 27.6343 14.9884C27.7002 15.1993 27.6963 16.7051 27.6119 16.8802C27.5736 16.9574 27.4879 17.0155 27.3758 17.056L12.1688 17.0791C12.0514 17.0584 11.9314 17.0027 11.8773 16.9367C11.7718 16.8061 11.7507 15.1977 11.8153 14.9884C11.8562 14.8579 11.9525 14.7672 12.1674 14.7234Z" fill="#D9D9D9"/>
<path d="M11.9803 21.7905H19.8175C19.9297 21.8343 19.9796 21.925 20.0001 22.0555C20.0343 22.2664 20.0323 23.7722 19.9885 23.9473C19.9687 24.0245 19.9242 24.0826 19.8661 24.1232L11.9809 24.1463C11.9201 24.1256 11.8579 24.0699 11.8298 24.0038C11.7751 23.8733 11.7642 22.2649 11.7977 22.0555C11.8189 21.925 11.8688 21.8343 11.9803 21.7905Z" fill="#D9D9D9"/>
<path d="M11.9227 28.8577H17.5207C17.6008 28.9014 17.6365 28.9922 17.6511 29.1227C17.6756 29.3336 17.6741 30.8393 17.6428 31.0144C17.6287 31.0916 17.5969 31.1497 17.5554 31.1903L11.9232 31.2134C11.8797 31.1927 11.8352 31.137 11.8152 31.0709C11.7761 30.9404 11.7683 29.332 11.7922 29.1227C11.8074 28.9922 11.843 28.9014 11.9227 28.8577Z" fill="#D9D9D9"/>
<path d="M7.57227 14.1404C9.84248 13.9681 10.1345 17.498 7.83071 17.6619C5.44425 17.8323 5.14258 14.3247 7.57227 14.1404Z" fill="#D9D9D9"/>
<path d="M7.56997 21.2081C9.86846 21.0312 10.1127 24.5666 7.82867 24.7295C5.48498 24.8962 5.10799 21.3971 7.56997 21.2081Z" fill="#D9D9D9"/>
<path d="M7.55712 28.2746C9.42712 28.1307 10.2031 30.8274 8.40877 31.6149C5.8586 32.7339 4.70518 28.4938 7.55712 28.2746Z" fill="#D9D9D9"/>
<path d="M6.71385 4.71143V7.50886H3.35692V35.4832H30.2123V7.50886H26.8554V4.71143H33.5692V38.2807H0V4.71143H6.71385Z" fill="#D9D9D9"/>
</svg>
