<svg width="133" height="137" viewBox="0 0 133 137" fill="none" xmlns="http://www.w3.org/2000/svg">
<path d="M64.5283 136.435C60.6458 136.435 57.1929 136.45 53.7478 136.435C50.8417 136.411 50.8886 136.302 50.1464 133.575C49.623 131.646 48.7246 129.818 48.0138 127.943C47.5919 126.826 46.9279 125.709 46.8732 124.568C46.6623 119.834 44.2406 116.373 40.858 113.381C40.108 112.717 39.4206 111.96 38.7956 111.171C36.202 107.897 32.4757 106.577 28.5228 107.936C26.273 108.71 24.109 109.819 22.0545 111.022C18.5938 113.045 16.2189 112.491 14.5784 108.827C13.7581 106.991 13.3597 104.976 12.6488 103.085C11.0864 98.9527 9.65683 94.7498 7.79757 90.7501C4.93838 84.5786 6.24298 78.9305 9.4459 73.4387C9.69589 73.0168 10.8364 72.6653 11.2739 72.8762C12.6176 73.5324 13.7503 74.6183 15.1018 75.2667C16.2189 75.8057 17.7969 76.5635 18.6563 76.1416C19.7421 75.6182 20.8358 74.0714 20.9842 72.8449C21.4373 69.267 20.7499 65.7829 18.6797 62.705C15.8205 58.4631 12.477 54.7758 7.84444 52.315C5.81332 51.2369 4.06343 49.5964 2.23543 48.1512C0.0246293 46.4091 -0.475338 44.1358 0.423042 41.5266C0.899574 40.1595 1.43079 38.8159 1.92295 37.48C8.09443 38.8393 12.2035 36.441 12.9301 31.121C13.4066 27.6525 12.8129 24.3481 10.5083 21.6607C8.54753 19.3796 6.36798 17.2548 4.08687 15.3018C1.53235 13.1144 1.29018 12.0441 3.62597 9.62243C5.78989 7.3882 8.18817 5.52114 11.1333 4.27122C13.5394 3.24784 15.7502 1.75575 17.961 0.326154C19.2109 -0.486295 19.8515 0.404266 20.5702 0.990166C24.3903 4.10715 25.648 8.43501 25.9527 13.091C26.2495 17.7625 24.4684 21.8951 21.9685 25.7073C19.8437 28.9571 17.7032 32.2382 17.1876 36.1364C16.7111 39.7455 16.4064 43.4328 16.6173 47.0575C16.9064 51.8229 20.1874 54.7836 25.1402 56.2679C34.1474 58.9552 42.8032 57.1819 51.4042 54.5805C53.9118 53.8227 56.0445 52.2057 57.4663 49.9167C61.2004 43.9093 65.083 38.0112 67.3797 31.1992C68.2234 28.7071 69.8874 26.4026 71.5669 24.3246C73.2778 22.2076 74.8245 22.106 77.3244 23.2387C79.4571 24.2074 81.6522 24.7308 83.5662 23.0825C84.5895 22.1998 85.4411 20.8717 85.8395 19.5749C86.1988 18.4031 86.6597 17.9032 87.7534 18.0828C90.2454 18.4891 92.7687 18.8172 95.1982 19.4734C99.5573 20.653 101.151 24.2699 102.237 28.1525C103.245 31.7616 102.323 35.1521 100.792 38.4409C99.2214 41.8079 99.8464 44.9795 101.792 47.9794C102.229 48.6512 102.815 49.284 103.463 49.7527C104.955 50.8307 106.479 50.6432 107.682 49.2449C108.385 48.4403 108.838 47.4091 109.588 46.6591C110.072 46.1748 111.228 45.5967 111.471 45.7998C112.08 46.3076 112.478 47.1982 112.697 48.0028C112.822 48.4715 112.471 49.0965 112.275 49.6277C111.924 50.5729 111.533 51.5104 111.166 52.4478C109.572 56.5335 110.033 59.5099 112.533 61.2207C116.759 64.1111 120.361 64.0799 123.751 60.9785C124.907 59.9239 125.813 58.6037 126.837 57.4084C127.931 56.1351 129.032 54.8617 130.126 53.5884C130.383 53.6196 130.641 53.6431 130.899 53.6743C131.329 56.096 132.016 58.5021 132.118 60.9395C132.196 62.8534 131.344 64.6345 129.282 65.4782C128.712 65.7126 128.126 66.0798 127.72 66.5329C124.321 70.3217 120.197 73.2199 116.134 76.2197C113.611 78.0868 112.439 80.7898 112.533 84.0083C112.572 85.3285 112.463 86.6644 112.307 87.9768C112.088 89.8048 111.26 91.2657 109.775 92.4609C107.244 94.492 105.744 97.1246 105.713 100.476C105.674 104.577 105.651 108.686 105.534 112.78C105.518 113.444 105.213 114.334 104.729 114.709C101.034 117.545 97.0731 119.819 92.3625 120.584C90.3157 120.92 88.2768 121.459 86.316 122.146C80.996 124.006 75.637 122.896 70.3717 122.193C64.9892 121.467 62.3488 123.717 63.2862 129.123C63.5128 130.427 63.9268 131.701 64.1534 133.005C64.3487 134.099 64.3955 135.216 64.5205 136.45L64.5283 136.435Z" fill="white"/>
</svg>
