<svg width="80" height="145" viewBox="0 0 80 145" fill="none" xmlns="http://www.w3.org/2000/svg">
<path d="M5.14976 0C7.4543 1.46866 8.50111 3.53103 8.94639 5.78088C10.2822 12.5383 14.8132 15.4521 21.1565 16.3427C21.594 16.4052 22.0237 16.5458 22.4612 16.5693C24.2501 16.6317 25.3438 17.2411 25.4766 19.3113C25.5391 20.2721 26.2187 21.3736 26.9452 22.0845C28.9139 23.9985 29.2185 26.3343 28.6639 28.7404C27.7889 32.5292 28.4686 36.0133 30.1794 39.3803C31.7496 42.4817 33.3355 45.5674 34.9916 48.6219C35.4994 49.5593 36.2259 50.3796 36.8899 51.2155C39.4601 54.4653 42.8114 56.1605 46.9518 56.5589C50.5531 56.9026 53.7091 58.2697 56.4277 60.8477C58.8104 63.1132 61.8727 64.1678 65.185 64.5506C74.0516 65.5974 75.9265 68.48 76.8952 75.1827C77.6607 80.4636 77.6373 85.8539 79.1294 91.0411C79.3638 91.8691 79.1997 92.8066 79.27 93.6893C79.3872 95.2595 79.3247 96.4235 77.3717 97.1344C75.5202 97.8063 74.6141 99.7749 74.6297 101.783C74.6453 103.525 74.7078 105.415 75.3718 106.978C77.8482 112.79 77.7389 118.813 77.2623 124.89C77.1295 126.656 77.0748 128.476 76.5749 130.148C76.0124 132.046 75.2312 133.976 74.1063 135.585C72.4501 137.952 70.4034 140.046 68.5285 142.264C65.9505 145.303 64.3335 145.623 61.1696 143.881C60.1306 143.303 59.6463 142.553 59.9041 141.428C60.1462 140.389 60.5212 139.382 60.8259 138.358C61.3337 136.671 62.0367 135.007 62.2867 133.281C62.6929 130.468 61.2087 128.39 58.4979 127.468C56.0449 126.633 54.1388 127.359 52.5139 129.757C52.0999 130.367 51.678 130.984 51.1624 131.742C49.5219 129.531 48.9829 127.422 50.1391 125.054C52.0218 121.188 52.8186 117.133 51.7952 112.899C50.2406 106.438 46.7955 101.751 39.7647 100.611C39.4757 100.564 39.1945 100.447 38.7726 100.322C39.9757 98.2906 41.0693 96.5798 43.3504 95.6423C47.8111 93.8143 49.1548 89.7599 46.7955 85.5414C45.2253 82.7291 44.8191 80.2839 46.6471 77.2607C49.2485 72.9641 46.9127 66.8785 41.9755 64.5271C40.0147 63.5897 37.7883 63.1678 35.6478 62.6835C32.0309 61.8632 30.9762 60.8633 30.2888 57.2542C30.1872 56.6917 29.9997 56.137 30.0075 55.5746C30.0232 50.3249 27.414 46.3095 23.9767 42.6926C21.5237 40.1068 18.6801 38.6772 14.9694 39.4818C14.4304 39.599 13.4539 39.0522 13.118 38.5366C12.4462 37.4898 12.0009 36.2711 11.5947 35.0759C10.6728 32.3495 8.67297 30.8183 6.18876 29.5606C4.1967 28.5529 2.41556 27.1389 0.587557 25.8343C0.321949 25.6468 0.275074 25.0453 0.267262 24.6312C0.165706 19.0222 -0.185828 13.4054 0.126652 7.81981C0.306328 4.59346 2.64211 2.15611 5.14195 0.0156214L5.14976 0Z" fill="white"/>
</svg>
