<svg width="107" height="104" viewBox="0 0 107 104" fill="none" xmlns="http://www.w3.org/2000/svg">
<path d="M77.5029 24.3821C78.0497 24.882 78.6434 25.3429 79.1512 25.8898C81.5651 28.4912 84.854 28.7255 87.0023 25.9366C88.924 23.4368 90.9708 21.1557 93.2441 18.9684C96.5954 15.7342 98.1422 6.89101 94.3065 1.78977C94.0487 1.44605 93.8456 1.05542 93.2753 0.157044C95.9548 0.157044 98.3453 -0.264785 100.494 0.274243C102.603 0.805459 104.47 2.30535 106.22 3.25841C104.923 7.94561 103.751 12.5156 102.368 17.0154C101.509 19.812 99.7515 21.9213 97.111 23.4524C90.1818 27.46 87.8929 34.8892 90.8927 42.3028C91.4707 43.7246 91.5723 45.5057 91.3536 47.0447C90.627 52.1772 91.4551 54.0911 95.9002 56.4738C98.564 57.9034 98.9234 59.3095 97.3219 61.95C96.2595 63.6999 94.869 64.9263 92.7754 65.3638C89.3928 66.0747 86.4867 67.6293 84.4399 70.5432C83.3931 72.0274 82.1588 72.7071 80.1277 72.4649C75.8858 71.9572 73.386 74.3164 72.7844 78.5661C72.3782 81.4253 71.6829 84.2454 71.0189 87.0577C70.8392 87.8311 70.4018 88.6201 69.8706 89.2138C67.9254 91.4012 67.0582 93.9401 66.9332 96.8384C66.902 97.6664 66.5505 98.5961 66.0583 99.2679C65.0584 100.635 63.8631 101.869 62.6757 103.236C62.3554 103.072 61.9726 102.971 61.7226 102.721C58.9416 99.9475 55.6918 98.057 51.9108 96.854C49.0125 95.9322 48.661 93.5261 50.8015 91.534C52.9185 89.5654 53.3326 86.2687 51.3952 83.7845C48.2938 79.8004 45.0909 75.8709 41.677 72.1524C38.521 68.7152 33.4666 68.1527 29.4669 70.3635C27.4983 71.4494 26.3421 73.0508 26.1858 75.3475C26.1155 76.4178 25.9593 77.488 25.7249 78.5349C24.8812 82.2768 23.3579 83.2845 18.9519 81.769C17.8426 81.3862 16.8349 80.6206 15.8896 79.8941C11.843 76.7459 11.5696 75.5038 13.0851 70.6447C13.5382 69.1995 13.7648 67.4731 13.4288 66.0278C12.5148 62.0984 8.46822 60.9188 4.60128 63.2389C3.00763 64.192 1.40616 65.1295 0 65.9575V48.0524C0.249984 47.9899 0.507781 47.9274 0.757765 47.8649C1.10931 48.2946 1.57021 48.6696 1.79676 49.1539C3.30448 52.349 5.80433 54.1302 9.29629 54.4973C10.8509 54.6614 11.9602 55.2004 12.7023 56.7316C14.1866 59.8173 16.8739 61.3094 20.1628 61.9812C22.2564 62.4109 24.2641 63.2233 26.3577 63.6374C28.9435 64.1451 31.5761 64.7467 34.1853 64.7154C38.8257 64.6607 43.1769 60.6844 43.1223 55.6769C43.091 53.1458 43.1613 50.6148 43.3019 48.0915C43.341 47.4197 43.8175 46.7713 44.0909 46.1151C44.6768 46.4197 45.3331 46.6228 45.8252 47.0369C47.5126 48.4508 48.1844 50.2085 47.6454 52.4428C47.3329 53.7239 47.2158 55.0676 47.1298 56.3878C46.9658 58.9267 48.1532 60.286 50.7077 60.5516C53.9341 60.8876 56.8714 59.7782 58.5275 57.1925C61.4102 52.6927 65.113 49.3336 69.6753 46.6853C71.2298 45.787 72.6985 44.4823 73.7531 43.0371C74.9015 41.4591 75.8858 39.5764 76.292 37.6859C77.0498 34.1705 77.2998 30.5614 76.4092 26.96C76.2217 26.1945 76.6357 25.2726 76.7764 24.4211C77.0185 24.4133 77.2529 24.3977 77.4951 24.3899L77.5029 24.3821Z" fill="white"/>
</svg>
