<svg width="202" height="124" viewBox="0 0 202 124" fill="none" xmlns="http://www.w3.org/2000/svg">
<path d="M49.0269 0.00781963C52.7064 2.07019 56.5968 4.15596 60.3778 6.42144C61.9324 7.35107 63.4245 8.51505 64.6509 9.83528C70.0959 15.6865 76.9236 19.3034 84.2669 22.0611C85.7043 22.6001 87.3604 22.6314 88.9228 22.7407C91.5633 22.9282 94.0631 23.4126 96.1177 25.2562C100.946 29.5997 106.984 30.2871 113.062 30.959C118.319 31.5449 122.866 33.701 126.569 37.5445C129.545 40.638 132.397 43.88 135.529 46.8095C139.107 50.1452 143.349 51.9811 148.411 51.9654C150.341 51.9654 152.317 52.8638 154.2 53.5356C156.692 54.4262 159.051 55.8246 161.606 56.4027C163.746 56.887 166.144 56.8401 168.308 56.4182C171.191 55.848 173.785 55.9105 176.324 57.4885C178.526 58.8556 180.815 60.0743 183.05 61.3945C183.471 61.6445 183.893 61.9882 184.151 62.3944C187.479 67.6597 192.455 69.558 198.275 67.7456C200.431 67.0738 200.697 67.3004 200.916 69.558C201.127 71.8157 201.486 74.0578 201.728 76.3154C201.783 76.792 201.798 77.4873 201.517 77.745C199.439 79.659 197.447 81.7369 195.111 83.2759C192.588 84.9321 190.596 86.76 189.409 89.6114C188.877 90.8848 187.612 92.0644 186.385 92.7831C183.097 94.7049 180.339 97.0094 179.448 100.876C179.073 102.525 178.972 104.251 178.894 105.946C178.753 108.86 177.488 110.938 174.73 111.844C171.972 112.751 169.457 113.852 167.668 116.313C167.121 117.063 166.059 117.774 165.16 117.891C161.66 118.336 158.122 118.789 154.7 117.367C151.599 116.079 148.442 116.328 145.458 117.5C144.24 117.977 143.123 119.219 142.427 120.399C141.388 122.156 140.068 123.172 138.076 123.289C135.076 123.476 132.139 123.25 129.397 121.813C127.499 120.813 125.561 119.875 123.624 118.938C120.874 117.61 117.968 116.953 114.968 117.617C110.429 118.61 106.555 117.688 102.695 114.961C99.7659 112.891 96.2739 111.454 92.8445 110.298C90.8055 109.61 88.3525 109.68 86.1652 109.993C80.8374 110.751 77.4236 109.009 75.3065 104.001C73.0723 98.7359 68.6663 96.2595 62.9636 97.1969C61.2996 97.4703 60.2528 96.8688 59.6278 95.4236C59.1279 94.2674 58.7763 93.0409 58.2998 91.8691C56.8233 88.1975 53.7376 86.7835 50.0269 88.0647C47.6052 88.9006 47.3083 88.7365 46.6365 86.2445C46.5037 85.7523 46.3943 85.2602 46.2771 84.768C45.1991 80.3621 43.2773 78.5887 38.7698 77.9716C35.6372 77.5419 32.5046 77.0263 29.3641 76.8701C27.3799 76.7685 25.3488 77.1435 23.3801 77.5263C20.4506 78.1044 18.7632 77.581 17.318 75.0264C15.7009 72.1672 13.0214 70.683 10.3263 69.1206C7.32647 67.3785 4.36572 65.5583 1.51434 63.5819C-0.329291 62.3085 -0.446471 59.9571 0.928441 57.7932C1.63933 56.676 2.32679 55.5277 3.14705 54.4965C3.49078 54.0591 4.13918 53.6606 4.6782 53.6059C10.8028 53.0044 14.6698 49.6218 17.0446 44.0753C17.7399 42.4504 19.0523 41.0364 20.2553 39.6771C24.9972 34.3181 28.5751 28.381 29.6688 21.1861C29.9891 19.1081 30.95 17.452 32.2546 15.8193C34.4341 13.1242 36.3324 10.2024 38.4339 7.44481C39.1448 6.51518 40.0431 5.66369 41.0196 5.02311C43.6367 3.28885 46.3318 1.67958 49.0269 0V0.00781963Z" fill="white"/>
</svg>
