<svg width="83" height="184" viewBox="0 0 83 184" fill="none" xmlns="http://www.w3.org/2000/svg">
<path d="M54.4853 57.9025C51.9308 56.6604 50.0637 55.6058 48.0873 54.8324C46.228 54.1059 44.525 54.6918 43.4391 56.387C39.2285 62.9647 37.6114 69.8393 40.7752 77.4247C42.8845 82.4869 44.6266 87.7053 46.5874 92.8378C47.2358 94.5408 47.8295 96.322 48.7982 97.8375C51.3605 101.845 55.5634 102.728 59.6959 100.4C61.563 99.3452 63.4222 98.2437 65.3987 97.4391C68.5625 96.1501 70.5233 96.861 72.7107 99.4858C73.9997 101.033 75.484 102.423 76.9136 103.853C78.4447 105.392 79.1634 107.228 79.6165 109.352C80.1321 111.782 80.9836 114.18 81.9914 116.461C83.1163 118.992 83.1866 118.852 81.1867 120.664C79.179 122.484 77.1792 124.359 75.4683 126.453C72.492 130.093 72.5076 133.656 75.4527 137.327C76.6636 138.835 78.2338 140.077 79.7024 141.366C81.5617 142.999 81.6633 144.936 79.9446 146.764C78.3041 148.514 76.5308 150.178 75.1402 152.115C71.867 156.654 70.2109 161.724 70.4452 167.411C70.5624 170.302 70.3202 173.223 70.0859 176.114C69.8437 179.106 68.2501 181.098 65.3362 182.098C59.485 184.098 53.5401 184.176 47.5561 183.012C45.2125 182.551 42.9314 181.738 40.6268 181.074C37.4786 180.176 34.3303 179.27 31.2993 178.403C32.1742 175.973 33.4632 173.442 33.9397 170.77C34.4866 167.708 34.9241 164.388 34.3147 161.412C32.9398 154.748 31.0962 148.155 28.9947 141.678C28.1667 139.132 26.2996 136.851 24.6122 134.671C22.3624 131.765 23.5576 127.492 27.0886 126.547C27.2683 126.5 27.4558 126.445 27.6433 126.406C32.8383 125.32 34.9944 120.82 32.2367 116.172C30.9478 113.985 29.0494 112.11 27.2292 110.298C25.3309 108.407 23.3623 106.634 22.8545 103.829C22.4717 101.736 22.628 99.8452 24.3232 98.2593C26.1277 96.5641 27.8308 94.7908 27.612 91.9551C27.2839 87.7131 27.1902 83.4244 23.9169 80.1199C21.464 77.6357 18.3236 77.3466 15.2613 79.1121C14.6675 79.4559 13.4489 79.4871 12.9567 79.1043C10.035 76.831 7.77735 74.1203 7.84766 70.0815C7.91797 65.7458 6.21495 62.4101 2.28552 60.2539C-0.136202 58.9259 -0.878343 55.8011 1.26214 52.7779C3.92604 49.0203 5.19158 45.2471 4.27758 40.7318C4.1604 40.1693 4.39476 39.435 4.70724 38.9194C5.02753 38.3803 5.66811 37.6226 6.09777 37.6695C6.6993 37.7242 7.52737 38.3257 7.7461 38.8881C8.50387 40.8021 9.03509 42.9816 11.5193 43.1066C14.2457 43.2394 16.6752 42.0911 18.3001 39.9115C20.2453 37.3179 21.7608 34.4665 21.4562 30.998C21.2765 28.9591 22.2061 27.5764 24.0732 26.5999C28.401 24.3422 29.2994 21.0611 26.6902 16.8739C25.5965 15.1162 24.2919 13.4445 22.8467 11.9524C19.8391 8.83537 17.9251 5.09343 16.2534 1.17962C16.1362 0.9062 16.1049 0.601524 15.9565 0C17.7298 0.62496 19.4094 0.906201 20.7453 1.74208C24.706 4.2263 28.5885 6.85112 32.3695 9.60094C33.2992 10.2728 33.9866 11.5383 34.3694 12.6711C35.0569 14.6944 35.4787 16.8192 35.9006 18.9285C36.0099 19.4753 35.8146 20.1315 35.6271 20.694C34.8225 23.022 33.8382 25.2874 33.1664 27.6467C32.2289 30.9433 33.2289 33.865 35.7443 36.0602C38.1114 38.1226 40.6034 40.1302 43.3063 41.7004C47.3451 44.044 50.3137 47.3485 52.5323 51.2858C53.5869 53.1607 53.7978 55.5121 54.4697 57.9182L54.4853 57.9025Z" fill="white"/>
</svg>
