<svg width="70" height="81" viewBox="0 0 70 81" fill="none" xmlns="http://www.w3.org/2000/svg">
<path d="M1.03443 23.3547C1.77657 22.3703 2.33904 21.5345 2.97962 20.7611C5.04199 18.2769 5.94037 15.4177 6.06537 12.1913C6.35441 4.65274 12.1353 -0.261016 19.6504 0.0436522C23.3846 0.199892 27.1812 -0.745358 30.5013 1.86385C30.9622 2.23101 31.8918 2.24663 32.5324 2.0982C37.4306 0.988896 41.2819 3.81685 45.4222 5.49643C46.2269 5.82453 46.9612 6.37138 47.6565 6.91822C50.0079 8.77747 49.9454 11.4726 47.4299 13.1678C45.2504 14.6365 44.2036 16.5895 44.0629 19.1909C43.8442 23.3156 43.8364 27.4091 45.0004 31.4245C46.016 34.9242 49.1876 37.7756 52.3593 37.4163C53.9842 37.2288 55.4919 36.0492 57.0699 35.3617C57.9449 34.9789 58.9448 34.2602 59.726 34.4243C63.3195 35.1977 66.374 37.0491 69.2254 40.0177C67.8817 40.4786 66.7881 40.8535 65.6944 41.2129C63.7414 41.8535 62.4055 42.9393 62.2727 45.2205C62.179 46.7829 61.1009 47.3219 59.5776 46.7829C58.6245 46.4469 57.7261 45.8923 56.7496 45.7048C54.1326 45.1814 51.7265 45.7282 49.672 47.5328C46.9456 49.9311 44.9535 52.8684 43.9223 56.3135C42.0006 62.7193 38.2352 68.133 34.876 73.7733C33.4074 76.2419 31.1419 77.734 28.3452 78.2652C23.8924 79.1011 19.4317 80.187 14.932 80.4369C11.7916 80.6088 8.53395 79.7807 5.43259 78.9917C2.23748 78.1793 0.315728 76.0779 0.0813679 72.4843C-0.309232 66.4222 0.651645 60.782 4.15923 55.6885C7.22154 51.2513 9.63545 46.4547 9.62764 40.9707C9.62764 33.893 7.49496 27.6278 1.03443 23.3469V23.3547Z" fill="white"/>
</svg>
