<svg width="177" height="114" viewBox="0 0 177 114" fill="none" xmlns="http://www.w3.org/2000/svg">
<path d="M129.002 0C133.783 4.57783 138.321 8.78069 142.688 13.1554C145.719 16.1865 146.563 20.1862 145.985 24.225C145.727 26.0452 144.384 27.9357 143.048 29.3341C139.431 33.1229 136.29 37.2086 133.994 41.9036C133.165 43.5988 132.423 45.3643 131.923 47.1767C131.22 49.739 132.267 51.3639 134.9 51.9029C136.306 52.192 137.79 52.1764 139.235 52.1764C141.407 52.1764 143.298 52.7935 145.079 54.0512C149.43 57.1135 153.117 60.6211 155.406 65.6364C156.633 68.3316 158.89 70.5736 160.711 72.9875C167.905 82.526 173.304 92.9394 176.139 104.611C177.381 109.712 176.835 110.93 172.101 113.493C171.999 113.547 171.858 113.54 171.577 113.587C169.554 111.259 168.859 108.501 169.202 105.415C169.671 101.197 169.265 97.0485 167.796 93.08C167.038 91.0333 166.007 88.9943 164.71 87.2522C162.406 84.1665 159.906 81.2058 157.281 78.3856C156.117 77.1279 154.57 76.0732 152.992 75.378C149.282 73.7375 146.141 74.753 144.001 78.2137C142.61 80.4636 141.532 82.9166 140.235 85.2289C139.493 86.5413 138.728 87.8928 137.712 88.9943C135.165 91.7754 133.197 91.9863 130.009 89.9943C128.72 89.1896 127.525 88.2522 126.267 87.4085C124.213 86.018 121.987 85.2836 119.455 85.6039C115.464 86.1117 113.448 89.4943 114.956 93.2284C115.214 93.8612 115.557 94.4627 115.987 95.3455C114.823 95.5251 113.807 95.7439 112.776 95.8298C99.9802 96.861 87.1685 97.736 74.3959 98.939C67.7947 99.564 61.1779 100.431 54.694 101.806C50.6474 102.665 46.9054 103.611 42.6635 102.618C40.0933 102.017 37.1639 102.915 34.3984 103.181C32.4532 103.368 30.8283 102.868 29.4222 101.431C27.4848 99.4546 25.0474 98.7593 22.3132 98.9781C18.7822 99.2593 15.2512 99.5717 11.7202 99.7827C9.97029 99.8842 8.20478 99.7983 6.44708 99.7983L6.2596 99.1108C7.09548 98.7749 7.91573 98.3218 8.78286 98.1265C12.0639 97.3922 14.8137 95.9939 16.5636 92.9316C17.8292 90.713 18.1729 88.4787 16.798 86.307C15.3449 84.0181 13.0482 83.6822 10.5874 84.2837C7.72824 84.979 5.0956 84.6977 2.65826 82.9166C0.00998966 80.9792 -0.62277 78.4637 0.595902 75.417C1.52553 73.1047 2.0958 70.6439 2.95512 68.3003C3.2676 67.4566 3.916 66.7223 4.47847 65.9958C6.0643 63.9646 7.86887 62.0742 9.23597 59.9102C10.9312 57.2385 11.3061 54.1918 10.2593 51.1452C9.40002 48.6453 10.3921 46.9033 12.142 45.2706C15.8684 41.7786 20.1103 39.9506 25.3677 40.2865C29.4769 40.5521 31.9767 38.5444 33.2891 34.6072C33.7344 33.2635 34.5078 32.4432 35.8514 32.0995C36.0389 32.0526 36.2108 31.9511 36.3983 31.9355C43.9525 31.5605 50.5692 26.9436 58.2719 27.0764C59.5374 27.0998 60.8733 26.1858 62.0763 25.5218C63.4903 24.7484 64.7793 24.4672 66.3729 25.1468C69.2868 26.3889 72.2163 26.2015 74.888 24.4125C76.7785 23.1548 78.6846 21.8736 80.3564 20.3581C82.2469 18.6472 84.3171 17.4754 86.7935 16.9364C88.5199 16.5614 90.2307 16.0771 91.9416 15.6474C95.496 14.7491 98.4724 12.882 100.73 10.015C102.574 7.67139 104.878 6.5699 107.808 6.7652C110.112 6.92144 112.073 6.13244 114.104 5.09344C115.549 4.3513 117.377 3.93726 118.995 4.03881C122.854 4.27317 126.353 3.91382 129.01 0.00781963L129.002 0Z" fill="white"/>
</svg>
