<svg width="121" height="86" viewBox="0 0 121 86" fill="none" xmlns="http://www.w3.org/2000/svg">
<path d="M67.2769 85.2055C64.4178 83.5728 61.6054 81.9948 58.8244 80.3699C55.7464 78.5653 52.4888 78.1981 49.1375 79.2762C46.747 80.0496 44.505 79.7293 42.2942 78.8622C40.4115 78.12 38.6382 77.0888 36.7242 76.4639C34.3416 75.6905 31.8808 74.7686 29.4278 74.6827C25.7171 74.5577 22.5923 73.3469 19.9284 70.9798C17.4286 68.7612 15.0615 66.3707 12.8351 63.8787C9.98373 60.6992 7.06985 57.676 2.96855 56.0667C2.42171 55.8558 1.79675 55.0355 1.74988 54.4574C1.11711 46.5204 0.585907 38.5679 0.0312547 30.6231C0.0234427 30.5059 0.085932 30.3887 0 30.7246C3.23417 29.5372 6.17147 28.3263 9.19472 27.3889C12.0227 26.5139 14.9365 25.8968 17.8192 25.2171C20.8737 24.4906 22.1236 22.8735 21.6393 19.7644C21.4361 18.4519 21.7642 17.7098 22.9282 17.2411C25.4984 16.2177 27.9904 14.9287 30.6465 14.2569C34.6775 13.2413 38.1773 11.4915 41.2161 8.64007C44.0519 5.97618 47.497 5.18715 51.2467 6.22614C54.5981 7.15577 57.965 7.39014 61.3867 6.81986C64.0037 6.38239 66.6129 5.88243 69.2143 5.36684C69.9487 5.21841 70.7455 5.05435 71.3704 4.67156C76.4092 1.55457 81.7292 2.10921 87.1351 3.33569C89.6583 3.90597 92.1894 4.50751 94.7518 4.81999C97.0329 5.10122 99.0093 4.15598 100.853 2.72638C102.283 1.60926 104.025 0.890568 105.626 0C105.821 0.171864 106.017 0.351527 106.22 0.523391C105.907 1.49208 105.634 2.4686 105.282 3.42166C104.595 5.31216 103.478 7.14016 103.236 9.07754C102.533 14.6553 107.36 19.8112 113.485 20.194C115.102 20.2956 116.743 19.8737 118.375 19.8425C119.117 19.8268 120.203 19.9596 120.516 20.4284C120.859 20.9439 120.688 22.0298 120.375 22.6939C119.602 24.35 118.375 25.5921 116.477 26.014C115.493 26.2327 114.508 26.4905 113.555 26.8108C111.415 27.5295 109.712 28.67 109.251 31.1386C109.141 31.7089 108.563 32.3182 108.04 32.662C101.525 36.9273 95.9626 42.2316 90.9551 48.161C89.1349 50.3093 89.0021 51.8951 91.0332 53.77C93.08 55.6527 93.9706 57.7229 93.5956 60.4883C93.3378 62.371 94.1893 63.8475 95.6892 65.0974C96.7048 65.9411 97.4235 67.152 98.275 68.2066C97.0329 68.9956 95.8298 69.8627 94.533 70.5658C93.1581 71.308 91.5645 71.7063 90.2989 72.5891C88.0334 74.1671 85.6117 74.7296 82.94 74.3937C78.2137 73.8 74.5577 75.4483 71.8314 79.3699C70.4643 81.3385 68.894 83.1588 67.2848 85.2133L67.2769 85.2055Z" fill="white"/>
</svg>
