<svg width="51" height="95" viewBox="0 0 51 95" fill="none" xmlns="http://www.w3.org/2000/svg">
<path d="M44.1704 94.7939C41.2253 94.2783 38.3349 94.0127 35.6007 93.2236C33.4758 92.6065 31.2259 91.6925 29.5932 90.2629C26.859 87.8724 23.8124 86.0366 20.3516 85.8335C13.8442 85.4507 10.196 81.7009 7.51651 76.4044C6.32127 74.0374 5.13386 71.6625 4.07142 69.233C3.09492 66.9988 2.75119 64.6864 3.30584 62.21C4.1261 58.5149 3.6027 55.1089 0.829434 52.1872C0.204474 51.531 -0.131442 50.1639 0.0482339 49.2499C0.470082 47.1016 1.02474 44.8986 1.99343 42.9612C5.95411 35.0399 6.4697 26.892 4.10267 18.4628C3.98549 18.041 3.8683 17.6113 3.69644 16.9863C4.19641 17.1113 4.5792 17.1973 4.95417 17.291C7.27434 17.9003 9.56326 18.6581 11.9147 19.08C17.3831 20.0643 22.6796 16.4161 23.7967 10.9477C24.1248 9.3462 24.1639 7.69006 24.2967 6.04954C24.4686 3.94811 25.4841 2.5107 27.4606 1.73732C32.3196 -0.153188 37.1553 -0.7469 42.2174 1.2061C44.6392 2.13573 47.3187 2.39352 50.3185 3.05754C49.4045 4.23715 48.3967 5.37771 47.5765 6.63544C46.35 8.51813 44.9829 10.3696 44.1782 12.4319C43.1471 15.0646 44.0298 16.5332 46.6 17.7363C47.1468 17.9941 47.6858 18.3769 48.0764 18.83C49.9982 21.033 50.9044 23.7437 50.7169 26.5404C50.5138 29.5012 48.1702 31.3839 45.9828 33.0712C44.6548 34.1024 42.9049 34.5633 41.4909 35.5008C39.3973 36.8835 37.1162 38.1803 35.4757 40.0239C31.4994 44.5002 31.7181 50.4217 35.8116 54.9761C37.4521 56.7963 39.5301 58.2259 41.2019 60.0226C42.7799 61.7178 44.2564 63.5693 45.4516 65.5457C46.5297 67.3269 46.0922 68.0534 44.1392 68.8502C41.9128 69.7564 39.6395 70.5454 37.4755 71.5688C34.382 73.0296 33.4133 75.4123 35.3585 78.1934C37.3896 81.0994 40.0379 83.6071 42.569 86.1382C45.3735 88.9427 45.8735 91.4659 44.1704 94.786V94.7939Z" fill="white"/>
</svg>
