<svg width="61" height="87" viewBox="0 0 61 87" fill="none" xmlns="http://www.w3.org/2000/svg">
<path d="M60.1373 80.3307C54.9423 79.6979 51.3097 82.6587 47.3412 84.8148C43.4352 86.9396 39.4824 86.2912 35.8185 84.1508C34.8655 83.5961 34.2171 82.2446 33.7874 81.1275C33.3031 79.8464 33.1078 78.4246 32.975 77.0497C32.0609 67.769 20.507 62.7381 12.945 66.5738C11.9841 67.0581 11.031 67.5581 10.0624 68.0112C6.28134 69.7845 3.11748 68.8549 0.68013 65.1441C1.16447 64.9801 1.60196 64.8317 2.03943 64.6911C3.89869 64.0817 5.82825 63.6364 7.59376 62.824C11.7107 60.9335 13.4371 55.2932 11.242 51.3091C10.8436 50.5904 10.4061 49.8951 9.99205 49.1842C8.71869 47.0125 8.5312 44.7861 9.61706 42.4815C10.1795 41.2785 10.7811 40.0911 11.242 38.849C12.1247 36.4585 11.7419 34.2399 10.0389 32.3025C8.46871 30.5214 6.49225 30.2011 4.33614 30.951C2.92998 31.4432 1.97692 30.8651 1.26603 29.787C0.234846 28.2012 -0.616651 26.3263 0.594209 24.6624C3.14092 21.1626 3.01593 17.5066 2.42222 13.4678C2.07068 11.1007 2.94561 8.53841 3.41433 6.09325C3.48464 5.71047 4.3674 5.12456 4.74238 5.21049C8.60932 6.07763 11.5779 3.96839 14.6793 2.32006C15.3433 1.96852 15.9136 1.44511 16.5385 1.01545C18.7024 -0.48445 20.757 -0.320397 22.7022 1.49199C24.6239 3.27312 25.7254 5.48392 26.3426 8.00719C26.7254 9.60084 27.3112 11.1398 27.7722 12.7178C29.483 18.5768 33.2718 22.6703 38.498 25.6389C41.2479 27.2013 43.443 29.3808 44.6773 32.365C46.2866 36.2632 46.5991 40.2317 44.8102 44.1377C42.1072 50.0279 42.1541 56.0119 43.943 62.0897C45.2398 66.4722 48.0365 69.7064 52.1378 71.5344C56.0126 73.2686 58.2155 76.2997 60.1529 80.3463L60.1373 80.3307Z" fill="white"/>
</svg>
