<svg width="35" height="30" viewBox="0 0 35 30" fill="none" xmlns="http://www.w3.org/2000/svg">
<path d="M7.84337 20.6549C7.68712 17.6004 5.64819 15.999 3.54676 14.421C3.04679 14.046 2.59369 13.5851 2.15621 13.132C-0.632672 10.2572 -0.710789 8.28072 1.89061 5.20279C3.35145 3.47634 4.88262 1.80457 6.47626 0C9.56982 3.64039 13.1633 3.03887 16.6865 2.90606C18.7333 2.82794 20.7957 2.96076 22.8424 3.13262C23.4596 3.1873 24.0298 3.67945 24.6235 4.46846C24.0298 4.64814 23.4517 4.92156 22.8424 4.98406C21.4597 5.13249 20.0691 5.15593 18.6864 5.28092C16.2959 5.49184 14.7023 6.77301 13.9523 9.03849C13.1633 11.4211 13.2805 13.6788 15.2413 15.5068C18.0224 18.1004 21.3659 19.2957 25.1391 18.9597C27.514 18.7488 29.631 19.2566 31.6934 20.3425C33.8573 21.4752 35.2088 24.4203 34.4042 26.7327C34.2245 27.2483 33.4667 27.8342 32.9121 27.9123C29.2248 28.4044 25.5219 28.9278 21.8112 29.0372C21.0066 29.0606 19.7332 27.5764 19.3895 26.5452C17.9365 22.147 16.3116 20.7877 11.6244 20.6627C10.4291 20.6315 9.24171 20.6627 7.84337 20.6627V20.6549Z" fill="white"/>
</svg>
