<svg width="18" height="60" viewBox="0 0 18 60" fill="none" xmlns="http://www.w3.org/2000/svg">
<path fill-rule="evenodd" clip-rule="evenodd" d="M1.37717 59.2697C1.25068 59.2352 1.12419 59.2007 1 59.1639V59.1547C1.06592 58.8333 1.14414 58.512 1.22242 58.1904C1.40634 57.4348 1.59059 56.6778 1.6164 55.9163C1.63687 55.1771 1.67534 54.4328 1.71386 53.6873C1.83116 51.4176 1.94903 49.137 1.5612 46.9555C0.6688 41.9139 1.9016 37.7463 5.3884 34.1675C6.9708 32.5483 7.9552 32.6311 10.0804 34.3055C6.8312 38.3967 5.91976 43.3116 5.00746 48.2311C4.5506 50.6947 4.09352 53.1595 3.34252 55.5225L1.45791 59.2917C1.43101 59.2844 1.40409 59.277 1.37717 59.2697Z" fill="white"/>
<path d="M1 59.1639H0.5V59.5372L0.857957 59.6433L1 59.1639ZM1.37717 59.2697L1.24561 59.7521L1.24563 59.7521L1.37717 59.2697ZM1 59.1547L0.510199 59.0542L0.5 59.1039V59.1547H1ZM1.22242 58.1904L0.736601 58.0721H0.736601L1.22242 58.1904ZM1.6164 55.9163L2.11612 55.9332L2.11621 55.9301L1.6164 55.9163ZM1.71386 53.6873L2.21319 53.7132L1.71386 53.6873ZM1.5612 46.9555L1.06885 47.0426L1.06892 47.043L1.5612 46.9555ZM5.3884 34.1675L5.03081 33.818L5.03027 33.8186L5.3884 34.1675ZM10.0804 34.3055L10.4719 34.6164L10.7841 34.2234L10.3898 33.9127L10.0804 34.3055ZM5.00746 48.2311L5.49908 48.3223L5.00746 48.2311ZM3.34252 55.5225L3.78974 55.7461L3.8072 55.7112L3.81904 55.674L3.34252 55.5225ZM1.45791 59.2917L1.32589 59.774L1.72163 59.8823L1.90513 59.5153L1.45791 59.2917ZM0.857957 59.6433C0.988261 59.6819 1.12005 59.7178 1.24561 59.7521L1.50872 58.7873C1.38131 58.7525 1.26012 58.7195 1.14204 58.6845L0.857957 59.6433ZM0.5 59.1547V59.1639H1.5V59.1547H0.5ZM0.736601 58.0721C0.658695 58.3922 0.578258 58.7224 0.510199 59.0542L1.4898 59.2552C1.55358 58.9442 1.62958 58.6318 1.70823 58.3086L0.736601 58.0721ZM1.11669 55.8993C1.09291 56.6006 0.922804 57.3071 0.736601 58.0721L1.70823 58.3086C1.88987 57.5624 2.08826 56.7549 2.11611 55.9332L1.11669 55.8993ZM1.21453 53.6615C1.17606 54.406 1.13726 55.1562 1.11659 55.9024L2.11621 55.9301C2.13649 55.1979 2.17462 54.4596 2.21319 53.7132L1.21453 53.6615ZM1.06892 47.043C1.445 49.1585 1.3324 51.3807 1.21453 53.6615L2.21319 53.7132C2.32993 51.4545 2.45305 49.1156 2.05348 46.868L1.06892 47.043ZM5.03027 33.8186C1.42671 37.5172 0.14953 41.8489 1.06885 47.0426L2.05355 46.8683C1.18807 41.9788 2.37649 37.9754 5.74653 34.5164L5.03027 33.8186ZM10.3898 33.9127C9.32964 33.0774 8.43781 32.5363 7.55028 32.5018C6.61934 32.4656 5.84566 32.9842 5.03081 33.818L5.74599 34.517C6.51354 33.7316 7.02326 33.482 7.51142 33.501C8.04299 33.5217 8.70596 33.8591 9.77097 34.6982L10.3898 33.9127ZM5.49908 48.3223C6.41504 43.383 7.3123 38.5949 10.4719 34.6164L9.68886 33.9945C6.3501 38.1985 5.42447 43.2402 4.51585 48.1399L5.49908 48.3223ZM3.81904 55.674C4.58106 53.2762 5.04322 50.7805 5.49908 48.3223L4.51585 48.1399C4.05798 50.609 3.60598 53.0427 2.86601 55.3711L3.81904 55.674ZM2.89531 55.2989L1.0107 59.0681L1.90513 59.5153L3.78974 55.7461L2.89531 55.2989ZM1.24563 59.7521C1.27256 59.7594 1.29926 59.7667 1.32589 59.774L1.58994 58.8095C1.56277 58.802 1.53562 58.7946 1.50871 58.7873L1.24563 59.7521Z" fill="white"/>
<path fill-rule="evenodd" clip-rule="evenodd" d="M14.0483 10.8164C10.6259 4.5052 11.8679 3.4932 15.0143 1C18.4834 4.0942 16.9029 6.44273 15.2404 8.91333C14.8218 9.53534 14.398 10.1651 14.0483 10.8164Z" fill="white"/>
<path d="M15.0143 1L15.3471 0.626863L15.0334 0.346977L14.7038 0.608116L15.0143 1ZM14.0483 10.8164L13.6088 11.0547L14.0505 11.8693L14.4888 11.0529L14.0483 10.8164ZM15.2404 8.91333L15.6552 9.19248H15.6552L15.2404 8.91333ZM14.7038 0.608116C13.9259 1.22454 13.225 1.78011 12.6884 2.35782C12.1422 2.94585 11.7399 3.58303 11.5781 4.37655C11.4177 5.16339 11.5048 6.04919 11.8353 7.1183C12.1651 8.18542 12.7468 9.46522 13.6088 11.0547L14.4879 10.578C13.6386 9.01197 13.0922 7.79857 12.7907 6.82301C12.4898 5.84944 12.4424 5.14306 12.5579 4.57635C12.6721 4.01632 12.9564 3.53857 13.4211 3.03841C13.8953 2.52794 14.5296 2.02206 15.3249 1.39188L14.7038 0.608116ZM15.6552 9.19248C16.4679 7.98479 17.3597 6.67797 17.5474 5.25594C17.7447 3.7609 17.1639 2.24731 15.3471 0.626863L14.6815 1.37314C16.3338 2.84689 16.6973 4.05467 16.556 5.12509C16.4051 6.26853 15.6754 7.37127 14.8256 8.63419L15.6552 9.19248ZM14.4888 11.0529C14.8247 10.4273 15.2341 9.8183 15.6552 9.19248L14.8256 8.63419C14.4096 9.25237 13.9713 9.90281 13.6078 10.5799L14.4888 11.0529Z" fill="white"/>
</svg>
