<svg width="90" height="97" viewBox="0 0 90 97" fill="none" xmlns="http://www.w3.org/2000/svg">
<path d="M86.4476 37.4113C90.9317 41.5283 90.3068 49.7231 85.682 53.051C84.2993 54.0431 83.1432 55.4883 82.2292 56.9492C80.5652 59.5974 80.0183 59.7771 77.8232 57.6835C75.7452 55.7071 74.0891 55.2071 72.4251 56.0742C70.0971 57.2773 68.7847 59.6287 69.4097 62.2379C70.183 65.4643 70.058 68.6672 69.4487 71.831C69.1675 73.2919 68.4644 74.909 67.4332 75.9401C65.6208 77.7525 63.5429 79.4009 61.3399 80.7055C58.3166 82.4866 55.9183 84.6974 54.0591 87.705C53.0826 89.283 51.3952 90.4548 49.9031 91.6501C49.4031 92.0485 48.5204 91.9704 47.4579 92.1735C47.6923 90.1736 47.8954 88.5097 48.0907 86.8457C48.5047 83.3303 46.0986 79.1899 42.8332 77.7681C40.1147 76.5885 36.9977 78.2134 36.5524 81.3148C36.1852 83.9318 36.0602 86.6192 36.2243 89.2596C36.5758 94.978 31.9745 96.9622 28.1545 96.142C23.975 95.2358 19.8034 94.189 15.749 92.8297C14.4288 92.3922 13.2101 90.9548 12.468 89.6658C11.2024 87.4785 9.54627 86.252 7.06987 86.0645C4.43722 85.8614 2.57797 84.6349 1.55459 82.1194C1.2343 81.3304 0.570276 80.6742 0 79.8618C3.10918 77.026 3.63258 73.2138 3.49197 69.3078C3.39822 66.722 4.44503 64.9252 6.35116 63.4722C7.40578 62.6676 8.57759 62.0192 9.62439 61.2067C11.2102 59.9724 12.7336 58.66 14.2804 57.371C16.0146 55.9258 17.6551 54.3478 19.491 53.0432C22.483 50.9183 23.4048 47.8638 23.022 44.5593C22.6939 41.7783 21.5689 39.0987 20.8502 36.3645C20.6549 35.6146 20.4284 34.7553 20.6003 34.0444C22.9517 24.5606 23.8266 15.1315 20.2331 5.71806C19.7566 4.46033 19.655 3.01512 19.6316 1.64802C19.6238 1.09337 20.1628 0.319973 20.6706 0.030929C20.9518 -0.133123 21.7877 0.390286 22.2017 0.780886C24.6469 3.1323 25.3109 6.01492 24.7016 9.29596C23.8735 13.7019 25.1859 15.4128 29.4747 16.4674C30.6152 16.7486 31.6777 18.022 32.4355 19.0844C34.5525 22.053 37.4273 23.7404 40.9505 23.5919C43.1848 23.4982 45.5284 22.7014 47.5439 21.6702C51.0827 19.8578 54.4887 19.6 58.0901 21.264C61.1055 22.6545 63.0897 24.8497 63.7225 28.1541C63.9256 29.2088 64.1366 30.2634 64.2616 31.3336C65.0506 37.8957 69.4487 39.8018 74.1672 40.5752C78.6981 41.3095 82.8463 40.4424 86.4632 37.427L86.4476 37.4113Z" fill="white"/>
</svg>
