<svg width="117" height="117" viewBox="0 0 117 117" fill="none" xmlns="http://www.w3.org/2000/svg">
<path d="M109.61 114.825C104.962 116.614 100.658 117.387 96.1969 115.028C90.3457 111.95 84.2602 111.13 77.8856 113.52C75.5498 114.395 73.3156 113.442 72.3782 111.169C72.0032 110.263 72.2375 108.653 72.8391 107.857C75.0889 104.911 74.7061 101.912 73.3625 98.8962C72.6516 97.3103 72.9719 96.201 73.7453 94.7324C74.589 93.1309 75.1124 91.2013 75.1592 89.3968C75.2295 86.6469 73.2219 84.9674 70.2533 85.0846C68.7768 85.1393 67.2769 85.608 65.8552 86.0923C62.2148 87.3422 61.2305 87.1469 58.6759 84.3346C58.3322 83.9596 58.0041 83.5768 57.676 83.194C54.3559 79.2334 49.9812 78.2491 45.3565 80.7411C42.3801 82.3504 39.3881 82.7644 36.2086 81.8504C32.9276 80.913 29.6622 79.8974 26.4358 78.7881C24.1938 78.0225 22.7173 76.6085 21.9049 74.1321C21.2955 72.2885 19.5612 70.8276 18.3582 69.1793C17.8895 68.5387 17.2333 67.8747 17.1239 67.1482C16.7255 64.539 16.5458 61.8907 16.2411 59.2659C15.999 57.1254 13.8038 55.3052 11.5305 55.4458C10.4759 55.5083 9.41346 55.813 8.3979 56.1333C5.49965 57.0473 2.24986 56.1333 0 53.5319C2.17174 50.7508 4.19504 47.7588 6.66363 45.1809C7.71044 44.0872 9.63219 43.6888 11.2258 43.2904C12.2883 43.0248 13.4913 43.3997 14.6241 43.3607C20.9752 43.1497 25.9358 39.4625 31.0449 36.3924C33.1463 35.1268 33.0057 31.8458 30.9355 30.0256C28.4279 27.8304 27.3967 25.4946 27.3498 22.1042C27.3186 20.1356 25.4203 18.1826 24.1781 15.878C24.9203 15.0031 25.8655 13.5579 27.1154 12.4642C31.5683 8.54258 36.1071 4.73031 40.6615 0.925863C41.0833 0.574323 41.802 0.441555 42.3879 0.425931C47.3017 0.300939 52.231 0.425922 57.1291 0.0743818C60.3008 -0.144354 63.0272 -0.0193773 65.5036 2.40234C66.5504 3.42571 68.4331 3.94914 69.9721 4.03507C72.4094 4.17569 74.878 3.77727 77.3388 3.58978C78.034 3.5351 78.7293 3.33977 79.409 3.41007C80.5964 3.53507 82.0182 3.49601 82.8619 4.1444C83.5259 4.64437 83.5649 6.08178 83.7134 7.12077C84.4711 12.4407 85.2055 17.7607 85.9007 23.0885C86.6429 28.8303 87.9084 30.0334 93.744 29.8459C96.6423 29.7522 99.5249 29.26 102.423 29.0022C103.806 28.8772 105.204 28.7913 106.587 28.846C111.594 29.0335 115.922 32.9317 116.696 37.8298C117.008 39.7984 115.735 40.9155 114.454 41.9155C113.313 42.806 112.344 41.8842 111.399 41.2358C108.376 39.15 105.462 39.1031 102.384 41.1108C101.431 41.7358 100.392 42.3139 99.6576 43.1498C96.6266 46.5949 92.5097 47.4854 88.299 48.1963C87.2366 48.376 86.1664 48.4775 85.1117 48.6963C80.0964 49.7431 77.9794 52.1413 77.5888 57.2816C77.0419 64.5624 78.1512 71.6792 80.0027 78.6787C81.3854 83.8893 85.2211 86.7954 90.338 87.5141C95.6814 88.2641 97.9234 91.2873 98.5718 96.2948C98.8765 98.654 99.6264 100.99 100.431 103.247C101.759 106.989 103.626 110.395 107.173 112.606C108.04 113.145 108.72 113.997 109.61 114.825Z" fill="white"/>
</svg>
