<svg width="33" height="32" viewBox="0 0 33 32" fill="none" xmlns="http://www.w3.org/2000/svg">
<path d="M16.9531 0L18.5371 0.190771C24.991 1.16052 30.319 6.07288 31.6608 12.2793L32.0175 14.6385C31.9913 15.2235 32.0502 15.8181 32.0175 16.4C31.2157 30.18 13.6051 36.2179 4.04872 25.8749C-4.86293 16.2314 1.88217 0.750367 15.0778 0H16.9531ZM17.0251 16.4095C19.6924 15.7036 20.8968 12.6863 19.316 10.4288C17.7451 8.18408 14.2858 8.18408 12.7149 10.4288C12.2175 11.141 11.4975 12.9788 12.5349 13.4971C13.1306 13.7959 13.8735 13.4716 14.0011 12.8325C14.1582 12.0504 14.1287 11.4844 14.9338 11.0043C17.3 9.59579 19.2571 13.0519 17.0611 14.2856C16.2626 14.7339 15.1237 14.3333 15.0157 15.5161C14.9698 16.0089 14.9567 17.163 15.0222 17.64C15.1204 18.3427 15.9648 18.6956 16.5768 18.3109C17.2378 17.8912 16.9531 17.0486 17.0251 16.4095ZM15.7488 19.9388C14.06 20.2217 14.3513 22.8194 16.1644 22.6509C17.9775 22.4824 17.7026 19.6113 15.7488 19.9388Z" fill="url(#paint0_linear_785_4722)"/>
<defs>
<linearGradient id="paint0_linear_785_4722" x1="0" y1="15.5428" x2="32.0277" y2="15.5428" gradientUnits="userSpaceOnUse">
<stop stop-color="#005DCA"/>
<stop offset="0.884615" stop-color="#003B8A"/>
<stop offset="0.980769" stop-color="#003B8A"/>
</linearGradient>
</defs>
</svg>
