<svg width="42" height="131" viewBox="0 0 42 131" fill="none" xmlns="http://www.w3.org/2000/svg">
<path d="M15.5417 2.37834C20.846 -1.14487 27.4472 -0.699591 31.4781 3.35484C34.0249 5.91717 34.353 8.9951 33.5874 12.3152C33.4311 12.987 33.1265 13.6276 32.9077 14.2838C31.5406 18.5023 32.8218 20.7443 37.1965 21.7599C37.6809 21.8693 38.1574 22.0021 38.8683 22.1896C37.5715 26.869 40.0245 30.8765 41.2432 35.0559C42.7274 40.1259 41.8994 44.7194 39.4855 49.1253C37.0325 53.6172 34.3452 57.9763 31.7281 62.3823C30.2517 64.8587 28.9939 67.3664 29.3845 70.3974C29.4392 70.8193 29.158 71.3427 28.9158 71.7489C26.5332 75.6002 25.9082 79.725 26.8769 84.1387C27.4237 86.6308 27.244 88.9431 25.666 91.1695C22.9474 95.0052 24.7911 101.458 29.1346 103.278C30.2517 103.747 31.7359 103.583 32.9937 103.388C35.2435 103.036 36.4309 104.2 35.7357 106.38C35.4466 107.278 35.0014 108.129 34.5717 108.973C32.5093 112.988 32.7749 116.832 35.1107 120.691C35.8138 121.855 36.2591 123.355 36.2669 124.706C36.2825 126.777 35.0951 128.362 32.978 128.816C29.8532 129.48 26.705 130.073 23.5333 130.48C21.9475 130.683 21.2913 129.706 21.6663 128.058C22.7053 123.464 21.6663 119.426 18.3774 115.98C17.9946 115.582 17.7525 114.871 17.7525 114.309C17.7681 109.996 17.5415 105.755 16.0963 101.591C15.5026 99.8721 15.7526 97.8332 15.7448 95.9427C15.7291 91.8648 14.9558 87.8651 12.7372 84.545C11.4247 82.5842 11.3388 81.1546 11.9716 79.1234C13.2137 75.1471 12.2294 71.6552 9.15145 68.7647C7.08127 66.8195 4.92515 64.929 3.08152 62.7807C1.25351 60.6402 1.45662 60.2653 4.04239 59.2028C5.79228 58.4763 7.58123 57.8357 9.33893 57.1326C13.1512 55.6093 14.487 52.7267 12.5184 49.1019C11.1201 46.5396 9.1202 44.2663 7.17501 42.0555C5.59699 40.2587 3.62836 38.8213 1.9644 37.0871C-1.47288 33.5014 0.0270282 28.3845 3.19089 26.0878C5.12045 24.6816 7.21406 23.4317 9.3858 22.4552C12.8621 20.8928 15.1979 18.1976 17.1041 15.1197C19.3383 11.5028 17.7993 7.90142 16.5338 4.37821C16.2838 3.68294 15.8698 3.05017 15.5417 2.40177V2.37834Z" fill="white"/>
</svg>
