<svg width="90" height="95" viewBox="0 0 90 95" fill="none" xmlns="http://www.w3.org/2000/svg">
<path d="M0 38.0889C6.84331 32.8627 10.0775 26.0741 10.6946 17.8012C10.9681 14.1217 13.4132 11.3563 15.5224 8.53618C15.7334 8.25495 16.6474 8.23932 17.0927 8.43462C20.0222 9.71579 23.0532 10.8563 25.7874 12.489C29.1935 14.5124 32.7557 15.0982 36.3336 13.8405C38.56 13.0593 40.5443 11.411 42.4192 9.88764C44.6925 8.03619 45.9189 7.70027 48.6219 8.90332C49.0828 9.10643 49.5359 9.33298 49.9968 9.54391C55.1215 11.9266 59.2697 10.1532 61.168 4.88794C61.6133 3.65364 62.121 2.01313 63.0975 1.4741C65.0896 0.372606 67.316 -0.361693 69.8159 0.185147C72.5969 0.802295 74.7843 1.90379 76.3936 4.43488C77.3232 5.90353 79.0575 6.84876 80.4011 8.06743C81.362 8.94237 82.6588 9.70796 83.1353 10.8173C85.2446 15.7466 87.2445 20.7307 89.0178 25.785C89.9865 28.5349 89.5177 29.0036 86.721 29.7614C85.9867 29.9567 85.2055 30.0426 84.5259 30.3629C80.5183 32.2612 76.3623 32.6987 71.9564 32.1987C68.4331 31.8003 65.9333 33.8939 65.5661 37.4249C65.4255 38.7999 66.0739 40.2998 66.5661 41.6747C66.8317 42.409 67.6051 42.948 68.0035 43.6511C69.1128 45.6431 68.5738 46.6509 66.7536 47.9243C64.2928 49.6585 61.9414 51.5959 59.7931 53.6973C58.2072 55.2441 58.3947 57.5408 59.8868 59.197C60.4258 59.7907 61.0821 60.4469 61.8086 60.689C64.7303 61.6265 66.2536 63.0717 65.7067 66.5793C65.3162 69.1026 68.105 71.6337 71.308 72.4383C72.9329 72.8446 74.6515 72.8992 76.6045 73.157C76.1358 73.8367 75.7295 74.4226 75.3233 75.0163C72.8625 78.6098 73.1828 82.4064 76.1436 85.5468C77.5263 87.0155 78.8309 88.5701 80.1511 90.1012C80.4324 90.4294 80.6277 90.8278 80.9245 91.2887C78.7762 92.9917 76.5967 94.4056 73.8469 94.7728C70.3471 95.2415 66.2145 92.3277 66.8317 88.2889C67.0035 87.1717 66.9957 86.0156 66.9567 84.8828C66.8707 82.3049 65.9411 80.1097 63.4413 79.0707C60.8321 77.9848 58.3478 78.4379 56.223 80.3909C55.9027 80.6878 55.6918 81.094 55.434 81.4534L54.9028 81.3049C54.8324 80.5472 54.7543 79.7894 54.684 79.0317C54.1919 73.4695 51.0358 70.3056 45.4346 70.3369C43.0363 70.3447 40.638 71.1728 38.2554 71.6884C36.5992 72.0477 34.99 72.6336 33.326 72.9148C31.8808 73.157 30.8652 72.4461 31.248 70.8681C31.6777 69.0557 32.0995 67.134 33.0448 65.5794C34.9743 62.4311 35.1306 59.4782 33.2401 56.3065C32.7792 55.541 32.5604 54.5332 32.5292 53.6192C32.3417 48.807 28.6857 46.1587 24.4203 48.2914C20.2018 50.4007 16.288 50.2913 12.0227 48.6586C6.64802 46.604 2.45297 43.3855 0.00781367 38.0889H0Z" fill="white"/>
</svg>
