<svg width="211" height="175" viewBox="0 0 211 175" fill="none" xmlns="http://www.w3.org/2000/svg">
<path d="M0 49.5715C2.32016 48.3685 4.38253 47.4076 6.34334 46.2671C8.85099 44.814 11.2337 43.1501 13.7647 41.7439C14.7256 41.2049 15.9365 40.9783 17.0536 40.8768C19.4362 40.6737 21.8658 40.8534 24.2094 40.494C26.7873 40.0956 29.0606 40.6268 31.3574 41.6814C35.1774 43.447 38.7163 46.0093 43.1379 46.1577C45.0206 46.2202 46.9345 46.2358 48.7938 45.9546C51.3873 45.564 53.1841 43.9703 54.5199 41.697C54.9965 40.8846 55.973 40.119 56.8714 39.8612C58.8947 39.2753 60.8867 39.6737 62.9725 40.244C67.8863 41.5877 73.1359 42.4548 77.5966 39.4238C80.5339 37.4239 83.2291 35.2443 86.5648 33.7679C89.6896 32.393 91.5566 29.565 91.4785 25.8465C91.4629 25.0262 91.541 24.206 91.5957 23.3857C91.8144 20.136 93.1425 17.5424 96.1267 16.0034C99.0952 14.4644 101.322 12.3708 102.493 9.08193C102.907 7.92575 104.306 7.07429 105.345 6.19153C107.306 4.52757 109.438 3.0589 111.298 1.29339C113.251 -0.550243 114.883 -0.534627 115.477 2.06677C116.719 7.53517 120.703 9.47254 125.39 10.8006C128.492 11.6755 131.578 12.5973 134.71 13.3473C137.866 14.0973 140.85 13.3864 143.686 11.8865C144.46 11.4802 145.303 11.1521 146.147 10.949C148.537 10.3787 150.662 10.6287 152.084 13.0036C152.498 13.6988 153.154 14.2457 153.693 14.8706C156.357 17.933 159.591 18.8235 163.435 17.433C164.443 17.0658 165.443 16.6284 166.489 16.4018C168.481 15.9722 169.247 16.7534 168.778 18.7454C168.614 19.4563 168.216 20.1594 167.763 20.7453C166.161 22.7998 165.896 24.9091 167.075 27.2917C168.161 29.4713 168.435 31.5415 166.849 33.8616C165.302 36.1271 164.911 38.8222 166.872 41.2908C169.013 43.986 171.567 45.7046 175.223 44.9078C175.536 44.8375 175.856 44.814 176.145 44.6969C181.731 42.322 187.019 43.4157 192.214 46.0093C196.237 48.017 200.393 48.4701 204.713 46.9545C206.018 46.5014 207.393 46.2436 208.869 45.8608C210.135 48.7044 210.518 51.6964 210.455 54.7119C210.244 64.3831 209.932 74.0387 208.612 83.6553C207.049 95.053 205.893 106.505 204.526 117.934C203.073 130.113 201.495 142.277 200.136 154.463C199.495 160.244 199.229 166.064 198.792 171.861C198.745 172.486 198.644 173.103 198.495 174.259C196.956 173.564 195.519 173.142 194.339 172.337C191.785 170.595 189.332 168.705 186.894 166.798C183.855 164.424 180.848 163.002 176.77 164.728C175.301 165.345 173.059 164.252 171.223 163.728C170.973 163.658 170.825 162.26 171.059 161.643C173.231 155.948 176.075 150.62 179.481 145.55C182.332 141.308 185.074 136.964 187.597 132.519C190.3 127.738 190.644 122.504 189.363 117.247C189.05 115.958 188.035 114.606 186.957 113.794C184.215 111.732 181.145 110.263 177.661 109.755C175.731 109.474 173.817 108.99 171.927 108.482C169.489 107.833 167.521 106.529 165.864 104.521C159.826 97.1857 146.92 96.7169 140.327 103.467C139.663 104.146 138.96 104.787 138.272 105.443C134.616 108.935 130.812 109.419 126.359 106.974C125.914 106.732 125.437 106.513 125.07 106.185C121.492 102.951 117.258 103.115 113.079 104.24C111.243 104.732 109.337 105.935 108.04 107.341C103.9 111.849 99.0406 113.927 92.9394 112.864C92.3144 112.755 91.6738 112.786 91.0567 112.661C86.8616 111.794 83.19 112.825 79.4949 115.005C74.9952 117.661 70.019 118.856 64.7537 117.309C64.0896 117.114 63.4334 116.864 62.8007 116.591C58.6603 114.786 57.1526 111.904 58.4338 107.599C59.4962 104.021 58.5822 100.975 56.4729 98.1622C54.5043 95.5374 51.8873 94.0765 48.4969 94.1468C46.7939 94.1859 45.0674 94.2172 43.3878 93.9828C40.1459 93.5297 39.3022 91.8814 40.5287 88.905C41.0286 87.6785 41.677 86.413 41.7473 85.1396C41.8489 83.4288 42.0208 81.3274 41.1849 80.0228C37.9663 75.0153 33.7947 71.2264 27.2639 71.2655C24.0453 71.2889 20.8033 71.3202 17.6161 70.953C13.2804 70.453 9.31971 68.8203 5.85118 66.0861C3.64038 64.3441 2.61702 62.063 2.64046 59.321C2.6639 55.9149 2.39047 52.6104 0 49.595V49.5715Z" fill="white"/>
</svg>
