<svg width="74" height="82" viewBox="0 0 74 82" fill="none" xmlns="http://www.w3.org/2000/svg">
<path d="M61.1447 68.0882C60.5431 67.971 60.0354 67.9398 59.5823 67.7601C55.9419 66.3461 52.4968 67.2367 49.0986 68.6272C47.2159 69.4006 45.9894 70.7365 45.4972 72.7363C45.3332 73.4082 45.1457 74.08 44.9035 74.7362C43.8802 77.486 42.099 78.2594 39.3726 77.1345C38.4352 76.7517 37.5446 76.2673 36.6072 75.9002C33.2793 74.5956 30.342 75.2128 27.6546 77.5876C26.2094 78.8688 24.7095 80.314 22.9674 80.978C20.452 81.9389 17.8271 81.6967 15.3273 80.1968C12.3197 78.3844 9.14021 76.8533 5.84354 75.1034C6.90597 73.7832 8.01528 72.088 9.42925 70.7052C13.4993 66.7289 16.0929 61.8308 18.4287 56.7686C18.9443 55.6515 19.2177 54.3469 19.2567 53.1126C19.4364 47.4411 16.5069 44.8241 10.851 45.5115C9.60111 45.66 8.36681 45.9802 7.13252 46.2224C5.19514 46.613 3.61712 46.1677 2.64843 44.3007C1.81255 42.6836 0.578251 41.129 0.242335 39.4103C-0.554489 35.3793 0.609501 34.4575 3.7968 35.1919C6.9919 35.9262 10.1714 36.7777 13.2806 37.8089C21.4675 40.5118 29.7014 41.1446 38.0915 38.8244C43.6302 37.2933 46.3956 33.5982 46.669 27.9502C46.794 25.3019 46.9737 22.638 46.88 19.9897C46.6456 13.5448 49.2548 8.34984 53.5748 3.82669C54.5748 2.77989 55.5279 1.6784 56.5825 0.67846C56.9418 0.334732 57.5199 0.100381 58.0277 0.0535094C59.0276 -0.0402346 60.051 0.0144504 61.0587 0.0300744C64.3242 0.0847584 64.5742 0.365989 65.5585 3.37361C65.9178 4.46729 66.6521 5.49846 67.4333 6.36559C68.1911 7.20929 68.4958 7.90456 68.0974 9.05292C66.9412 12.3965 67.0115 15.7634 68.3161 19.0757C69.7066 22.6067 71.0425 26.1534 72.5189 29.6453C73.9407 32.9967 74.1204 36.1527 72.0815 39.3869C70.2613 42.2617 68.6208 45.2615 67.113 48.316C66.0584 50.4565 65.2069 52.7298 64.5429 55.0187C63.4492 58.7763 62.5821 62.6042 61.6134 66.393C61.4806 66.9242 61.3322 67.4554 61.1603 68.0882H61.1447Z" fill="white"/>
</svg>
