<svg width="75" height="79" viewBox="0 0 75 79" fill="none" xmlns="http://www.w3.org/2000/svg">
<path d="M73.1465 36.9507C74.2167 38.6538 74.4042 40.1693 73.4824 41.8645C71.7091 45.1377 70.0139 48.4578 68.3421 51.7935C67.6 53.27 66.5454 54.1528 64.8736 54.3793C63.194 54.6059 61.5379 55.0277 59.8505 55.2699C58.2256 55.5043 57.3506 54.6527 57.1241 53.0825C56.9444 51.8326 56.8272 50.5749 56.6632 49.3171C56.132 45.2471 51.5073 41.3489 47.4294 41.5364C43.5156 41.7161 41.547 44.3643 42.6719 48.0907C43.2422 49.9577 43.9531 51.7935 44.7655 53.5669C46.906 58.2384 45.8514 61.2773 41.3595 64.1131C39.5549 65.2536 37.6097 66.316 35.5864 66.9254C30.4461 68.4643 26.6339 71.7454 23.2122 75.6514C22.2669 76.7295 21.2436 77.745 20.2593 78.7918C20.0327 78.7528 19.814 78.7215 19.5874 78.6824C19.5874 76.1592 19.5718 73.6437 19.5953 71.1204C19.6031 70.0502 19.7984 68.9721 19.7515 67.9019C19.5796 64.1443 16.447 61.9726 12.9785 63.4647C9.75994 64.8474 6.49452 64.3709 3.26816 64.1131C0.674581 63.9099 -0.270664 62.5272 0.0652522 59.9258C0.283988 58.1916 0.838638 56.4807 1.39329 54.809C4.23686 46.2861 3.6744 37.5991 2.58072 28.9122C2.38542 27.342 1.33861 25.8968 0.799582 24.3578C0.612094 23.811 0.51053 22.8579 0.815197 22.5767C4.49465 19.1941 4.60402 14.7725 4.51809 10.2962C4.48684 8.84318 4.37748 7.38234 4.14312 5.95274C3.90094 4.52314 4.56495 3.92943 5.768 3.41384C7.721 2.57014 9.57245 1.46865 11.5333 0.648385C12.5019 0.242161 13.6269 0.203112 14.6893 0C14.8221 1.11712 14.9627 2.23423 15.0877 3.34353C15.0877 3.39822 15.0487 3.4607 15.0252 3.5232C13.6034 7.09328 12.9785 10.4993 15.9705 13.7569C19.4937 17.5926 23.3372 20.6002 28.9072 19.9128C31.7273 19.569 33.3756 17.6004 34.1881 15.0537C34.7427 13.3195 34.813 11.4446 35.313 9.68687C35.5473 8.87443 36.1176 7.9526 36.8129 7.52294C39.2971 5.98397 42.6485 6.58551 44.7186 8.95254C47.7106 12.3742 50.6089 15.874 53.4759 19.405C54.3352 20.4596 54.9992 21.7799 53.5462 22.897C48.6871 26.6545 51.7651 32.662 55.8664 34.2947C57.6787 35.0134 59.5302 35.6774 61.2254 36.6148C62.4128 37.2789 63.3659 38.3725 64.4283 39.2631C67.5375 41.8567 69.4202 41.6458 71.8575 38.4585C72.2325 37.9663 72.6543 37.5132 73.1465 36.9429V36.9507Z" fill="white"/>
</svg>
