<svg width="131" height="90" viewBox="0 0 131 90" fill="none" xmlns="http://www.w3.org/2000/svg">
<path d="M23.228 9.80494C24.2123 10.5705 25.2123 11.3127 26.181 12.1017C30.0635 15.2421 38.1177 16.1717 42.5471 12.8438C45.625 10.5315 49.5779 9.17218 53.7651 9.30499C57.4602 9.42217 60.8741 8.18005 64.1004 6.5161C70.5141 3.21162 77.2558 2.57886 84.3647 3.30538C90.3096 3.91471 96.3014 4.7662 102.309 3.60221C105.199 3.03975 108.121 2.63352 111.011 2.08668C111.996 1.89919 113.058 1.70391 113.886 1.19613C116.91 -0.66313 119.894 -0.170975 122.714 1.41486C125.237 2.82883 127.612 4.53185 129.948 6.25049C130.424 6.60203 130.776 7.60197 130.666 8.21131C130.088 11.2346 128.909 14.0312 126.784 16.3201C125.065 18.1716 123.339 20.0309 121.48 21.7339C119.48 23.5619 117.113 24.6556 114.308 24.8118C106.379 25.2493 100.973 29.5537 97.5982 36.4361C95.864 39.9749 93.661 42.9903 90.8331 45.6933C89.3175 47.1463 88.1223 49.0056 87.0364 50.8258C83.7632 56.3332 80.1306 61.3876 73.9279 63.989C69.2016 65.9654 64.5535 68.0903 60.5303 71.4026C59.671 72.1135 58.343 72.3634 57.1868 72.59C52.5465 73.504 49.0389 75.9335 46.8984 80.1676C45.5078 82.9175 42.9767 83.7846 40.2816 84.3783C38.9926 84.6596 37.649 84.6986 36.3287 84.8392C32.704 85.222 29.3214 86.136 26.22 88.2531C23.0171 90.4482 19.322 89.8623 15.7441 89.3467C15.252 89.2764 14.6739 88.8311 14.4005 88.3937C12.5412 85.3861 9.58045 84.0346 6.44784 82.9018C6.03381 82.7534 5.60416 82.6362 5.19012 82.48C3.39336 81.8316 1.62784 81.2301 1.83095 78.7068C1.89344 77.949 1.49504 77.0897 1.12787 76.3632C-0.926682 72.3556 -0.00485952 68.8559 2.52623 65.3561C4.71359 62.3328 5.51042 58.7003 5.90102 55.013C5.97133 54.3255 5.94787 53.6225 6.02599 52.935C6.2291 51.1539 7.22123 49.9664 9.03361 50.3024C12.9162 51.0132 15.416 49.2087 17.5175 46.2792C18.9783 44.2481 21.2672 43.6075 23.5483 42.9981C27.8215 41.8498 31.0634 38.1 31.3916 34.0143C31.6181 31.202 30.6026 29.1475 28.0168 27.8116C23.9389 25.7102 24.1342 25.6711 24.6654 21.0073C24.8842 19.0934 24.2983 17.0623 23.9233 15.1171C23.5952 13.4219 23.0483 11.7658 22.6031 10.0862C22.814 9.99244 23.0249 9.89869 23.2358 9.80494H23.228Z" fill="white"/>
</svg>
