<svg width="91" height="87" viewBox="0 0 91 87" fill="none" xmlns="http://www.w3.org/2000/svg">
<path d="M79.6856 86.4557C73.2797 86.8775 70.1237 84.7526 67.8191 79.0655C67.0067 77.0578 65.8193 75.1126 64.4287 73.4487C61.4914 69.9254 57.601 69.0036 53.281 70.3864C50.7812 71.191 48.3438 71.066 46.0471 70.1286C43.2582 68.988 40.4928 67.6756 37.9461 66.0663C33.4151 63.1993 28.7357 60.8011 23.4079 59.848C16.5255 58.6137 10.2994 56.1451 5.51063 50.747C4.27633 49.3564 2.68268 48.2784 1.37027 46.9504C-0.598356 44.9661 -0.129636 42.5913 0.815616 40.3961C1.62806 38.529 3.42482 38.0681 5.40126 37.99C7.66674 37.904 9.95566 37.7634 12.1665 37.3103C14.8772 36.7479 15.76 35.4511 15.6428 32.7169C15.4631 28.4593 14.2601 24.4049 11.9321 20.9051C9.97909 17.9678 10.5025 15.3508 11.6821 12.5072C14.8069 4.9296 21.0721 1.77354 28.6263 0.492375C30.6106 0.156459 32.6573 -0.0622651 34.6572 0.0158549C35.3837 0.0471029 36.3212 0.968913 36.7352 1.71887C40.7974 9.06996 47.4298 12.5541 55.2965 14.1712C58.5151 14.8352 61.5305 14.054 64.4678 12.6088C67.2801 11.2261 68.0145 11.8198 68.2801 14.8508C68.405 16.2492 68.8816 17.6944 69.5378 18.9443C70.5065 20.7723 70.5534 22.366 69.3737 24.0768C67.8348 26.311 66.9442 28.7875 66.8973 31.5295C66.8348 35.248 68.7019 37.3963 72.397 37.201C74.6781 37.0838 76.9123 36.1698 79.1778 35.7011C81.1933 35.2792 83.2322 34.709 85.2633 34.6855C88.3022 34.6543 89.9818 36.4276 90.3411 39.4586C90.4583 40.4664 90.3646 41.5367 90.6927 42.4663C91.5989 45.0364 90.2552 46.5754 88.3647 47.7863C86.6226 48.9034 84.8024 49.9658 82.8963 50.7548C80.1699 51.8797 78.8497 53.7155 78.7638 56.6841C78.6778 59.5823 79.5684 62.1134 80.8339 64.6445C82.037 67.0662 83.0213 69.6051 83.9119 72.1675C84.1462 72.8393 83.9587 74.1283 83.4744 74.5111C80.8105 76.6281 80.2637 79.5342 80.0137 82.6199C79.9121 83.8699 79.7871 85.1276 79.67 86.4713L79.6856 86.4557Z" fill="white"/>
</svg>
