<svg width="134" height="134" viewBox="0 0 134 134" fill="none" xmlns="http://www.w3.org/2000/svg">
<path d="M60.2518 133.727C56.3236 133.489 52.8291 133.293 49.3444 133.066C46.4055 132.866 46.4592 132.764 45.8668 130.104C45.4494 128.221 44.6467 126.413 44.0364 124.572C43.6746 123.475 43.0676 122.363 43.0786 121.266C43.1404 116.713 40.8913 113.246 37.6428 110.169C36.9226 109.487 36.2711 108.718 35.6846 107.923C33.2508 104.625 29.5573 103.131 25.4789 104.192C23.1576 104.795 20.9038 105.726 18.7551 106.754C15.136 108.482 12.7655 107.804 11.3186 104.19C10.5954 102.38 10.3094 100.423 9.70006 98.5661C8.35947 94.5074 7.15733 90.3895 5.50867 86.44C2.97453 80.3466 4.62278 75.0105 8.18261 69.9406C8.46006 69.5514 9.63446 69.2843 10.0648 69.5134C11.3862 70.225 12.4691 71.3358 13.7988 72.0404C14.8978 72.6258 16.4503 73.4492 17.3443 73.0974C18.4733 72.6621 19.6698 71.2459 19.8913 70.0789C20.5576 66.6757 20.0646 63.2925 18.149 60.214C15.5027 55.971 12.3341 52.2301 7.79008 49.5863C5.79771 48.4279 4.12258 46.7475 2.35706 45.2495C0.221492 43.4434 -0.152228 41.2328 0.908384 38.7858C1.46999 37.5041 2.08556 36.2482 2.66115 34.9974C8.82627 36.6793 13.1231 34.6315 14.1674 29.5746C14.8512 26.2777 14.4425 23.0726 12.2671 20.3543C10.4158 18.0466 8.33407 15.8753 6.13963 13.8626C3.68217 11.6084 3.49936 10.5673 6.0034 8.38828C8.32266 6.37851 10.8577 4.7352 13.9101 3.71723C16.404 2.88344 18.7276 1.58821 21.0475 0.352901C22.3593 -0.349528 22.9557 0.543743 23.6488 1.14966C27.3327 4.37291 28.3537 8.60016 28.3913 13.0836C28.4201 17.5815 26.3778 21.4351 23.627 24.9375C21.2882 27.9235 18.9318 30.9385 18.1836 34.645C17.4917 38.0767 16.9691 41.5939 16.9718 45.0827C16.9873 49.6701 20.1348 52.7104 25.0597 54.4375C34.0167 57.5668 42.8774 56.3972 51.7309 54.4301C54.3121 53.8572 56.5638 52.4373 58.1354 50.3296C62.2627 44.7979 66.5337 39.3802 69.2534 32.9887C70.2519 30.6508 72.0694 28.5429 73.8895 26.6533C75.7436 24.7281 77.3144 24.7255 79.7779 25.9651C81.8793 27.0248 84.0699 27.6613 86.1022 26.198C87.1889 25.4143 88.1277 24.193 88.6061 22.9739C89.0378 21.8723 89.5332 21.4211 90.6293 21.6605C93.1271 22.2028 95.661 22.6722 98.081 23.4505C102.423 24.8489 103.825 28.4151 104.698 32.2048C105.508 35.7275 104.378 38.9222 102.638 41.9821C100.853 45.1145 101.301 48.1942 103.095 51.1901C103.499 51.8612 104.055 52.5039 104.683 52.9931C106.13 54.1184 107.683 54.032 108.981 52.7649C109.739 52.0364 110.258 51.0754 111.06 50.4022C111.578 49.9675 112.782 49.484 113.015 49.6936C113.602 50.2179 113.953 51.0964 114.128 51.8814C114.227 52.3385 113.835 52.9162 113.606 53.4137C113.196 54.2985 112.746 55.1735 112.32 56.05C110.47 59.8701 110.764 62.7525 113.193 64.5464C117.301 67.5773 120.947 67.7682 124.557 65.0021C125.789 64.0617 126.782 62.8513 127.887 61.7679C129.068 60.6139 130.256 59.4604 131.437 58.3064C131.696 58.3522 131.955 58.3905 132.214 58.4362C132.508 60.7849 133.064 63.1343 133.025 65.4778C132.993 67.3179 132.028 68.9737 129.892 69.6562C129.301 69.846 128.687 70.1622 128.25 70.5717C124.591 73.9965 120.25 76.5228 115.965 79.1503C113.304 80.786 111.961 83.306 111.869 86.3982C111.832 87.6666 111.643 88.9408 111.409 90.1898C111.081 91.9293 110.159 93.2794 108.587 94.3345C105.909 96.127 104.238 98.5595 104.012 101.771C103.734 105.702 103.471 109.641 103.115 113.559C103.06 114.195 102.7 115.03 102.188 115.36C98.2849 117.853 94.1455 119.79 89.3349 120.235C87.2446 120.431 85.1503 120.823 83.1264 121.362C77.6358 122.819 72.2781 121.427 66.9917 120.429C61.5881 119.403 58.7858 121.398 59.4201 126.64C59.5735 127.904 59.9184 129.151 60.0718 130.416C60.2058 131.477 60.1883 132.551 60.243 133.742L60.2518 133.727Z" fill="#7A1F7E"/>
</svg>
