<svg width="127" height="44" viewBox="0 0 127 44" fill="none" xmlns="http://www.w3.org/2000/svg">
<path d="M0.00779579 37.7054C1.82799 36.0415 3.18729 34.276 4.97624 33.2604C9.49158 30.6902 11.5305 26.6592 12.7179 21.8783C13.4913 18.7691 14.5772 15.7303 15.5068 12.6602C15.8505 11.5196 16.499 11.2071 17.7489 11.3009C25.8577 11.9415 33.8104 11.3009 41.1849 7.48079C45.0831 5.4653 48.9031 5.02781 52.981 6.95738C55.9964 8.37916 59.0275 8.04325 61.8398 6.23087C63.4803 5.16844 65.0427 3.97321 66.6911 2.91859C68.0113 2.07489 69.3628 1.21557 70.7924 0.598423C72.7922 -0.260897 74.7374 -0.253094 76.7373 1.00464C80.4246 3.3248 84.5727 3.85602 88.5881 2.37174C92.5644 0.903082 95.5955 1.89522 98.4078 4.62942C102.892 8.98851 107.345 13.3867 111.852 17.7223C116.172 21.8861 120.547 26.0031 124.89 30.1434C125.297 30.534 125.703 30.9168 126.187 31.3855C124.859 33.1823 123.5 34.6119 121.039 34.7212C117.508 34.8775 113.993 35.3774 110.462 35.5571C109.509 35.604 108.446 35.1665 107.571 34.6978C104.407 33.0026 101.384 31.034 98.1578 29.495C95.2596 28.1123 92.2441 28.5029 89.3849 29.9793C88.6662 30.3543 87.885 30.6902 87.0882 30.8387C83.6978 31.4714 80.2996 32.4245 76.8857 32.5104C71.222 32.6433 65.5271 32.3933 59.879 31.9402C52.9263 31.3777 46.2549 32.0339 39.9584 35.1743C36.2946 37.0024 32.5135 38.1976 28.3341 38.1976C24.1547 38.1976 20.3737 39.9865 16.9833 42.1036C12.9601 44.619 9.3041 44.1581 5.5934 42.0176C3.75758 40.9552 2.18736 39.4241 0 37.721L0.00779579 37.7054Z" fill="white"/>
</svg>
