<svg width="48" height="39" viewBox="0 0 48 39" fill="none" xmlns="http://www.w3.org/2000/svg">
<path d="M20.6875 38.6694C17.7189 34.0603 13.3442 32.3964 8.07109 32.701C5.50094 32.8494 3.18858 32.2636 1.13403 30.6855C0.165339 29.9434 -0.365878 28.9435 0.29033 27.8966C0.751238 27.1701 1.65743 26.4671 2.4855 26.2952C4.14165 25.9437 5.89935 26.0999 7.5633 25.7874C10.5865 25.2249 11.7896 22.8657 10.8131 19.9362C10.5709 19.2175 10.649 18.3973 10.5787 17.6161C10.4069 15.6084 10.2819 13.6007 10.0475 11.6008C9.93816 10.6634 9.57099 9.76499 9.43819 8.82755C9.03197 6.02304 9.50068 5.83555 12.2896 6.11679C18.7188 6.78081 25.1325 7.91356 31.5618 5.44497C35.5303 3.92163 40.0222 3.88255 43.8032 1.61707C44.7094 1.07023 45.6703 0.609336 46.7952 0C47.2639 4.40597 47.967 8.6557 46.9514 12.8898C46.3733 15.3037 44.6235 16.9442 42.2955 17.7801C38.4988 19.1472 34.6163 20.3034 30.8431 21.7486C24.1091 24.3188 22.6405 26.5764 22.617 33.8572C22.6118 36.2789 21.9686 37.8778 20.6875 38.6538V38.6694Z" fill="white"/>
</svg>
