<svg width="82" height="105" viewBox="0 0 82 105" fill="none" xmlns="http://www.w3.org/2000/svg">
<path d="M0 91.6269C2.57796 89.6193 4.51534 87.7756 6.74957 86.4398C10.8899 83.9712 11.8118 80.0105 8.86663 76.0655C8.56196 75.6592 8.03074 75.3233 7.94481 74.8858C7.76513 74.0343 7.53859 72.9953 7.86669 72.2922C8.15574 71.6829 9.28848 70.972 9.89 71.097C16.1474 72.386 21.733 69.9174 27.4201 68.105C30.8418 67.0192 32.1855 65.0193 31.1465 61.5664C29.5294 56.1995 27.4983 50.9498 25.3812 45.7549C24.7094 44.1065 24.975 43.3644 26.3655 42.6066C28.756 41.3099 31.0918 39.9193 33.4979 38.6538C36.943 36.8336 39.9115 34.4978 41.4583 30.8418C42.8098 27.6389 45.294 26.0296 48.3719 24.8422C49.8484 24.2719 51.0749 23.0923 52.4967 22.3423C53.4419 21.8424 54.52 21.3971 55.559 21.3736C55.9027 21.3658 56.4339 22.6939 56.6136 23.4673C57.1682 25.8655 58.3947 26.9201 60.8633 26.9045C64.8631 26.8733 69.0816 23.4204 69.6362 19.28C70.6908 11.4289 75.6749 6.00743 81.0652 0C81.2292 1.3046 81.5261 2.12487 81.3855 2.85919C81.0574 4.53096 80.6355 6.19492 80.0418 7.78856C78.3075 12.4289 76.9482 17.1473 76.4951 22.1002C76.2608 24.6391 75.1359 26.4983 73.011 28.0685C65.9802 33.2713 62.2929 40.1771 62.8241 49.1218C62.871 49.9655 62.3789 51.1608 61.7305 51.6764C59.5665 53.3872 57.1682 54.7934 54.9653 56.4651C53.5357 57.551 52.1217 58.7618 51.0046 60.1602C48.7938 62.91 46.7002 65.7692 44.755 68.7065C43.6301 70.4017 42.3958 72.261 42.0442 74.1984C40.7005 81.6354 37.193 87.7756 31.998 93.1581C30.5449 94.6658 29.6075 96.7047 28.5997 98.5952C26.1077 103.259 21.858 105.415 16.538 104.689C14.7881 104.446 12.9914 104.564 11.2493 104.298C8.41354 103.868 7.42922 102.462 7.75733 99.6186C8.06981 96.8844 6.84332 95.0408 3.82007 93.6268C2.71858 93.1112 1.66396 92.5097 0 91.6348V91.6269Z" fill="white"/>
</svg>
