<svg width="105" height="90" viewBox="0 0 105 90" fill="none" xmlns="http://www.w3.org/2000/svg">
<path d="M27.6701 89.2101C24.7484 89.2335 24.2406 88.6086 25.3343 85.7259C28.3419 77.7811 24.5453 70.3441 16.0927 67.7505C11.7571 66.4225 7.4839 68.0552 3.33573 69.4848C2.32017 69.8363 1.25773 70.0629 0 70.4144C0.11718 68.0083 1.1718 66.5865 2.42953 65.2194C4.21848 63.2821 6.25742 61.4931 6.23398 58.4699C6.23398 58.1027 7.14017 57.5949 7.71826 57.384C12.5773 55.6029 17.6942 54.3061 21.6158 50.6735C23.8735 48.5799 25.7718 46.0957 27.9435 43.9005C30.8652 40.9554 33.7635 37.9478 36.943 35.2839C39.5365 33.1121 42.7707 32.1044 46.1298 31.4716C53.0903 30.1514 58.4181 26.7453 60.9492 19.7224C61.871 17.1756 63.1835 14.7696 64.3474 12.3166C65.5974 9.6605 67.6675 8.03561 70.6049 7.68407C73.0266 7.39502 75.0655 6.4029 76.8388 4.75457C77.7138 3.93431 78.7059 3.23904 79.6121 2.45784C82.94 -0.401355 86.7054 -0.416979 90.6895 0.653265C92.2597 1.07511 93.8846 1.53602 95.4939 1.57508C99.7592 1.68445 103.517 5.16079 104.415 9.30896C104.86 11.387 104.29 13.0822 102.782 14.4493C95.7283 20.8629 88.4709 26.9485 78.8543 29.2139C72.8078 30.6357 68.9175 34.4558 66.7223 40.1586C65.902 42.2834 64.988 44.3692 64.3006 46.5331C63.4725 49.1502 61.8476 50.9547 59.2853 51.8219C53.4028 53.7983 49.0281 57.7902 45.3643 62.5399C40.8099 68.438 36.4039 74.4532 32.1698 80.5856C30.3965 83.148 29.2403 86.14 27.6623 89.2179L27.6701 89.2101Z" fill="white"/>
</svg>
