<svg width="138" height="65" viewBox="0 0 138 65" fill="none" xmlns="http://www.w3.org/2000/svg">
<path d="M137.066 56.9406C134.902 58.2062 132.754 59.4873 130.575 60.7216C129.473 61.3465 128.27 61.7919 127.208 62.4637C124.716 64.0261 122.403 65.0885 119.567 62.8387C118.442 61.9481 116.583 61.9403 115.029 61.659C111.545 61.0263 108.771 59.3467 106.842 56.3625C105.248 53.8939 102.764 52.9174 100.123 52.0893C99.0219 51.7456 98.0532 51.0113 96.9907 50.5426C95.3346 49.8082 93.6785 48.6599 91.9676 48.5661C89.0459 48.4021 86.0852 48.9021 83.1401 49.1286C81.3433 49.2692 79.5153 49.691 77.7576 49.4957C73.3672 49.0036 69.0081 48.2224 64.6256 47.5818C60.7274 47.0115 57.3136 45.4179 54.7278 42.4571C50.0094 37.059 43.8769 35.9263 37.1821 36.356C35.9321 36.4341 34.6588 36.6685 33.4636 37.0278C30.2684 37.9965 29.0732 39.598 28.8701 42.9337C28.7139 45.4648 28.2529 45.9647 25.7922 46.4256C20.8003 47.3475 15.9959 46.4335 11.1993 45.1132C8.2386 44.3008 5.21536 43.6758 1.83276 42.879C1.76245 41.8478 1.58278 40.3323 1.58278 38.8246C1.58278 37.0356 2.27023 35.5591 3.7467 34.4108C5.86375 32.7703 5.94187 30.4657 5.19192 28.2002C4.34041 25.6301 3.20767 23.1537 2.16868 20.646C1.59059 19.2477 0.754705 17.9275 0.379729 16.49C-0.503027 13.1074 0.0359993 12.1388 3.24673 10.8576C7.96518 8.97493 11.2775 5.24859 14.9179 1.95192C15.3866 1.53007 15.7303 0.959812 16.2303 0.60046C17.9802 -0.657272 20.0191 0.139548 20.3784 2.2566C20.5269 3.11592 20.5581 4.05336 20.3784 4.89706C18.8942 11.9435 25.7219 18.0759 33.4167 15.7479C35.7681 15.037 38.0023 13.6308 40.0334 12.1856C43.1895 9.93577 46.1112 10.3029 48.2595 13.5684C51.5015 18.5055 53.9622 19.3883 59.7822 18.0759C61.3915 17.7087 63.1492 17.8181 64.8209 17.9275C67.1489 18.0837 69.4613 18.5212 71.7814 18.7009C75.2499 18.9665 76.453 19.9117 77.2811 23.2396C77.5232 24.2161 77.7576 25.216 78.1404 26.1457C79.3356 29.0517 81.8198 30.1532 84.765 29.1533C88.0226 28.044 88.6631 28.3643 89.7725 31.5907C90.1006 32.5437 90.413 33.5124 90.8505 34.4264C92.1786 37.2075 94.6237 38.4887 97.6626 38.0902C102.373 37.4731 104.748 38.8167 106.607 43.1524C109.092 48.9567 114.029 52.0034 120.271 50.8628C124.169 50.1441 127.551 51.0191 130.879 52.5893C133.035 53.6049 134.988 55.0266 137.035 56.2687L137.082 56.964L137.066 56.9406Z" fill="white"/>
</svg>
