<svg width="49" height="65" viewBox="0 0 49 65" fill="none" xmlns="http://www.w3.org/2000/svg">
<path d="M4.28579 0.0156154C6.03567 0.968679 7.96524 1.85926 9.69951 3.03887C10.7307 3.74195 11.6369 4.78875 12.2853 5.87462C13.1212 7.27296 13.5508 8.91349 14.332 10.3509C15.621 12.7257 17.1912 13.2257 19.8707 12.882C21.1519 12.7179 22.8393 12.7804 23.7767 13.4835C27.2687 16.1162 30.042 19.3503 30.4638 24.0219C30.5966 25.5296 30.87 27.0295 31.1434 28.5216C31.8465 32.3495 34.1745 34.6775 37.9165 35.6071C39.2679 35.943 40.6506 36.1383 42.0021 36.4352C44.1817 36.9195 46.0097 37.9507 47.2362 39.8959C48.4392 41.8098 48.8298 43.7941 47.4549 45.7549C45.0254 49.2234 45.5488 52.6372 47.4315 56.1058C49.3142 59.5821 48.8376 60.707 45.2597 62.371C43.9239 62.996 42.7755 64.0272 41.9006 64.6209C38.5336 62.8788 35.2604 61.0352 31.8543 59.4806C29.417 58.3713 27.05 58.8087 25.0266 60.7461C22.6831 62.996 20.1598 62.4804 18.988 59.3712C17.4334 55.2387 17.6209 50.903 18.1677 46.622C18.2693 45.8096 19.2614 44.9737 20.027 44.4034C24.1048 41.388 24.4407 35.9039 20.5191 32.7166C16.4569 29.42 11.551 27.8576 6.59814 26.5217C5.79351 26.303 4.85607 26.6545 3.97331 26.6389C2.70777 26.6155 1.44222 26.4983 0.176677 26.4202C0.121993 26.2171 0.0673042 26.0061 0.0126202 25.803C0.36416 25.4359 0.692269 25.0453 1.06725 24.7015C2.91088 22.9751 3.80925 20.7955 4.15298 18.3504C4.46546 16.1161 3.48896 14.46 1.90312 13.007C-0.338921 10.9446 -0.502972 9.51501 0.903188 6.81987C2.12186 4.4919 3.2468 2.10924 4.2936 0L4.28579 0.0156154Z" fill="white"/>
</svg>
