<svg width="65" height="97" viewBox="0 0 65 97" fill="none" xmlns="http://www.w3.org/2000/svg">
<path d="M45.3191 0.00781963C47.358 2.64046 48.0611 5.52309 48.1471 8.52289C48.2642 12.6945 48.4205 16.8896 48.0767 21.0299C47.8346 23.9438 46.8034 26.803 46.1237 29.6856C45.7019 31.4667 45.0379 33.2244 44.9207 35.0212C44.6317 39.5756 47.0612 42.4817 51.6 42.8254C55.3419 43.1066 59.162 43.716 62.7946 41.9426C63.9351 41.3802 64.6304 41.9505 64.6148 43.2238C64.5757 45.8174 64.5523 48.411 64.396 50.9968C64.3648 51.5202 63.857 52.067 63.4586 52.4967C58.9042 57.3323 54.2795 62.1445 51.8656 68.5112C51.2016 70.269 50.8188 72.1438 50.4203 73.9875C49.8032 76.8389 47.6471 78.8153 44.7332 78.9715C44.6473 78.7137 44.4988 78.4403 44.4598 78.1513C44.1707 76.003 43.3661 74.1828 41.0694 73.6125C38.6789 73.0188 36.4837 73.4172 34.5073 75.0811C33.3824 76.0264 32.1012 76.8857 30.7497 77.4326C27.1562 78.8856 24.2111 80.9089 22.6487 84.6508C21.3441 87.7678 18.8364 89.7364 15.9069 91.2988C12.9618 92.8769 10.1261 94.6737 7.21218 96.3142C6.81377 96.5407 6.17319 96.611 5.75134 96.4548C3.15776 95.5095 1.64222 93.3612 0.298558 91.1426C-0.0686057 90.5333 -0.0607947 89.5177 0.126693 88.7756C1.57191 83.2134 2.77497 77.5575 4.73578 72.1751C6.14194 68.3003 8.88395 64.9333 10.5323 61.1289C14.0399 53.0279 17.3834 44.8487 20.4535 36.568C21.5316 33.6619 21.5863 30.3887 22.1175 27.2795C22.43 25.4281 22.719 23.5688 23.133 21.7408C23.219 21.358 23.7892 21.0221 24.2111 20.7956C26.9922 19.3113 28.2655 17.1005 28.2577 13.8741C28.2265 6.23398 28.5233 5.85901 35.7416 3.17949C38.8742 2.0155 42.0849 1.06243 45.3191 0V0.00781963Z" fill="white"/>
</svg>
