<svg width="154" height="160" viewBox="0 0 154 160" fill="none" xmlns="http://www.w3.org/2000/svg">
<path d="M140.418 90.8566C139.262 92.6456 137.567 93.6611 135.02 93.333C131.677 92.9034 128.513 93.5049 125.56 95.3329C124.622 95.9188 123.271 96.1063 122.13 96.0594C118.068 95.8797 114.873 97.3718 112.397 100.559C110.092 103.52 106.874 104.942 103.319 105.614C98.6866 106.496 94.4602 108.066 91.1323 111.621C90.1636 112.66 88.7887 113.324 87.5857 114.136C85.8202 115.324 83.914 115.55 81.9923 114.652C79.3596 113.426 77.016 114.043 74.5787 115.293C73.2272 115.988 71.6492 116.378 70.1337 116.589C65.9933 117.152 61.9311 117.769 58.111 119.73C56.5564 120.527 54.5565 120.417 52.7598 120.769C51.463 121.019 50.1584 121.292 48.8928 121.659C46.5336 122.339 45.0103 123.855 44.2681 126.253C43.4713 128.846 42.3776 129.542 39.6981 129.628C37.8076 129.69 35.8858 129.69 34.0344 129.995C29.0113 130.831 25.3943 133.987 22.207 137.666C20.6134 139.502 20.3165 141.705 20.8868 144.095C22.0977 149.197 19.6056 154.821 15.1059 157.337C14.895 157.454 14.6528 157.54 14.4107 157.595C12.0905 158.11 9.76251 158.618 7.23142 159.165C7.1533 158.399 7.0283 157.376 6.95799 156.345C5.70807 137.291 4.59877 118.222 3.15355 99.1842C2.49734 90.4973 1.30993 81.8416 0.0912612 73.2093C-0.189971 71.2329 0.184995 69.9517 1.13025 68.2487C3.76289 63.499 7.24705 59.4993 10.8718 55.5386C12.0749 54.2183 12.9186 52.4997 13.6841 50.8514C16.6215 44.4846 21.2227 40.4692 28.4801 40.1333C31.5268 39.9927 34.1516 38.8053 36.4249 36.9148C41.8151 32.4463 46.5024 27.4544 47.7835 20.1893C47.9866 19.0175 48.51 18.4941 49.7756 18.4237C52.4238 18.2831 55.0643 17.7832 57.7126 17.7519C60.7905 17.7129 63.2357 16.6504 65.0715 14.1897C65.923 13.0491 66.9229 12.6351 68.4463 12.6741C72.4616 12.7835 76.3833 12.1351 80.0549 10.3383C84.4062 8.20565 88.9059 7.69789 93.7025 8.67439C99.9599 9.94774 106.116 9.11965 111.858 6.40889C116.381 4.2684 120.982 3.40129 125.966 3.37785C128.497 3.36223 131.153 2.38571 133.528 1.33109C139.137 -1.16875 146.246 -0.11413 150.629 4.21372C153.136 6.69012 153.8 9.51026 152.285 12.6897C151.066 15.2521 149.261 17.5566 148.207 20.1737C146.301 24.8765 143.988 29.1574 140.239 32.7353C138.176 34.704 138.192 37.6882 138.825 40.4536C139.137 41.8051 139.59 43.1253 140.082 44.4299C141.567 48.3828 141.496 52.3044 140.239 56.3198C138.895 60.5929 137.481 64.8739 136.637 69.2564C135.661 74.3342 136.161 79.4902 137.653 84.4586C138.301 86.6069 139.426 88.6068 140.426 90.8644L140.418 90.8566Z" fill="white"/>
</svg>
