<svg width="176" height="74" viewBox="0 0 176 74" fill="none" xmlns="http://www.w3.org/2000/svg">
<path d="M168.218 17.9849C168.205 13.3789 168.174 8.77294 168.146 4.16694C168.143 3.47911 167.706 3.15976 167.032 3.32558C165.946 3.59272 164.863 3.8568 163.782 4.14544C160.201 5.09735 156.622 6.06461 153.04 7.01652C149.886 7.85481 146.727 8.67468 143.57 9.50683C143.083 9.6358 142.856 9.8968 142.85 10.2898C142.844 10.6768 143.052 11.1312 143.514 11.2725L153.776 11.3216C148.235 18.6912 135.602 35.4877 134.805 36.5809C134.432 37.0876 134.023 37.1398 133.628 36.5379C133.203 35.8931 132.71 35.2912 132.275 34.6525C129.894 31.1427 127.523 27.6268 125.152 24.114C122.166 19.6922 119.121 15.3104 116.228 10.8334C114.946 8.85278 112.053 7.79032 109.645 7.8978H85.6178C77.2498 7.8978 74.1149 15.1016 69.6577 21.0894C68.0034 23.3125 66.4173 25.5848 64.8095 27.8387C63.18 30.1233 61.5535 32.4109 59.9364 34.7047C58.7663 36.3659 57.6365 38.0548 56.4539 39.7068C55.591 40.9105 54.7126 42.0989 53.8342 43.2903C52.9589 42.4029 52.0837 41.5124 51.2053 40.625C50.3207 39.7345 50.2462 39.0712 51.4691 38.4233C52.1675 38.0548 52.8006 37.5451 53.4028 37.0292C57.8693 33.2247 59.266 28.3147 58.7849 22.6677C58.4776 19.0412 57.0995 15.9276 54.5264 13.3759C50.7273 9.60816 45.8387 8.23864 40.6925 8.08204C33.0601 7.84867 25.4184 7.96842 17.7798 8.0544C16.9883 8.06361 15.9268 8.66546 15.4643 9.31952C13.6702 11.862 12.0593 14.5335 10.3988 17.1681C9.97355 17.8406 9.6104 18.553 9.0548 19.5418C10.0232 19.6093 10.585 19.683 11.1468 19.683C20.6539 19.6892 30.1611 19.683 39.6713 19.6953C40.7359 19.6953 41.813 19.7229 42.8683 19.8673C45.1993 20.1835 46.9033 21.8417 47.2944 24.0556C47.6451 26.0485 46.6209 28.0813 44.4295 28.9902C43.1011 29.5429 41.5585 29.8162 40.109 29.8285C30.3877 29.8961 20.6664 29.8561 10.9451 29.8623C9.14482 29.8623 8.75063 30.2154 8.74442 31.9749C8.72579 38.2544 8.75994 44.5339 8.72269 50.8134C8.71648 52.0816 9.18517 52.6804 10.4826 52.6712C13.1519 52.6528 15.8243 52.6558 18.4937 52.662C19.6731 52.662 20.2411 52.1707 20.2132 50.9332C20.1635 48.4552 20.2535 45.971 20.179 43.493C20.1387 42.0897 20.595 41.494 22.1003 41.5185C26.1571 41.5892 30.22 41.4909 34.2768 41.5922C35.0776 41.6137 36.046 42.0405 36.6202 42.5994C39.6248 45.5227 42.4834 48.5933 45.5035 51.5013C46.1491 52.1246 47.2385 52.5821 48.1386 52.6098C50.122 52.6681 52.1054 52.6251 54.0856 52.5637C57.6023 52.5484 60.8955 52.5944 64.4588 52.5637C64.4588 52.5637 83.5599 52.6896 93.0981 52.6128C95.4074 52.5944 97.7198 52.6313 100.029 52.6374C100.454 52.6374 100.901 52.6374 101.271 52.4317C102.798 51.5965 101.118 49.9598 100.523 49.143C100.01 48.4429 99.4983 47.7458 98.9861 47.0519C97.9463 45.6424 96.8972 44.233 95.8512 42.8266C94.9542 41.6199 93.8927 40.8737 92.1887 40.9013C87.1418 40.9904 82.0887 40.9259 77.0387 40.9197C75.8779 40.9197 74.717 40.9197 73.3141 40.9197C73.5624 40.4315 73.6462 40.2012 73.7859 40.0108C75.7506 37.3117 77.7712 34.6525 79.677 31.9135C81.6014 29.1468 83.4451 26.331 85.3229 23.5367C86.0927 24.811 86.9369 26.0454 87.8091 27.2491C91.3817 32.1776 95.0039 37.0691 98.623 41.9638C100.914 45.059 102.667 47.6875 105.029 50.7305C106.308 52.3795 108.931 52.6374 108.931 52.6374H121.259C122.697 52.6528 124.494 52.2321 123.345 50.5494C121.924 48.4705 120.456 46.4224 119.003 44.365C115.104 38.8501 111.218 33.3291 107.304 27.8234C105.371 25.1058 103.434 22.3883 101.444 19.7107C103.909 19.7843 105.461 20.1805 107.109 22.4957C110.557 27.3382 113.978 32.2021 117.473 37.0139C119.953 40.4284 122.485 43.8062 125.031 47.1747C126.53 49.1553 127.961 51.0468 130.348 52.0233C133.777 53.4266 137.44 52.4747 140.103 50.0366C141.711 48.5657 142.828 46.7141 144.088 44.9638C145.435 43.0907 146.838 41.2606 148.189 39.3875C149.002 38.2606 156.417 28.1765 161.877 20.7547C162.777 22.2654 163.674 23.7762 164.577 25.2808C165.272 26.4385 165.977 27.5869 166.688 28.7353C166.927 29.1222 167.265 29.2574 167.631 29.153C167.994 29.0516 168.193 28.7599 168.208 28.3024C168.212 28.198 168.208 28.0905 168.208 27.9861C168.212 24.6514 168.227 21.3166 168.215 17.9819L168.218 17.9849Z" fill="white"/>
<path d="M83.9696 55.6775H8.09881V57.2927H83.9696V55.6775Z" fill="#FFEE3B"/>
<path d="M124.205 55.6775H83.8982V57.2927H124.205V55.6775Z" fill="#001BDB"/>
<path d="M164.44 55.6775H124.134V57.2927H164.44V55.6775Z" fill="#D02E26"/>
<path d="M12.0097 61.0173C12.826 61.0173 13.4716 61.22 13.9527 61.6223C14.4338 62.0245 14.6728 62.568 14.6728 63.2528C14.6728 63.7994 14.5238 64.2507 14.2289 64.6039C13.9341 64.957 13.5275 65.2026 13.0122 65.3408L15.1228 68.5466H13.7044L11.7676 65.5343H10.1287V68.5466H8.90581V61.0173H12.0097ZM11.9197 64.521C12.9036 64.521 13.3971 64.1095 13.3971 63.2896C13.3971 62.4698 12.9036 62.0583 11.9197 62.0583H10.1318V64.524H11.9197V64.521Z" fill="white"/>
<path d="M18.4347 68.6633C18.0591 68.6633 17.7115 68.5957 17.3918 68.4576C17.0721 68.3194 16.8176 68.1014 16.6251 67.7943C16.4327 67.4903 16.3365 67.0942 16.3365 66.6059V62.8413H17.5718V66.2989C17.5718 66.8148 17.6804 67.171 17.9008 67.3644C18.1212 67.5579 18.4316 67.6561 18.8413 67.6561C19.102 67.6561 19.3472 67.5978 19.58 67.478C19.8097 67.3613 19.9959 67.174 20.1387 66.9192C20.2815 66.6643 20.3529 66.3357 20.3529 65.9335V62.8413H21.5882V68.5466H20.505L20.446 67.6223C20.2473 67.9816 19.9773 68.2426 19.639 68.4084C19.3007 68.5742 18.9003 68.6602 18.4409 68.6602L18.4347 68.6633Z" fill="white"/>
<path d="M27.1783 62.8442V63.8023H25.1949V66.8361C25.1949 67.1094 25.2725 67.3151 25.4246 67.4471C25.5798 67.5792 25.7784 67.6467 26.0236 67.6467C26.2378 67.6467 26.4209 67.6129 26.5699 67.5485C26.7189 67.484 26.8617 67.3949 26.992 67.2813L27.2683 68.1718C27.0913 68.3253 26.8741 68.4451 26.6165 68.5311C26.3588 68.6171 26.0733 68.6631 25.7567 68.6631C25.2508 68.6631 24.8224 68.5403 24.4779 68.2916C24.1334 68.0428 23.9595 67.6283 23.9595 67.0418V63.8023H22.8515V62.8442H23.9595V61.5085L25.1949 61.1646V62.8411H27.1783V62.8442Z" fill="white"/>
<path d="M31.7689 64.8863C31.7689 64.5056 31.6633 64.2108 31.4523 64.002C31.2412 63.7932 30.9495 63.6888 30.5801 63.6888C30.2356 63.6888 29.9345 63.7686 29.6862 63.9283C29.4348 64.088 29.2578 64.3459 29.1492 64.7052L28.1125 64.2722C28.2584 63.8085 28.544 63.437 28.9723 63.1545C29.4006 62.872 29.95 62.7307 30.6267 62.7307C31.0798 62.7307 31.4864 62.8044 31.8434 62.9518C32.2003 63.0992 32.4828 63.3234 32.6845 63.6243C32.8894 63.9252 32.9887 64.3029 32.9887 64.7604V67.306C32.9887 67.5885 33.1315 67.7298 33.417 67.7298C33.5567 67.7298 33.6902 67.7113 33.8205 67.6714L33.7522 68.5159C33.5753 68.5988 33.3518 68.6417 33.0818 68.6417C32.7745 68.6417 32.5076 68.5742 32.2872 68.436C32.0637 68.2978 31.9148 68.0952 31.8372 67.8188C31.654 68.1013 31.3871 68.3101 31.0426 68.4514C30.698 68.5926 30.3504 68.6632 30.0059 68.6632C29.4596 68.6632 29.0064 68.5343 28.6464 68.2763C28.2863 68.0184 28.1032 67.6284 28.1032 67.1126C28.1032 66.6949 28.2429 66.348 28.5253 66.0747C28.8078 65.8014 29.2051 65.611 29.7203 65.5035L31.772 65.1043V64.8863H31.7689ZM29.3448 67.0204C29.3448 67.2323 29.4286 67.4043 29.5931 67.5271C29.7576 67.653 29.9779 67.7144 30.2573 67.7144C30.518 67.7144 30.7663 67.6714 30.996 67.5885C31.2257 67.5056 31.4119 67.3674 31.5547 67.177C31.6975 66.9867 31.7689 66.741 31.7689 66.4339V65.9549L30.3163 66.2528C29.9842 66.3142 29.7421 66.4002 29.5838 66.5138C29.4255 66.6274 29.3479 66.7963 29.3479 67.0143L29.3448 67.0204Z" fill="white"/>
<path d="M40.7514 68.6632C40.2734 68.6632 39.8451 68.5466 39.4602 68.3101C39.0754 68.0737 38.7712 67.7359 38.5446 67.2937C38.318 66.8515 38.2032 66.3234 38.2032 65.7062C38.2032 65.089 38.3211 64.527 38.5601 64.0849C38.7991 63.6427 39.1188 63.308 39.5161 63.0746C39.9165 62.8413 40.3541 62.7276 40.8321 62.7276C41.2481 62.7276 41.6112 62.8259 41.9216 63.0193C42.232 63.2128 42.4648 63.4707 42.62 63.7901V60.2742H43.8553V68.5465H42.7596L42.6914 67.4626C42.5362 67.8434 42.2847 68.1382 41.9309 68.347C41.5771 68.5558 41.186 68.6602 40.7545 68.6602L40.7514 68.6632ZM41.0184 67.6806C41.5026 67.6806 41.8906 67.4995 42.1823 67.134C42.4741 66.7686 42.62 66.2681 42.62 65.6263C42.62 65.0337 42.4772 64.567 42.1885 64.2292C41.8999 63.8914 41.5243 63.7225 41.0649 63.7225C40.5497 63.7225 40.1493 63.8976 39.8668 64.2476C39.5813 64.5977 39.4385 65.0798 39.4385 65.697C39.4385 66.3142 39.5782 66.7993 39.8544 67.1525C40.1307 67.5056 40.5187 67.6837 41.0184 67.6837V67.6806Z" fill="white"/>
<path d="M48.3063 68.6632C47.7289 68.6632 47.223 68.5466 46.7885 68.3101C46.3539 68.0737 46.0125 67.7328 45.7673 67.2876C45.5221 66.8423 45.3979 66.3111 45.3979 65.697C45.3979 65.0828 45.519 64.5516 45.7611 64.1064C46.0032 63.6611 46.3384 63.3203 46.7636 63.0838C47.1889 62.8474 47.6793 62.7307 48.2349 62.7307C48.7905 62.7307 49.2716 62.8443 49.6657 63.0746C50.0568 63.3019 50.3579 63.6151 50.5659 64.0112C50.7738 64.4073 50.8763 64.8556 50.8763 65.3561C50.8763 65.5005 50.8731 65.6325 50.8638 65.7553C50.8576 65.8781 50.8452 65.9795 50.8297 66.0624H46.6084C46.6612 66.5936 46.8381 66.9989 47.133 67.2784C47.4279 67.5578 47.8127 67.696 48.2814 67.696C48.6663 67.696 48.9767 67.6223 49.2157 67.478C49.4547 67.3336 49.6409 67.131 49.7806 66.873L50.7614 67.3306C50.5628 67.7482 50.2431 68.0767 49.8085 68.3132C49.374 68.5496 48.8712 68.6663 48.3031 68.6663L48.3063 68.6632ZM48.2131 63.701C47.791 63.701 47.4434 63.8239 47.1702 64.0665C46.8971 64.309 46.7233 64.6652 46.6457 65.1289H49.6782C49.6471 64.6714 49.5012 64.3213 49.2405 64.0726C48.9798 63.8269 48.6384 63.701 48.2131 63.701Z" fill="white"/>
<path d="M59.1263 64.9077C59.1263 64.5792 59.0332 64.3243 58.8439 64.1431C58.6545 63.9619 58.4062 63.8698 58.0989 63.8698C57.8134 63.8698 57.5651 63.9435 57.3478 64.0878C57.1336 64.2322 56.9753 64.4717 56.876 64.8064L55.5258 64.3949C55.6562 63.8913 55.9418 63.4891 56.3856 63.1851C56.8264 62.8811 57.4223 62.7275 58.1672 62.7275C58.9122 62.7275 59.5298 62.9056 59.9954 63.2588C60.461 63.6119 60.6938 64.14 60.6938 64.8402V67.1554C60.6938 67.4441 60.8334 67.5884 61.1097 67.5884C61.24 67.5884 61.3642 67.57 61.479 67.5301L61.3859 68.5004C61.1873 68.5987 60.9359 68.6478 60.6348 68.6478C60.3058 68.6478 60.0171 68.5802 59.775 68.442C59.5329 68.3039 59.3684 68.0981 59.2846 67.8248C59.1015 68.0981 58.8377 68.3069 58.4931 68.4482C58.1517 68.5894 57.7979 68.6601 57.4378 68.6601C56.8543 68.6601 56.3887 68.528 56.0473 68.267C55.7059 68.006 55.5351 67.6222 55.5351 67.1217C55.5351 66.6948 55.6748 66.3479 55.9511 66.0776C56.2273 65.8074 56.6246 65.6232 57.1398 65.5249L59.1232 65.1257V64.9077H59.1263ZM57.1181 66.9743C57.1181 67.1647 57.1895 67.309 57.3323 67.4072C57.4751 67.5055 57.6458 67.5546 57.8444 67.5546C58.0679 67.5546 58.2759 67.5208 58.4683 67.4533C58.6607 67.3857 58.819 67.2691 58.9401 67.1063C59.0642 66.9436 59.1232 66.7225 59.1232 66.4492V66.0961L57.9127 66.3356C57.652 66.3878 57.4533 66.4584 57.3199 66.5474C57.1864 66.6365 57.1181 66.7777 57.1181 66.9743Z" fill="white"/>
<path d="M66.1131 62.8442V64.008H64.2663V66.6887C64.2663 66.962 64.3377 67.1616 64.4805 67.2875C64.6233 67.4134 64.8157 67.4748 65.064 67.4748C65.2627 67.4748 65.4334 67.4472 65.5761 67.3888C65.7189 67.3305 65.8462 67.2537 65.961 67.1555L66.2155 68.1933C66.0231 68.3377 65.7903 68.4513 65.5172 68.5373C65.244 68.6232 64.9554 68.6632 64.645 68.6632C64.0677 68.6632 63.5959 68.5311 63.2327 68.2701C62.8665 68.0091 62.6833 67.5639 62.6833 66.9405V64.008H61.6218V62.8442H62.6833V61.5331L64.2632 61.1001V62.8473H66.11L66.1131 62.8442Z" fill="white"/>
<path d="M69.8626 68.6631C68.9563 68.6631 68.2299 68.4021 67.6837 67.8801C67.1374 67.3581 66.8643 66.6304 66.8643 65.6938C66.8643 65.0705 66.9884 64.5392 67.2336 64.0971C67.4788 63.6549 67.8233 63.3171 68.2672 63.0807C68.7079 62.8442 69.2139 62.7275 69.785 62.7275C70.3561 62.7275 70.8651 62.8442 71.2717 63.0745C71.6783 63.3079 71.9918 63.6211 72.206 64.0203C72.4202 64.4195 72.5288 64.8739 72.5288 65.3837C72.5288 65.5372 72.5257 65.6815 72.5164 65.8166C72.5102 65.9548 72.4978 66.0746 72.4822 66.182H68.41C68.4721 66.6242 68.6272 66.9528 68.8756 67.1677C69.1239 67.3857 69.4498 67.4932 69.8502 67.4932C70.1885 67.4932 70.4616 67.4287 70.6696 67.2998C70.8775 67.1708 71.0389 66.9927 71.1538 66.7624L72.4109 67.2414C72.2277 67.6897 71.9049 68.0398 71.4424 68.2854C70.98 68.5311 70.4554 68.657 69.8626 68.657V68.6631ZM69.7695 63.8821C69.0245 63.8821 68.5745 64.2905 68.4193 65.1042H71.0141C70.9676 64.7081 70.8403 64.4072 70.6292 64.1984C70.4182 63.9896 70.1326 63.8852 69.7695 63.8852V63.8821Z" fill="white"/>
<path d="M73.8635 68.5495V62.8442H75.2819L75.3409 63.9159C75.5178 63.5198 75.7785 63.225 76.12 63.0254C76.4614 62.8289 76.8556 62.7275 77.3025 62.7275C77.9016 62.7275 78.3982 62.8995 78.7893 63.2465C79.1804 63.5935 79.379 64.1124 79.379 64.8033V68.5465H77.7992V65.2486C77.7992 64.7634 77.6998 64.4256 77.5043 64.2383C77.3088 64.051 77.0604 63.9589 76.7594 63.9589C76.5452 63.9589 76.3341 64.0111 76.1293 64.1124C75.9244 64.2137 75.7599 64.3796 75.6327 64.6099C75.5054 64.8371 75.4433 65.1411 75.4433 65.5218V68.5465H73.8635V68.5495Z" fill="white"/>
<path d="M83.622 62.7307C84.3918 62.7307 84.9877 62.8935 85.416 63.222C85.8444 63.5506 86.1268 63.9436 86.2634 64.4104L84.786 64.9355C84.6308 64.2446 84.2521 63.8976 83.6437 63.8976C83.2061 63.8976 82.8647 64.0511 82.6226 64.3551C82.3805 64.6591 82.2594 65.1136 82.2594 65.7123C82.2594 66.3111 82.3836 66.7717 82.635 67.0634C82.8833 67.3551 83.2247 67.5025 83.6562 67.5025C84.3235 67.5025 84.7239 67.1648 84.8542 66.4861L86.2851 66.9437C86.1548 67.4534 85.863 67.8679 85.4129 68.1873C84.9629 68.5066 84.3794 68.6663 83.6655 68.6663C83.0664 68.6663 82.5419 68.5496 82.0918 68.3132C81.6417 68.0767 81.2941 67.739 81.0489 67.2968C80.8037 66.8546 80.6796 66.3234 80.6796 65.7001C80.6796 65.0767 80.8037 64.5455 81.0551 64.1033C81.3034 63.6611 81.6511 63.3234 82.0918 63.0869C82.5326 62.8505 83.0447 62.7338 83.6189 62.7338L83.622 62.7307Z" fill="white"/>
<path d="M88.3057 62.0213C87.6508 62.0213 87.3249 61.745 87.3249 61.1892C87.3249 60.6334 87.6508 60.3447 88.3057 60.3447C88.9607 60.3447 89.2866 60.6272 89.2866 61.1892C89.2866 61.7511 88.9607 62.0213 88.3057 62.0213ZM89.0879 62.8442V68.5495H87.508V62.8442H89.0879Z" fill="white"/>
<path d="M93.3899 62.7307C93.9672 62.7307 94.4762 62.8473 94.9232 63.0838C95.3701 63.3202 95.7178 63.658 95.9661 64.1002C96.2144 64.5423 96.3416 65.0736 96.3416 65.6969C96.3416 66.3203 96.2175 66.8546 95.9661 67.2937C95.7147 67.7358 95.367 68.0736 94.9232 68.3101C94.4762 68.5465 93.9672 68.6632 93.3899 68.6632C92.8125 68.6632 92.2911 68.5465 91.8503 68.3101C91.4096 68.0736 91.062 67.7358 90.8137 67.2937C90.5622 66.8515 90.4381 66.3203 90.4381 65.6969C90.4381 65.0736 90.5622 64.5423 90.8137 64.1002C91.062 63.658 91.4096 63.3202 91.8503 63.0838C92.2911 62.8473 92.8063 62.7307 93.3899 62.7307ZM93.3899 63.8944C92.9584 63.8944 92.6232 64.0449 92.3811 64.3458C92.139 64.6468 92.018 65.0981 92.018 65.6969C92.018 66.2957 92.139 66.7502 92.3811 67.048C92.6232 67.3489 92.9584 67.4994 93.3899 67.4994C93.8213 67.4994 94.1441 67.3489 94.3862 67.048C94.6283 66.7471 94.7494 66.2957 94.7494 65.6969C94.7494 65.0981 94.6283 64.6468 94.3862 64.3458C94.1441 64.0449 93.812 63.8944 93.3899 63.8944ZM93.4271 60.0837H94.9511L93.7965 62.0244H92.6325L93.4271 60.0837Z" fill="white"/>
<path d="M97.6701 68.5495V62.8442H99.0886L99.1475 63.9159C99.3245 63.5198 99.5852 63.225 99.9266 63.0254C100.268 62.8289 100.662 62.7275 101.109 62.7275C101.708 62.7275 102.205 62.8995 102.596 63.2465C102.987 63.5935 103.186 64.1124 103.186 64.8033V68.5465H101.606V65.2486C101.606 64.7634 101.506 64.4256 101.311 64.2383C101.115 64.051 100.867 63.9589 100.566 63.9589C100.352 63.9589 100.141 64.0111 99.939 64.1124C99.7342 64.2137 99.5697 64.3796 99.4424 64.6099C99.3151 64.8371 99.2531 65.1411 99.2531 65.5218V68.5465H97.6732L97.6701 68.5495Z" fill="white"/>
<path d="M111.625 64.9077C111.625 64.5792 111.532 64.3243 111.343 64.1431C111.153 63.9619 110.905 63.8698 110.598 63.8698C110.312 63.8698 110.064 63.9435 109.847 64.0878C109.632 64.2322 109.474 64.4717 109.375 64.8064L108.025 64.3949C108.155 63.8913 108.44 63.4891 108.884 63.1851C109.325 62.8811 109.921 62.7275 110.666 62.7275C111.411 62.7275 112.029 62.9056 112.494 63.2588C112.96 63.6119 113.193 64.14 113.193 64.8402V67.1554C113.193 67.4441 113.332 67.5884 113.608 67.5884C113.739 67.5884 113.863 67.57 113.978 67.5301L113.885 68.5004C113.686 68.5987 113.435 68.6478 113.134 68.6478C112.801 68.6478 112.516 68.5802 112.274 68.442C112.032 68.3039 111.867 68.0981 111.783 67.8248C111.6 68.0981 111.336 68.3069 110.992 68.4482C110.65 68.5894 110.297 68.6601 109.937 68.6601C109.353 68.6601 108.887 68.528 108.546 68.267C108.205 68.006 108.034 67.6222 108.034 67.1217C108.034 66.6948 108.174 66.3479 108.45 66.0776C108.726 65.8074 109.123 65.6232 109.639 65.5249L111.622 65.1257V64.9077H111.625ZM109.62 66.9743C109.62 67.1647 109.691 67.309 109.834 67.4072C109.977 67.5055 110.148 67.5546 110.346 67.5546C110.57 67.5546 110.778 67.5208 110.97 67.4533C111.163 67.3857 111.321 67.2691 111.442 67.1063C111.566 66.9436 111.625 66.7225 111.625 66.4492V66.0961L110.415 66.3356C110.154 66.3878 109.955 66.4584 109.822 66.5474C109.688 66.6365 109.62 66.7777 109.62 66.9743Z" fill="white"/>
<path d="M121.843 62.8442H123.482L121.29 68.5495H119.469L117.277 62.8442H118.972L120.39 67.352L121.843 62.8442Z" fill="white"/>
<path d="M125.94 62.8443V68.5496H124.36V62.8443H125.94ZM125.189 60.0837H126.713L125.558 62.0244H124.394L125.189 60.0837Z" fill="white"/>
<path d="M130.23 62.7307C130.999 62.7307 131.595 62.8935 132.024 63.222C132.452 63.5506 132.734 63.9436 132.871 64.4104L131.394 64.9355C131.238 64.2446 130.86 63.8976 130.251 63.8976C129.814 63.8976 129.472 64.0511 129.23 64.3551C128.988 64.6591 128.867 65.1136 128.867 65.7123C128.867 66.3111 128.991 66.7717 129.243 67.0634C129.491 67.3551 129.832 67.5025 130.264 67.5025C130.934 67.5025 131.331 67.1648 131.465 66.4861L132.896 66.9437C132.765 67.4534 132.474 67.8679 132.024 68.1873C131.574 68.5066 130.99 68.6663 130.276 68.6663C129.677 68.6663 129.153 68.5496 128.703 68.3132C128.252 68.0767 127.905 67.739 127.66 67.2968C127.414 66.8546 127.29 66.3234 127.29 65.7001C127.29 65.0767 127.414 64.5455 127.666 64.1033C127.914 63.6611 128.262 63.3234 128.703 63.0869C129.143 62.8505 129.655 62.7338 130.23 62.7338V62.7307Z" fill="white"/>
<path d="M138.002 62.8442V64.008H136.155V66.6887C136.155 66.962 136.226 67.1616 136.369 67.2875C136.512 67.4134 136.704 67.4748 136.953 67.4748C137.151 67.4748 137.325 67.4472 137.465 67.3888C137.604 67.3305 137.735 67.2537 137.853 67.1555L138.107 68.1933C137.915 68.3377 137.682 68.4513 137.409 68.5373C137.136 68.6202 136.847 68.6632 136.537 68.6632C135.959 68.6632 135.488 68.5311 135.124 68.2701C134.761 68.0091 134.578 67.5639 134.578 66.9405V64.008H133.517V62.8442H134.578V61.5331L136.158 61.1001V62.8473H138.005L138.002 62.8442Z" fill="white"/>
<path d="M139.87 62.0213C139.215 62.0213 138.889 61.745 138.889 61.1892C138.889 60.6334 139.215 60.3447 139.87 60.3447C140.525 60.3447 140.851 60.6272 140.851 61.1892C140.851 61.7511 140.525 62.0213 139.87 62.0213ZM140.655 62.8442V68.5495H139.076V62.8442H140.655Z" fill="white"/>
<path d="M142.328 68.5495V62.8442H143.747L143.806 63.8698C143.998 63.4891 144.262 63.2035 144.597 63.0131C144.933 62.8227 145.302 62.7275 145.712 62.7275C146.121 62.7275 146.5 62.8197 146.835 63.007C147.17 63.1943 147.422 63.4768 147.59 63.8575C147.766 63.4768 148.04 63.1943 148.409 63.007C148.778 62.8197 149.16 62.7275 149.551 62.7275C149.942 62.7275 150.271 62.8043 150.585 62.9548C150.895 63.1083 151.143 63.3355 151.33 63.6395C151.513 63.9435 151.606 64.3304 151.606 64.8033V68.5465H150.026V65.1134C150.026 64.6958 149.933 64.398 149.744 64.223C149.554 64.0479 149.318 63.9619 149.033 63.9619C148.679 63.9619 148.378 64.0909 148.133 64.3427C147.887 64.5976 147.763 64.9753 147.763 65.4789V68.5495H146.183V65.1165C146.183 64.6989 146.09 64.4011 145.901 64.226C145.712 64.051 145.473 63.965 145.181 63.965C144.982 63.965 144.784 64.0172 144.588 64.1247C144.393 64.2322 144.231 64.398 144.104 64.6283C143.977 64.8555 143.915 65.1564 143.915 65.5311V68.5557H142.335L142.328 68.5495Z" fill="white"/>
<path d="M156.513 64.9077C156.513 64.5792 156.42 64.3243 156.231 64.1431C156.041 63.9619 155.793 63.8698 155.486 63.8698C155.2 63.8698 154.952 63.9435 154.735 64.0878C154.52 64.2322 154.362 64.4717 154.263 64.8064L152.913 64.3949C153.043 63.8913 153.329 63.4891 153.772 63.1851C154.213 62.8811 154.809 62.7275 155.554 62.7275C156.299 62.7275 156.917 62.9056 157.382 63.2588C157.848 63.6119 158.081 64.14 158.081 64.8402V67.1554C158.081 67.4441 158.22 67.5884 158.497 67.5884C158.627 67.5884 158.751 67.57 158.866 67.5301L158.773 68.5004C158.574 68.5987 158.323 68.6478 158.022 68.6478C157.69 68.6478 157.404 68.5802 157.162 68.442C156.92 68.3039 156.755 68.0981 156.671 67.8248C156.488 68.0981 156.224 68.3069 155.88 68.4482C155.539 68.5894 155.185 68.6601 154.825 68.6601C154.241 68.6601 153.776 68.528 153.434 68.267C153.093 68.006 152.922 67.6222 152.922 67.1217C152.922 66.6948 153.062 66.3479 153.338 66.0776C153.614 65.8074 154.011 65.6232 154.527 65.5249L156.51 65.1257V64.9077H156.513ZM154.508 66.9743C154.508 67.1647 154.579 67.309 154.722 67.4072C154.865 67.5055 155.036 67.5546 155.234 67.5546C155.458 67.5546 155.666 67.5208 155.858 67.4533C156.051 67.3857 156.209 67.2691 156.33 67.1063C156.454 66.9436 156.513 66.7225 156.513 66.4492V66.0961L155.303 66.3356C155.042 66.3878 154.843 66.4584 154.71 66.5474C154.576 66.6365 154.508 66.7777 154.508 66.9743Z" fill="white"/>
<path d="M162.153 68.6631C161.569 68.6631 161.035 68.5618 160.554 68.3561C160.073 68.1503 159.682 67.8617 159.384 67.4901L160.297 66.5782C160.48 66.8514 160.728 67.0756 161.035 67.2506C161.343 67.4257 161.709 67.5116 162.131 67.5116C162.432 67.5116 162.671 67.4686 162.851 67.3796C163.031 67.2905 163.121 67.1524 163.121 66.962C163.121 66.8392 163.078 66.7348 162.994 66.6488C162.91 66.5597 162.739 66.4922 162.488 66.4369L161.473 66.2312C160.803 66.093 160.328 65.8873 160.048 65.6078C159.766 65.3315 159.626 64.9722 159.626 64.53C159.626 64.2168 159.719 63.9251 159.909 63.6518C160.098 63.3785 160.381 63.1544 160.756 62.9855C161.132 62.8135 161.6 62.7275 162.162 62.7275C163.329 62.7275 164.17 63.0807 164.676 63.79L163.73 64.702C163.559 64.4348 163.339 64.2322 163.065 64.0909C162.792 63.9497 162.507 63.879 162.206 63.879C161.529 63.879 161.191 64.0664 161.191 64.4379C161.191 64.5607 161.243 64.6651 161.352 64.7511C161.461 64.8402 161.656 64.9139 161.942 64.9722L163.118 65.2117C163.686 65.3253 164.096 65.5188 164.341 65.789C164.586 66.0592 164.71 66.3847 164.71 66.7655C164.71 67.312 164.49 67.7665 164.046 68.1227C163.605 68.482 162.972 68.6601 162.15 68.6601L162.153 68.6631Z" fill="white"/>
</svg>
